<?xml version="1.0" encoding="iso-8859-1"?>
<!-- Generator: Adobe Illustrator 19.0.0, SVG Export Plug-In . SVG Version: 6.00 Build 0)  -->
<svg version="1.1" id="Layer_1" xmlns="http://www.w3.org/2000/svg" xmlns:xlink="http://www.w3.org/1999/xlink" x="0px" y="0px"
	 viewBox="0 0 512 512" style="enable-background:new 0 0 512 512;" xml:space="preserve">
<circle style="fill:#ECF0F1;" cx="256" cy="256" r="256"/>
<circle style="fill:#0F7986;" cx="256" cy="256" r="256"/>
<ellipse style="fill:#076673;" cx="256" cy="443.883" rx="120.525" ry="9.835"/>
<path style="fill:#21D0C3;" d="M198.809,169.102H313.19c10.486,0,18.985,8.499,18.985,18.985v236.69
	c0,10.486-8.499,18.985-18.985,18.985H198.809c-10.486,0-18.985-8.499-18.985-18.985v-236.69
	C179.824,177.601,188.324,169.102,198.809,169.102z"/>
<g>
	<path style="fill:#15BDB2;" d="M326.863,174.946v262.968c3.286-3.416,5.314-8.051,5.314-13.137V188.084
		C332.176,182.999,330.147,178.364,326.863,174.946z"/>
	<path style="fill:#15BDB2;" d="M302.115,148.423v21.063h-92.228v-21.063H302.115z"/>
</g>
<path style="fill:#FFFFFF;" d="M208.062,104.676h95.877c3.302,0,5.978,2.677,5.978,5.978v31.79c0,3.302-2.677,5.978-5.978,5.978
	h-95.877c-3.302,0-5.978-2.677-5.978-5.978v-31.79C202.083,107.352,204.76,104.676,208.062,104.676z"/>
<path style="fill:#DCE3DB;" d="M296.725,111.214h6.12v30.671h-6.12V111.214z M282.129,111.214h6.122v30.671h-6.122V111.214z
	 M267.533,111.214h6.122v30.671h-6.122V111.214z M252.94,111.214h6.12v30.671h-6.12V111.214z M238.344,111.214h6.122v30.671h-6.122
	V111.214z M223.751,111.214h6.118v30.671h-6.118V111.214z M209.155,111.214h6.12v30.671h-6.12V111.214z"/>
<rect x="229.512" y="240.51" style="fill:#FFFFFF;" width="102.669" height="113.828"/>
<circle style="fill:#FF5B62;" cx="294.515" cy="270.841" r="23.125"/>
<rect x="326.862" y="240.51" style="fill:#DCE3DB;" width="5.314" height="113.828"/>
<g>
	<path style="fill:#15BDB2;" d="M183.357,435.771h145.286c-3.451,4.827-9.1,7.988-15.451,7.988H198.809
		C192.456,443.76,186.809,440.598,183.357,435.771L183.357,435.771z"/>
	<rect x="229.502" y="354.338" style="fill:#15BDB2;" width="97.36" height="2.401"/>
</g>
<path style="fill:#DCE3DB;" d="M332.175,304.629h-79.334v3.562h79.334V304.629z M332.175,341.278h-55.551v3.562h55.551V341.278z
	 M332.175,329.062h-79.334v3.562h79.334V329.062z M332.175,316.845h-79.334v3.562h79.334V316.845z"/>
<path style="fill:#FEFEFE;" d="M290.543,256.228h7.935v10.644h10.644v7.935h-10.644v10.643h-7.935v-10.643h-10.643v-7.935h10.643
	V256.228z"/>
<g>
</g>
<g>
</g>
<g>
</g>
<g>
</g>
<g>
</g>
<g>
</g>
<g>
</g>
<g>
</g>
<g>
</g>
<g>
</g>
<g>
</g>
<g>
</g>
<g>
</g>
<g>
</g>
<g>
</g>
</svg>
