<?xml version="1.0" encoding="iso-8859-1"?>
<!-- Generator: Adobe Illustrator 19.0.0, SVG Export Plug-In . SVG Version: 6.00 Build 0)  -->
<svg version="1.1" id="Layer_1" xmlns="http://www.w3.org/2000/svg" xmlns:xlink="http://www.w3.org/1999/xlink" x="0px" y="0px"
	 viewBox="0 0 511.999 511.999" style="enable-background:new 0 0 511.999 511.999;" xml:space="preserve">
<circle style="fill:#ECF0F1;" cx="256" cy="255.999" r="255.999"/>
<circle style="fill:#0F7986;" cx="256" cy="255.999" r="255.999"/>
<path style="fill:#21D0C3;" d="M82.641,56.122V444.35c45.601,41.995,106.478,67.65,173.356,67.65s127.756-25.656,173.356-67.649
	V56.122c0-20.178-16.51-36.688-36.688-36.688H119.329C99.151,19.434,82.641,35.943,82.641,56.122z"/>
<path style="fill:#15BDB2;" d="M122.353,112.349c0,30.511,24.735,55.246,55.246,55.246s55.246-24.735,55.246-55.246
	s-24.735-55.246-55.246-55.246S122.353,81.838,122.353,112.349z"/>
<path style="fill:#DCE3E8;" d="M120.921,108.307c0,29.39,23.824,53.216,53.216,53.216s53.216-23.824,53.216-53.216
	s-23.824-53.216-53.216-53.216S120.921,78.915,120.921,108.307z"/>
<path style="fill:#EEF3F7;" d="M119.558,106.843c0,28.9,23.426,52.326,52.326,52.326s52.326-23.426,52.326-52.326
	s-23.426-52.326-52.326-52.326S119.558,77.942,119.558,106.843z"/>
<path style="fill:#FEFEFE;" d="M123.757,106.843c0,26.579,21.548,48.127,48.127,48.127s48.127-21.548,48.127-48.127
	s-21.546-48.127-48.127-48.127C145.305,58.716,123.757,80.261,123.757,106.843z"/>
<path style="fill:#DCE3E8;" d="M124.347,101.238l-4.74,5.605h104.545l-4.748-5.605H124.35H124.347z"/>
<path style="fill:#EEF3F7;" d="M124.347,112.451l-4.74-5.605h104.545l-4.748,5.605H124.35H124.347z"/>
<path style="fill:#15BDB2;" d="M122.353,264.907c0,30.511,24.735,55.246,55.246,55.246s55.246-24.735,55.246-55.246
	s-24.735-55.246-55.246-55.246S122.353,234.397,122.353,264.907z"/>
<path style="fill:#DCE3E8;" d="M120.921,260.866c0,29.39,23.824,53.218,53.216,53.218s53.216-23.827,53.216-53.218
	c0-29.388-23.824-53.216-53.216-53.216S120.921,231.478,120.921,260.866z"/>
<path style="fill:#EEF3F7;" d="M119.558,259.405c0,28.897,23.426,52.326,52.326,52.326s52.326-23.429,52.326-52.327
	c0-28.9-23.426-52.328-52.326-52.328S119.558,230.504,119.558,259.405z"/>
<path style="fill:#FEFEFE;" d="M123.757,259.405c0,26.579,21.548,48.125,48.127,48.125s48.127-21.546,48.127-48.125
	c0-26.582-21.546-48.127-48.127-48.127C145.305,211.278,123.757,232.823,123.757,259.405z"/>
<path style="fill:#DCE3E8;" d="M124.347,253.797l-4.74,5.608h104.545l-4.748-5.608H124.35L124.347,253.797L124.347,253.797z"/>
<path style="fill:#EEF3F7;" d="M124.347,265.01l-4.74-5.605h104.545l-4.748,5.605H124.35H124.347z"/>
<path style="fill:#15BDB2;" d="M281.956,112.349c0,30.511,24.735,55.246,55.243,55.246c30.511,0,55.246-24.735,55.246-55.246
	s-24.735-55.246-55.246-55.246C306.687,57.103,281.956,81.838,281.956,112.349z"/>
<path style="fill:#DCE3E8;" d="M280.52,108.307c0,29.39,23.824,53.216,53.216,53.216c29.39,0,53.216-23.824,53.216-53.216
	s-23.824-53.216-53.216-53.216C304.346,55.091,280.52,78.915,280.52,108.307z"/>
<path style="fill:#EEF3F7;" d="M279.157,106.843c0,28.9,23.429,52.326,52.328,52.326c28.897,0,52.326-23.426,52.326-52.326
	s-23.429-52.326-52.327-52.326C302.585,54.516,279.157,77.942,279.157,106.843z"/>
<path style="fill:#FEFEFE;" d="M283.356,106.843c0,26.579,21.546,48.127,48.127,48.127c26.579,0,48.125-21.548,48.125-48.127
	s-21.546-48.127-48.125-48.127C304.902,58.716,283.356,80.261,283.356,106.843z"/>
<path style="fill:#DCE3E8;" d="M283.949,101.238l-4.74,5.605h104.542l-4.748-5.605H283.949z"/>
<path style="fill:#EEF3F7;" d="M283.949,112.451l-4.74-5.605h104.542l-4.748,5.605H283.949z"/>
<path style="fill:#15BDB2;" d="M281.956,264.907c0,30.511,24.735,55.246,55.243,55.246c30.511,0,55.246-24.735,55.246-55.246
	s-24.735-55.246-55.246-55.246C306.687,209.661,281.956,234.397,281.956,264.907z"/>
<path style="fill:#DCE3E8;" d="M280.52,260.866c0,29.39,23.824,53.218,53.216,53.218c29.39,0,53.216-23.827,53.216-53.218
	c0-29.388-23.824-53.216-53.216-53.216C304.346,207.65,280.52,231.478,280.52,260.866z"/>
<path style="fill:#EEF3F7;" d="M279.157,259.405c0,28.897,23.429,52.326,52.328,52.326c28.897,0,52.326-23.429,52.326-52.327
	c0-28.9-23.429-52.328-52.327-52.328C302.585,207.075,279.157,230.504,279.157,259.405z"/>
<path style="fill:#FEFEFE;" d="M283.356,259.405c0,26.579,21.546,48.125,48.127,48.125c26.579,0,48.125-21.546,48.125-48.125
	c0-26.582-21.546-48.127-48.125-48.127C304.902,211.278,283.356,232.823,283.356,259.405z"/>
<path style="fill:#DCE3E8;" d="M283.949,253.797l-4.74,5.608h104.542l-4.748-5.608L283.949,253.797L283.949,253.797z"/>
<path style="fill:#EEF3F7;" d="M283.949,265.01l-4.74-5.605h104.542l-4.748,5.605H283.949z"/>
<path style="fill:#15BDB2;" d="M122.353,427.463c0,30.511,24.735,55.246,55.246,55.246s55.246-24.735,55.246-55.246
	c0-30.511-24.735-55.246-55.246-55.246S122.353,396.952,122.353,427.463z"/>
<path style="fill:#DCE3E8;" d="M120.921,423.421c0,29.39,23.824,53.218,53.216,53.218s53.216-23.827,53.216-53.218
	c0-29.39-23.824-53.216-53.216-53.216S120.921,394.033,120.921,423.421z"/>
<path style="fill:#EEF3F7;" d="M119.558,421.957c0,28.897,23.426,52.327,52.326,52.327s52.326-23.429,52.326-52.327
	c0-28.9-23.426-52.327-52.326-52.327S119.558,393.057,119.558,421.957z"/>
<path style="fill:#FEFEFE;" d="M123.757,421.957c0,26.579,21.548,48.127,48.127,48.127s48.127-21.546,48.127-48.127
	c0-26.579-21.546-48.127-48.127-48.127C145.305,373.831,123.757,395.375,123.757,421.957z"/>
<path style="fill:#DCE3E8;" d="M124.347,416.351l-4.74,5.608h104.545l-4.748-5.608H124.35H124.347z"/>
<path style="fill:#EEF3F7;" d="M124.347,427.565l-4.74-5.605h104.545l-4.748,5.605H124.35H124.347z"/>
<path style="fill:#15BDB2;" d="M281.956,427.463c0,30.511,24.735,55.246,55.243,55.246c30.511,0,55.246-24.735,55.246-55.246
	c0-30.511-24.735-55.246-55.246-55.246C306.687,372.217,281.956,396.952,281.956,427.463z"/>
<path style="fill:#DCE3E8;" d="M280.52,423.421c0,29.39,23.824,53.218,53.216,53.218c29.39,0,53.216-23.827,53.216-53.218
	c0-29.39-23.824-53.216-53.216-53.216C304.346,370.206,280.52,394.033,280.52,423.421z"/>
<path style="fill:#EEF3F7;" d="M279.157,421.957c0,28.897,23.429,52.327,52.328,52.327c28.897,0,52.326-23.429,52.326-52.327
	c0-28.9-23.429-52.327-52.327-52.327C302.585,369.631,279.157,393.057,279.157,421.957z"/>
<path style="fill:#FEFEFE;" d="M283.356,421.957c0,26.579,21.546,48.127,48.127,48.127c26.579,0,48.125-21.546,48.125-48.127
	c0-26.579-21.546-48.127-48.125-48.127C304.902,373.831,283.356,395.375,283.356,421.957z"/>
<path style="fill:#DCE3E8;" d="M283.949,416.351l-4.74,5.608h104.542l-4.748-5.608H283.949z"/>
<path style="fill:#EEF3F7;" d="M283.949,427.565l-4.74-5.605h104.542l-4.748,5.605H283.949z"/>
<g>
</g>
<g>
</g>
<g>
</g>
<g>
</g>
<g>
</g>
<g>
</g>
<g>
</g>
<g>
</g>
<g>
</g>
<g>
</g>
<g>
</g>
<g>
</g>
<g>
</g>
<g>
</g>
<g>
</g>
</svg>
