<?xml version="1.0" encoding="iso-8859-1"?>
<!-- Generator: Adobe Illustrator 19.0.0, SVG Export Plug-In . SVG Version: 6.00 Build 0)  -->
<svg version="1.1" id="Layer_1" xmlns="http://www.w3.org/2000/svg" xmlns:xlink="http://www.w3.org/1999/xlink" x="0px" y="0px"
	 viewBox="0 0 512 512" style="enable-background:new 0 0 512 512;" xml:space="preserve">
<circle style="fill:#FAD24D;" cx="256" cy="256" r="256"/>
<path style="fill:#0F7986;" d="M227.68,42.987h57.067c1.459,0,2.642,1.183,2.642,2.642v28.63c0,1.459-1.183,2.642-2.642,2.642
	H227.68c-1.459,0-2.642-1.183-2.642-2.642v-28.63C225.039,44.17,226.221,42.987,227.68,42.987z"/>
<rect x="189.44" y="165.796" style="fill:#FFFFFF;" width="133.12" height="105.534"/>
<rect x="189.44" y="277.638" style="fill:#21D0C3;" width="133.12" height="31.702"/>
<rect x="192.604" y="271.32" style="fill:#15BDB2;" width="126.782" height="6.32"/>
<rect x="189.44" y="315.663" style="fill:#21D0C3;" width="133.12" height="31.702"/>
<rect x="192.604" y="309.346" style="fill:#15BDB2;" width="126.782" height="6.32"/>
<rect x="189.44" y="353.679" style="fill:#21D0C3;" width="133.12" height="31.702"/>
<rect x="192.604" y="347.362" style="fill:#15BDB2;" width="126.782" height="6.32"/>
<rect x="189.44" y="391.705" style="fill:#21D0C3;" width="133.12" height="31.702"/>
<rect x="192.604" y="385.387" style="fill:#15BDB2;" width="126.782" height="6.32"/>
<path style="fill:#21D0C3;" d="M189.438,429.727h133.124v19.644c0,10.805-8.839,19.643-19.643,19.643h-93.839
	c-10.805,0-19.643-8.839-19.643-19.643L189.438,429.727L189.438,429.727z"/>
<g>
	<path style="fill:#15BDB2;" d="M316.452,463.578c-3.528,3.364-8.3,5.436-13.531,5.436h-93.84c-5.232,0-10.002-2.072-13.531-5.436
		H316.452z"/>
	<rect x="192.604" y="423.403" style="fill:#15BDB2;" width="126.782" height="6.32"/>
</g>
<path style="fill:#21D0C3;" d="M189.438,165.791h133.124v-35.49c0-22.244-18.198-40.442-40.442-40.442h-52.24
	c-22.243,0-40.442,18.198-40.442,40.442L189.438,165.791L189.438,165.791z"/>
<rect x="230.34" y="76.9" style="fill:#15BDB2;" width="51.754" height="12.959"/>
<path style="fill:#21D0C3;" d="M229.6,83.753h53.228c2.787,0,2.787-4.213,0-4.213H229.6C226.813,79.541,226.813,83.753,229.6,83.753
	z"/>
<path style="fill:#FFFFFF;" d="M319.838,115.749c-18.782,11.919-35.6-0.95-68.38,4.45c-26.634,4.388-50.962,8.991-60.71-0.086
	c4.546-17.354,20.407-30.253,39.134-30.253h52.241C299.242,89.859,313.963,100.64,319.838,115.749L319.838,115.749z"/>
<path style="fill:#21D0C3;" d="M229.328,241.674l-1.415,13.195h-5.341l-2.76-24.762h3.785l2.088,19.526l1.874-19.526h3.75
	l1.946,19.668l2.017-19.668h3.396l-2.759,24.762h-5.167L229.328,241.674z M252.676,254.869h-3.927l-0.672-4.492h-4.775l-0.672,4.492
	h-3.573l3.962-24.762h5.696L252.676,254.869z M243.798,247.015h3.75l-1.876-12.524L243.798,247.015z M253.349,230.107h12.027v3.536
	h-4.069v21.226h-3.889v-21.225h-4.068L253.349,230.107L253.349,230.107z M270.965,240.542h5.343v3.537h-5.343v7.252h6.721v3.537
	h-10.612v-24.762h10.612v3.536h-6.721V240.542z M288.227,254.869c-0.047-0.165-0.094-0.319-0.142-0.46
	c-0.047-0.143-0.089-0.319-0.123-0.532c-0.037-0.213-0.06-0.483-0.072-0.813c-0.011-0.33-0.017-0.744-0.017-1.238v-3.891
	c0-1.157-0.201-1.97-0.603-2.441c-0.401-0.471-1.049-0.708-1.946-0.708h-1.343v10.082h-3.891v-24.762h5.872
	c2.029,0,3.497,0.471,4.405,1.414c0.907,0.943,1.362,2.37,1.362,4.28v1.946c0,2.546-0.85,4.221-2.547,5.024
	c0.99,0.399,1.668,1.055,2.033,1.961c0.365,0.909,0.548,2.011,0.548,3.309v3.82c0,0.614,0.024,1.151,0.071,1.61
	c0.047,0.461,0.167,0.926,0.354,1.398L288.227,254.869L288.227,254.869z M283.982,233.644v7.605h1.521
	c0.732,0,1.303-0.189,1.717-0.566c0.412-0.377,0.619-1.061,0.619-2.052v-2.44c0-0.896-0.158-1.544-0.477-1.945
	c-0.318-0.402-0.82-0.603-1.504-0.603h-1.875V233.644z"/>
<g>
	<rect x="319.696" y="165.796" style="fill:#DCE3DB;" width="2.867" height="105.534"/>
	<rect x="189.44" y="165.796" style="fill:#DCE3DB;" width="2.867" height="105.534"/>
</g>
<g>
	<circle style="fill:#21D0C3;" cx="256" cy="204.161" r="19.464"/>
	<rect x="189.44" y="261.699" style="fill:#21D0C3;" width="133.12" height="2.953"/>
	<rect x="189.44" y="172.463" style="fill:#21D0C3;" width="133.12" height="2.953"/>
</g>
<path style="fill:#076673;" d="M233.019,47.355v25.181c0,1.866-3.223,1.866-3.223,0V47.355
	C229.796,45.488,233.019,45.488,233.019,47.355z M282.63,47.355v25.181c0,1.866-3.223,1.866-3.223,0V47.355
	C279.407,45.488,282.63,45.488,282.63,47.355z M272.708,47.355v25.181c0,1.866-3.223,1.866-3.223,0V47.355
	C269.486,45.488,272.708,45.488,272.708,47.355z M262.785,47.355v25.181c0,1.866-3.223,1.866-3.223,0V47.355
	C259.562,45.488,262.785,45.488,262.785,47.355z M252.863,47.355v25.181c0,1.866-3.223,1.866-3.223,0V47.355
	C249.64,45.488,252.863,45.488,252.863,47.355z M242.941,47.355v25.181c0,1.866-3.222,1.866-3.222,0V47.355
	C239.72,45.488,242.941,45.488,242.941,47.355z"/>
<g>
</g>
<g>
</g>
<g>
</g>
<g>
</g>
<g>
</g>
<g>
</g>
<g>
</g>
<g>
</g>
<g>
</g>
<g>
</g>
<g>
</g>
<g>
</g>
<g>
</g>
<g>
</g>
<g>
</g>
</svg>
