<?xml version="1.0" encoding="iso-8859-1"?>
<!-- Generator: Adobe Illustrator 19.0.0, SVG Export Plug-In . SVG Version: 6.00 Build 0)  -->
<svg version="1.1" id="Layer_1" xmlns="http://www.w3.org/2000/svg" xmlns:xlink="http://www.w3.org/1999/xlink" x="0px" y="0px"
	 viewBox="0 0 512 512" style="enable-background:new 0 0 512 512;" xml:space="preserve">
<circle style="fill:#0F7986;" cx="256" cy="255.999" r="255.999"/>
<g>
	<path style="fill:#FED298;" d="M317.222,113.363l11.279-10.462c4.369-2.157,9.644,3.723,9.219,7.011l-8.319,14.161
		c-1.321,2.254-12.664-5.298-12.184-10.715L317.222,113.363z"/>
	<path style="fill:#FED298;" d="M249.765,219.922c-17.464-34.044-23.052-67.35-1.483-99.049l41.315-39.393l-13.593-23.533
		l-42.16,15.357L225.6,26.885c-3.626-6.42-27.888-5.145-29.879,6.333c0,0,0.439,38.567-0.457,54.709
		c-0.891,16.138-55.319,48.801-23.472,139.034c12.771,54.358,77.969-7.03,77.969-7.03L249.765,219.922z"/>
</g>
<g>
	<path style="fill:#E8B57F;" d="M272.282,61.073c3.598-5.085,10.697-5.034,15.861,0.116c5.164,5.15,6.429,13.446,2.831,18.535
		c-3.598,5.085-10.702,5.034-15.861-0.116s-6.424-13.446-2.826-18.531L272.282,61.073z"/>
	<path style="fill:#E8B57F;" d="M351.083,196.657c5.413-27.514-12.443-101.095-80.541-97.469
		c-68.099,3.63-74.445,82.283-74.445,82.283l38.027,14.466c0,0,13.205-37.929,43.873-39.735
		c30.673-1.801,21.644,24.757,21.644,24.757L351.083,196.657z"/>
</g>
<path style="fill:#FED298;" d="M284.378,101.455l9.302-15.357c2.758-4.023,12.9,0.25,12.549,4.263l-4.176,17.643
	c-0.619,2.624-16.84-1.275-17.671-6.545L284.378,101.455z"/>
<path style="fill:#FF5B62;" d="M324.428,180.704C398.8,199.295,443.26,325.41,427.094,417.568
	c-16.165,92.158-84.884,112.365-145.514,80.029s-151.976-63.056-158.446-143.084C111.896,215.469,182.779,145.297,324.428,180.704z"
	/>
<path style="fill:#ED4C54;" d="M423.652,316.856c7.404,33.772,8.965,69.222,3.441,100.707
	c-16.165,92.154-84.884,112.365-145.514,80.029s-151.976-63.051-158.442-143.084c-2.42-29.994-1.016-56.783,4.088-79.996
	c20.087-24.082,38.617-37.578,38.617-37.578c-75.978,98.255-6.974,188.662,79.697,229.977
	c33.712,16.074,74.113,33.329,105.853,28.479C422.382,484.54,422.826,397.887,423.652,316.856z"/>
<g>
	<path style="fill:#FF878E;" d="M338.168,192.579c0,0,21.763-34.031,55.883-17.958s16.545,85.937,10.947,88.953
		c-5.593,3.016,2.032-11.607-18.798-31.685c-20.835-20.073-57.988-16.956-48.035-39.315L338.168,192.579z"/>
	<path style="fill:#FF878E;" d="M150.074,173.162c-81.401,20.715-75.133,116.406-57.152,160.022
		c17.986,43.62,38.059,42.187,37.892,40.996c-4.951-34.364-18.6-104.097,38.617-131.376c28.258-13.469,50.225-30.059,48.007-45.158
		C214.811,179.739,182.651,164.871,150.074,173.162z"/>
</g>
<path style="fill:#FED298;" d="M233.484,178.224l20.415-29.311c28.128-45.661,82.186-27.145,65.253,60.478
	C319.153,209.391,279.229,171.032,233.484,178.224z"/>
<path style="fill:#FF878E;" d="M227.443,191.715c0,0-1.381-15.51,16.253-16.863c17.635-1.353,71.767,11.288,78.754,25.126
	c6.988,13.838,29.777,22.955,32.23,29.242c2.452,6.286-17.75-14.503-53.023-16.632c-35.273-2.125-46.012-12.508-59.513-12.91
	c-13.501-0.402-27.131-2.762-14.701-7.967L227.443,191.715L227.443,191.715z"/>
<path style="fill:#FED298;" d="M303.676,106.31l8.022-12.743c3.825-3.654,13.625,1.496,11.492,5.413l-4.868,14.508
	C317.551,115.787,304.022,111.21,303.676,106.31z"/>
<g>
	<path style="fill:#FF878E;" d="M359.253,431.83c0.513,1.025,0.097,2.273-0.928,2.786c-1.025,0.513-2.273,0.097-2.786-0.928
		c-0.023-0.046-8.595-17.186-3.649-36.631c3.825-15.034,4.642-27.878,4.813-32.146c-4.725-1.58-8.873-3.746-12.341-6
		c-4.512-2.937-7.939-6.115-10.027-8.402c-5.164-0.961-12.096,28.318-15.427,44.003c-0.005,0.263-0.06,0.522-0.162,0.758
		c-0.988,4.697-1.631,8.036-1.76,8.725c-0.088,1.169-1.275,13.653-13.524,22.678c-11.224,8.268-12.466,48.687-12.471,48.798
		c-0.032,1.146-0.993,2.046-2.143,2.014c-1.146-0.037-2.046-0.993-2.014-2.143c0.005-0.12,1.293-42.544,14.161-52.025
		c11.251-8.291,11.833-19.685,11.838-19.717c0.009-0.116,0.028-0.222,0.051-0.328c0.079-0.406,0.411-2.143,0.961-4.772l-0.887,0.591
		l-0.111,0.079c-3.353,2.259-6.595,4.448-17.875,6.651c-14.295,2.795-15.094,10.175-15.094,10.194
		c-0.116,1.141-1.141,1.972-2.282,1.856c-1.141-0.116-1.972-1.141-1.856-2.282c0.005-0.028,1.132-10.479,18.434-13.866
		c10.448-2.042,13.348-3.995,16.341-6.013l0.12-0.074c1.284-0.863,2.6-1.742,4.397-2.633c3.266-14.526,9.838-39.818,17.025-45.407
		l-0.042-0.093l-0.042-0.083c-1.487-2.951-13.759-27.366-16.193-45.186c-9.219,1.884-6.429,23.2-6.42,23.26
		c0.143,1.136-0.661,2.18-1.801,2.323c-1.136,0.143-2.18-0.661-2.323-1.796c-0.009-0.074-3.408-26.017,10.157-27.962
		c-0.019-0.499-0.032-0.988-0.032-1.469c0-14.808,4.559-52.825,6.115-65.36c-1.543,1.234-3.343,2.199-5.445,2.707
		c-4.721,1.141-8.549,2.236-11.409,4.041c-2.688,1.695-4.614,4.12-5.797,8.018c-0.707,2.327-1.838,5.39-3.109,8.841
		c-3.737,10.119-8.748,23.718-6.771,27.052l0.005,0.009l0.009,0.014l0.023,0.042c2.153,3.63,6.508,15.044,7.57,31.038
		c0.665,9.962,0.074,21.763-3.09,34.664c-0.267,1.113-1.395,1.801-2.508,1.529c-1.113-0.267-1.801-1.395-1.533-2.508
		c3.044-12.429,3.617-23.8,2.974-33.408c-0.914-13.708-4.25-23.69-6.342-27.976c-22.29,4.914-13.094,35.514-13.066,35.606
		c0.323,1.104-0.309,2.259-1.408,2.582c-1.104,0.323-2.259-0.309-2.582-1.408c-0.028-0.102-10.393-34.539,15.579-40.705
		c-0.716-6.429,3.765-18.586,7.224-27.966c1.28-3.464,2.415-6.549,3.039-8.609c1.201-3.958,3.039-6.748,5.519-8.845
		c-2.809-4.346-7.704-6.813-13.126-8.101c-10.027-2.383-21.713-0.78-26.295,0.527c-8.115,2.318-17.149,1.658-17.172,1.658
		c-1.146-0.065-2.028-1.044-1.963-2.19c0.065-1.146,1.044-2.023,2.19-1.963c0.023,0,8.383,0.605,15.805-1.51
		c4.951-1.418,17.579-3.146,28.396-0.577c6.36,1.51,12.152,4.494,15.625,9.852c3.095-1.631,6.813-2.674,11.228-3.742
		c3.053-0.739,5.307-2.872,6.942-5.307c0.097-0.245,0.241-0.471,0.42-0.656c2.587-4.203,3.431-8.988,3.436-9.011
		c0.194-1.132,1.271-1.893,2.401-1.705c1.132,0.194,1.898,1.271,1.705,2.401c-0.005,0.023-0.947,5.326-3.94,10.272
		c0.009,0.295,0.032,0.693,0.074,1.141c0.018,0.097,0.028,0.199,0.032,0.295c0.185,1.547,0.661,3.547,1.884,4.129
		c1.995,0.951,6.078,6.508,10.66,12.882l0.028,0.042l0.028,0.042l0.005,0.009l0.956,1.33c4.716,6.572,9.857,13.727,13.112,16.831
		c5.589,5.326,10.082,2.157,10.092,2.153c0.956-0.638,2.254-0.378,2.891,0.577c0.638,0.956,0.378,2.254-0.577,2.891
		c-0.019,0.014-7.224,5.062-15.269-2.61c-3.178-3.025-7.764-9.275-12.175-15.404c-0.965,4.827-0.591,11.015,0.596,16.914
		c1.668,8.277,4.863,15.824,8.171,18.101c8.194,5.644,5.958,21.74,5.953,21.786c-0.143,1.136-1.183,1.944-2.323,1.796
		c-1.136-0.143-1.94-1.183-1.796-2.323c0.005-0.037,1.88-13.662-4.194-17.842c-4.171-2.872-8.022-11.478-9.88-20.705
		c-1.57-7.797-1.779-16.184,0.378-22.041c-3.977-5.524-7.39-10.161-8.447-10.665c-0.351-0.167-0.679-0.365-0.974-0.596
		c-1.788,14.609-5.714,48.285-5.714,61.961c0,16.821,14.554,45.767,16.156,48.959l0.046,0.088l0.065,0.12
		c0.13,0.258,0.457,0.716,0.965,1.321c0.18,0.148,0.332,0.323,0.457,0.522c1.728,1.926,4.923,4.914,9.4,7.829
		c3.51,2.282,7.769,4.461,12.655,5.939c0.097,0.023,0.194,0.051,0.291,0.088c0.402,0.12,0.808,0.236,1.22,0.341
		c16.752,4.443,24.927,38.192,24.95,38.285c0.277,1.113-0.402,2.245-1.515,2.522c-1.113,0.277-2.245-0.402-2.526-1.515
		c-0.023-0.083-7.27-29.879-20.881-34.923c-0.272,5.312-1.271,17.694-4.886,31.916c-4.568,17.967,3.303,33.708,3.326,33.749
		L359.253,431.83L359.253,431.83z"/>
	<path style="fill:#FF878E;" d="M202.289,314.893c0.891,0.406,1.293,1.459,0.887,2.36c-0.406,0.891-1.464,1.293-2.355,0.887
		c-0.042-0.019-15.011-6.813-22.221-22.442c-5.575-12.082-11.968-21.089-14.156-24.027c-4.004,1.501-7.935,2.296-11.464,2.67
		c-4.596,0.48-8.591,0.213-11.219-0.181c-3.963,2.153,7.233,25.407,13.492,37.656c0.139,0.18,0.241,0.378,0.3,0.591
		c1.875,3.667,3.257,6.236,3.538,6.762c0.573,0.826,6.526,9.792,3.238,22.415c-3.011,11.574,17.99,39.181,18.05,39.259
		c0.596,0.785,0.443,1.903-0.341,2.499c-0.78,0.596-1.903,0.443-2.499-0.341c-0.065-0.083-22.119-29.047-18.664-42.321
		c3.021-11.602-2.749-19.51-2.762-19.533c-0.056-0.083-0.102-0.162-0.143-0.25c-0.167-0.314-0.887-1.654-1.935-3.704l-0.272,0.873
		l-0.028,0.116c-1.011,3.316-1.995,6.526-8.323,14.082c-8.018,9.584-4.559,14.937-4.549,14.951c0.54,0.822,0.304,1.93-0.517,2.471
		c-0.826,0.54-1.93,0.309-2.471-0.517c-0.014-0.019-4.909-7.598,4.795-19.195c5.862-7.006,6.739-9.875,7.644-12.836l0.037-0.116
		c0.388-1.271,0.789-2.563,1.51-4.134c-5.672-11.45-14.951-31.851-13.186-39.458l-0.079-0.042l-0.074-0.032
		c-1.007-0.457-4.882-2.199-9.898-4.79c0.3-1.187,0.628-2.351,0.947-3.519c5.247,2.73,9.376,4.591,10.411,5.057l0.079,0.037
		l0.106,0.046c0.227,0.102,0.693,0.231,1.358,0.36c0.204,0,0.397,0.037,0.582,0.102c2.19,0.351,5.939,0.615,10.493,0.139
		c3.575-0.374,7.588-1.224,11.644-2.877c0.079-0.037,0.157-0.069,0.236-0.097c0.332-0.139,0.665-0.281,1.002-0.429
		c13.56-6.087,37.241,11.986,37.31,12.036c0.789,0.596,0.947,1.714,0.351,2.503c-0.591,0.789-1.714,0.947-2.503,0.355
		c-0.06-0.046-20.983-15.986-32.779-11.995c2.688,3.691,8.711,12.48,13.986,23.916c6.66,14.438,20.41,20.679,20.447,20.697v-0.007
		H202.289z"/>
</g>
<g>
</g>
<g>
</g>
<g>
</g>
<g>
</g>
<g>
</g>
<g>
</g>
<g>
</g>
<g>
</g>
<g>
</g>
<g>
</g>
<g>
</g>
<g>
</g>
<g>
</g>
<g>
</g>
<g>
</g>
</svg>
