<?xml version="1.0" encoding="iso-8859-1"?>
<!-- Generator: Adobe Illustrator 19.0.0, SVG Export Plug-In . SVG Version: 6.00 Build 0)  -->
<svg version="1.1" id="Layer_1" xmlns="http://www.w3.org/2000/svg" xmlns:xlink="http://www.w3.org/1999/xlink" x="0px" y="0px"
	 viewBox="0 0 512 512" style="enable-background:new 0 0 512 512;" xml:space="preserve">
<circle style="fill:#FF5B62;" cx="256" cy="256" r="256"/>
<path style="fill:#FED198;" d="M357.592,20.969c-3.514,29.428-5.213,54.893-1.814,61.942
	c20.486,42.508,37.884,92.064,42.115,130.856c9.57,87.739-5.402,169.77-19.917,267.361c-28.899,15.69-61.16,25.975-95.424,29.506
	c-9.479-70.534-4.262-156.777-12.182-223.374H256h-14.369c-7.922,66.596-2.703,152.839-12.182,223.374
	c-34.263-3.531-66.524-13.816-95.424-29.506c-14.516-97.59-29.487-179.622-19.917-267.361
	c4.231-38.791,21.629-88.347,42.115-130.856c3.398-7.05,1.7-32.514-1.814-61.942C185.554,7.488,219.9,0,255.999,0
	S326.445,7.488,357.592,20.969L357.592,20.969z"/>
<path style="fill:#FEFEFE;" d="M241.63,287.262c2.329-54.986-91.64-73.712-125.561-87.267l1.43-7.572
	c62.624,20.943,99.202,30.716,138.5,30.147c39.298,0.569,75.877-9.204,138.5-30.147l1.43,7.572
	c-33.921,13.555-127.89,32.281-125.561,87.267h-14.369H241.63z"/>
<ellipse style="fill:#F0B97D;" cx="256" cy="176.515" rx="5.926" ry="3.675"/>
<g>
</g>
<g>
</g>
<g>
</g>
<g>
</g>
<g>
</g>
<g>
</g>
<g>
</g>
<g>
</g>
<g>
</g>
<g>
</g>
<g>
</g>
<g>
</g>
<g>
</g>
<g>
</g>
<g>
</g>
</svg>
