<?xml version="1.0" encoding="iso-8859-1"?>
<!-- Generator: Adobe Illustrator 19.0.0, SVG Export Plug-In . SVG Version: 6.00 Build 0)  -->
<svg version="1.1" id="Layer_1" xmlns="http://www.w3.org/2000/svg" xmlns:xlink="http://www.w3.org/1999/xlink" x="0px" y="0px"
	 viewBox="0 0 512 512" style="enable-background:new 0 0 512 512;" xml:space="preserve">
<circle style="fill:#FAD24D;" cx="256" cy="256" r="256"/>
<path style="fill:#21D0C3;" d="M256.002,183.873c116.623,0,211.858,91.508,217.83,206.645C428.715,463.424,348.037,512,256.001,512
	S83.288,463.424,38.17,390.521C44.142,275.383,139.376,183.873,256.002,183.873z"/>
<ellipse style="fill:#15BDB2;" cx="104.217" cy="335.384" rx="15.178" ry="4.091"/>
<path style="fill:#FFFFFF;" d="M256.002,177.978c61.866,0,117.874,25.075,158.411,65.613c36.03,36.031,59.842,84.283,64.694,138.002
	c-5.167,9.158-10.877,17.966-17.094,26.379h-76.666c-0.637,25.905-5.141,51.732-13.509,76.372
	c-4.947,2.515-9.987,4.871-15.115,7.065c10.516-26.63,16.144-54.982,16.878-83.437H261.895v77.754
	c31.448,0.257,62.74,2.702,90.857,7.337c-7.854,3.21-15.904,6.037-24.124,8.467c-21.301-2.491-43.949-3.829-66.733-4.016v14.41
	c-1.96,0.045-3.924,0.074-5.894,0.074s-3.933-0.031-5.892-0.074v-14.406c-22.714,0.21-45.301,1.564-66.569,4.061
	c-8.223-2.422-16.274-5.25-24.133-8.451c28.108-4.641,59.341-7.107,90.702-7.397v-77.759H138.4
	c0.736,28.456,6.362,56.808,16.88,83.438c-5.128-2.195-10.168-4.551-15.115-7.066c-8.368-24.64-12.873-50.466-13.51-76.372H49.986
	c-6.216-8.413-11.925-17.22-17.091-26.376c4.851-53.723,28.663-101.974,64.695-138.005
	C138.128,203.053,194.136,177.978,256.002,177.978L256.002,177.978z M43.844,396.185h82.788c0.673-32.456,7.421-64.779,20.241-94.78
	c-25.697-5.027-48.177-12.008-64.882-20.949C58.937,313.403,45,353.197,43.844,396.185L43.844,396.185z M89.077,270.905
	c16.165,8.357,37.919,14.869,62.804,19.537c1.594-3.275,3.263-6.518,5.008-9.726c19.646-36.1,48.823-67.746,87.524-90.637
	c-53.998,2.905-102.633,25.989-138.489,61.846C99.942,257.908,94.313,264.245,89.077,270.905L89.077,270.905z M267.59,190.079
	c38.7,22.891,67.876,54.534,87.523,90.636c1.76,3.235,3.442,6.504,5.049,9.807c24.94-4.672,46.697-11.206,62.771-19.61
	c-5.239-6.662-10.868-13.003-16.852-18.988C370.223,216.069,321.589,192.985,267.59,190.079z M430.025,280.477
	c-16.612,8.985-39.094,15.992-64.855,21.022c12.795,29.974,19.529,62.263,20.201,94.687h82.788
	C467.001,353.208,453.071,313.42,430.025,280.477L430.025,280.477z M261.895,200.38v98.899c29.872-0.246,59.513-2.471,86.19-6.677
	c-1.062-2.104-2.157-4.195-3.287-6.27C326.188,252.134,298.552,222.137,261.895,200.38L261.895,200.38z M261.895,311.066v85.121
	h111.732c-0.686-31.749-7.465-63.347-20.33-92.546C325.039,308.332,293.547,310.806,261.895,311.066z M250.108,396.185v-85.125
	c-31.608-0.292-63.085-2.795-91.365-7.507c-12.891,29.224-19.68,60.854-20.368,92.632L250.108,396.185L250.108,396.185z
	 M250.108,299.274v-98.893c-36.657,21.756-64.293,51.755-82.904,85.954c-1.115,2.049-2.196,4.114-3.247,6.192
	C190.652,296.748,220.273,298.997,250.108,299.274z"/>
<path style="fill:#FF5B62;" d="M106.41,335.319h-4.392c-1.372-5.893-7.459-16.421-10.253-21.959L58.58,245.509
	c-15.161-30.324-29.408-60.296-44.419-90.294C-3.158,120.586-6.236,86.62,14.211,51.292C30.378,23.359,64.053,0.001,97.628,0.001
	c25.064,0,42.308,2.395,62.992,16.082c13.999,9.263,24.058,19.38,33.057,34.295c21.237,35.199,18.309,69.418,0.592,104.837
	C191.68,160.386,108.042,328.339,106.41,335.319z"/>
<circle style="fill:#21D0C3;" cx="104.297" cy="102.17" r="72.578"/>
<g>
	<path style="fill:#FEFEFE;" d="M140.829,143.702V57.051h-16.238v36.57H81.946v-36.57H65.582v86.652h16.364v-34.959h42.645v34.959
		L140.829,143.702L140.829,143.702z"/>
	<path style="fill:#FEFEFE;" d="M104.298,24.732c21.382,0,40.743,8.669,54.756,22.679c14.011,14.012,22.679,33.373,22.679,54.756
		s-8.667,40.742-22.679,54.754c-14.012,14.012-33.373,22.681-54.756,22.681s-40.743-8.669-54.754-22.681
		c-14.013-14.01-22.681-33.371-22.681-54.753s8.668-40.744,22.681-54.756S82.914,24.732,104.298,24.732z M154.885,51.579
		c-12.947-12.945-30.833-20.954-50.587-20.954s-37.641,8.009-50.586,20.954c-12.947,12.947-20.955,30.833-20.955,50.588
		s8.008,37.641,20.955,50.586c12.945,12.947,30.832,20.955,50.586,20.955s37.641-8.008,50.587-20.955
		c12.945-12.945,20.954-30.832,20.954-50.586S167.83,64.526,154.885,51.579z"/>
</g>
<g>
</g>
<g>
</g>
<g>
</g>
<g>
</g>
<g>
</g>
<g>
</g>
<g>
</g>
<g>
</g>
<g>
</g>
<g>
</g>
<g>
</g>
<g>
</g>
<g>
</g>
<g>
</g>
<g>
</g>
</svg>
