<?xml version="1.0" encoding="iso-8859-1"?>
<!-- Generator: Adobe Illustrator 19.0.0, SVG Export Plug-In . SVG Version: 6.00 Build 0)  -->
<svg version="1.1" id="Layer_1" xmlns="http://www.w3.org/2000/svg" xmlns:xlink="http://www.w3.org/1999/xlink" x="0px" y="0px"
	 viewBox="0 0 511.997 511.997" style="enable-background:new 0 0 511.997 511.997;" xml:space="preserve">
<circle style="fill:#FF5B62;" cx="255.999" cy="255.999" r="255.999"/>
<path style="fill:#FED298;" d="M191.815,245.967c0,0-1.194-54.579-36.387-57.562c-21.475,0-17.598,9.542-39.069,7.754
	c-21.475-1.788-89.476-14.615-85.3,71.875s96.256,85.3,126.678,58.16c0,0,31.906,47.721,132.118,36.389
	c100.21-11.334,134.208-47.721,125.859-100.808c-8.349-53.087-58.456-71.579-58.456-71.579s18.193,0.596,27.14-6.264
	c8.947-6.86,11.93-9.246,11.93-9.246s8.651,3.282,12.228-2.387c3.578-5.666,1.788-21.773-7.457-27.14
	c-9.246-5.369-16.7-28.635-21.771-28.635c1.642-3.284-4.753-6.225-7.454,2.088c0,0-1.642,5.967,1.34,14.767
	c0,0-2.832,10.14,0.596,20.281c0,0-6.71-3.876-22.668-2.832c-15.956,1.044-52.342,14.765-55.623,25.799
	c-3.282,11.035-4.029,24.756,15.059,41.755c0,0-24.755,0-35.791,9.246c-11.035,9.246-8.648,8.349-8.648,8.349
	s6.41-12.824,5.516-27.885c-0.894-15.061-5.519-35.491-5.519-35.491s-2.387-35.491-13.721-36.982c0,0-2.686-0.448-3.876,1.041
	c-5.692-3.04-8.15,1.17-8.574,1.716c-5.943-2.715-7.72,0.619-8.722,3.058c-3.696-1.663-6.369,1.162-6.786,4.1
	c0,0-4.659-1.044-6.225,1.118c-1.566,2.164-2.204,10.067-0.264,14.838c1.939,4.771,8.651,9.842,13.422,10.586
	c0,0-2.684,4.774-1.642,12.974c1.044,8.202-0.446,28.633,2.534,33.999c0,0-35.193,0.596-40.465,26.912L191.815,245.967
	L191.815,245.967z"/>
<g>
	<path style="fill:#F0BA7D;" d="M410.258,165.343c7.926,7.971,13.33,20.069,19.429,29.708c0,0,23.769-11.087,36.764-3.728
		c6.812,1.732,12.85-1.782,14.387,2.225c1.537,4.008-3.643,6.626-3.643,6.626s-1.975,7.255-11.216,9.939
		c-9.241,2.686-16.128,5.8-16.128,5.8c-7.924,10.393-22.437,23.969-29.593,11.424c-4.632-8.118-10.97-3.362-20.412-17.356
		c-1.028-1.527-3.177,8.357-4.939,7.347l-0.003-0.003c-16.997-19.507-37.65-27.13-37.65-27.13s18.193,0.596,27.14-6.264
		c8.947-6.86,11.93-9.246,11.93-9.246s8.651,3.282,12.228-2.387c1.028-1.626,1.611-4.113,1.705-6.958L410.258,165.343z"/>
	<path style="fill:#F0BA7D;" d="M230.548,209.943c-2.321-6.599-4.263-11.424-4.263-11.424s-7.675-33.178-18.613-32.859
		c0,0-2.605-0.013-3.504,1.577c-5.844-2.007-7.523,2.347-7.843,2.93c-6.033-1.661-7.2,1.763-7.777,4.221
		c-3.749-1.005-5.842,2.072-5.789,4.913c0,0-4.564-0.275-5.713,2.007c-1.149,2.282-0.546,9.852,2.014,14.064
		c2.563,4.215,9.676,7.981,14.301,7.958c0,0-1.809,4.92,0.43,12.511c1.189,4.029,2.227,11.424,3.483,18.164
		c11.458-14.549,35.004-14.954,35.004-14.954c-0.973-1.753-1.469-5.104-1.734-9.112L230.548,209.943z"/>
	<path style="fill:#F0BA7D;" d="M157.737,326.194c0,0,31.906,47.721,132.118,36.389c92.065-10.411,128.241-41.971,127.037-88.198
		c-10.161,91.438-193.095,104.789-259.155,51.813L157.737,326.194L157.737,326.194z"/>
	<path style="fill:#F0BA7D;" d="M196.817,234.598c-0.032,0.034-11.89,17.631-5.17,44.184
		C184.835,265.757,183.261,249.876,196.817,234.598z"/>
</g>
<g>
</g>
<g>
</g>
<g>
</g>
<g>
</g>
<g>
</g>
<g>
</g>
<g>
</g>
<g>
</g>
<g>
</g>
<g>
</g>
<g>
</g>
<g>
</g>
<g>
</g>
<g>
</g>
<g>
</g>
</svg>
