<?xml version="1.0" encoding="iso-8859-1"?>
<!-- Generator: Adobe Illustrator 19.0.0, SVG Export Plug-In . SVG Version: 6.00 Build 0)  -->
<svg version="1.1" id="Layer_1" xmlns="http://www.w3.org/2000/svg" xmlns:xlink="http://www.w3.org/1999/xlink" x="0px" y="0px"
	 viewBox="0 0 512 512" style="enable-background:new 0 0 512 512;" xml:space="preserve">
<circle style="fill:#FAD24D;" cx="256" cy="256" r="256"/>
<path style="fill:#15BDB2;" d="M256.001,77.707c98.47,0,178.293,79.823,178.293,178.293c0,98.467-79.823,178.293-178.293,178.293
	c-98.467,0-178.293-79.826-178.293-178.293C77.708,157.529,157.534,77.707,256.001,77.707z"/>
<path style="fill:#21D0C3;" d="M256.001,77.707c70.623,0,131.649,41.061,160.521,100.611c4.347,16.166,6.679,33.158,6.679,50.7
	c0,107.582-87.213,194.796-194.799,194.796c-16.01,0-31.563-1.946-46.45-5.588C120.447,390.104,77.709,328.045,77.709,256
	C77.709,157.528,157.534,77.707,256.001,77.707L256.001,77.707z"/>
<path style="fill:#EEF3F7;" d="M367.394,116.794c33.152,26.565,56.615,64.722,64.23,108.331c-0.536-0.828-1.086-1.909-1.639-3.516
	c-3.481,1.142-3.595,1.233-7.706,1.92l-0.181,0.25c-1.635,2.329,0.083,1.342-2.791,3.772c-3.423,2.879-5.652,6.81-9.472,9.139
	c-0.46,4.071,0.339,4.985-0.686,9.83c-0.402,1.784-2.397,6.583-4.74,6.219c-0.742-0.137-3.882-7.911-4.623-10.058
	c-1.257-3.658-2.684-6.355-3.595-10.558c-0.513-2.244-0.859-6.536-1.371-8.047c-2.454,0.364-2.343,1.925-4.685,0.278
	c-1.653-1.193-0.911-1.92-1.825-3.704c-1.939-1.828-3.938-3.657-5.933-5.486c-1.544-0.5-7.48,0.364-9.992,0.091
	c-4.51-0.414-4.904-0.137-7.59-3.749c-4.74,0.233-4.341,2.011-8.964-1.965c-3.027-2.561-2.454-6.674-6.849-4.345
	c-0.169,3.75,1.656,4.577,3.312,6.31c1.196,1.328,2.683,2.244,3.309,4.022c0.059,0.05,0.345,1.738,0.403,1.965
	c4.28,0.278,5.307-1.779,7.647-3.516c2.286,2.147,0.056,2.515,3.368,4.204c2.624,1.328,2.112,0.551,3.822,2.697
	c0.858,2.879-5.878,10.695-8.106,12.114c-1.711,1.096-2.624,0.455-4.165,1.733c-2.281,1.923,0.286,1.648-3.709,3.112
	c-4.28,1.556-8.509,4.845-13.015,5.118c-0.972-2.652-1.942-5.345-2.91-8.044c-2.857-9.188-2.741-5.621-5.655-10.377
	c-1.371-2.059-0.798-3.384-1.714-5.213c-0.63-1.369-1.596-1.965-2.454-3.653c-1.312-2.606-2.851-6.673-5.878-6.264
	c-0.63,2.057,2.798,9.003,3.652,10.696c0.858,1.692,2.226,2.423,2.628,4.849c0.568,3.333-0.116,2.921,1.711,5.158
	c3.826,4.617-0.17,3.8,5.767,8.321c4.449,3.384,3.309,4.389,5.195,8.917c2.911,0.818,11.586-3.061,13.07-1.919
	c1.77,3.152-2.052,8.178-3.023,10.923c-3.197,9.188-8.793,9.051-13.072,16.089c-2.337,3.8-3.425,4.299-5.593,8.872
	c-2.456,5.163,4.965,19.471,0.514,25.461c-0.971,1.368-4.11,2.193-8.048,6.355c-4.169,4.523,0.112,3.744-1.487,11.287
	c-1.255,1.739-2.794,1.829-4.338,3.066c-0.569,1.779-0.112,3.193-1.083,5.391c-1.029,2.651-1.198,1.233-2.685,3.384
	c-1.085,1.687-0.968,2.374-2.226,3.93c-1.085,1.419-1.656,1.824-2.681,2.743c-4.968,4.572-15.643,4.708-16.555,4.067
	c-2.515-2.148-0.799-2.697-1.426-5.714c-0.611-2.652-2.018-4.871-3.193-6.919l-0.12-0.214c-0.568-1.001-1.086-1.966-1.371-2.879
	c-2.056-6.491-1.309-11.424-4.906-18.006c-4.51-8.507,2.508-12.938,2.222-17.736c-0.113-1.279-0.568-2.056-0.685-3.066
	c-0.854-5.3-1.367-10.053-4.906-14.216c-3.882-4.522-3.37-2.924-2.114-10.372c1.597-8.548-2.055-6.356-7.19-6.582
	c-2.515-7.771-7.423-3.982-12.331-1.693c-3.082,1.414-4.224-0.41-7.709,0.091c-7.765,1.052-1.654,4.389-12.044-3.839
	c-4.338-3.43-1.427-1.693-3.995-5.987c-0.855-1.556-3.483-3.612-4.683-5.168c-3.936-4.935,0.745-9.917,0.06-15.586
	c-1.202-10.512-2.911-1.373,2.967-14.079c3.084-6.765,7.763-6.81,8.963-9.831c1.028-2.693,0.339-4.616,2.284-7.082
	c1.712-2.011,4.167-1.602,5.137-4.754c1.367-3.885-1.257-4.385-4.11-4.481c-1.197-4.065-1.197-3.061-0.286-6.81
	c0.515-2.102,0.057-3.112,0.515-5.214c1.141-5.254,10.103-0.04,12.674-2.193c1.197-2.238,1.369-4.431,0-6.582
	c-1.431-2.147-3.31-1.874-4.282-3.93c2.169-1.46,0.569-0.183,2.455-0.597c2.225-0.5,1.938-1.141,4.563-1.642
	c2.341-0.46,3.83-2.606,6.109-4.067c3.255-2.102,1.711-3.98,5.652-4.617c6.337-1.101,2.225-0.915,2.914-6.815
	c0.964-0.364,1.879-0.779,2.794-1.189c1.999,2.608-0.512,1.556,1.883,3.29c0.629-0.364,1.369-0.729,2.056-1.093
	c-0.343-2.838-1.654-2.288-2.512-5.805c-3.14,0.5-4.282,3.152-6.792,2.193c-2.455-0.915-2.569-4.435-2.455-7.361
	c0.911-2.193,5.479-3.38,7.247-3.931c2.858-0.959,2.456-2.879,5.084-5.486c3.426-3.43,0.911,0.046,2.569-4.386
	c3.769-0.141,1.999-0.275,4.224-1.418l0.113-0.045l0.229-0.092c1.315-0.597,3.027-0.732,4.741-1.323
	c6.277-2.101,8.845-1.05,13.411,0.819c3.539,1.464,14.216,1.51,15.015,5.991c-2.569,2.693-5.023,0.728-8.733,0.958
	c0.684,3.471,0.97,3.471,4.11,4.431c0.514-1.646-0.23-1,0.627-2.056c1.029,0.228,2.057,0.41,3.08,0.595
	c1.033-3.521,2.229-3.015,5.714-3.429c-0.573-2.424-1.203-1.738,0.111-3.658c3.6,0.367,0.686,0.05,2.455,2.929
	c2.511-0.321,4.967-3.112,8.448-3.475c2.17-0.229,2.058,0.595,5.137,0.273c2.513-0.273,2.397-1.189,4.913-0.137
	c0.91-1.693,0-1.648,2.226-2.057c3.422-0.595,6.393,1.506,9.701,1.966c-2.45-3.016-4.793-2.426-1.769-7.452
	c3.824-0.778,4.167-0.228,5.822,2.652C366.532,117.594,366.931,117.066,367.394,116.794L367.394,116.794z M81.878,217.55
	c8.033-36.544,27.27-68.885,53.932-93.236c2.071,0.721,4.811,0.244,6.869,0.159c0.738-1.368,1.198-2.561,2.508-3.061
	c0.515-0.182,1.145-0.227,1.998-0.182c0.115,0.682,0.286,1.368,0.457,2.056c0,0.051,0.116,0.504,0.06,0.415
	c0.056-0.097,0.112,0.272,0.168,0.409c3.601-2.102,0.573-2.148,2.513-5.941c-3.027-0.597-2.625-0.233-4.511-2.153
	c1.83-2.01,5.366-2.697,7.993-2.512c-0.174,1.829-1.027,1.785-0.342,3.335c2.056-1.279,3.481-4.705,6.792-4.067
	c0.629,0.455,1.374,0.868,2.056,1.278c-1.714,1.602-4.28,1.693-6.505,2.606c-0.972,9.923,3.139,1.602,1.769,8.412
	c2.454-0.182,4.855-1.965,5.764-3.794c-0.91-1.189-2.225-1.189-2.966-2.608c0.577-1.828,1.804-3.211,3.537-4.035
	c1.174-0.56,2.579-0.855,4.168-0.855c18.153,0.138,9.53,0.959,15.129,3.522c1.253,0.545,3.478,0.822,4.224,1.919
	c1.141,1.738,0.057,3.379,1.879,4.754c1.601,1.187,1.83-0.046,3.941,2.608c-0.455,1.505-1.543,3.06-3.765,3.107
	c-3.082,0.045-1.257-2.058-4.569-1.739c0.059,3.106,3.142,4.299,0.284,5.987c-2.511,1.51-0.915-0.546-2.796,0.504
	c-0.058,0.046-0.231,0.137-0.287,0.183c-0.112,0.09-0.227,0.227-0.285,0.318c-0.343,0.367-0.63,0.686-0.912,1.009
	c-4.566-1.238-3.707-0.686-6.449-3.703c-1.028-1.142-1.197-1.419-3.026-1.278c-1.141,0.04-2.624,0.541-3.713-0.461
	c2.231-2.788,3.314-0.09,6.566-1.738c0.573-0.277,4.168-3.061,4.741-3.703c-0.971-2.193-0.117-0.367-1.541-1.784
	c-3.201-3.243-4.115-2.424-8.449-2.424c-2.032,2.338-3.553,5.228-5.764,6.497c-1.335,0.769-2.924,0.942-5.026,0.045
	c0.971,3.93,3.478,0.915,3.709,5.668c-1.654-0.323-2.512-1.146-4.224-0.551c-3.653,1.369-0.399,1.233-0.113,1.966
	c0,0.045,1.712,0.227,0,0.867c-1.887,0.684-0.286-0.367-3.939-2.514c0.513-0.915,1.029-1.869,1.541-2.834
	c-2.968,0.915-6.68,2.378-10.158,4.067c-3.941,1.966-7.654,4.208-9.878,6.264c-0.058,3.431,0.571,1.142,0.913,5.215
	c5.31,0.317,3.595,1.913,8.906,3.424c1.027,0.278,2.341,0.551,3.94,0.824c0,2.56-2.286,4.48-0.689,7.133
	c3.711,2.602,3.826-2.469,4.74-5.714c12.564-2.625,6.51-6.32,9.757-13.229c0.487-1.033,1.178-2.133,2.176-3.321
	c0.966,0.045,4.904,0.46,5.763,0.641c2.855,0.501,1.314,1.187,4.396,2.557c-0.059,2.469-1.313,5.669,2.339,5.077
	c2.796-0.501,2.173-2.698,5.594-3.249c1.539,3.613,1.14,5.169,1.825,9.507c8.222,3.203,4.566,5.806,2.967,11.796
	c1.03,0.5,2.111,0.961,3.199,1.415c-0.056,1.738-0.116,3.429-0.172,5.122c-0.17,0-8.793-1.879-9.364-2.056
	c1.314-3.753,3.712-3.795,5.255-7.634c-3.081,0.546-2.857,1.505-5.082,2.193c-1.996,0.597-3.539,0.182-5.651,0.46
	c-0.743,2.466-0.058-2.153,0.174,1c0.113,1.193,0.686,0.051-0.117,1.328c-2.855-1.328-1.882-4.434-7.193-1.555
	c1.199,0.551,2.396,1.05,3.653,1.555c-0.17,3.516-0.455,0.865-1.197,3.199c-1.83,5.987,4.966,2.284,6.736,1.965
	c-0.46,3.157-2.398,3.157-5.141,4.022c-3.022,0.913-3.936,2.151-6.336,2.702c0-3.753-0.568-0.597,1.086-3.203
	c-2.4,0.227-4.169,1.323-6.45,2.288l-0.228,0.086c-2.934,1.197-3.378,1.374-3.712,5.122c-2.511,0.774-5.421,1.648-7.19,3.477
	c-1.77,1.687-3.54,3.378-5.256,5.025c-0.17,0.137-0.285,0.273-0.395,0.364c0.629,4.709,0,4.8-2.857,6.633
	c-2.398,1.551-3.198,1.506-5.422,3.471c-7.134,6.4-3.71,3.425-3.314,14.444c-1.483-0.455-2.91-0.959-4.278-1.46
	c-1.087-7.316,0.397-4.89-5.481-6.582c-6.336-1.829-5.481,1.277-8.106,1.828c-2.91,0.637-4.341-2.652-8.565,0.091
	c-2.338,1.597-4.564,2.649-5.136,5.482c-0.685,3.43-2.226,5.939-1.998,9.739c0.402,10.286,9.761,10.877,12.16,6.078
	c1.596-3.198,1.2-4.935,6.394-4.113c0.515,2.745-0.286,4.754-0.972,6.856c-0.455,1.233-1.713,3.471-1.083,5.168
	c3.712,1.506,3.824-1.328,8.735,1.597c0.343,4.89-2.226,10.376,1.541,13.21c2.91,2.148,3.082,0.228,5.65-0.228
	c2.857-0.5,2.343,1.279,4.971,1.692c1.483-1.828,0.854-0.685,1.827-2.929c1.712-3.879,2.168-2.056,6.222-4.429
	c0.396-0.228,0.738-0.46,1.141-0.732c0.456,0.958,0.97,1.873,1.424,2.788c2.969-3.521,3.313-0.092,6.738,0.868
	c1.475,0.404,2.522,0.551,3.331,0.559c2.491,0.038,2.745-1.173,6.143,0.033c0.402,0.187,0.916,0.323,1.374,0.458
	c0.058,0,0.227,0.092,0.227,0.183c0.06,0.046,0.229,0.182,0.285,0.231c0.568,0.638,0.63,1.279,1.086,1.966
	c2.342,2.238,4.683,4.48,6.964,6.673c4.507,1.783,4.507-1.555,9.647,3.425c2.168,2.057,1.197,2.016,2.397,4.663
	c0.174,0.414,0.513,0.822,0.743,1.328c0.455,1.233,0.97,2.42,1.485,3.607c2.338,3.067,5.535,1.147,8.789,4.301
	c1.882,1.827,0.46,1.277,4.623,2.01c6.452,1.05,3.943,0.458,8.853,4.162c1.881,1.369,2.337,0.592,4.108,1.779
	c2.454,3.43,1.824,7.134-0.227,10.149c-6.337,9.234-4.168,7.725-4.454,15.04c-0.23,4.204-1.427,12.888-5.369,13.938
	c-14.327,4.027-5.995,6.816-9.759,13.899c-1.086,2.014-1.886,2.515-2.572,4.115c-2.851,6.669-0.854,8.913-9.303,7.407
	c0.801,1.415,0.285,0.455,1.088,1.734c2.507,3.885,2.91,6.815-2.231,7.769c-4.28,0.824-2.454,0-2.853,4.754
	c-1.656,0.688-2.397,0-3.482,1.096c1.483,2.745,0.113,0.46,2.628,2.016c-0.46,1.506-0.801,2.97-1.201,4.431
	c-0.968,3.567-1.255,0.278-1.596,4.435c1.483,0.682,2.512,0.546,3.822,2.332c-0.17,1.369-1.539,5.117-1.939,7.266
	c2.112,3.157,3.827,6.537,8.336,6.861c-0.059,2.646,0.568,2.374-1.714,2.92c-1.941,0.458-6.049-1.369-7.767-2.284
	c-2.967-1.602-5.708-3.704-7.703-6.719c-1.141-1.693-0.685-0.868-1.886-2.466c-2.169-2.789-1.31-4.071-1.939-5.946
	c-0.343-1.095-2.112-2.284-1.371-5.849c0.172-1.005,1.771-5.805-0.169-4.981c-1.942,0.779,1.482,0.455-1.202,1.738
	c-0.63-1.738-1.141-4.298-1.484-6.445c-0.685-3.613-1.541-3.75-1.942-5.941c-0.855-5.077,1.314-5.627-1.085-14.086
	c-1.575-5.594-0.942-18.841-2.606-25.638c-0.265-1.082-0.591-2.001-0.989-2.703c-1.541-2.556-5.311-3.744-8.333-5.805
	c-0.172-0.04-0.286-0.091-0.342-0.182c-4.168-2.925-8.107-14.399-11.42-18.691c-1.539-2.062-2.511-1.147-3.197-4.39
	c-0.741-2.97,0.399-2.465,1.371-4.94c-5.079-9.322,6.566-9.185,4.168-20.384c-0.513-2.056-1.994-4.935-3.254-5.846
	c-2.398,1.05-1.257,1.642-2.514,3.653c-1.94-1.096-3.881-2.197-5.764-3.289c-5.881-5.669-2.742-1.556-4.394-5.26
	c-3.539-7.771-6.909-3.424-11.132-7.265c-1.887-1.601-2.229-4.116-5.367-3.658c-4.735,0.637-2.111,1.369-7.02-0.918
	c-4.168-1.966-8.506-4.25-11.419-6.902c-0.154-5.549,1.536-5.015-2.685-10.137L81.878,217.55z M137.771,122.559
	c1.08-0.957,2.172-1.901,3.275-2.832l0.09,0.181c0.226,0.364,0.398,0.364,0.63,1.323
	C138.873,121.935,138.876,122.414,137.771,122.559z M290.354,175.565c1.578,1.009,3.515,1.778,4.683,2.801
	c1.484,4.068-0.398,2.103,2.512,6.356c1.656,2.284,1.313,3.93,3.023,5.209c3.144-0.41,0.402,0.504,2.341-1.414
	c0.344-0.365,1.314-1.511,1.596-1.965c-1.024-1.556-1.653-1.693-2.564-3.295c3.535-4.703,5.079-2.01,5.933,1.101
	c2.229,8.639,5.651,6.122,8.509,5.71c2.909-0.41,0.395,0.094,3.022,0.778c2.512,0.641,1.31,0,3.081-0.455
	c5.993-1.465,1.373,10.148,0.745,11.427c-3.254,0.409-2.625-0.318-4.971-0.551c-4.737-0.5,0.286,2.838-10.9-0.824
	c-10.734-3.424-8.449-4.204-10.677,3.249c-2.454-0.182-2.337-0.642-4.62-1.414c-0.872-0.332-1.374-0.509-1.717-0.61l-0.113-0.037
	c-0.911-0.318,0-0.041-1.882-1.824c-1.658-1.556-5.709-1.92-8.566-3.43c0-2.466,2.169-4.522-0.456-7.45
	c-0.854-0.228-13.016,0.278-14.954,0.688c-3.937,0.822-4.627,4.158-10.049,3.429c-2.967-0.414-1.938-0.136-2.684-1.874
	c0.971-0.958,0-0.458,1.66-1.05c0.626-0.228,0.855-0.137,1.483-0.228c8.789-1.327,4.279-5.764,9.76-10.012
	c4.566-3.658,0.971,0.046,3.483-4.389c3.082-0.273,2.683,1.232,5.309-0.046c2.173-1.096,1.483-2.056,4.566-2.151
	c2.741,2.747,2.168,4.39,6.622,6.491c1.77,0.827,2.852,1.283,3.993,2.794c2.056,2.924,0.286,1.965,1.089,3.976
	c0.17-0.092,0.395-0.188,0.625-0.273l0.113-0.056c2.4-1.146-1.199-1.509,2.683-4.93c-1.138-0.822-1.966-1.401-2.683-1.81
	l-0.113-0.063c-3.023-1.78-1.825-0.138-5.708-4.981c-1.029-1.374-1.314-1.462-1.255-3.567c2.794-0.501,3.31,1.509,5.821,3.749
	c0.341,0.323,0.742,0.595,1.141,0.868L290.354,175.565L290.354,175.565z M351.321,298.631c-2.507,1.277-2.853,4.207-4.737,5.851
	c-2.056,1.874-4.797,1.01-5.596,4.48c-1.027,4.341,1.714,3.016-1.313,8.685c-1.082,2.101-1.141,7.356,0.516,8.915
	c4.965,4.796,7.65-7.314,8.79-11.108c0.854-2.697,1.656-5.76,2.569-8.275C352.466,304.48,353.775,302.105,351.321,298.631z
	 M343.103,171.096c0.398,5.583,3.707,7.73,6.053,10.286c-0.286,2.652-0.915,1.965-0.858,5.669c2.798,2.016,4.85,3.244,8.504,2.242
	c0.513-4.479-0.913-4.253-2.283-7.314c0.228-0.369,0.854-0.822,0.968-0.915c1.029-1.369,0.517,0.546,1.029-1.784
	c-2.682-0.864-7.022-3.611-7.362-7.219c1.31-1.05,0.911-0.414,1.879-1.05c2.112-1.374,0.516,0.727,1.77-1.602
	c-1.08-2.102-2.283-2.47-4.906-1.419C346.757,168.45,343.73,170.597,343.103,171.096z M319.753,172.562
	c-1.77-2.465-1.656-3.703-5.082-3.794c-1.367,1.464-2.967,3.658-3.709,5.894c-1.141,3.384-0.343,1.052-0.229,4.709
	c-0.058,0.137,0,0.321,0,0.46c-0.058,2.192-0.573-0.414-0.231,1.6c2.685-0.549,0.631-0.504,2.628-1.146
	c1.885-0.642,7.651-2.378,9.308-1.965c3.936,0.915,7.25,4.027,11.703,0.915c-0.231-3.976-5.026-5.486-8.336-7.224
	c0.172-3.654,1.141-0.774,0.911-4.296c-1.141-0.045-1.825-0.228-2.91,0.229c-2.567,1.141-1.142,1.464-1.142,1.873
	c0.116,1.965,2.57-0.409-0.056,2.016C321.866,172.471,320.666,172.471,319.753,172.562L319.753,172.562z M253.076,144.863
	c-0.109,6.399,2.112,4.249,4.225,7.405c-0.968,2.698-1.14,0.597-2.222,3.38c-0.971,2.332,0.228,0.233-0.403,4.299
	c1.658,0.091,4.109-0.501,6.281-0.688c3.085-0.273,3.027-0.551,4.112-3.703c-1.712-2.102-3.425-4.204-5.195-6.306
	c-2.231-3.385,0-1.056-0.685-3.89c-0.514-1.005-0.972-2.006-1.427-3.016C254.792,143.357,255.079,143.08,253.076,144.863
	L253.076,144.863z"/>
<path style="fill:#FFFFFF;" d="M192.868,65.612l14.889-6.352c6.329-2.7,13.185-2.565,19.129-0.176
	c5.943,2.388,10.986,7.038,13.685,13.366l37.634,88.225c14.203,33.295,1.475,63.913-22.472,85.121
	c-9.177,8.126-20.013,14.859-31.596,19.804c-11.583,4.943-23.935,8.111-36.144,9.107c-31.808,2.597-62.636-9.414-76.861-42.762
	l-37.633-88.226c-2.7-6.328-2.565-13.185-0.177-19.129l0.013-0.006c2.39-5.943,7.033-10.984,13.354-13.679l14.889-6.352l2.616,6.134
	l-14.888,6.352c-4.641,1.979-8.049,5.676-9.806,10.034l0.009,0.004c-1.754,4.361-1.854,9.39,0.124,14.025l37.634,88.225
	c12.906,30.258,41.068,41.139,70.17,38.763c11.499-0.939,23.151-3.93,34.094-8.6c10.944-4.672,21.167-11.021,29.811-18.676
	c21.916-19.411,33.614-47.319,20.73-77.524l-37.634-88.225c-1.978-4.635-5.677-8.042-10.038-9.797
	c-4.362-1.753-9.392-1.853-14.026,0.124l-14.889,6.352L192.868,65.612L192.868,65.612z"/>
<path style="fill:#FF5B62;" d="M274.503,146.327l5.749,13.477c14.642,34.325,1.569,65.846-23.054,87.654
	c-9.354,8.283-20.394,15.143-32.19,20.179c-11.797,5.036-24.382,8.261-36.828,9.278c-32.709,2.669-64.425-9.716-79.091-44.097
	l-5.749-13.478l10.223-4.36l5.749,13.477c12.468,29.227,39.739,39.731,67.941,37.43c11.262-0.919,22.681-3.852,33.411-8.432
	c10.729-4.579,20.749-10.802,29.215-18.299c21.24-18.809,32.593-45.818,20.15-74.991l-5.749-13.478L274.503,146.327L274.503,146.327
	z"/>
<circle style="fill:#FFFFFF;" cx="380.806" cy="265.232" r="30.778"/>
<circle style="fill:#076673;" cx="380.806" cy="265.232" r="27.849"/>
<circle style="fill:#EBECEC;" cx="380.806" cy="265.232" r="16.039"/>
<rect x="386.013" y="274.166" transform="matrix(0.9198 -0.3924 0.3924 0.9198 -81.532 176.2209)" style="fill:#FFFFFF;" width="8.598" height="26.781"/>
<path style="fill:#FF5B62;" d="M400.721,295.477l10.538,24.707c8.266,19.376,8.394,41.08,0.545,60.606
	c-7.849,19.528-22.961,35.103-42.338,43.368c-19.376,8.266-41.081,8.407-60.611,0.556c-19.53-7.85-35.098-22.973-43.365-42.35
	l-43.77-102.609l11.876-5.066l43.77,102.61c6.92,16.223,19.955,28.866,36.303,35.437c16.348,6.57,34.508,6.465,50.73-0.454
	c16.219-6.919,28.857-19.963,35.428-36.307c6.57-16.343,6.477-34.506-0.442-50.725l-10.539-24.707L400.721,295.477L400.721,295.477z
	"/>
<g>
	<path style="fill:#076673;" d="M88.962,108.405l7.961-3.397c0.409-3.172,2.44-6.052,5.594-7.398
		c4.739-2.02,10.219,0.183,12.24,4.921c2.022,4.738-0.182,10.219-4.92,12.24c-3.156,1.346-6.639,0.816-9.212-1.083l-7.961,3.396
		L88.962,108.405L88.962,108.405z"/>
	<path style="fill:#076673;" d="M198.391,61.726l-7.961,3.396c-2.573-1.9-6.057-2.428-9.212-1.082
		c-4.738,2.02-6.94,7.501-4.92,12.24c2.022,4.739,7.502,6.941,12.241,4.92c3.156-1.346,5.184-4.226,5.593-7.4l7.961-3.396
		L198.391,61.726L198.391,61.726z"/>
</g>
<path style="fill:#FF5B62;" d="M229.754,265.423l6.529,15.306l-12.067,5.148l-6.594-15.458c2.432-0.79,4.829-1.691,7.18-2.695
	C226.477,267.009,228.127,266.241,229.754,265.423L229.754,265.423z"/>
<g>
	<circle style="fill:#0F7986;" cx="103.548" cy="103.348" r="2.822"/>
	<circle style="fill:#0F7986;" cx="182.154" cy="69.818" r="2.822"/>
</g>
<circle style="fill:#FEFEFE;" cx="379.658" cy="264.773" r="15.164"/>
<g>
</g>
<g>
</g>
<g>
</g>
<g>
</g>
<g>
</g>
<g>
</g>
<g>
</g>
<g>
</g>
<g>
</g>
<g>
</g>
<g>
</g>
<g>
</g>
<g>
</g>
<g>
</g>
<g>
</g>
</svg>
