<?xml version="1.0" encoding="iso-8859-1"?>
<!-- Generator: Adobe Illustrator 19.0.0, SVG Export Plug-In . SVG Version: 6.00 Build 0)  -->
<svg version="1.1" id="Layer_1" xmlns="http://www.w3.org/2000/svg" xmlns:xlink="http://www.w3.org/1999/xlink" x="0px" y="0px"
	 viewBox="0 0 511.995 511.995" style="enable-background:new 0 0 511.995 511.995;" xml:space="preserve">
<circle style="fill:#FF5B62;" cx="255.998" cy="255.998" r="255.998"/>
<path style="fill:#FED298;" d="M242.41,0.362c-7.953,14.437-17.876,27.256-30.526,33.832
	c-49.549,25.755-54.039,60.591-11.224,76.107C1.722,244.861,74.977,421.99,206.688,421.993l5.816,86.307
	c14.138,2.421,28.667,3.696,43.495,3.696c68.775,0,131.209-27.127,177.204-71.256c-0.291-33.869-10.432-83.98-49.625-149.374
	c-14.825-58.8,11.085-161.943,31.069-236.282C371.029,20.594,315.92,0,255.998,0c-4.559,0-9.089,0.124-13.589,0.359L242.41,0.362z"
	/>
<g>
	<path style="fill:#F0BA7D;" d="M200.663,110.302c-3.213,2.175-6.351,4.359-9.424,6.557c38.18,5.737,54.849-22.115,54.849-22.115
		c-17.154,14.815-45.428,15.559-45.428,15.559L200.663,110.302z"/>
	<ellipse style="fill:#F0BA7D;" cx="184.438" cy="291.558" rx="91.48" ry="108.637"/>
</g>
<path style="fill:#FED298;" d="M183.293,322.71c0,0,17.396-15.41,28.507-5.278c6.211,6.707,2.109,8.257,8.877,14.448
	c6.768,6.193,30.442,23.727,2.212,47.434c-28.229,23.706-54.485-5.406-54.802-22.757c0,0-24.135,3.832-49.575-30.752
	c-25.438-34.584-23.903-55.728-4.902-68.471c19.001-12.743,39.266-2.437,39.266-2.437s-5.448-5.511-5.893-10.29
	c-0.443-4.779-0.561-6.4-0.561-6.4c-6.02-5.964,3.174-12.834,7.846-10.027c3.9,2.342,11.169-5.107,15.242-1.479
	c0.551-1.463,3.318-0.314,1.503,2.935c0,0-1.39,2.238-5.002,3.85c0,0-0.855,3.428-5.015,5.288
	c5.742,4.73,17.991,24.705,13.973,31.489c-2.5,4.215-6.568,8.417-17.401,7.371c0,0,7.158,7.735,7.462,13.857
	c0.301,6.122-0.108,5.115-0.108,5.115s3.675-5.461,7.976-7.269c4.302-1.807,21.627,0.651,21.627,0.651s9.246-1.637,12.99,1.471
	c0,0,0.915,0.709,0.794,1.513c2.597,0.897,1.991,2.885,1.943,3.177c1.348,1.152,0.828,2.329,0.359,3.347
	c1.587,0.674,0.656,3.179-0.577,3.09c0,0,0.968,1.485,0.745,2.599c-0.223,1.115-3.061,1.212-5.112,1.988
	c-2.051,0.773-5.498-0.667-7.108-1.941c-4.215-1.154-11.538,3.298-16.756-0.538c0,0,8.186,8.766,1.49,18.026L183.293,322.71z"/>
<g>
	<path style="fill:#F0BA7D;" d="M168.085,356.556c0,0-24.135,3.832-49.575-30.752c-23.371-31.773-23.972-52.201-9.183-65.192
		c-25.63,29.616,23.104,90.627,58.755,95.947L168.085,356.556z"/>
	<path style="fill:#F0BA7D;" d="M185.4,317.859c-0.003,0.021-2.07,8.814-12.31,14.395
		C179.128,330.615,184.547,326.513,185.4,317.859z"/>
</g>
<path style="fill:#FED298;" d="M223.79,249.24c0.013,0.071,4.897,25.54-10.259,28.908c-4.443,0.986-8.994,0.765-13.75,0.535
	c-10.38-0.504-22.237,1.257-34.702,13.9l-1.4-5.968c13.207-13.393,25.27-11.588,36.147-11.058
	c19.568,0.949,25.388-4.58,21.651-25.891c-0.139-2.35,1.055-2.736,2.31-0.425L223.79,249.24L223.79,249.24z"/>
<ellipse style="fill:#F0BA7D;" cx="173.42" cy="76.28" rx="3.378" ry="5.139"/>
<g>
</g>
<g>
</g>
<g>
</g>
<g>
</g>
<g>
</g>
<g>
</g>
<g>
</g>
<g>
</g>
<g>
</g>
<g>
</g>
<g>
</g>
<g>
</g>
<g>
</g>
<g>
</g>
<g>
</g>
</svg>
