<?xml version="1.0" encoding="iso-8859-1"?>
<!-- Generator: Adobe Illustrator 19.0.0, SVG Export Plug-In . SVG Version: 6.00 Build 0)  -->
<svg version="1.1" id="Layer_1" xmlns="http://www.w3.org/2000/svg" xmlns:xlink="http://www.w3.org/1999/xlink" x="0px" y="0px"
	 viewBox="0 0 512 512" style="enable-background:new 0 0 512 512;" xml:space="preserve">
<circle style="fill:#21D0C3;" cx="256" cy="256" r="256"/>
<path style="fill:#EBECEC;" d="M42.632,26.003h426.733c14.669,0,26.674,12.005,26.674,26.669v276.711
	c0,14.669-12.005,26.673-26.674,26.673H42.632c-14.669,0-26.674-12.005-26.674-26.673V52.672
	C15.958,38.003,27.962,26.003,42.632,26.003z"/>
<path style="fill:#0F7986;" d="M102.643,54.34h370.06v253.376h-370.06V54.34z"/>
<g>
	<path style="fill:#C8C8C8;" d="M60.182,227.613c9.695,0,17.556,7.861,17.556,17.556c0,9.695-7.862,17.556-17.556,17.556
		s-17.556-7.861-17.556-17.556S50.487,227.613,60.182,227.613z"/>
	<path style="fill:#C8C8C8;" d="M60.182,274.188c4.956,0,8.969,4.014,8.969,8.969s-4.014,8.969-8.969,8.969
		s-8.969-4.018-8.969-8.969C51.213,278.203,55.231,274.188,60.182,274.188z"/>
</g>
<g>
	<path style="fill:#FEFEFE;" d="M162.951,98.412c0.13,0.231,0.139,0.522-0.005,0.766 M332.847,98.412
		c0.13,0.231,0.139,0.522-0.005,0.766 M247.903,98.412c0.13,0.231,0.139,0.522-0.005,0.766 M114.504,104.043
		c-0.42,0-0.763-0.341-0.763-0.763c0-0.42,0.341-0.763,0.763-0.763h26.899l4.877-11.815c0.162-0.388,0.605-0.573,0.993-0.416
		c0.199,0.083,0.346,0.241,0.42,0.425l0,0l7.426,18.743l6.521-11.048c0.213-0.36,0.684-0.48,1.044-0.267
		c0.12,0.069,0.213,0.167,0.272,0.277l3.834,5.88l5.482-5.829c0.286-0.304,0.771-0.318,1.076-0.032
		c0.06,0.056,0.106,0.116,0.143,0.185l0,0l2.19,3.907c16.891,0,33.777-0.005,50.668-0.005l4.877-11.815
		c0.162-0.388,0.605-0.573,0.993-0.415c0.199,0.083,0.346,0.241,0.42,0.425l0,0l7.426,18.743l6.521-11.048
		c0.213-0.36,0.684-0.48,1.044-0.267c0.12,0.069,0.213,0.167,0.272,0.277l3.834,5.88l5.482-5.829
		c0.286-0.304,0.772-0.318,1.076-0.032c0.06,0.056,0.106,0.116,0.143,0.185l0,0l2.19,3.907c16.891,0,33.777-0.005,50.668-0.005
		l4.877-11.815c0.157-0.388,0.605-0.573,0.993-0.416c0.199,0.083,0.346,0.241,0.42,0.425l0,0l7.427,18.743l6.521-11.048
		c0.213-0.36,0.684-0.48,1.044-0.267c0.12,0.069,0.213,0.167,0.272,0.277l3.834,5.88l5.482-5.829
		c0.286-0.304,0.772-0.318,1.076-0.032c0.06,0.056,0.106,0.116,0.143,0.185l0,0l2.19,3.907h38.549c0.42,0,0.763,0.341,0.763,0.763
		s-0.341,0.763-0.763,0.763H345.13l0,0c-0.267,0-0.527-0.139-0.665-0.388l-1.898-3.39l-5.436,5.778l0,0
		c-0.042,0.042-0.088,0.083-0.139,0.116c-0.351,0.231-0.822,0.13-1.053-0.222l-3.718-5.7l-6.679,11.307
		c-0.083,0.153-0.217,0.277-0.388,0.346c-0.392,0.153-0.836-0.037-0.988-0.429l-7.307-18.438l-4.328,10.49
		c-0.097,0.309-0.388,0.531-0.726,0.531c-17.205,0-34.415,0.005-51.619,0.005l0,0c-0.267,0-0.527-0.139-0.665-0.388l-1.898-3.39
		l-5.436,5.778l0,0c-0.042,0.042-0.088,0.083-0.139,0.116c-0.351,0.231-0.822,0.13-1.053-0.222l-3.718-5.7l-6.679,11.307
		c-0.083,0.153-0.218,0.277-0.388,0.346c-0.392,0.153-0.836-0.037-0.988-0.429l-7.303-18.438l-4.328,10.49
		c-0.097,0.309-0.388,0.531-0.726,0.531h-12.54c-0.028,0.005-0.056,0.005-0.083,0.005h-38.996l0,0c-0.267,0-0.527-0.139-0.665-0.388
		l-1.898-3.39l-5.436,5.778l0,0c-0.042,0.042-0.088,0.083-0.139,0.116c-0.355,0.231-0.826,0.13-1.053-0.222l-3.718-5.7
		l-6.679,11.307c-0.083,0.153-0.217,0.277-0.388,0.346c-0.392,0.153-0.836-0.037-0.988-0.429l-7.303-18.438l-4.328,10.49
		c-0.097,0.309-0.388,0.531-0.726,0.531h-27.407L114.504,104.043z"/>
	<path style="fill:#FEFEFE;" d="M335.664,171.476c-0.13,0.231-0.139,0.522,0.009,0.767 M195.111,171.476
		c-0.13,0.231-0.139,0.522,0.005,0.767 M264.055,171.476c-0.13,0.231-0.139,0.522,0.005,0.767 M384.12,177.107
		c0.42,0,0.763-0.341,0.763-0.763s-0.341-0.763-0.763-0.763H357.22l-4.877-11.815c-0.157-0.388-0.605-0.573-0.993-0.416
		c-0.199,0.083-0.346,0.241-0.416,0.425h-0.005l-7.423,18.743l-6.526-11.048c-0.213-0.36-0.684-0.48-1.044-0.267
		c-0.12,0.069-0.213,0.167-0.272,0.277l-3.834,5.88l-5.482-5.829c-0.286-0.304-0.772-0.318-1.076-0.032
		c-0.06,0.056-0.106,0.116-0.143,0.185l0,0l-2.19,3.907c-16.891,0-20.443-0.005-37.333-0.005l-4.877-11.815
		c-0.157-0.388-0.605-0.573-0.993-0.416c-0.199,0.083-0.346,0.241-0.416,0.425h-0.005l-7.427,18.743l-6.521-11.048
		c-0.213-0.36-0.684-0.48-1.044-0.267c-0.12,0.069-0.213,0.167-0.272,0.277l-3.834,5.88l-5.482-5.829
		c-0.286-0.304-0.771-0.318-1.076-0.032c-0.06,0.056-0.106,0.116-0.143,0.185l0,0l-2.19,3.907c-16.891,0-17.777-0.005-34.664-0.005
		l-4.877-11.815c-0.157-0.388-0.605-0.573-0.993-0.416c-0.199,0.083-0.346,0.241-0.42,0.425h-0.005l-7.423,18.743l-6.521-11.048
		c-0.213-0.36-0.684-0.48-1.044-0.267c-0.12,0.069-0.213,0.167-0.272,0.277l-3.834,5.88l-5.482-5.829
		c-0.286-0.304-0.771-0.318-1.076-0.032c-0.06,0.056-0.106,0.116-0.143,0.185l0,0l-2.19,3.907h-67.886
		c-0.42,0-0.763,0.341-0.763,0.763c0,0.421,0.341,0.763,0.763,0.763h68.331l0,0c0.267,0,0.527-0.139,0.665-0.388l1.898-3.39
		l5.431,5.778l0,0c0.042,0.042,0.088,0.083,0.139,0.116c0.351,0.231,0.822,0.13,1.053-0.222l3.718-5.7l6.679,11.307
		c0.083,0.153,0.217,0.277,0.388,0.346c0.392,0.153,0.836-0.037,0.988-0.429l7.303-18.438l4.328,10.49
		c0.097,0.309,0.388,0.531,0.726,0.531c17.205,0,18.41,0.005,35.62,0.005l0,0c0.267,0,0.527-0.139,0.665-0.388l1.903-3.39
		l5.431,5.778l0,0c0.042,0.042,0.088,0.083,0.139,0.116c0.351,0.231,0.822,0.13,1.053-0.222l3.718-5.7l6.679,11.307
		c0.083,0.153,0.217,0.277,0.388,0.346c0.392,0.153,0.836-0.037,0.988-0.429l7.303-18.438l4.328,10.49
		c0.097,0.309,0.388,0.531,0.726,0.531c17.209,0,21.08,0.005,38.285,0.005l0,0c0.263,0,0.527-0.139,0.665-0.388l1.903-3.39
		l5.431,5.778l0,0c0.042,0.042,0.088,0.083,0.139,0.116c0.351,0.231,0.822,0.13,1.053-0.222l3.718-5.7l6.679,11.307
		c0.083,0.153,0.217,0.277,0.388,0.346c0.392,0.153,0.836-0.037,0.988-0.429l7.303-18.438l4.328,10.49
		c0.097,0.309,0.388,0.531,0.726,0.531h27.407L384.12,177.107z"/>
	<path style="fill:#FEFEFE;" d="M113.986,254.813c0.06-0.005,20.373-1.501,24.318-0.258c0.758,0.241,1.395-0.661,2.102-1.658v-0.005
		c1.796-2.531,3.879-5.473,9.806-0.758c6.781,5.39,11.163,9.99,12.544,11.501c1.57-0.739,5.681-2.79,6.212-4.324
		c0.443-1.28,2.287-2.273,4.6-3.002c2.937-0.928,6.753-1.52,9.117-1.695c1.201-0.093,2.651-0.812,4.18-1.575
		c3.275-1.626,6.841-3.399,10.346-0.716c2.327,1.783,3.686,4.337,4.886,6.6c1.201,2.264,2.222,4.18,3.691,4.222
		c1.972,0.051,4.614-2.153,7.039-4.18c1.635-1.362,3.183-2.656,4.554-3.28c2.194-0.998,5.584-1.086,8.466-1.16
		c1.668-0.042,3.155-0.083,4.004-0.286c0.661-0.157,1.09-0.763,1.52-1.367c0.961-1.348,1.912-2.688,4.772-2.009l0,0
		c2.051,0.485,4.512,1.557,6.688,2.886c2.037,1.247,3.847,2.744,4.877,4.24c0.341,0.494,0.882,1.072,1.57,1.654
		c1.285,1.086,3.025,2.143,4.841,2.642c1.719,0.471,3.496,0.439,4.974-0.582c0.383-0.263,0.753-0.601,1.104-1.011
		c2.277-2.688,4.263-4.328,6.503-5.321c2.231-0.993,4.647-1.307,7.792-1.358c2.817-0.046,4.097-0.979,5.238-1.81
		c1.339-0.974,2.526-1.838,5.094-1.561c3.048,0.332,5.289,2.54,7.561,4.785c1.408,1.395,2.835,2.804,4.397,3.658
		c0.661,0.36,1.215,0.693,1.746,1.007c2.831,1.682,4.909,2.919,7.704-0.3c2.032-2.346,3.875-3.76,5.848-4.614
		c1.967-0.85,4.009-1.118,6.457-1.169c1.805-0.037,3.482-1.183,5.076-2.268c2.327-1.589,4.512-3.076,7.238-1.815
		c2.217,1.03,4.111,3.418,6.055,5.871c1.833,2.318,3.718,4.697,5.788,5.755c2.143,1.095,4.018,2,5.436,2.171
		c1.09,0.13,1.907-0.281,2.369-1.635c0.204-0.596,0.36-1.132,0.508-1.64c0.965-3.32,1.672-5.746,7.316-5.843
		c2.494-0.042,5.09-0.517,7.386-1.16c2.872-0.803,5.219-1.847,6.249-2.624c1.127-0.845,2.494-1.603,4.12-1.589
		c1.617,0.014,3.408,0.794,5.298,3.021c3.556,4.185,3.691,5.363,3.691,5.367l-1.875,0.208c0-0.005-0.069-0.605-3.252-4.355
		c-1.478-1.742-2.767-2.346-3.875-2.355c-1.104-0.009-2.116,0.568-2.974,1.215c-1.187,0.891-3.779,2.065-6.878,2.928
		c-2.42,0.679-5.182,1.178-7.857,1.224c-4.254,0.074-4.795,1.935-5.533,4.485c-0.162,0.564-0.337,1.155-0.531,1.723
		c-0.826,2.415-2.341,3.146-4.378,2.905c-1.709-0.204-3.751-1.183-6.069-2.369c-2.429-1.243-4.443-3.783-6.406-6.263
		c-1.796-2.273-3.547-4.485-5.367-5.326c-1.76-0.817-3.515,0.383-5.385,1.658c-1.819,1.238-3.728,2.54-6.101,2.591
		c-2.217,0.046-4.046,0.277-5.746,1.011c-1.7,0.735-3.33,2-5.164,4.115c-3.825,4.415-6.475,2.84-10.087,0.693
		c-0.559-0.332-1.141-0.679-1.691-0.979c-1.801-0.988-3.317-2.485-4.818-3.967c-2.037-2.009-4.041-3.995-6.434-4.254
		c-1.856-0.204-2.762,0.462-3.788,1.206c-1.367,0.998-2.9,2.116-6.314,2.171c-2.905,0.046-5.104,0.328-7.062,1.197
		c-1.954,0.868-3.737,2.351-5.825,4.822c-0.457,0.54-0.951,0.984-1.473,1.344c-2.009,1.385-4.337,1.455-6.54,0.845
		c-2.111-0.582-4.106-1.787-5.561-3.021c-0.812-0.689-1.473-1.395-1.903-2.023c-0.873-1.266-2.475-2.577-4.31-3.7
		c-2.014-1.234-4.273-2.217-6.138-2.661h-0.005c-1.621-0.383-2.208,0.439-2.799,1.266c-0.633,0.887-1.266,1.779-2.619,2.106
		c-1.039,0.25-2.624,0.291-4.392,0.337c-2.702,0.069-5.88,0.153-7.737,0.998c-1.132,0.513-2.582,1.728-4.115,3.007
		c-2.688,2.245-5.612,4.684-8.296,4.614c-2.577-0.069-3.834-2.429-5.317-5.215c-1.113-2.092-2.369-4.461-4.36-5.986
		c-2.573-1.972-5.593-0.471-8.37,0.91c-1.695,0.84-3.312,1.649-4.877,1.765c-2.259,0.167-5.902,0.735-8.693,1.612
		c-1.788,0.564-3.164,1.201-3.381,1.819c-0.928,2.661-7.838,5.704-7.857,5.714l-0.628,0.272l-0.453-0.517
		c-0.014-0.014-4.6-5.289-12.775-11.787c-4.369-3.473-5.834-1.408-7.099,0.374l0,0c-1.123,1.589-2.143,3.021-4.203,2.369
		c-3.593-1.136-23.56,0.332-23.621,0.337L114,254.797L113.986,254.813z"/>
</g>
<g>
	<path style="fill:#21D0C3;" d="M391.593,111.631h69.18v2.919h-69.18V111.631z"/>
	<path style="fill:#21D0C3;" d="M391.593,83.078h22.904v2.919h-22.904V83.078z"/>
	<path style="fill:#21D0C3;" d="M391.593,96.002h44.996v2.923h-44.996L391.593,96.002L391.593,96.002z"/>
	<path style="fill:#21D0C3;" d="M391.593,182.894h69.18v2.919h-69.18V182.894z"/>
	<path style="fill:#21D0C3;" d="M391.593,154.341h22.904v2.919h-22.904V154.341z"/>
	<path style="fill:#21D0C3;" d="M391.593,167.264h44.996v2.923h-44.996L391.593,167.264L391.593,167.264z"/>
	<path style="fill:#21D0C3;" d="M391.593,268.11h69.18v2.923h-69.18V268.11z"/>
	<path style="fill:#21D0C3;" d="M391.593,239.557h22.904v2.923h-22.904V239.557z"/>
	<path style="fill:#21D0C3;" d="M391.593,252.481h44.996v2.919h-44.996L391.593,252.481L391.593,252.481z"/>
</g>
<path style="fill:#C8C8C8;" d="M48.155,78.903H71.91c6.646,0,12.082,5.436,12.082,12.082l0,0c0,6.646-5.436,12.082-12.082,12.082
	H48.155c-6.646,0-12.082-5.436-12.082-12.082l0,0C36.073,84.338,41.514,78.903,48.155,78.903z"/>
<path style="fill:#666666;" d="M381.903,478.935c-11.695-13.353-27.205-39.333-27.417-83.341l9.395-0.037
	c0.204,43.112,15.657,67.148,26.202,78.552c-2.693,1.658-5.417,3.27-8.18,4.832v-0.005H381.903z"/>
<g>
	<path style="fill:#C8C8C8;" d="M48.155,125.16H71.91c6.646,0,12.082,5.436,12.082,12.082l0,0c0,6.646-5.436,12.082-12.082,12.082
		H48.155c-6.646,0-12.082-5.436-12.082-12.082l0,0C36.073,130.596,41.514,125.16,48.155,125.16z"/>
	<path style="fill:#C8C8C8;" d="M48.155,171.416H71.91c6.646,0,12.082,5.436,12.082,12.082l0,0c0,6.646-5.436,12.082-12.082,12.082
		H48.155c-6.646,0-12.082-5.436-12.082-12.082l0,0C36.073,176.853,41.514,171.416,48.155,171.416z"/>
</g>
<rect x="340.435" y="356.055" style="fill:#FAD24D;" width="38.185" height="15.969"/>
<rect x="353.28" y="372.023" style="fill:#EDB937;" width="12.49" height="23.542"/>
<path style="fill:#666666;" d="M326.801,478.935c-11.695-13.353-27.205-39.333-27.417-83.341l9.395-0.037
	c0.204,43.112,15.657,67.148,26.202,78.552c1.742,2.097,10.119,11.69,16.808,19.357c-3.27,1.321-6.577,2.573-9.912,3.76
	C336.237,490.98,328.894,481.507,326.801,478.935z"/>
<rect x="285.333" y="356.055" style="fill:#FAD24D;" width="38.185" height="15.969"/>
<rect x="298.178" y="372.023" style="fill:#EDB937;" width="12.49" height="23.542"/>
<g>
	<path style="fill:#FFFFFF;" d="M60.182,231.206c7.709,0,13.963,6.249,13.963,13.963c0,7.709-6.249,13.963-13.963,13.963
		c-7.709,0-13.963-6.249-13.963-13.963C46.22,237.46,52.47,231.206,60.182,231.206z"/>
	<path style="fill:#FFFFFF;" d="M60.182,276.941c3.431,0,6.217,2.786,6.217,6.217s-2.786,6.217-6.217,6.217
		s-6.217-2.786-6.217-6.217S56.751,276.941,60.182,276.941z"/>
</g>
<path style="fill:#EBECEC;" d="M125.446,356.057h146.193v21.311h-35.107v42.774c0,6.992-5.723,12.715-12.715,12.715h-44.738
	c-6.992,0-12.715-5.723-12.715-12.715v-42.774h-40.913v-21.311H125.446z"/>
<g>
	<path style="fill:#C8C8C8;" d="M235.308,425.569c-2.046,4.3-6.434,7.289-11.492,7.289h-44.738c-5.057,0-9.446-2.988-11.492-7.289
		H235.308z"/>
	<path style="fill:#C8C8C8;" d="M125.446,356.057h146.193v21.311L125.446,356.057z"/>
</g>
<path style="fill:#EBECEC;" d="M40.77,394.651h125.589v22.614H57.189C51.324,410.04,45.836,402.498,40.77,394.651z"/>
<path style="fill:#C8C8C8;" d="M166.359,412.585v4.679H57.189c-1.257-1.543-2.494-3.104-3.709-4.679H166.359z"/>
<path style="fill:#FAD24D;" d="M47.596,77.951h23.755c6.646,0,12.082,5.436,12.082,12.082l0,0c0,6.646-5.436,12.082-12.082,12.082
	H47.596c-6.646,0-12.082-5.436-12.082-12.082l0,0C35.514,83.387,40.955,77.951,47.596,77.951z"/>
<path style="fill:#FF5B62;" d="M47.596,124.208h23.755c6.646,0,12.082,5.436,12.082,12.082l0,0c0,6.646-5.436,12.082-12.082,12.082
	H47.596c-6.646,0-12.082-5.436-12.082-12.082l0,0C35.514,129.644,40.955,124.208,47.596,124.208z"/>
<path style="fill:#21D0C3;" d="M47.596,170.47h23.755c6.646,0,12.082,5.436,12.082,12.082l0,0c0,6.646-5.436,12.082-12.082,12.082
	H47.596c-6.646,0-12.082-5.436-12.082-12.082l0,0C35.514,175.905,40.955,170.47,47.596,170.47z"/>
<g>
</g>
<g>
</g>
<g>
</g>
<g>
</g>
<g>
</g>
<g>
</g>
<g>
</g>
<g>
</g>
<g>
</g>
<g>
</g>
<g>
</g>
<g>
</g>
<g>
</g>
<g>
</g>
<g>
</g>
</svg>
