<?xml version="1.0" encoding="iso-8859-1"?>
<!-- Generator: Adobe Illustrator 19.0.0, SVG Export Plug-In . SVG Version: 6.00 Build 0)  -->
<svg version="1.1" id="Layer_1" xmlns="http://www.w3.org/2000/svg" xmlns:xlink="http://www.w3.org/1999/xlink" x="0px" y="0px"
	 viewBox="0 0 512 512" style="enable-background:new 0 0 512 512;" xml:space="preserve">
<circle style="fill:#0F7986;" cx="256" cy="256" r="256"/>
<path style="fill:#FED198;" d="M357.59,21.653c-3.515,29.427-5.215,54.894-1.815,61.942c20.484,42.507,37.883,92.066,42.114,130.854
	c9.57,87.739-5.403,169.772-19.916,267.362c-28.9,15.69-61.162,25.976-95.424,29.504c-9.477-70.533-4.263-156.775-12.184-223.373
	h-14.369h-14.369c-7.922,66.598-2.702,152.839-12.184,223.373c-34.262-3.533-66.524-13.815-95.424-29.504
	c-14.517-97.59-29.486-179.624-19.916-267.362c4.231-38.793,21.63-88.347,42.114-130.854c3.399-7.048,1.7-32.516-1.815-61.942
	C185.545,8.17,219.894,0.684,255.99,0.684c36.1,0,70.445,7.487,101.59,20.969L357.59,21.653L357.59,21.653z"/>
<path style="fill:#FEFEFE;" d="M241.631,287.944c2.327-54.987-91.641-73.711-125.562-87.268l1.432-7.57
	c62.626,20.941,99.202,30.715,138.499,30.147c39.296,0.568,75.877-9.205,138.498-30.147l1.432,7.57
	c-33.921,13.557-127.889,32.281-125.562,87.268H256H241.631z"/>
<ellipse style="fill:#F0B97D;" cx="256" cy="177.194" rx="5.925" ry="3.677"/>
<g>
	<path style="fill:#F0BA7D;" d="M154.831,25.247l-0.42-3.598c27.824-12.041,58.201-19.302,90.098-20.716
		c0.204,1.765,0.309,3.552,0.309,5.367c0,25.948-21.034,46.982-46.982,46.982c-19.204,0-35.717-11.528-43.005-28.04L154.831,25.247
		L154.831,25.247z"/>
	<path style="fill:#F0BA7D;" d="M357.59,21.653l-0.42,3.593c-7.284,16.512-23.796,28.04-43.005,28.04
		c-25.948,0-46.982-21.034-46.982-46.982c0-1.815,0.106-3.607,0.309-5.367c31.898,1.413,62.275,8.669,90.103,20.716H357.59z"/>
</g>
<g>
	<path style="fill:#FFE1BA;" d="M244.702,0.928c-1.645,24.452-21.999,43.781-46.871,43.781c-17.63,0-32.992-9.713-41.029-24.078
		c27.229-11.455,56.844-18.35,87.9-19.699V0.928z"/>
	<path style="fill:#FFE1BA;" d="M355.192,20.628c-8.036,14.364-23.394,24.078-41.029,24.078c-24.872,0-45.227-19.325-46.871-43.781
		c31.056,1.348,60.673,8.245,87.9,19.7L355.192,20.628L355.192,20.628z"/>
</g>
<g>
	<path style="fill:#F0B97D;" d="M199.036,7.053V7.15c0,3.797-3.076,6.873-6.873,6.873c-2.637,0-4.923-1.483-6.078-3.658
		c4.273-1.21,8.586-2.314,12.947-3.307L199.036,7.053z"/>
	<path style="fill:#F0B97D;" d="M312.964,7.053c4.36,0.993,8.674,2.097,12.947,3.307c-1.155,2.176-3.441,3.658-6.078,3.658
		c-3.797,0-6.873-3.076-6.873-6.873V7.048L312.964,7.053z"/>
</g>
<g>
	<path style="fill:#FEFEFE;" d="M205.494,70.644c2.282-0.227,1.967-3.751-0.383-3.515c-3.312,0.351-6.711,0.476-10.036,0.295
		c-2.369,0-2.513,3.298-0.185,3.533C198.431,71.134,201.97,71.027,205.494,70.644z M184.099,69.503
		c2.278,0.503,3.039-2.947,0.767-3.45l-0.069-0.014c-2.217-0.499-4.387-1.123-6.531-1.861c-2.259-0.753-3.321,2.624-1.164,3.339
		c2.287,0.785,4.633,1.469,6.992,1.991L184.099,69.503z M167.163,62.968c1.856,1.16,3.87-1.746,1.774-3.058l-0.12-0.069
		c-1.917-1.127-3.718-2.323-5.473-3.667l-0.083-0.065c-1.921-1.441-3.972,1.436-2.166,2.795c1.889,1.459,3.884,2.79,5.949,3.995
		L167.163,62.968z M249.312,41.713c0.97-2.185-2.291-3.552-3.21-1.483l-0.069,0.153c-0.933,1.991-2.014,3.912-3.257,5.723
		c-1.275,1.917,1.478,3.921,2.9,2.018c1.358-1.986,2.559-4.078,3.566-6.263l0.069-0.153V41.713z M238.416,56.386
		c1.691-1.45-0.517-4.213-2.36-2.633c-1.695,1.524-3.492,2.923-5.372,4.203c-1.842,1.155-0.13,4.25,1.981,2.928
		c1.986-1.358,3.842-2.79,5.649-4.411l0.106-0.093L238.416,56.386z M223.045,66.099c2.203-0.979,0.679-4.171-1.376-3.257
		l-0.065,0.028c-2.06,0.859-4.157,1.612-6.296,2.24l-0.093,0.028c-2.392,0.799-1.058,4.074,0.97,3.399l0.106-0.032
		c2.287-0.679,4.498-1.459,6.693-2.378l0.065-0.028H223.045z"/>
	<path style="fill:#FEFEFE;" d="M306.501,70.644c-2.282-0.227-1.967-3.751,0.383-3.515c3.312,0.351,6.711,0.476,10.036,0.295
		c2.369,0,2.513,3.298,0.185,3.533C313.564,71.134,310.025,71.027,306.501,70.644z M327.896,69.503
		c-2.277,0.503-3.039-2.947-0.767-3.45l0.069-0.014c2.217-0.499,4.387-1.123,6.531-1.861c2.259-0.753,3.321,2.624,1.164,3.339
		c-2.287,0.785-4.633,1.469-6.992,1.991L327.896,69.503z M344.833,62.968c-1.856,1.16-3.87-1.746-1.774-3.058l0.12-0.069
		c1.917-1.127,3.718-2.323,5.473-3.667l0.083-0.065c1.921-1.441,3.972,1.436,2.166,2.795c-1.889,1.459-3.884,2.79-5.949,3.995
		L344.833,62.968z M262.683,41.713c-0.97-2.185,2.291-3.552,3.21-1.483l0.069,0.153c0.933,1.991,2.014,3.912,3.257,5.723
		c1.275,1.917-1.478,3.921-2.9,2.018c-1.358-1.986-2.559-4.078-3.566-6.263l-0.069-0.153V41.713z M273.579,56.386
		c-1.691-1.45,0.517-4.213,2.36-2.633c1.695,1.524,3.492,2.923,5.371,4.203c1.842,1.155,0.13,4.25-1.981,2.928
		c-1.986-1.358-3.842-2.79-5.649-4.411l-0.106-0.093L273.579,56.386z M288.951,66.099c-2.203-0.979-0.679-4.171,1.376-3.257
		l0.065,0.028c2.06,0.859,4.157,1.612,6.296,2.24l0.093,0.028c2.392,0.799,1.058,4.074-0.97,3.399l-0.106-0.032
		c-2.287-0.679-4.498-1.459-6.693-2.378l-0.065-0.028H288.951z"/>
	<path style="fill:#FEFEFE;" d="M256.009,105.848l-8.947,0.388c-1.095,0.097-5.048,4.138,3.099,3.654l13.441,0.116
		c0.937,0.083,6.591-3.774-4.305-4.101l-3.289-0.051V105.848z M228.818,113.603c1.197-0.397,5.173-6.906-8.581-1.104
		c-0.652,0.272-4.176,5.561,4.208,2.54L228.818,113.603z M205.258,125.187c1.183-0.887,2.023-8.18-8.402,2.083
		c-0.647,0.638-1.524,6.41,4.628,0.984l3.769-3.067C205.253,125.187,205.258,125.187,205.258,125.187z M189.051,145.163
		c0.794-1.783-3.187-7.473-5.902,6.31c-0.19,0.97,2.369,5.884,4.319-1.58l1.58-4.73L189.051,145.163L189.051,145.163z
		 M188.275,170.257c-0.721-2.166-7.261-3.062-0.3,8.637c0.67,1.127,5.501,2.471,2.346-3.802l-2.046-4.841V170.257z M203.494,190.926
		c-0.854-0.638-8.864-0.49,4.06,7.635c0.485,0.304,7.057,0.272-0.466-4.946L203.494,190.926z M226.68,203.212
		c-0.887-0.295-7.418,2.129,3.385,5.048c7.423,2.004,6.286-2.411,3.025-3.215L226.68,203.212z M252.73,207.715
		c-0.826,0-6.688,4.069,4.697,3.912c7.769-0.106,5.354-4.023,1.751-3.907l-6.452-0.005H252.73z M279.052,205.018
		c-0.513,0.116-6.273,6.401,7.431,1.893c3.385-1.113,4.064-5.307-2.369-3.303L279.052,205.018z M303.273,194.742
		c-1.099,0.689-2.818,8.11,8.526-1.487c0.753-0.638,1.898-6.24-4.531-1.33L303.273,194.742z M321.18,176.114
		c-0.914,1.64,2.25,7.866,6.577-5.635c0.277-0.863-1.635-6.245-4.522,1.215l-2.051,4.42H321.18z M324.879,151.237
		c0.466,2.088,6.892,4.106,1.243-8.549c-0.466-1.044-5.256-3.275-2.67,3.695L324.879,151.237z M311.744,129.353
		c0.536,0.536,9.108,1.399-3.524-7.894c-0.831-0.615-6.508-0.277-0.102,4.772l3.63,3.122H311.744z M289.399,115.723
		c0.877,0.291,7.612-1.751-3.317-5.275c-7.085-2.282-6.319,2.125-2.744,3.196l6.064,2.074L289.399,115.723z"/>
</g>
<g>
</g>
<g>
</g>
<g>
</g>
<g>
</g>
<g>
</g>
<g>
</g>
<g>
</g>
<g>
</g>
<g>
</g>
<g>
</g>
<g>
</g>
<g>
</g>
<g>
</g>
<g>
</g>
<g>
</g>
</svg>
