<?xml version="1.0" encoding="iso-8859-1"?>
<!-- Generator: Adobe Illustrator 19.0.0, SVG Export Plug-In . SVG Version: 6.00 Build 0)  -->
<svg version="1.1" id="Layer_1" xmlns="http://www.w3.org/2000/svg" xmlns:xlink="http://www.w3.org/1999/xlink" x="0px" y="0px"
	 viewBox="0 0 512 512" style="enable-background:new 0 0 512 512;" xml:space="preserve">
<circle style="fill:#FAD24D;" cx="256" cy="256" r="256"/>
<path style="fill:#666666;" d="M176.622,330.681c-19.823-50.012-61.462-95.271-9.066-186.437
	c21.579-37.546,54.543-62.307,88.597-53.924c34.049-8.383,67.014,16.378,88.593,53.924c52.396,91.165,10.757,136.425-9.066,186.437
	l-79.526,0.199l-79.526-0.199H176.622z"/>
<path style="fill:#FED298;" d="M122.208,408.862c-2.25,3.63-7.542,31.93-13.611,56.456C150.271,494.721,201.12,512,256.005,512
	s105.728-17.279,147.408-46.687c-6.069-24.526-11.367-52.82-13.616-56.451c-38.188-61.661-97.049-34.742-101.064-105.303
	c0,0-18.937,14.128-33.399,14.263c-14.462,0.13-32.077-13.367-32.077-13.367c-4.004,70.501-62.884,42.792-101.045,104.412
	L122.208,408.862z"/>
<path style="fill:#F0BA7D;" d="M289.754,313.523c-0.471-3.095-0.822-6.402-1.025-9.968c0,0-18.937,14.128-33.399,14.263
	c-14.462,0.13-32.077-13.367-32.077-13.367c-0.204,3.63-0.564,6.983-1.053,10.115c0.369,0.295,0.739,0.591,1.113,0.882l-0.005,0.051
	c1.113,0.97,18.041,15.524,32.021,15.381c13.981,0.148,30.909-14.411,32.021-15.381l-0.005-0.051
	C288.17,314.82,288.965,314.173,289.754,313.523z"/>
<path style="fill:#FED298;" d="M223.313,304.497c1.113,0.84,18.041,13.45,32.021,13.321c13.981,0.125,30.909-12.485,32.021-13.321
	c21.131-12.318,38.47-48.64,34.554-88.006c-3.206-32.244-38.087,15.034-62.381-51.494c-34.382,72.029-67.041,29.422-70.769,56.718
	C184.658,251.787,201.544,289.634,223.313,304.497z"/>
<path style="fill:#21D0C3;" d="M195.568,354.93c-20.807,11.117-58.875,11.455-73.36,34.738c-2.314,3.718-7.829,45.782-14.096,75.314
	C149.879,494.592,200.908,512,256,512c55.088,0,106.112-17.404,147.874-47.01c-6.374-29.481-12.466-71.249-14.082-75.323
	c-9.616-24.258-54.141-25.27-74.972-36.456c-32.387,117.506-80.657,125.515-119.247,1.732l-0.009-0.009L195.568,354.93z"/>
<g>
	<path style="fill:#FFFFFF;" d="M209.443,343.254c-1.353,36.558,4.859,88.347,45.882,101.586
		c-38.618,1.612-63.679-54.03-92.223-68.603l46.344-32.978L209.443,343.254z"/>
	<path style="fill:#FFFFFF;" d="M303.508,343.254c1.418,36.558-5.108,88.347-48.183,101.586c40.553,1.612,66.87-54.03,96.842-68.603
		l-48.659-32.978V343.254z"/>
	<path style="fill:#FFFFFF;" d="M192.404,55.546h129.261c7.99,0,15.14,5.972,14.526,13.219l-5.025,58.727
		c-16.392-16.106-131.921-17.468-148.262,0l-5.025-58.727C177.259,61.513,184.414,55.546,192.404,55.546z"/>
</g>
<circle style="fill:#FF5B62;" cx="257.038" cy="86.192" r="24.558"/>
<g>
	<path style="fill:#FFFFFF;" d="M252.36,68.976h9.349v12.54h12.539v9.349h-12.539v12.54h-9.349V90.866h-12.54v-9.349h12.54V68.976z"
		/>
	<path style="fill:#FFFFFF;" d="M440.931,200.976c-3.317,1.561-6.633,3.118-9.954,4.67c-6.282,2.937-12.567,5.871-18.881,8.734
		c-2.092,0.947-4.194,1.898-6.31,2.795c-3.723,1.575-8.351,3.085-11.071-2.48c-0.85-1.737-0.924-3.774-0.208-5.57
		c0.767-1.921,3.93-5.802,5.215-7.519c2-2.674,4.009-5.344,6.023-8.009c-25.145-12.23-41.555-37.916-41.555-66.473
		c0-40.816,33.089-73.905,73.905-73.905S512,86.306,512,127.123c0,39.786-31.49,72.353-71.069,73.85V200.976z"/>
</g>
<path style="fill:#FF5B62;" d="M438.095,62.372c35.911,0,65.023,29.112,65.023,65.023c0,35.514-28.479,64.376-63.845,65.009
	c-15.603,7.349-37.519,17.584-37.273,16.974c0.208-0.517,8.11-10.998,15.228-20.382c-25.671-8.697-44.151-32.988-44.151-61.601
	c0-35.911,29.112-65.023,65.023-65.023C438.1,62.372,438.095,62.372,438.095,62.372z"/>
<path style="fill:#FEFEFE;" d="M444.381,117.076v39.245c0,2.716-0.647,4.772-1.935,6.161c-1.288,1.39-2.919,2.088-4.905,2.088
	s-3.598-0.712-4.841-2.139c-1.238-1.427-1.866-3.464-1.866-6.111v-38.839c0-2.698,0.628-4.721,1.866-6.078
	c1.238-1.358,2.854-2.037,4.841-2.037c1.986,0,3.617,0.679,4.905,2.037c1.288,1.358,1.935,3.257,1.935,5.667V117.076z
	 M437.675,103.054c-1.884,0-3.496-0.577-4.836-1.732c-1.339-1.155-2.004-2.799-2.004-4.923c0-1.903,0.679-3.478,2.055-4.721
	c1.376-1.238,2.97-1.87,4.79-1.87c1.765,0,3.312,0.559,4.67,1.682c1.358,1.136,2.037,2.767,2.037,4.905
	c0,2.088-0.665,3.718-1.986,4.891c-1.325,1.169-2.886,1.765-4.721,1.765L437.675,103.054z"/>
<g>
</g>
<g>
</g>
<g>
</g>
<g>
</g>
<g>
</g>
<g>
</g>
<g>
</g>
<g>
</g>
<g>
</g>
<g>
</g>
<g>
</g>
<g>
</g>
<g>
</g>
<g>
</g>
<g>
</g>
</svg>
