<?xml version="1.0" encoding="iso-8859-1"?>
<!-- Generator: Adobe Illustrator 19.0.0, SVG Export Plug-In . SVG Version: 6.00 Build 0)  -->
<svg version="1.1" id="Layer_1" xmlns="http://www.w3.org/2000/svg" xmlns:xlink="http://www.w3.org/1999/xlink" x="0px" y="0px"
	 viewBox="0 0 511.997 511.997" style="enable-background:new 0 0 511.997 511.997;" xml:space="preserve">
<circle style="fill:#ECF0F1;" cx="255.999" cy="255.999" r="255.999"/>
<circle style="fill:#21D0C3;" cx="255.999" cy="255.999" r="255.999"/>
<path style="fill:#EEF3F7;" d="M217.738,167.366c-32.756,0.291-113.694-30.71-136.402,1.653
	c-24.79,35.332-20.659,112.375-3.544,138.872c17.117,26.497,30.104,44.656,30.104,54.469c0,5.338-0.698,55.249-1.146,101.636
	c15.896,11.426,33.157,21.071,51.489,28.654C174.6,456.177,204.507,396,219.245,396c22.857,0,53.638,63.755,74.782,113.182
	c11.959-1.781,23.641-4.398,34.996-7.772c-0.293-52.019-1.445-132.202-1.445-139.051c0-9.816,12.984-27.971,30.104-54.469
	c17.117-26.497,21.246-103.543-3.544-138.872c-22.708-32.363-92.432,2.072-136.404-1.653L217.738,167.366L217.738,167.366z"/>
<g>
	<path style="fill:#FFFFFF;" d="M194.779,164.824c-32.822-3.174-78.271-0.865-95.718,9.317
		c-17.446,10.185-32.488,94.249-7.699,132.036c24.792,37.784,31.873,49.071,26.561,82.44c-2.313,14.535-4.289,46.572-5.099,79.629
		c-2.049-1.385-4.066-2.806-6.072-4.25c0.448-46.388,1.146-96.298,1.146-101.636c0-9.818-12.984-27.972-30.104-54.472
		c-17.117-26.497-21.246-103.543,3.544-138.872c18.427-26.259,75.191-10.802,113.442-4.192L194.779,164.824L194.779,164.824z"/>
	<path style="fill:#FFFFFF;" d="M297.089,508.699c-20.027-55.597-46.445-120.519-78.459-112.666
		c17.794,0,45.918,64.558,68.219,114.105c3.436-0.414,6.849-0.894,10.24-1.442V508.699z"/>
</g>
<g>
	<path style="fill:#D9DADA;" d="M328.448,437.203c-0.412-37.131-0.868-70.527-0.868-74.842c0-9.816,12.984-27.971,30.104-54.469
		c9.438-14.61,14.925-44.589,13.797-74.467c-1.933,48.885-50.007,109.114-53.698,117.421c-3.693,8.307,10.353,55.873,10.668,86.326
		v0.029L328.448,437.203z"/>
	<path style="fill:#D9DADA;" d="M219.923,177.43c-21.694,0.714-45.006-11.596-57.47-4.485c0,0,30.236,6.555,47.778,12.54
		c31.308,10.686,62.286-19.355,82.627-15.043C275.459,161.48,240.894,176.741,219.923,177.43z"/>
</g>
<g>
	<path style="fill:#666666;" d="M363.184,304.528l12.58,22.558l-14.458,8.063l-12.58-22.555c2.423-1.283,4.849-2.597,7.276-3.95
		c2.426-1.353,4.816-2.726,7.182-4.113L363.184,304.528L363.184,304.528z"/>
	<path style="fill:#666666;" d="M243.852,107.582c55.76-31.101,126.18-11.111,157.283,44.649
		c31.101,55.76,11.111,126.177-44.649,157.278c-55.76,31.103-126.177,11.113-157.278-44.647
		c-31.103-55.76-11.113-126.18,44.647-157.281h-0.003V107.582z"/>
</g>
<path style="fill:#15BDB2;" d="M251.15,120.666c48.534-27.072,109.831-9.674,136.903,38.863
	c27.072,48.533,9.674,109.831-38.863,136.903c-48.536,27.072-109.831,9.674-136.903-38.863
	C185.215,209.035,202.614,147.738,251.15,120.666z"/>
<path style="fill:#FAD24D;" d="M206.449,171.901c37.89-11.633,89.804-22.015,120.865-16.512
	c51.731,9.165,69.911,95.055,21.876,141.042c-30.967,29.648-109.831,9.674-136.903-38.863
	C197.056,230.263,195.901,198.918,206.449,171.901z"/>
<path style="fill:#666666;" d="M442.416,489.586l22.139-12.349c3.079-1.718,4.158-5.705,2.4-8.861l-75.569-135.478
	c-1.76-3.156-5.734-4.326-8.8-2.615l-22.138,12.349c-3.064,1.708-4.147,5.718-2.395,8.861l75.569,135.478
	C435.371,490.111,439.34,491.305,442.416,489.586z"/>
<path style="fill:#FEFEFE;" d="M393.899,337.415l-5.498-9.858c-1.758-3.153-5.721-4.331-8.798-2.615l-22.139,12.349
	c-3.074,1.713-4.155,5.71-2.397,8.861l5.498,9.858l33.331-18.592L393.899,337.415z"/>
<path style="fill:#ECF0F1;" d="M393.899,337.415l-5.498-9.855c-1.684-3.019-5.387-4.226-8.402-2.817l8.69,15.578L393.899,337.415z
	 M357.085,337.526c-2.778,1.82-3.699,5.611-2.014,8.627l5.498,9.858l5.207-2.903l-8.69-15.578v-0.003H357.085z"/>
<g>
	<path style="fill:#FFFFFF;" d="M340.03,299.628c-45.528,21.878-101.444,3.686-127.148-42.39
		c-25.703-46.079-11.804-103.215,30.734-130.457c-4.003,3.725-7.641,7.756-10.909,12.037
		c-26.44,30.073-32.142,75.529-10.973,113.485c21.173,37.953,62.842,56.984,102.324,50.288c5.358-0.53,10.702-1.508,15.972-2.959
		V299.628z"/>
	<path style="fill:#FFFFFF;" d="M357.961,281.742c37.571-24.229,48.911-76.502,24.997-119.375s-74.351-60.688-114.706-41.449
		c1.028-0.267,2.062-0.517,3.095-0.745c39.025-14.185,85.148,3.955,107.698,44.379c22.547,40.423,13.75,89.2-18.823,114.953
		c-0.74,0.759-1.492,1.506-2.261,2.24V281.742z"/>
</g>
<path style="fill:#FF5B62;" d="M294.202,179.382c1.487-0.698,3.219,0.034,3.866,1.632c0.648,1.598-0.034,3.46-1.519,4.155
	c-5.416,2.55-6.778,3.72-6.518,4.356c0.317,0.781,1.637,1.928,3.006,3.121c4.06,3.533,8.42,7.326,4.606,13.857
	c-0.863,1.474-2.678,1.917-4.052,0.989c-1.372-0.928-1.784-2.877-0.92-4.351c1.039-1.782-1.228-3.759-3.341-5.597
	c-1.933-1.679-3.793-3.3-4.687-5.495c-1.658-4.06-0.058-8.139,9.558-12.666H294.202z M351.076,222.788
	c-0.818-1.503-0.351-3.436,1.047-4.315c1.398-0.878,3.198-0.377,4.018,1.125c0.032,0.058,11.326,20.628-6.133,18.285
	c-7.905-1.06-7.533,1.569-7.533,1.574c0.108,1.742-1.118,3.248-2.739,3.362c-1.621,0.116-3.024-1.202-3.132-2.943
	c0-0.029-1.041-10.309,14.117-8.276C356.324,232.351,351.091,222.811,351.076,222.788z M257.204,249.022
	c-0.973,1.393-2.812,1.676-4.11,0.63c-1.295-1.044-1.561-3.022-0.588-4.414c1.479-2.122,4.918-6.017,8.866-8.087
	c2.956-1.55,6.232-2.164,9.433-0.661c3.179,1.495,5.558-3.604,5.566-3.617c0.756-1.542,2.536-2.135,3.971-1.324
	c1.435,0.813,1.988,2.726,1.233,4.265c-0.013,0.029-4.766,10.385-13.115,6.46c-1.343-0.63-2.951-0.252-4.506,0.561
	c-2.982,1.563-5.613,4.551-6.749,6.183L257.204,249.022L257.204,249.022z M329.407,271.08c0.425,1.679-0.498,3.412-2.062,3.868
	c-1.564,0.456-3.177-0.535-3.601-2.214c-0.063-0.244-0.231-0.596-0.488-1.02c-0.926-1.527-2.663-3.298-4.824-4.527
	c-2.043-1.16-4.422-1.784-6.72-1.112c-0.748,0.221-1.513,0.582-2.28,1.12c-10.419,7.297-16.157,0.181-16.173,0.163
	c-1.094-1.29-1.005-3.29,0.197-4.464c1.202-1.175,3.064-1.081,4.158,0.21c0.005,0.005,2.463,3.111,8.622-1.202
	c1.283-0.897,2.605-1.521,3.937-1.909c3.947-1.157,7.801-0.213,11.003,1.605c3.082,1.75,5.616,4.377,7.011,6.678
	c0.577,0.952,0.997,1.909,1.223,2.798L329.407,271.08z M328.353,173.058c1.563-0.456,3.177,0.535,3.601,2.214
	c0.425,1.679-0.498,3.412-2.062,3.868c-0.016,0.003-6.151,1.87-4.848,6.256c0.488,1.658-0.367,3.431-1.909,3.958
	c-1.545,0.525-3.195-0.393-3.683-2.051c-3.137-10.557,8.866-14.235,8.9-14.243v-0.002H328.353z M229.499,208.201
	c-1.479-0.716-2.141-2.589-1.474-4.179c0.667-1.59,2.41-2.3,3.89-1.584c4.456,2.177,6.08,0.488,8.2-1.716
	c3.509-3.649,7.893-8.207,19.297-7.496c1.621,0.095,2.861,1.584,2.773,3.325c-0.089,1.742-1.477,3.074-3.098,2.98
	c-8.85-0.551-12.197,2.93-14.878,5.718c-3.759,3.911-6.634,6.895-14.712,2.953L229.499,208.201z M313.462,212.566
	c-1.238-1.125-1.393-3.121-0.346-4.451c1.049-1.329,2.903-1.495,4.144-0.37c0.034,0.032,12.242,11.098-2.668,16.816
	c-7.486,2.869-7.704,4.509-8.302,8.981c-0.047,0.364-0.097,0.722-0.278,1.954c-0.247,1.721-1.747,2.901-3.349,2.634
	c-1.603-0.264-2.699-1.878-2.452-3.599l0.255-1.883c0.965-7.248,1.319-9.9,12.147-14.051c5.273-2.022,0.86-6.025,0.85-6.035
	L313.462,212.566L313.462,212.566z"/>
<g>
</g>
<g>
</g>
<g>
</g>
<g>
</g>
<g>
</g>
<g>
</g>
<g>
</g>
<g>
</g>
<g>
</g>
<g>
</g>
<g>
</g>
<g>
</g>
<g>
</g>
<g>
</g>
<g>
</g>
</svg>
