<?xml version="1.0" encoding="iso-8859-1"?>
<!-- Generator: Adobe Illustrator 19.0.0, SVG Export Plug-In . SVG Version: 6.00 Build 0)  -->
<svg version="1.1" id="Layer_1" xmlns="http://www.w3.org/2000/svg" xmlns:xlink="http://www.w3.org/1999/xlink" x="0px" y="0px"
	 viewBox="0 0 511.997 511.997" style="enable-background:new 0 0 511.997 511.997;" xml:space="preserve">
<circle style="fill:#FAD24D;" cx="255.999" cy="255.999" r="255.999"/>
<path style="fill:#21D0C3;" d="M417.671,144.147l-144.87,144.628l-133.327,94.061l-10.581-10.618l94.26-133.193L368.02,94.394
	c18.569-18.534,68.219,31.211,49.648,49.751L417.671,144.147z"/>
<path style="fill:#15BDB2;" d="M417.671,144.147l-144.87,144.628L255.329,301.1l-2.376-2.376l168.489-168.491
	C422.343,135.577,421.349,140.475,417.671,144.147z"/>
<path style="fill:#FF5B62;" d="M272.855,288.721l-133.377,94.114l-10.581-10.62l94.26-133.193
	c1.571,17.377,32.965,48.407,49.701,49.701h-0.003V288.721z"/>
<path style="fill:#ED4C54;" d="M272.787,288.769l-133.256,94.027l-2.699-2.613l-0.026-0.029l125.977-94.7l0.024,0.008
	c3.525,1.799,6.846,2.945,9.747,3.229L272.787,288.769z"/>
<path style="fill:#D9DADA;" d="M128.946,371.588l11.169,11.192l-23.843,23.817c-7.397,7.388-18.574-3.801-11.169-11.192
	l23.845-23.817H128.946z"/>
<path style="fill:#15BDB2;" d="M380.117,130.562L380.117,130.562c8.64,8.64,8.64,22.778,0,31.421l-72.888,72.89
	c-8.64,8.64-22.778,8.64-31.421,0l0,0c-8.64-8.64-8.64-22.778,0-31.42l72.89-72.888c8.64-8.64,22.778-8.64,31.421,0L380.117,130.562
	z"/>
<g>
	<path style="fill:#FEFEFE;" d="M345.051,151.533l14.098,14.098c1.584,1.584,1.587,4.181,0,5.768l-47.094,47.091
		c-1.584,1.587-4.181,1.584-5.768,0l-14.098-14.098c-1.587-1.587-1.587-4.181,0-5.768l47.094-47.094
		c1.584-1.587,4.181-1.584,5.768,0V151.533z"/>
	<path style="fill:#FEFEFE;" d="M371.727,138.954c2.552,2.552,2.552,6.694,0,9.246s-6.694,2.552-9.246,0
		c-2.552-2.552-2.552-6.694,0-9.246C365.033,136.402,369.175,136.402,371.727,138.954z"/>
</g>
<path style="fill:#EBECEC;" d="M344.626,153.244l12.811,12.811c1.442,1.442,1.442,3.799,0,5.241l-45.483,45.48
	c-1.442,1.442-3.799,1.442-5.241,0l-12.811-12.811c-1.442-1.442-1.442-3.799,0-5.241l45.483-45.483c1.442-1.442,3.799-1.442,5.241,0
	V153.244z"/>
<path style="fill:#FF5B62;" d="M412.776,149.034c-6.238-23.838-26.308-44.297-49.551-49.85l4.798-4.79
	c18.569-18.537,68.219,31.211,49.648,49.751l-4.897,4.889H412.776z"/>
<path style="fill:#ED4C54;" d="M412.776,149.034c-0.677-2.586-1.516-5.136-2.505-7.628l11.171-11.174
	c0.902,5.346-0.092,10.243-3.77,13.915l-4.897,4.889v-0.002H412.776z"/>
<path style="fill:#FFFFFF;" d="M128.949,371.59l9.768,9.792l-23.843,23.819c-7.395,7.389-17.17-2.4-9.768-9.792L128.949,371.59z"/>
<g>
</g>
<g>
</g>
<g>
</g>
<g>
</g>
<g>
</g>
<g>
</g>
<g>
</g>
<g>
</g>
<g>
</g>
<g>
</g>
<g>
</g>
<g>
</g>
<g>
</g>
<g>
</g>
<g>
</g>
</svg>
