<?xml version="1.0" encoding="iso-8859-1"?>
<!-- Generator: Adobe Illustrator 19.0.0, SVG Export Plug-In . SVG Version: 6.00 Build 0)  -->
<svg version="1.1" id="Layer_1" xmlns="http://www.w3.org/2000/svg" xmlns:xlink="http://www.w3.org/1999/xlink" x="0px" y="0px"
	 viewBox="0 0 512 512" style="enable-background:new 0 0 512 512;" xml:space="preserve">
<circle style="fill:#FAD24D;" cx="256" cy="256" r="256"/>
<g>
	<path style="fill:#FF5B62;" d="M511.99,128.115c0.077,5.263-7.589,12.469-10.379,14.711c-4.48,3.612-10.107,6.617-16.023,9.07
		c-11.053,4.59-24.888,7.212-37.09,5.834c-1.641-0.183-4.11-0.813-5.492-0.77c-0.611,9.553-2.5,15.187-12.093,19.813
		c-5.598,2.695-13.231,3.614-19.623,2.648c-1.59-0.243-5.254-1.433-6.174-1.305c-2.899,25.157-30.718,28.447-46.63,19.453
		c-2.43-1.376-4.593-3.402-6.386-4.298c-1.076,2.637-2.626,14.998-10.799,18.776c-5.129,2.374-12.779,2.414-18.338,0.611
		c-1.854-0.602-3.711-1.916-5.184-2.17c-2.959,3.016-4.606,5.036-9.768,6.138c-8.368,1.792-18.556-1.418-26.478-4.105
		c-3.68-1.246-8.875-2.343-12.574-3.603l1.707-73.474c6.136-0.181,8.802,1.01,13.024-3.824c2.844-3.25,3.982-8.412,5.951-12.881
		c9.435-21.44,38.15-7.42,51.85-1.451c30.912,13.465,98.5,10.303,134.9,10.33c11.705,0.007,24.033-0.308,35.599,0.492V128.115z"/>
	<path style="fill:#FF5B62;" d="M0.012,128.115c-0.075,5.265,7.591,12.469,10.379,14.711c4.482,3.612,10.107,6.617,16.023,9.07
		c11.053,4.59,24.888,7.212,37.09,5.834c1.641-0.183,4.11-0.813,5.492-0.77c0.615,9.553,2.5,15.189,12.093,19.81
		c5.598,2.699,13.231,3.616,19.621,2.65c1.594-0.243,5.259-1.435,6.176-1.307c2.901,25.158,30.718,28.447,46.633,19.453
		c2.429-1.373,4.59-3.402,6.386-4.298c1.074,2.637,2.628,14.998,10.799,18.776c5.131,2.374,12.777,2.414,18.34,0.611
		c1.852-0.602,3.707-1.916,5.182-2.172c2.959,3.018,4.606,5.034,9.768,6.143c8.368,1.791,18.561-1.42,26.478-4.108
		c3.68-1.246,8.877-2.343,12.574-3.603l-1.707-73.474c-6.138-0.181-8.802,1.008-13.024-3.824c-2.842-3.25-3.98-8.408-5.951-12.881
		c-9.433-21.438-38.148-7.418-51.847-1.451c-30.915,13.465-98.5,10.303-134.9,10.33c-11.703,0.009-24.037-0.31-35.601,0.492
		L0.012,128.115z"/>
</g>
<path style="fill:#ED4C54;" d="M22.466,150.153c1.296,0.607,2.613,1.193,3.946,1.744c11.053,4.59,24.888,7.212,37.09,5.834
	c1.641-0.183,4.11-0.813,5.492-0.77c0,0,66.324-2.664,107.654-23.169C164.637,139.027,65.897,161.261,22.466,150.153z
	 M76.646,174.181c1.262,0.906,2.73,1.767,4.442,2.593c5.598,2.699,13.231,3.616,19.621,2.65c1.594-0.243,5.259-1.435,6.176-1.307
	c0,0,44.328-7.571,83.308-32.136c0,0-65.162,31.836-113.548,28.202L76.646,174.181L76.646,174.181z M117.961,197.211
	c10.281,6.84,25.36,6.118,35.556,0.359c2.429-1.373,4.59-3.402,6.386-4.298c0,0,23.292-9.867,40.805-34.589
	c0,0-50.158,48.079-82.748,38.53L117.961,197.211z M185.434,213.529c1.264-0.212,2.476-0.505,3.607-0.871
	c1.852-0.602,3.707-1.916,5.182-2.172c0,0,11.463-14.702,6.767-30.506c0,0-1.417,23.731-15.553,33.544l-0.002,0.002L185.434,213.529
	L185.434,213.529z"/>
<path style="fill:#FFFFFF;" d="M238.267,81.119l9.478,430.738c2.743,0.088,5.492,0.144,8.257,0.144s5.514-0.057,8.257-0.144
	l9.477-430.738c9.101-5.841,15.134-16.054,15.134-27.675c0-18.153-14.715-32.866-32.87-32.866
	c-18.153,0-32.868,14.715-32.868,32.866C223.132,65.065,229.164,75.278,238.267,81.119z M256.004,38.118
	c7.292,0,13.209,5.915,13.209,13.209c0,7.296-5.917,13.205-13.209,13.205c-7.298,0-13.214-5.911-13.214-13.205
	S248.706,38.118,256.004,38.118z"/>
<path style="fill:#DCE3DB;" d="M273.735,81.119c0,0-3.614,1.329-9.435,2.831l0.337,410.574l9.095-413.406L273.735,81.119
	L273.735,81.119z"/>
<path style="fill:#15BDB2;" d="M245.419,483.703c6.209,9.002,34.056,12.983,45.973,25.858c-11.568,1.598-23.38,2.438-35.39,2.438
	c-3.813,0-7.604-0.088-11.377-0.254c-10.766-4.354-21.041-10.427-23.995-21.261c-6.361-27.21,8.524-38.012,25.472-45.193
	l0.62,25.306c-3.525,3.241-4.462,7.345-1.3,13.105L245.419,483.703L245.419,483.703z M266.091,437.63
	c10.23-4.163,18.062-8.963,18.036-18.04c-0.031-9.316-6.083-13.227-12.296-16.653c-26.282-15.52-85.436-16.581-74.703-79.681
	c5.966-20.419,23.843-28.866,45.151-33.205l0.855,34.7c-7.369,2.983-12.614,6.908-14.197,12.343
	c-7.217,24.726,34.469,31.816,48.954,37.977c14.177,6.034,33.474,16.444,39.582,31.245c11.778,40.225-26.158,47.898-51.979,55.803
	l0.6-24.487L266.091,437.63L266.091,437.63z M269.818,286.221c28.085-2.833,56.084-4.348,67.958-19.438
	c4.901-6.229-4.026-19.158-17.323-9.821c-0.397,0.28-48.099,21.665-41.221-2.655c0.844-2.972,5.321-10.934,6.94-13.286
	c12.755-18.561,47.239-18.395,65.065-8.592c34.728,19.105,16.247,69.66-26.008,75.854c-13.029,4.778-35.937,6.557-56.204,9.962
	l0.791-32.021L269.818,286.221z"/>
<path style="fill:#FFFFFF;" d="M292.259,246.009c0.811-7.254,6.798-8.453,7.611-6.359
	C301.211,243.12,295.262,245.491,292.259,246.009z"/>
<path style="fill:#21D0C3;" d="M270.418,483.703c-1.173,1.7-3.116,3.222-5.576,4.657l-0.155,6.189
	c6.921,2.792,14.409,5.803,20.41,9.794c4.787-3.55,8.515-8.01,10.109-13.858c13.068-55.931-63.59-42.523-63.5-70.898
	c0.027-9.316,6.085-13.227,12.294-16.654l1.036-0.598l-0.257-10.532c-7.329-2.677-14.839-5.616-21.703-9.437
	c-10.493,5.992-20.6,13.972-24.712,23.944C179.515,470.69,287.966,451.691,270.418,483.703z M244.625,511.746
	c-6.94-0.304-13.809-0.879-20.596-1.727c1.861-2.112,4.147-3.984,6.703-5.682c4.083,3.034,8.937,5.404,13.895,7.409H244.625z
	 M292.75,382.368c17.987-10,31.584-26.024,25.955-59.115c-15.809-54.113-115.215-24.148-140.647-56.475
	c-4.905-6.229,4.019-19.158,17.321-9.821c0.399,0.28,48.101,21.665,41.219-2.655c-0.842-2.972-5.323-10.934-6.936-13.286
	c-12.757-18.561-47.246-18.395-65.068-8.592c-34.724,19.105-16.249,69.66,26.008,75.854c25.722,9.428,89.986,7.186,96.299,28.811
	c3.885,13.315-6.416,21.517-19.01,27.215l-0.179,7.203c3.986,1.285,7.529,2.438,10.171,3.561
	C282.507,377.035,287.675,379.469,292.75,382.368z"/>
<path style="fill:#FFFFFF;" d="M223.58,246.009c-0.813-7.254-6.802-8.453-7.611-6.359
	C214.619,243.12,220.579,245.491,223.58,246.009z"/>
<g>
	<path style="fill:#ED4C54;" d="M274.592,210.553l-2.897-0.787l1.885-74.328c1.246,0.02,2.335,0.042,3.34-0.04l-2.33,75.154
		L274.592,210.553L274.592,210.553z"/>
	<path style="fill:#ED4C54;" d="M240.337,209.988l-2.655,0.492l-2.608-75.042c1.246,0.015,2.374-0.346,3.382-0.425L240.337,209.988z
		"/>
	<path style="fill:#ED4C54;" d="M489.536,150.153c-1.296,0.607-2.613,1.193-3.946,1.744c-11.053,4.59-24.888,7.212-37.09,5.834
		c-1.641-0.183-4.11-0.813-5.492-0.77c0,0-66.324-2.664-107.654-23.169C347.365,139.027,446.105,161.261,489.536,150.153z
		 M435.356,174.181c-1.262,0.906-2.73,1.767-4.442,2.593c-5.598,2.699-13.231,3.616-19.621,2.65
		c-1.594-0.243-5.259-1.435-6.176-1.307c0,0-44.328-7.571-83.308-32.136c0,0,65.16,31.836,113.548,28.202v-0.001H435.356z
		 M394.041,197.211c-10.281,6.84-25.36,6.118-35.556,0.359c-2.43-1.373-4.593-3.402-6.386-4.298c0,0-23.293-9.867-40.805-34.589
		c0,0,50.158,48.079,82.746,38.53L394.041,197.211L394.041,197.211z M326.568,213.529c-1.266-0.212-2.478-0.505-3.605-0.871
		c-1.854-0.602-3.711-1.916-5.184-2.172c0,0-11.463-14.702-6.767-30.506c0,0,1.418,23.731,15.556,33.544l0.002,0.002
		L326.568,213.529z"/>
</g>
<g>
	<path style="fill:#FEFEFE;" d="M237.406,266.477l10.074,3.62l-7.914-1.289l4.546,7.159l-11.234-10.855l2.227-1.255l2.298,2.619
		L237.406,266.477L237.406,266.477z"/>
	<path style="fill:#FEFEFE;" d="M278.503,266.477l-10.076,3.62l7.914-1.289l-4.546,7.159l11.234-10.855l-2.225-1.255
		L278.503,266.477z"/>
</g>
<g>
</g>
<g>
</g>
<g>
</g>
<g>
</g>
<g>
</g>
<g>
</g>
<g>
</g>
<g>
</g>
<g>
</g>
<g>
</g>
<g>
</g>
<g>
</g>
<g>
</g>
<g>
</g>
<g>
</g>
</svg>
