<?xml version="1.0" encoding="iso-8859-1"?>
<!-- Generator: Adobe Illustrator 19.0.0, SVG Export Plug-In . SVG Version: 6.00 Build 0)  -->
<svg version="1.1" id="Layer_1" xmlns="http://www.w3.org/2000/svg" xmlns:xlink="http://www.w3.org/1999/xlink" x="0px" y="0px"
	 viewBox="0 0 512 512" style="enable-background:new 0 0 512 512;" xml:space="preserve">
<circle style="fill:#FF5B62;" cx="256" cy="256" r="256"/>
<path style="fill:#FAD24D;" d="M254.074,268.84c-0.749,2.725-1.459,6.832-1.589,12.757c-0.291,13.321-2.489,34.988-4.832,42.451
	c-2.341,7.464-1.76,15.076-3.002,18.078c-1.247,3.002-1.682,10.979-2.637,13.103c-0.951,2.125,4.979,23.496,1.316,36.082
	c-3.658,12.59-4.684,19.616-4.684,21.667c0,2.051-3.22,19.616-2.194,23.639c1.025,4.027,1.538,8.859,1.025,10.467
	c-0.513,1.612,2.051,9.954-0.291,12.517c-2.341,2.563-4.466,4.974-6.586,10.905c-2.125,5.93-3.515,7.538-3.515,7.538
	s-4.027,4.392-7.464,4.392c-3.441,0-4.101-1.39-4.101-1.39s-3.146,0.365-4.027-0.951c0,0-2.928-1.025-2.928-1.977
	c0,0-1.243-0.439-1.682-2.194c-0.439-1.756-0.988-6.771,3.399-11.052c4.392-4.282,5.454-4.721,5.454-4.721l5.524-10.323
	c0,0-0.808-38.354-1.977-43.333c-1.169-4.974-3.806-28.84-2.199-43.328c1.612-14.494-1.169-29.279-1.169-29.279
	s-8.494-24.595-6.296-46.114c2.194-21.519,9.367-50.067,9.806-56.945c0.439-6.882,3.515-13.759,3.515-13.759
	s-2.341-9.076-2.051-18.443c0.295-9.372-0.877-22.692-4.392-29.717c-3.515-7.025-3.515-10.393-3.515-10.393l-10.101,24.152
	c0,0-11.126,27.962-20.642,39.671c-9.514,11.713-8.346,18.591-8.346,18.591s-2.781,14.933-3.515,17.713
	c-0.73,2.781-5.565,17.325-7.542,17.986s-2.563-2.415-1.025-6.512c1.538-4.101,2.781-9.224,2.781-9.224l-1.261,0.148
	c0,0-3.843,12.24-4.25,13.778c-0.402,1.538-1.464,6.734-3.806,6.512c-2.341-0.217-0.185-7.099-0.185-7.099l3.621-13.358
	l-1.719-0.522c0,0-2.942,10.356-3.233,11.783c-0.29,1.427-1.52,9.658-3.861,9.917c-2.341,0.258-2.194-2.596-1.94-3.515
	c0.255-0.914,1.459-9.736,2.083-11.857c0.624-2.125,2.965-8.489,2.965-8.489l-1.062-0.661c0,0-3.811,8.969-4.503,12.697
	c-0.693,3.728-1.575,6.918-3.515,6.918c-1.94,0-1.723-3.626-1.062-6.549c0.661-2.928,3.183-15.445,4.134-17.566
	c0.951-2.125,2.485-7.284,2.485-7.284s-3.021,1.408-3.788,1.446c-0.767,0.037-4.96,3.898-6.974,4.083
	c-1.57,0.143-2.517-1.473-2.859-2.19c-0.093-0.199-0.051-0.42,0.102-0.573c1.21-1.164,6.461-6.212,7.108-6.568
	c0.73-0.402,9.99-7.542,16.064-8.637c0,0,10.467-27.158,10.905-32.281c0.439-5.122,5.925-20.789,12.66-31.916
	c0,0,2.928-18.373,10.393-25.985c0,0-0.513-26.863,12.221-35.062c12.738-8.198,16.687-3.953,19.616-5.122s16.101-8.637,16.101-8.637
	V78.205c0,0-1.025-2.051-1.243-4.758c-0.218-2.707-0.218-2.707-0.218-2.707s-2.125,3.22-3.953,0.73
	c-1.829-2.489-2.415-9.367-1.612-11.196c0.803-1.829,3.002-0.661,3.002-0.661s-1.649-12.184,1.496-18.554
	c7.57-15.32,27.385-15.32,34.955,0c3.15,6.37,1.496,18.554,1.496,18.554s2.194-1.169,3.002,0.661
	c0.803,1.829,0.217,8.711-1.612,11.196c-1.829,2.489-3.953-0.73-3.953-0.73s0,0-0.218,2.707c-0.217,2.707-1.243,4.758-1.243,4.758
	v16.101c0,0,13.172,7.464,16.102,8.637c2.929,1.173,6.882-3.076,19.616,5.122s12.221,35.062,12.221,35.062
	c7.464,7.612,10.393,25.985,10.393,25.985c6.734,11.126,12.221,26.789,12.66,31.916c0.439,5.122,10.905,32.281,10.905,32.281
	c6.074,1.099,15.334,8.235,16.064,8.637c0.647,0.355,5.898,5.404,7.108,6.568c0.157,0.153,0.199,0.374,0.102,0.573
	c-0.341,0.716-1.284,2.332-2.859,2.19c-2.014-0.185-6.203-4.041-6.974-4.083c-0.767-0.037-3.788-1.446-3.788-1.446
	s1.538,5.159,2.485,7.284c0.951,2.12,3.473,14.641,4.134,17.566c0.661,2.928,0.974,5.82-0.965,5.82c-1.94,0-2.725-2.425-3.612-6.185
	c-0.887-3.76-4.503-12.697-4.503-12.697l-1.062,0.661c0,0,2.341,6.37,2.965,8.489c0.624,2.125,1.829,10.942,2.083,11.857
	c0.258,0.914,0.402,3.769-1.94,3.515c-2.341-0.254-3.57-8.489-3.861-9.917s-3.233-11.783-3.233-11.783l-1.719,0.522l3.621,13.358
	c0,0,2.162,6.882-0.185,7.099c-2.341,0.222-3.404-4.974-3.806-6.512c-0.402-1.538-4.25-13.778-4.25-13.778l-1.261-0.148
	c0,0,1.243,5.122,2.781,9.224c1.538,4.097,0.951,7.173-1.025,6.512c-1.977-0.661-6.808-15.205-7.542-17.986
	c-0.73-2.781-3.515-17.713-3.515-17.713s1.169-6.878-8.346-18.591s-20.642-39.671-20.642-39.671l-10.101-24.152
	c0,0,0,3.367-3.515,10.393s-4.684,20.345-4.392,29.717c0.291,9.367-2.051,18.443-2.051,18.443s3.076,6.882,3.515,13.759
	c0.439,6.882,7.612,35.426,9.806,56.945s-6.296,46.114-6.296,46.114s-2.781,14.785-1.169,29.279
	c1.612,14.494-1.025,38.354-2.199,43.328c-1.173,4.979-1.977,43.333-1.977,43.333l5.524,10.323c0,0,1.062,0.439,5.454,4.721
	s3.839,9.298,3.399,11.052c-0.439,1.76-1.682,2.194-1.682,2.194c0,0.951-2.928,1.977-2.928,1.977
	c-0.877,1.316-4.027,0.951-4.027,0.951s-0.661,1.39-4.101,1.39c-3.441,0-7.464-4.392-7.464-4.392s-1.39-1.612-3.515-7.538
	c-2.12-5.925-4.245-8.342-6.586-10.905s0.222-10.905-0.291-12.517c-0.513-1.612,0-6.443,1.025-10.467
	c1.025-4.027-2.194-21.593-2.194-23.639c0-2.051-1.025-9.076-4.684-21.667c-3.658-12.59,2.268-33.962,1.316-36.082
	c-0.951-2.125-1.39-10.101-2.637-13.103c-1.243-3.002-0.661-10.614-3.002-18.078c-2.341-7.464-4.54-29.131-4.832-42.451
	c-0.13-5.925-0.84-10.032-1.589-12.757c-0.241-0.877-1.011-1.469-1.926-1.469c-0.91,0-1.682,0.587-1.926,1.469L254.074,268.84z"/>
<g>
	<circle style="fill:#FFFFFF;" cx="197.993" cy="159.748" r="11.492"/>
	<path style="fill:#FFFFFF;" d="M197.993,133.732c7.168,0,13.671,2.91,18.387,7.621l0.005,0.005l0.005,0.005
		c4.711,4.716,7.621,11.214,7.621,18.387c0,7.182-2.914,13.69-7.621,18.396c-4.707,4.707-11.214,7.621-18.396,7.621
		c-7.178,0-13.676-2.914-18.387-7.621l-0.009-0.009c-4.707-4.707-7.621-11.21-7.621-18.387c0-7.182,2.914-13.69,7.621-18.396
		C184.303,136.646,190.81,133.732,197.993,133.732z M212.686,145.048c-3.751-3.755-8.947-6.074-14.692-6.074
		c-5.737,0-10.933,2.327-14.692,6.087c-3.76,3.76-6.083,8.956-6.083,14.692c0,5.741,2.323,10.938,6.078,14.697
		c3.76,3.755,8.956,6.078,14.697,6.078c5.737,0,10.933-2.327,14.692-6.083c3.76-3.76,6.087-8.956,6.087-14.692
		c0-5.746-2.323-10.938-6.074-14.692l-0.009-0.009L212.686,145.048z"/>
	<circle style="fill:#FFFFFF;" cx="279.115" cy="155.746" r="9.335"/>
	<path style="fill:#FFFFFF;" d="M279.117,134.619c5.825,0,11.103,2.364,14.933,6.189l0.005,0.005l0.005,0.005
		c3.825,3.829,6.189,9.108,6.189,14.933c0,5.834-2.364,11.117-6.189,14.942c-3.825,3.825-9.103,6.189-14.942,6.189
		c-5.829,0-11.108-2.364-14.933-6.189l-0.009-0.009c-3.825-3.825-6.189-9.103-6.189-14.933c0-5.834,2.364-11.117,6.189-14.942
		C268.001,136.984,273.283,134.619,279.117,134.619z M291.048,143.81c-3.048-3.048-7.266-4.932-11.931-4.932
		c-4.66,0-8.878,1.889-11.931,4.942c-3.053,3.053-4.942,7.27-4.942,11.931c0,4.665,1.889,8.887,4.937,11.94
		c3.053,3.048,7.275,4.937,11.94,4.937c4.66,0,8.878-1.889,11.931-4.942c3.053-3.053,4.942-7.275,4.942-11.931
		c0-4.665-1.884-8.887-4.932-11.931l-0.009-0.009L291.048,143.81z"/>
	<circle style="fill:#FFFFFF;" cx="223.803" cy="355.296" r="8.416"/>
	<path style="fill:#FFFFFF;" d="M223.807,336.246c5.252,0,10.013,2.134,13.464,5.584l0.005,0.005l0.005,0.005
		c3.45,3.45,5.584,8.212,5.584,13.464c0,5.261-2.134,10.027-5.584,13.473c-3.445,3.445-8.212,5.579-13.473,5.579
		c-5.256,0-10.018-2.134-13.469-5.579l-0.009-0.009c-3.445-3.445-5.579-8.212-5.579-13.469c0-5.261,2.134-10.027,5.579-13.473
		c3.445-3.45,8.212-5.584,13.473-5.584L223.807,336.246z M234.569,344.533c-2.749-2.749-6.554-4.448-10.762-4.448
		c-4.203,0-8.009,1.705-10.762,4.457c-2.753,2.753-4.457,6.558-4.457,10.762c0,4.203,1.705,8.009,4.452,10.766
		c2.753,2.749,6.558,4.452,10.766,4.452c4.203,0,8.009-1.705,10.762-4.457s4.457-6.558,4.457-10.762c0-4.208-1.7-8.013-4.448-10.762
		L234.569,344.533z"/>
	<circle style="fill:#FFFFFF;" cx="268.855" cy="93.497" r="6.785"/>
	<path style="fill:#FFFFFF;" d="M268.854,78.14c4.231,0,8.069,1.719,10.854,4.498l0.005,0.005l0.005,0.005
		c2.781,2.781,4.498,6.619,4.498,10.854c0,4.24-1.719,8.078-4.498,10.859c-2.781,2.781-6.619,4.498-10.859,4.498
		c-4.236,0-8.073-1.719-10.854-4.498l-0.009-0.009c-2.781-2.781-4.498-6.614-4.498-10.854c0-4.24,1.719-8.078,4.498-10.859
		C260.776,79.859,264.614,78.14,268.854,78.14z M277.528,84.819c-2.217-2.217-5.28-3.589-8.674-3.589
		c-3.385,0-6.452,1.371-8.674,3.593c-2.217,2.217-3.593,5.284-3.593,8.674s1.371,6.457,3.589,8.674
		c2.217,2.217,5.289,3.589,8.674,3.589c3.385,0,6.452-1.371,8.674-3.593c2.222-2.222,3.593-5.289,3.593-8.674
		C281.117,90.103,279.745,87.036,277.528,84.819l-0.005-0.005L277.528,84.819z"/>
</g>
<g>
</g>
<g>
</g>
<g>
</g>
<g>
</g>
<g>
</g>
<g>
</g>
<g>
</g>
<g>
</g>
<g>
</g>
<g>
</g>
<g>
</g>
<g>
</g>
<g>
</g>
<g>
</g>
<g>
</g>
</svg>
