<?xml version="1.0" encoding="iso-8859-1"?>
<!-- Generator: Adobe Illustrator 19.0.0, SVG Export Plug-In . SVG Version: 6.00 Build 0)  -->
<svg version="1.1" id="Layer_1" xmlns="http://www.w3.org/2000/svg" xmlns:xlink="http://www.w3.org/1999/xlink" x="0px" y="0px"
	 viewBox="0 0 512 512" style="enable-background:new 0 0 512 512;" xml:space="preserve">
<circle style="fill:#0F7986;" cx="255.999" cy="255.998" r="255.998"/>
<path style="fill:#FEFEFE;" d="M180.746,150.401h123.83c18.539,0,33.705,15.167,33.705,33.705l-49.825,63.746
	c-4.761,6.586-28.539,33.705-47.078,33.705H130.922c-51.17,2.165-67.095-39.246-32.537-64.209l0.004-0.002
	C102.247,187.261,117.994,150.401,180.746,150.401z"/>
<path style="fill:#EEF3F7;" d="M259.635,275.016c-6.103,3.869-12.438,6.544-18.256,6.544H130.922
	c-13.76,0.582-24.968-1.991-33.335-6.544H259.635z"/>
<path style="fill:#FEFEFE;" d="M288.457,247.852l183.918-46.524l22.955-71.439l-12.543,0.225l-16.637,42.271l-127.865,11.721
	l-49.825,63.746L288.457,247.852L288.457,247.852z"/>
<path style="fill:#EEF3F7;" d="M288.497,247.843l183.879-46.513l-174.319,34.243l-9.558,12.27H288.497z"/>
<path style="fill:#21D0C3;" d="M211.006,142.229h76.517c2.247,0,4.083,1.836,4.083,4.083v4.088H206.92v-4.087
	c0-2.247,1.836-4.083,4.083-4.083h0.003V142.229z"/>
<path style="fill:#FF5B62;" d="M232.685,133.803h33.156v8.426h-33.156V133.803z"/>
<path style="fill:#EEF3F7;" d="M249.264,76.565L249.264,76.565c1.889,0,3.435,1.543,3.435,3.435v53.804h-6.871V80
	C245.828,78.109,247.374,76.565,249.264,76.565z"/>
<path style="fill:#21D0C3;" d="M180.746,150.401c0,0-3.827,46.722-30.206,56.982c-26.378,10.257-52.151,9.963-52.151,9.963
	C102.247,187.261,117.994,150.401,180.746,150.401z"/>
<path style="fill:#FEFEFE;" d="M90.994,89.779h316.537v7.903H90.994V89.779z"/>
<g>
	<path style="fill:#FF5B62;" d="M90.994,89.779h18.517v7.903H90.994V89.779z"/>
	<path style="fill:#FF5B62;" d="M389.015,89.779h18.517v7.903h-18.517V89.779z"/>
</g>
<path style="fill:#21D0C3;" d="M488.347,105.913c13.063,0,23.652,10.587,23.652,23.652c0,13.061-10.587,23.652-23.652,23.652
	c-13.061,0-23.652-10.587-23.652-23.652C464.696,116.502,475.285,105.913,488.347,105.913z"/>
<path style="fill:#FEFEFE;" d="M488.347,120.608c4.945,0,8.956,4.01,8.956,8.956c0,4.945-4.01,8.956-8.956,8.956
	c-4.946,0-8.956-4.01-8.956-8.956C479.391,124.62,483.4,120.608,488.347,120.608z"/>
<path style="fill:#FF5B62;" d="M239.133,176.764c14.711,0,26.635,11.924,26.635,26.632c0,14.711-11.924,26.635-26.635,26.635
	s-26.632-11.924-26.632-26.635C212.5,188.688,224.424,176.764,239.133,176.764z"/>
<path style="fill:#FEFEFE;" d="M234.209,185.27h9.845v13.202h13.205v9.845h-13.205v13.205h-9.845v-13.205h-13.202v-9.845h13.202
	L234.209,185.27L234.209,185.27z"/>
<path style="fill:#21D0C3;" d="M271.123,304.236l-11.493,20.313l-1.067,1.887h-2.154H129.444c-3.808,0-7.272-1.559-9.785-4.07
	h-0.015c-2.509-2.509-4.07-5.981-4.07-9.801v-10.158h7.428v10.158c0,1.767,0.728,3.377,1.896,4.548l-0.009,0.007
	c1.171,1.164,2.785,1.887,4.555,1.887h124.811l8.647-15.284L271.123,304.236z"/>
<path style="fill:#15BDB2;" d="M160.113,281.558h6.484v37.452h-6.484V281.558z M217.009,281.558h6.484v37.452h-6.484V281.558z"/>
<path style="fill:#FF5B62;" d="M488.347,125.685c2.143,0,3.88,1.738,3.88,3.88c0,2.141-1.738,3.878-3.88,3.878
	c-2.141,0-3.878-1.738-3.878-3.878C484.469,127.422,486.206,125.685,488.347,125.685z"/>
<path style="fill:#21D0C3;" d="M241.981,86.447h14.562c2.216,0,4.028,1.812,4.028,4.028v6.504c0,2.216-1.812,4.03-4.028,4.03
	h-14.562c-2.218,0-4.03-1.814-4.03-4.03v-6.504C237.951,88.26,239.763,86.447,241.981,86.447z"/>
<path style="fill:#EEF3F7;" d="M357.706,490.981v-91.344H44.075C90.123,467.447,167.859,512,256.001,512
	C292.146,512,326.53,504.495,357.706,490.981z"/>
<path style="fill:#FFFFFF;" d="M24.509,365.409h327.824c6.427,0,11.686,5.259,11.686,11.686v27.018H47.175
	C38.539,391.955,30.95,379.009,24.509,365.409z"/>
<path style="fill:#21D0C3;" d="M237.181,394.947h-3.534v-22.494h3.534v9.642h4.015v-9.642h3.598v22.494h-3.598v-9.642h-4.015
	V394.947z M253.341,389.776c0,0.811,0.166,1.387,0.498,1.718c0.333,0.333,0.776,0.498,1.334,0.498c0.558,0,1.001-0.166,1.334-0.498
	c0.33-0.33,0.498-0.906,0.498-1.718v-12.148c0-0.813-0.166-1.387-0.498-1.718c-0.333-0.333-0.776-0.498-1.334-0.498
	c-0.556,0-1.001,0.166-1.334,0.498c-0.333,0.33-0.498,0.904-0.498,1.718V389.776z M249.806,377.854c0-1.821,0.461-3.219,1.382-4.194
	c0.921-0.977,2.249-1.462,3.984-1.462c1.736,0,3.063,0.487,3.986,1.462c0.921,0.974,1.38,2.372,1.38,4.194v11.694
	c0,1.821-0.461,3.219-1.38,4.194c-0.921,0.974-2.252,1.462-3.986,1.462c-1.735,0-3.063-0.487-3.984-1.462
	c-0.924-0.974-1.382-2.372-1.382-4.194V377.854z M265.097,377.854c0-1.821,0.434-3.219,1.303-4.194
	c0.866-0.977,2.168-1.462,3.902-1.462c1.735,0,3.036,0.487,3.904,1.462c0.868,0.974,1.3,2.372,1.3,4.194v0.708h-3.339v-0.932
	c0-0.813-0.157-1.387-0.465-1.718c-0.31-0.333-0.746-0.498-1.303-0.498c-0.558,0-0.99,0.166-1.3,0.498
	c-0.31,0.33-0.465,0.904-0.465,1.718c0,0.771,0.172,1.453,0.514,2.042c0.344,0.589,0.771,1.147,1.285,1.672
	c0.514,0.525,1.067,1.05,1.656,1.574c0.589,0.525,1.14,1.098,1.654,1.718c0.514,0.622,0.941,1.329,1.285,2.121
	c0.341,0.793,0.514,1.725,0.514,2.796c0,1.821-0.443,3.219-1.334,4.194c-0.89,0.974-2.203,1.462-3.938,1.462
	c-1.736,0-3.049-0.487-3.935-1.462c-0.89-0.974-1.334-2.372-1.334-4.194v-1.382h3.342v1.607c0,0.811,0.166,1.38,0.498,1.702
	c0.333,0.319,0.776,0.483,1.334,0.483c0.556,0,1.001-0.161,1.331-0.483c0.333-0.322,0.498-0.891,0.498-1.702
	c0-0.773-0.172-1.453-0.514-2.042c-0.344-0.589-0.771-1.147-1.285-1.672c-0.514-0.525-1.065-1.047-1.654-1.574
	c-0.589-0.525-1.142-1.098-1.654-1.72c-0.516-0.622-0.944-1.329-1.288-2.121c-0.341-0.793-0.514-1.725-0.514-2.796v0.002H265.097z
	 M285.498,372.454c1.778,0,3.1,0.47,3.966,1.413c0.868,0.941,1.303,2.323,1.303,4.145v2.923c0,1.821-0.434,3.204-1.303,4.145
	c-0.866,0.941-2.19,1.415-3.966,1.415h-1.672v8.449h-3.534v-22.494h5.206L285.498,372.454L285.498,372.454z M283.827,375.666v7.618
	h1.672c0.558,0,0.985-0.15,1.285-0.45c0.3-0.3,0.45-0.857,0.45-1.672v-3.375c0-0.811-0.15-1.369-0.45-1.672
	c-0.299-0.299-0.728-0.45-1.285-0.45L283.827,375.666L283.827,375.666z M295.133,372.454h3.534v22.494h-3.534V372.454z
	 M302.936,372.454h10.928v3.213h-3.698v19.281h-3.534v-19.281h-3.696L302.936,372.454L302.936,372.454z M328.349,394.947h-3.567
	l-0.609-4.081h-4.336l-0.611,4.081h-3.246l3.601-22.494h5.173l3.598,22.494H328.349z M320.283,387.813h3.408l-1.705-11.375
	L320.283,387.813z M332.714,372.454h3.536v19.279h5.817v3.215h-9.353V372.454z"/>
<path style="fill:#D9DADA;" d="M47.175,404.114h310.531v12.378L51.65,410.201c-1.519-2.009-3.016-4.033-4.476-6.085L47.175,404.114
	L47.175,404.114z"/>
<g>
	<path style="fill:#21D0C3;" d="M67.191,428.865c-2.697-2.941-5.321-5.951-7.878-9.015h7.878V428.865z M244.596,419.85h45.014
		v22.068h-45.014L244.596,419.85L244.596,419.85z M298.436,419.85h45.014v22.068h-45.014V419.85z M106.466,419.85h45.014v22.068
		h-45.014C106.466,441.917,106.466,419.85,106.466,419.85z M160.305,419.85h45.014v22.068h-45.014V419.85z"/>
	<path style="fill:#21D0C3;" d="M146.994,487.679c-13.324-6.284-26.022-13.674-37.968-22.066h42.454v22.066H146.994z
		 M244.598,465.613h45.014v22.066h-45.014V465.613z M298.438,465.613h45.014v22.066h-45.014V465.613z M160.309,465.613h45.014
		v22.066h-45.014V465.613z"/>
</g>
<g>
	<path style="fill:#D9DADA;" d="M90.017,450.883h267.689v5.79H97.053c-2.379-1.887-4.723-3.821-7.033-5.79H90.017z"/>
	<path style="fill:#D9DADA;" d="M171.88,497.839h168.242c-6.227,2.168-12.563,4.101-18.997,5.792H190.879
		c-6.436-1.689-12.77-3.625-18.997-5.792H171.88z"/>
</g>
<path style="fill:#FF5B62;" d="M208.212,371.839h6.442v8.641h8.641v6.442h-8.641v8.641h-6.442v-8.641h-8.641v-6.442h8.641V371.839z"
	/>
<g>
</g>
<g>
</g>
<g>
</g>
<g>
</g>
<g>
</g>
<g>
</g>
<g>
</g>
<g>
</g>
<g>
</g>
<g>
</g>
<g>
</g>
<g>
</g>
<g>
</g>
<g>
</g>
<g>
</g>
</svg>
