<?xml version="1.0" encoding="iso-8859-1"?>
<!-- Generator: Adobe Illustrator 19.0.0, SVG Export Plug-In . SVG Version: 6.00 Build 0)  -->
<svg version="1.1" id="Layer_1" xmlns="http://www.w3.org/2000/svg" xmlns:xlink="http://www.w3.org/1999/xlink" x="0px" y="0px"
	 viewBox="0 0 512 512" style="enable-background:new 0 0 512 512;" xml:space="preserve">
<circle style="fill:#ECF0F1;" cx="256" cy="256" r="256"/>
<circle style="fill:#FAD24D;" cx="256" cy="256" r="256"/>
<ellipse style="fill:#EDB937;" cx="256" cy="421.646" rx="182.284" ry="14.37"/>
<path style="fill:#666666;" d="M65.983,67.223H446.02c12.486,0,22.701,10.216,22.701,22.702v234.107H43.282V89.924
	C43.282,77.439,53.498,67.223,65.983,67.223L65.983,67.223z"/>
<path style="fill:#0F7986;" d="M58.696,308.616h394.608V89.924c0-3.978-3.309-7.287-7.286-7.287H65.982
	c-3.977,0-7.286,3.309-7.286,7.287V308.616L58.696,308.616z"/>
<path style="fill:#FFFFFF;" d="M468.72,324.031v24.828c0,12.488-11.259,22.702-25.025,22.702H68.307
	c-13.764,0-25.025-10.214-25.025-22.702v-24.828H468.72L468.72,324.031z"/>
<circle style="fill:#B6B6B8;" cx="256" cy="346.803" r="7.815"/>
<path style="fill:#C2C2C4;" d="M305.066,407.273l36.096,11.566H170.837l29.124-11.566V371.56h105.105V407.273z"/>
<path style="fill:#B0B0B0;" d="M305.066,407.273L199.961,371.56h105.105V407.273z"/>
<path style="fill:#ECF0F1;" d="M199.961,407.273h105.105l36.096,11.566v4.981h-85.161h-85.164v-4.981L199.961,407.273
	L199.961,407.273z"/>
<path style="fill:#FF5B62;" d="M208.582,110.96c26.189,0,47.419,15.158,47.419,42.328c0-27.169,21.232-42.328,47.42-42.328
	s47.419,22.025,47.419,49.194c0,35.163-71.232,100.109-94.839,127.049c-23.606-26.938-94.839-91.886-94.839-127.049
	C161.161,132.985,182.393,110.96,208.582,110.96z"/>
<g>
	<path style="fill:#FEFEFE;" d="M114.103,198.26c-1.301,0-2.357-1.056-2.357-2.357c0-1.301,1.056-2.357,2.357-2.357h83.087
		l15.061-36.495c0.493-1.2,1.867-1.773,3.067-1.281c0.616,0.253,1.066,0.737,1.291,1.31l0.006-0.002l22.931,57.888l20.15-34.119
		c0.662-1.119,2.105-1.49,3.224-0.828c0.365,0.216,0.652,0.516,0.847,0.86l11.847,18.165l16.933-18.008
		c0.889-0.945,2.378-0.99,3.324-0.102c0.18,0.169,0.325,0.358,0.44,0.562l0.002-0.001l6.763,12.063h119.071
		c1.301,0,2.357,1.056,2.357,2.357s-1.056,2.357-2.357,2.357H301.699v-0.004c-0.822,0-1.622-0.434-2.053-1.203l-5.871-10.473
		l-16.782,17.847l-0.001-0.001c-0.126,0.133-0.269,0.255-0.431,0.36c-1.088,0.706-2.545,0.397-3.251-0.691l-11.485-17.611
		l-20.63,34.93c-0.255,0.468-0.669,0.853-1.203,1.064c-1.21,0.477-2.579-0.117-3.057-1.326l-22.56-56.951l-13.372,32.402
		c-0.304,0.951-1.196,1.639-2.246,1.639L114.103,198.26L114.103,198.26z M263.769,180.88c0.403,0.71,0.427,1.61-0.019,2.363"/>
	<path style="fill:#FEFEFE;" d="M308.003,288.363c-0.651,0-1.179-0.528-1.179-1.179c0-0.651,0.528-1.179,1.179-1.179h19.463
		l4.367-10.584c0.247-0.6,0.933-0.886,1.534-0.64c0.307,0.126,0.533,0.369,0.646,0.656l0.004-0.001l6.478,16.354l5.513-9.336
		c0.33-0.559,1.053-0.744,1.612-0.414c0.177,0.105,0.316,0.249,0.414,0.414l3.197,4.901l4.634-4.928
		c0.444-0.473,1.191-0.495,1.663-0.051c0.09,0.085,0.163,0.18,0.221,0.281l1.879,3.352h25.239c0.651,0,1.179,0.528,1.179,1.179
		s-0.528,1.179-1.179,1.179h-25.926v-0.002c-0.412,0-0.812-0.217-1.027-0.601l-1.432-2.556l-4.559,4.849l-0.001-0.001
		c-0.064,0.066-0.136,0.129-0.216,0.181c-0.543,0.352-1.274,0.198-1.626-0.345l-3.006-4.61l-5.74,9.72
		c-0.126,0.246-0.338,0.447-0.614,0.555c-0.605,0.239-1.29-0.059-1.529-0.664l-6.293-15.885l-3.524,8.54
		c-0.154,0.473-0.597,0.815-1.121,0.815h-20.25V288.363z"/>
	<path style="fill:#FEFEFE;" d="M395.579,272.886h42.361v3.009h-42.361V272.886z M395.579,298.112h25.636v3.009h-25.636V298.112z
		 M395.579,285.498h42.361v3.009h-42.361V285.498z"/>
</g>
<g>
</g>
<g>
</g>
<g>
</g>
<g>
</g>
<g>
</g>
<g>
</g>
<g>
</g>
<g>
</g>
<g>
</g>
<g>
</g>
<g>
</g>
<g>
</g>
<g>
</g>
<g>
</g>
<g>
</g>
</svg>
