<?xml version="1.0" encoding="iso-8859-1"?>
<!-- Generator: Adobe Illustrator 19.0.0, SVG Export Plug-In . SVG Version: 6.00 Build 0)  -->
<svg version="1.1" id="Layer_1" xmlns="http://www.w3.org/2000/svg" xmlns:xlink="http://www.w3.org/1999/xlink" x="0px" y="0px"
	 viewBox="0 0 512 512" style="enable-background:new 0 0 512 512;" xml:space="preserve">
<path style="fill:#21D0C3;" d="M255.999,0C397.385,0,512,114.613,512,256.001C512,397.385,397.385,512,255.999,512
	S0,397.385,0,256.001C0,114.613,114.614,0,255.999,0z"/>
<ellipse style="fill:#15BDB2;" cx="256" cy="436.198" rx="123.03" ry="10.04"/>
<path style="fill:#EEF3F7;" d="M255.998,106.621c-27.271,0.242-94.654-25.566-113.559,1.375
	c-20.639,29.415-17.199,93.555-2.949,115.617c14.251,22.061,25.063,37.176,25.063,45.348c0,8.171-1.967,141.763-0.985,151.976
	c0.984,10.214,4.423,17.567,8.847,17.567c4.421,0,18.881-24.104,25.761-41.671c6.88-17.567,43.353-99.868,59.08-99.868
	c31.071,0,79.744,141.539,82.33,141.539c4.421,0,7.863-7.354,8.846-17.567c0.983-10.213-0.984-143.805-0.984-151.976
	c0-8.171,10.811-23.288,25.063-45.348c14.251-22.062,17.688-86.203-2.95-115.617C350.654,81.055,292.607,109.724,255.998,106.621z"
	/>
<g>
	<path style="fill:#FFFFFF;" d="M236.884,104.507c-27.326-2.643-65.163-0.721-79.688,7.758
		c-14.526,8.477-27.048,78.466-6.408,109.923s26.535,40.853,22.113,68.634s-7.358,132.362-0.487,147.686
		c-4.421,0-7.862-7.355-8.845-17.567c-0.983-10.214,0.984-143.806,0.984-151.977c0-8.171-10.812-23.288-25.063-45.349
		c-14.25-22.059-17.688-86.202,2.95-115.616C157.78,86.136,205.037,99.005,236.884,104.507L236.884,104.507z"/>
	<path style="fill:#FFFFFF;" d="M339.585,438.506c-17.214-40.572-45.449-150.684-82.841-141.511
		C280.951,296.995,328.116,440.507,339.585,438.506z"/>
</g>
<g>
	<path style="fill:#D9DADA;" d="M348.168,331.268c-0.343-30.912-0.723-58.715-0.723-62.305c0-8.171,10.811-23.288,25.063-45.348
		c7.858-12.163,12.426-37.121,11.485-61.997c-1.608,40.7-41.633,90.841-44.706,97.757c-3.074,6.918,8.618,46.516,8.88,71.872
		L348.168,331.268L348.168,331.268z"/>
	<path style="fill:#D9DADA;" d="M257.818,114.999c-18.062,0.594-37.47-9.654-47.846-3.736c0,0,25.173,5.457,39.776,10.442
		c26.065,8.897,51.857-16.115,68.79-12.524C304.055,101.721,275.275,114.426,257.818,114.999L257.818,114.999z"/>
</g>
<path style="fill:#FAD24D;" d="M213.181,197.85c-22.344-17.008-45.593,12.697-34.051,50.789
	c11.542,38.092-11.707,149.472-8.315,180.356c0,0,1.224,5.922,5.481,1.124c4.258-4.798,46.228-148.003,79.703-149.735
	c33.476,1.732,75.446,144.937,79.703,149.735c4.258,4.799,5.481-1.124,5.481-1.124c3.392-30.884-19.857-142.264-8.315-180.356
	c11.542-38.092-11.703-67.796-34.05-50.789C271.093,218.946,240.904,218.95,213.181,197.85L213.181,197.85z"/>
<path style="fill:#FF5B62;" d="M256.122,228.387c-13.352,0.152-44.773-14.038-57.588-3.333
	c-14.706,10.832,14.239,33.923-11.28,109.706c-1.194,11.141-11.482,56.77-6.008,57.397c6.05-1.209,12.035-32.233,18.813-48.048
	c6.931-16.173,17.982-50.911,27.68-65.656c5.046-7.675,16.01-11.992,28.383-11.694c12.374-0.297,23.337,4.02,28.384,11.694
	c9.698,14.745,20.748,49.482,27.68,65.656c6.778,15.815,12.762,46.841,18.812,48.048c5.474-0.627-4.813-46.256-6.007-57.397
	c-25.519-75.784,3.426-98.874-11.281-109.706C300.896,214.349,269.475,228.539,256.122,228.387z"/>
<g>
</g>
<g>
</g>
<g>
</g>
<g>
</g>
<g>
</g>
<g>
</g>
<g>
</g>
<g>
</g>
<g>
</g>
<g>
</g>
<g>
</g>
<g>
</g>
<g>
</g>
<g>
</g>
<g>
</g>
</svg>
