<?xml version="1.0" encoding="iso-8859-1"?>
<!-- Generator: Adobe Illustrator 19.0.0, SVG Export Plug-In . SVG Version: 6.00 Build 0)  -->
<svg version="1.1" id="Layer_1" xmlns="http://www.w3.org/2000/svg" xmlns:xlink="http://www.w3.org/1999/xlink" x="0px" y="0px"
	 viewBox="0 0 511.997 511.997" style="enable-background:new 0 0 511.997 511.997;" xml:space="preserve">
<circle style="fill:#0F7986;" cx="255.999" cy="255.999" r="255.999"/>
<path style="fill:#FF5B62;" d="M156.208,230.68c1.904,3.467,2.987,7.449,2.987,11.683c0,13.43-10.888,24.317-24.317,24.317
	s-24.318-10.888-24.318-24.317c0-4.234,1.083-8.215,2.987-11.683c-1.904-3.467-2.987-7.449-2.987-11.683
	c0-6.956,2.922-13.23,7.604-17.663c-4.96-4.454-8.081-10.912-8.081-18.102c0-4.695,1.332-9.081,3.638-12.798
	c-3.892-4.313-6.264-10.025-6.264-16.291c0-5.524,1.844-10.618,4.949-14.702c-2.961-4.029-4.711-9.002-4.711-14.385
	c0-7.027,2.982-13.356,7.746-17.797c-5.866-4.44-9.655-11.476-9.655-19.4c0-13.43,10.888-24.317,24.318-24.317
	c4.638,0,8.97,1.298,12.658,3.552c4.302-3.84,9.972-6.175,16.189-6.175c7.659,0,14.487,3.541,18.946,9.073
	c2.159-0.63,4.443-0.968,6.807-0.968c7.486,0,14.182,3.383,18.641,8.703c2.982-1.303,6.272-2.028,9.731-2.028
	c4.905,0,9.469,1.453,13.291,3.95c3.25-1.613,6.916-2.521,10.791-2.521c6.951,0,13.217,2.914,17.65,7.588
	c3.68-2.243,8.005-3.536,12.632-3.536c3.622,0,7.058,0.794,10.148,2.214c4.341-4.037,10.159-6.507,16.554-6.507
	c3.657,0,7.124,0.807,10.232,2.254c4.43-5.996,11.546-9.884,19.571-9.884c1.82,0,3.596,0.202,5.301,0.582
	c4.454-5.587,11.318-9.165,19.017-9.165c4.669,0,9.031,1.316,12.735,3.599c3.331-1.713,7.108-2.681,11.111-2.681
	c13.43,0,24.318,10.888,24.318,24.317c0,4.881-1.437,9.428-3.913,13.236c1.398,2.009,2.305,4.268,2.594,6.673
	c5.049,4.456,8.234,10.975,8.234,18.237c0,5.183-1.621,9.985-4.385,13.934c1.285,2.964,2.001,6.235,2.001,9.674
	c0,5.632-1.915,10.815-5.131,14.938c3.072,4.071,4.891,9.136,4.891,14.626c0,4.504-1.225,8.719-3.36,12.336
	c4.711,4.435,7.651,10.728,7.651,17.708c0,5.385-1.753,10.361-4.716,14.393c3.683,4.263,5.909,9.816,5.909,15.888
	c0,7.19-3.121,13.65-8.081,18.102c4.123,4.356,6.649,10.238,6.649,16.708c0,9.752-5.742,18.161-14.028,22.039
	c1.351,3.027,2.106,6.382,2.106,9.91c0,11.528-8.021,21.18-18.786,23.686c1.044,2.712,1.619,5.661,1.619,8.74
	c0,13.43-10.888,24.317-24.317,24.317c-3.756,0-7.313-0.852-10.489-2.373c-3.328,9.463-12.344,16.249-22.946,16.249
	c-5.975,0-11.447-2.156-15.68-5.731c-4.362,4.144-10.256,6.684-16.745,6.684c-4.695,0-9.081-1.332-12.8-3.641
	c-2.146,3.546-5.17,6.5-8.774,8.559c1.149,2.825,1.781,5.912,1.781,9.149c0,3.006-0.546,5.887-1.545,8.543
	c2.84,2.557,4.724,5.888,5.175,9.584c1.766,2.747,2.814,5.996,2.874,9.49c5.288,3.174,8.827,8.962,8.827,15.578
	c0,10.03-8.131,18.161-18.159,18.161c-9.923,0-17.986-7.958-18.156-17.839c-4.388-2.636-7.572-7.074-8.527-12.286
	c-2.783-2.471-4.669-5.679-5.212-9.246c-8.223-3.9-13.913-12.278-13.913-21.986c0-3.599,0.781-7.014,2.185-10.088
	c-1.978-2.67-3.116-5.808-3.116-9.162c0-6.916,4.843-12.905,11.89-15.796c2.217-11.148,12.052-19.552,23.851-19.552
	c4.695,0,9.081,1.332,12.8,3.641c4.26-7.04,11.99-11.748,20.819-11.748c5.975,0,11.447,2.156,15.68,5.731
	c4.362-4.142,10.259-6.684,16.745-6.684c3.756,0,7.313,0.852,10.489,2.373c2.731-7.767,9.291-13.726,17.414-15.617
	c-1.044-2.712-1.619-5.661-1.619-8.74c0-9.752,5.742-18.164,14.028-22.039c-1.353-3.027-2.106-6.382-2.106-9.91
	c0-7.19,3.122-13.65,8.081-18.102c-4.123-4.356-6.649-10.238-6.649-16.708c0-5.385,1.753-10.361,4.716-14.393
	c-3.68-4.263-5.907-9.816-5.907-15.888c0-4.504,1.225-8.719,3.357-12.336c-4.708-4.435-7.651-10.725-7.651-17.705
	c0-5.632,1.915-10.817,5.128-14.938c-3.072-4.071-4.891-9.136-4.891-14.626c0-5.183,1.621-9.985,4.385-13.934
	c-1.285-2.964-2.001-6.235-2.001-9.674c0-2.502,0.377-4.915,1.081-7.187c-1.891-2.308-3.103-5.004-3.415-7.906
	c-1.335,0.229-2.707,0.346-4.108,0.346c-1.82,0-3.596-0.202-5.301-0.582c-4.456,5.587-11.318,9.165-19.017,9.165
	c-3.657,0-7.124-0.807-10.232-2.254c-4.43,5.996-11.546,9.884-19.571,9.884c-3.622,0-7.058-0.794-10.148-2.214
	c-4.341,4.037-10.159,6.507-16.554,6.507c-6.948,0-13.217-2.914-17.65-7.588c-3.68,2.243-8.005,3.536-12.632,3.536
	c-4.905,0-9.469-1.453-13.288-3.95c-3.253,1.613-6.916,2.521-10.791,2.521c-7.486,0-14.18-3.383-18.641-8.703
	c-2.982,1.303-6.272,2.028-9.734,2.028c-7.15,0-13.579-3.087-18.028-8.002c-1.794,3.509-5.55,5.928-9.894,5.928
	c-0.852,0-1.684-0.095-2.481-0.27c1.303,2.982,2.03,6.277,2.03,9.739c0,5.526-1.844,10.618-4.949,14.702
	c2.961,4.029,4.711,9.002,4.711,14.385c0,4.698-1.332,9.083-3.638,12.798c3.892,4.313,6.264,10.025,6.264,16.291
	c0,6.956-2.922,13.23-7.604,17.663c4.96,4.454,8.081,10.912,8.081,18.102c0,4.236-1.083,8.215-2.987,11.683L156.208,230.68z"/>
<g>
	<path style="fill:#ED4C54;" d="M135.465,237.324c11.951,0,21.638,6.581,21.638,14.702c0,8.118-9.687,14.702-21.638,14.702
		c-11.951,0-21.64-6.584-21.64-14.702C113.825,243.905,123.515,237.324,135.465,237.324z"/>
	<path style="fill:#ED4C54;" d="M262.049,424.717c8.071-1.212,15.45,3.383,16.481,10.264c1.033,6.881-4.674,13.441-12.743,14.649
		c-8.071,1.212-15.45-3.383-16.481-10.264C248.273,432.486,253.977,425.929,262.049,424.717z"/>
	<path style="fill:#ED4C54;" d="M151.749,247.769c0,0,6.436-8.297,0.716-17.024c0,0,4.577-22.461-5.437-29.472
		c0,0,12.439-21.601,1.569-34.188c0,0,8.582-16.452-1.718-27.61c2.085-1.097,7.683-14.322,2.217-27.038
		c3.077,1.358,15.423-1.34,17.797-8.289c0,0,15.324,12.724,28.839,5.999c0,0,17.097,14.736,28.825,8.01
		c0,0,15.303,4.362,26.175-0.643c0,0,14.736,12.947,33.047,3.362c0,0,17.813,2.434,26.395-7.011c0,0,1.144-3.863,5.866-2.72
		c4.722,1.144,20.312,0.396,25.894-8.189c0,0,12.189,3.185,17.483-1.107c0,0-4.326,13.091,2.969,16.31
		c0,0-4.648,12.587-0.215,17.451c0,0-7.872,17.236-0.577,25.677c0,0-10.164,19.458,2.853,33.622c0,0-5.434,15.308,2.146,27.61
		c0,0-7.942,19.098,1.07,31.399c0,0-8.729,15.022-4.724,29.326c0,0-16.454,12.302-13.879,30.041c0,0-15.662,7.366-17.165,18.167
		c0,0-18.387-4.218-28.543,5.508c0,0-16.378-8.653-26.249-2.502c-9.873,6.151-9.443,9.871-9.443,9.871s-26.183-8.869-34.91,10.731
		c0,0-13.589,10.586-7.438,22.173c0,0-8.585,19.885,7.58,31.33c0,0,2.718,10.298,9.012,12.302c0,0,1.144,7.153,3.72,9.299
		l-1.277,3.069c-4.189-2.66-7.213-6.99-8.139-12.05c-2.783-2.471-4.669-5.679-5.212-9.246c-8.223-3.9-13.913-12.278-13.913-21.986
		c0-3.599,0.781-7.014,2.185-10.088c-1.978-2.67-3.116-5.808-3.116-9.162c0-6.916,4.843-12.905,11.89-15.796
		c2.217-11.148,12.052-19.552,23.851-19.552c4.695,0,9.081,1.332,12.8,3.641c4.26-7.04,11.99-11.748,20.819-11.748
		c5.975,0,11.447,2.156,15.68,5.731c4.362-4.142,10.259-6.684,16.745-6.684c3.757,0,7.313,0.852,10.489,2.373
		c2.731-7.767,9.291-13.726,17.414-15.617c-1.044-2.712-1.619-5.661-1.619-8.74c0-9.752,5.742-18.164,14.027-22.039
		c-1.353-3.027-2.106-6.382-2.106-9.91c0-7.19,3.121-13.65,8.081-18.102c-4.123-4.356-6.649-10.238-6.649-16.708
		c0-5.385,1.753-10.361,4.716-14.393c-3.68-4.263-5.907-9.816-5.907-15.888c0-4.504,1.225-8.719,3.357-12.336
		c-4.709-4.435-7.651-10.725-7.651-17.705c0-5.632,1.915-10.817,5.128-14.938c-3.072-4.071-4.891-9.136-4.891-14.626
		c0-5.183,1.621-9.985,4.385-13.934c-1.285-2.964-2.001-6.235-2.001-9.674c0-2.502,0.377-4.915,1.081-7.187
		c-1.891-2.308-3.103-5.004-3.415-7.906c-1.335,0.229-2.707,0.346-4.108,0.346c-1.82,0-3.596-0.202-5.301-0.582
		c-4.456,5.587-11.318,9.165-19.017,9.165c-3.657,0-7.124-0.807-10.232-2.254c-4.43,5.996-11.546,9.884-19.571,9.884
		c-3.622,0-7.058-0.794-10.148-2.214c-4.341,4.037-10.159,6.507-16.554,6.507c-6.948,0-13.217-2.914-17.65-7.588
		c-3.68,2.243-8.005,3.536-12.632,3.536c-4.905,0-9.469-1.453-13.288-3.95c-3.253,1.613-6.916,2.521-10.791,2.521
		c-7.486,0-14.18-3.383-18.641-8.703c-2.982,1.303-6.272,2.028-9.734,2.028c-7.15,0-13.579-3.087-18.028-8.002
		c-1.794,3.509-5.55,5.928-9.894,5.928c-0.852,0-1.684-0.095-2.481-0.27c1.303,2.982,2.03,6.277,2.03,9.739
		c0,5.526-1.844,10.618-4.949,14.702c2.961,4.029,4.711,9.002,4.711,14.385c0,4.698-1.332,9.083-3.638,12.798
		c3.892,4.313,6.264,10.025,6.264,16.291c0,6.956-2.922,13.23-7.604,17.663c4.96,4.454,8.081,10.912,8.081,18.102
		c0,4.236-1.083,8.215-2.987,11.683c1.904,3.467,2.987,7.449,2.987,11.683c0,2.316-0.322,4.556-0.928,6.681l-6.518-1.273h-0.008
		V247.769z"/>
</g>
<g>
</g>
<g>
</g>
<g>
</g>
<g>
</g>
<g>
</g>
<g>
</g>
<g>
</g>
<g>
</g>
<g>
</g>
<g>
</g>
<g>
</g>
<g>
</g>
<g>
</g>
<g>
</g>
<g>
</g>
</svg>
