<?xml version="1.0" encoding="iso-8859-1"?>
<!-- Generator: Adobe Illustrator 19.0.0, SVG Export Plug-In . SVG Version: 6.00 Build 0)  -->
<svg version="1.1" id="Layer_1" xmlns="http://www.w3.org/2000/svg" xmlns:xlink="http://www.w3.org/1999/xlink" x="0px" y="0px"
	 viewBox="0 0 511.997 511.997" style="enable-background:new 0 0 511.997 511.997;" xml:space="preserve">
<circle style="fill:#21D0C3;" cx="255.999" cy="255.999" r="255.999"/>
<path style="fill:#FED298;" d="M223.577,2.038l24.688,183.82c0,0,6.033,84.846-11.604,101.319
	c-1.943,1.815-163.909,88.731-189.368,100.096c-10.915,4.873-42.983,8.58-44.641,12.086c-1.655,3.507-0.588,33.918,23.584,39.765
	c24.172,5.848,60.93-0.147,64.513,0.593c3.58,0.74,37.034,19.3,68.806,12.869c31.773-6.431,48.201-24.444,98.659-21.674
	c50.459,2.768,68.964,16.806,96.836,8.616c27.874-8.186,44.811-18.076,41.118-59.718c-3.693-41.645-15.964-54.315-15.964-54.315
	s-7.741-98.743-7.229-131.182s0.517-33.947,0.517-33.947s0.063-24.916,10.004-43.24c6.161-11.355,14.266-43.749,16.942-72.497
	C359.322,16.481,309.588,0.003,255.997,0.003C245.015,0.003,234.195,0.698,223.577,2.038z"/>
<g>
	<path style="fill:#F0BA7D;" d="M374.633,146.581c1.21-8.656,3.709-19.943,8.869-29.453c6.161-11.355,14.266-43.749,16.942-72.497
		c-2.927-2.004-5.899-3.945-8.911-5.829c-0.296,20.737-3.433,45.042-13.204,67.904c-4.787,15.405-5.369,28.691-3.693,39.875H374.633
		z"/>
	<path style="fill:#F0BA7D;" d="M3.85,415.455c2.66,9.587,8.954,20.42,22.387,23.67c24.171,5.847,60.93-0.147,64.513,0.593
		c1.157,0.239,5.435,2.339,11.764,4.855c-7.053-2.956-14.699-11.376-14.699-11.376s-29.432,3.119-52.24,2.534
		c-22.595-0.58-31.56-19.916-31.723-20.276L3.85,415.455L3.85,415.455z"/>
</g>
<path style="fill:#FFFFFF;" d="M379.559,130.159L379.559,130.159l-138.615,17.75l5.081,38.044c0,0,8.273,84.749-9.362,101.222
	c-1.619,1.511-114.392,61.669-166.741,88.456l0,0l86.434,77.515c1.07-0.16,2.138-0.349,3.203-0.564
	c31.773-6.431,48.201-24.444,98.659-21.674c50.459,2.768,68.964,16.806,96.836,8.616c27.874-8.186,44.811-18.076,41.118-59.718
	c-3.693-41.645-15.964-54.315-15.964-54.315s-6.473-98.352-5.962-130.791c0.511-32.438,0.517-33.946,0.517-33.946
	s0.039-15.208,4.798-30.597v0.001H379.559z"/>
<g>
	<path style="fill:#EEF3F7;" d="M208.106,302.807l-6.891,3.696l123.704,122.106l5.392,0.905L208.106,302.807z"/>
	<path style="fill:#EEF3F7;" d="M379.559,130.159L379.559,130.159l-10.757,1.377c0,0-7.599,134.382-0.582,170.248
		c7.017,35.867,20.077,71.34,17.543,88.691c-2.534,17.349-13.842,33.724-36.452,39.377c-22.611,5.653-79.336-23.198-135.082-5.265
		c-55.579,17.878-61.693,25.058-61.73,25.1l3.855,3.46c1.07-0.16,2.138-0.349,3.203-0.564c31.773-6.431,48.201-24.444,98.659-21.674
		c50.459,2.768,68.964,16.806,96.836,8.616c27.874-8.186,44.811-18.076,41.118-59.718c-3.693-41.645-15.964-54.315-15.964-54.315
		s-6.473-98.352-5.962-130.791c0.511-32.438,0.517-33.947,0.517-33.947S374.801,145.548,379.559,130.159z"/>
	<path style="fill:#EEF3F7;" d="M103.228,444.851l0.619-38.771l52.502,47.067c-20.108,3.032-40.46-3.323-53.124-8.294
		L103.228,444.851z"/>
	<path style="fill:#EEF3F7;" d="M246.36,189.816l126.282,131.906l1.086,4.417L247.187,201.968
		c-0.288-5.128-0.598-9.341-0.826-12.155V189.816z"/>
	<path style="fill:#EEF3F7;" d="M375.016,155.282l-88.18,76.818l2.655,2.773l85.234-71.427l0.288-8.163H375.016z"/>
	<path style="fill:#EEF3F7;" d="M375.566,243.05l-52,27.413l2.565,2.681l49.751-23.342L375.566,243.05z"/>
</g>
<path style="fill:#FFFFFF;" d="M6.204,398.76l19.421-4.095l4.548,5.508l-21.799,5.508c0,0-3.354-5.312-2.169-6.919L6.204,398.76
	L6.204,398.76z"/>
<g>
</g>
<g>
</g>
<g>
</g>
<g>
</g>
<g>
</g>
<g>
</g>
<g>
</g>
<g>
</g>
<g>
</g>
<g>
</g>
<g>
</g>
<g>
</g>
<g>
</g>
<g>
</g>
<g>
</g>
</svg>
