<?xml version="1.0" encoding="iso-8859-1"?>
<!-- Generator: Adobe Illustrator 19.0.0, SVG Export Plug-In . SVG Version: 6.00 Build 0)  -->
<svg version="1.1" id="Layer_1" xmlns="http://www.w3.org/2000/svg" xmlns:xlink="http://www.w3.org/1999/xlink" x="0px" y="0px"
	 viewBox="0 0 512 512" style="enable-background:new 0 0 512 512;" xml:space="preserve">
<circle style="fill:#FAD24D;" cx="256" cy="255.999" r="255.999"/>
<path style="fill:#15BDB2;" d="M11.068,330.629c19.935-117.256,122.004-206.537,244.933-206.537
	c122.935,0,224.998,89.282,244.936,206.535C468.992,435.605,371.427,512,256.001,512c-115.423,0-212.988-76.392-244.933-181.368
	L11.068,330.629L11.068,330.629z"/>
<path style="fill:#ECF0F1;" d="M482.516,375.347c-1.619,3.069-3.295,6.104-5.033,9.096c-0.598-0.467-1.11-0.781-1.332-0.745
	c-0.693,0.131-0.73-0.753-0.105-1.959c0.627-1.225,3.971-1.815,3.897-3.282C479.866,377.146,481.456,375.363,482.516,375.347z
	 M467.392,400.41c-4.664,6.812-9.647,13.388-14.93,19.706c-1.742-0.464-3.266-0.976-3.665-1.608
	c-0.939-1.542,0.349-8.158,3.974-10.098c3.588-1.93,8.614-12.819,10.169-12.276c1.419,0.496,4.116,3.001,4.448,4.273L467.392,400.41
	z M446.41,427.095c-0.934,1.039-1.88,2.067-2.832,3.093c-2.285-0.554-3.953-1.089-3.84-1.519c0.252-1.081,3.554-2.749,6.382-1.687
	l0,0L446.41,427.095z M142.363,485.436c-23.935-11.882-45.747-27.389-64.717-45.818c-1.181-2.935-1.287-8.179-0.511-8.271
	c0.978-0.137,1.508-2.07,0.267-2.618c-1.265-0.554-4.158-4.239-4.643-6.038c-0.472-1.782,1.718-10.825,2.77-12.076
	c1.068-1.241,1.946-7.475,2.431-8c0.493-0.543,0.333-3.924-0.296-5.309c-0.643-1.366-1.857-5.362-2.329-4.661
	c-0.464,0.695-2.951,1.152-4.448-0.506c-1.5-1.658-7.685-3.997-7.685-4.498c0-0.509-0.794-2.392-1.782-3.064
	c-1.007-0.651-3.399-3.827-4.422-4.302c-1.01-0.451-5.695-1.026-6.366-2.164c-0.703-1.141-5.152-5.086-8.672-5.834
	c-3.541-0.735-14.495-4.962-15.625-7c-1.136-2.03-2.363-11.538-3.557-13c-1.175-1.479-4.79-5.54-4.764-6.426
	c0.037-0.884-1.374-0.163-0.892,1.033c0.168,0.396,0.252,1.162,0.267,1.993c-2.481-6.367-4.706-12.863-6.678-19.465
	c7.709-43.395,26.681-82.949,53.819-115.483c1.233,0.163,2.29,0.519,2.342,0.997c0.124,1.076,2.201,0.698,2.998-1.784
	c0.472-1.464-0.018-3.381-0.435-4.863c1.07-1.231,2.156-2.46,3.274-3.665c1.899,0.751,4.701,1.865,5.484,3.119
	c1.099,1.729,4.278,5.996,3.444,6.909c-0.863,0.928,1.403,3.072,2.331,2.035c0.939-1.052,1.983-4.724,1.139-4.845
	c-0.844-0.116-2.882-4.042-2.948-8.126c-0.034-4.055,5.338-9.842,6.397-9.28c1.041,0.577,3.404,3.428,5.71,2.117
	c2.296-1.311,4.798,2.993,6.167,2.599c1.345-0.398,6.867,0.208,7.696,0.674c0.823,0.49,2.305,3.812,3.728,3.812
	c1.435,0,5.753,0.968,6.387,2.164c0.664,1.191,1.774,4.801,1.12,5.299c-0.656,0.49-0.354,3.324,0.991,3.963
	c1.327,0.646,5.448,2.418,5.516,3.375c0.063,0.931,2.18,1.692,1.782,2.468c-0.441,0.753-0.818,4.506-1.595,4.86
	c-0.786,0.349-1.975,2.316-2.99,1.345c-1.012-0.968-4.627-1.28-4.003-0.406c0.617,0.871,0.863,5.265,0.095,6.744
	c-0.759,1.519-1.574,6.046-4.155,4.2c-2.592-1.857-11.741-5.917-13.75-5.818c-1.999,0.087-0.351-4.01,5.379-6.389
	c0,0,0,0,0.881-6.831c0.464-4.031,0.464-4.031,0.464-4.031c-2.164-1.372-5.17-3.15-6.631-3.929c-1.49-0.786-5.238,0.923-6.463,0.33
	c-1.204-0.614-4.876-0.477-3.945-0.087c0.902,0.393,2.41,3.373,2.143,4.957c-0.264,1.574-1.98,7.069-3.937,7.741
	c-1.97,0.682-9.238,2.961-8.954,3.502c0.275,0.58-0.997,3.636-2.639,4.8c-1.632,1.149-5.75,6.494-6.878,7.872
	c-1.136,1.351-4.886,4.785-4.857,5.671c0.05,0.902-0.894,1.598,0.231,2.13c1.089,0.509,2.169,6.41,4.089,7.425
	c1.915,1.057,6.676,4.313,7.415,3.814c0.761-0.483,2.486,1.236,2.969,0.459c0.477-0.792,2.99,2.321,3.415,4.624
	c0.417,2.3,2.99,4.936,3.349,2.408c0.362-2.529,3.093-6.402,2.363-6.183c-0.714,0.221-1.322-2.23-0.304-2.162
	c1.044,0.087,3.871-2.848,4.459-6.196c0.588-3.336,0.283-15.719,0.92-16.085c0.585-0.351,3.659,0.535,4.229,1.492
	c0.559,0.957,4.034,0.309,4.907,1.69c0.881,1.4,6.204,1.692,6.204,3.415c0,1.726,0.968,6.29,2.151,6.4
	c1.189,0.11,4.052-0.013,4.158-0.934c0.097-0.913,1.49-1.316,2.476,0.685c0.997,2.001,5.133,6.324,5.078,7.129
	c-0.039,0.794,0.216,3.182,1.44,4.26c1.196,1.078,2.723,6.043,3.462,5.571c0.751-0.504,3.064,2.298,3.15,4.024
	c0.068,1.739,0.314,10.177,0.865,11.625c0.559,1.448,4.126,3.947,4.029,5.162c-0.131,1.196-0.976,3.827-2.437,3.187
	c-1.442-0.632-3.651,0.64-3.861,0.016c-0.221-0.63-1.311-2.24-2.334-1.802c-1.036,0.417-3.796-1.69-2.212-3.911
	c1.616-2.225,3.14-7.749,0.989-6.125c-2.19,1.632-7.953,0.42-7.601,1.099c0.351,0.664-0.794,3.73-2.106,4.047
	c-1.298,0.328-1.943,3.882-0.873,4.758c1.094,0.915,2.749,3.976,1.062,5.091c-1.442,0.944-4.829,2.702-5.312,2.974
	c0.606-0.338-1.521-2.505-3.976-1.758c-2.458,0.779-7.182,4.808-6.592,5.542c0.569,0.716-0.638,4.845-2.24,5.524
	c-1.605,0.674-6.662,3.675-7.743,5.086c-1.049,1.421-0.309,7.966-0.968,8.286c-0.635,0.346-3.027,0.97-2.781,1.758
	c0.21,0.8-2.644,5.296-5.323,6.684c-2.712,1.372-6.022,9.461-5.579,10.351c0.427,0.892,1.595,4.06,1.301,5.315
	c-0.285,1.241-0.931,6.384-2.731,5.548c-1.786-0.818-4.263-7.483-5.97-8.184c-1.737-0.701-7.515-1.181-7.767-0.771
	c-0.267,0.398-1.682,1.324-3.253,0.414c-1.566-0.886-8.645-0.48-9.947,0.314c-1.298,0.807-6.526,7.643-7.798,14.243
	c-1.308,6.615,9.705,10.132,10.227,8.64c0.511-1.487,3.533-4.611,4.772-4.438c1.215,0.147,6.07,1.527,5.59,3.738
	c-0.485,2.201,0.28,8.207,2.684,8.339c2.439,0.147,5.569,5.847,5.007,8.716c-0.588,2.869,1.875,9.086,2.94,8.344
	c1.07-0.761,4.97-1.975,5.996-1.54c1.026,0.456,2.874,2.83,4.451,1.605c1.534-1.252,4.931-6.415,5.907-6.726
	c0.989-0.333,3.095-1.516,3.717-0.677c0.646,0.855,3.341,1.382,3.53,0.38c0.187-0.997,4.26-0.063,5.626,1.028
	c1.335,1.128,3.953,5.075,4.372,4.685c0.388-0.43,3.575-0.15,5.661,1.012c2.13,1.154,8.921,5.004,9.603,6.825
	c0.693,1.844,6.898,6.828,10.437,8.978c3.546,2.127,4.627,8.669,5.427,9.186c0.813,0.514,5.204,1.361,6.924,1.888
	c1.726,0.554,5.579,3.704,6.686,3.704c1.12,0,5.513,0.556,7.29,1.199c1.753,0.669,5.217,3.801,5.985,3.061
	c0.759-0.748,3.757,2.639,4.743,5.344c0,0,0,0-0.029,3.502c0.016,2.188,0.016,2.188,0.016,2.188
	c-0.519,1.878-0.984,4.113-1.052,4.989c-0.074,0.886-3.166,4.795-4.018,5.739c-0.857,0.944-2.193,5.054-2.534,5.392
	c-0.322,0.338-2.117,1.239-2.222,2.308c-0.121,1.049-1.799,5.366-2.19,8.585c-0.388,3.224-1.909,12.202-2.903,12.619
	c-1.007,0.398-6.594,2.964-7.334,4.029c-0.748,1.07-3.029,4.632-3.029,5.818c0,0.585-0.288,1.838-0.753,3.106L142.363,485.436z
	 M112.167,295.528L112.167,295.528l0.021-0.01C112.103,295.557,112.09,295.565,112.167,295.528z M136.636,156.242
	c-0.448-0.06-10.844,5.379-20.37,10.775c-10.873,7.382-21.079,15.627-30.634,24.599c2.972-0.221,7.58-0.766,9.524-1.097l0,0
	c2.982-0.496,7.934-1.319,8.286-2.159c0.237-0.688,0.272-2.736-0.285-3.446c0.475,0.032,1.023,0.047,1.442,0.047
	c1.131,0,3.014-6.196,4.202-7.646c1.196-1.453,8.008-3.586,9.632-4.564c1.629-0.994,5.181-4.404,6.534-4.806
	c1.377-0.409,3.357-3.588,3.056-4.239c-0.293-0.627,4.609-3.62,6.489-4.401c1.849-0.792,2.191-2.911,2.125-3.066L136.636,156.242
	L136.636,156.242z M275.196,500.372L275.196,500.372c3.187-1.875,8.606-9.886,10.38-11.562c1.784-1.695,3.074-7.749,3.452-9.07
	c0.351-1.327,3.066-3.47,4.079-3.756c0.999-0.288,4.244-13.713,7.069-16.64c2.827-2.938,6.159-17.123,5.805-22.237
	c-0.362-5.086,1.823-14.815,2.486-17.154c0.682-2.331,4.231-6.489,5.344-7.347c1.091-0.871,7.929-10.99,10.151-14.615
	c2.183-3.633,4.289-11.609,3.871-13.477c-0.417-1.872-5.188-3.166-6.08-2.248c-0.884,0.926-5.369,1.682-6.802,1.682
	s-4.727-7.683-6.765-9.267c-2.03-1.571-3.871-10.374-5.049-12.039c-1.178-1.666-4.459-5.883-5.492-6.844
	c-1.026-0.963-1.207-5.637-1.442-6.916c-0.218-1.267,1.991,0.847,2.371,2.691c0.391,1.865,5.653,9.367,7.287,11.885
	c1.634,2.534,5.935,10.563,7.029,13.086c1.099,2.497,10.673,1.236,13.776-0.223c3.111-1.479,6.974-3.955,7.129-4.822
	c0.129-0.871,5.091-3.145,6.457-4.239c1.374-1.099,2.597-6.86,3.491-7.775c0.902-0.944-0.722-6.429-1.753-8.06
	c-1.026-1.634-5.996-2.94-6.987-2.302c-1.012,0.643-3.145-3.68-3.913-5.262c-0.759-1.6-4.556-3.549-4.983-4.627
	c-0.391-1.11,1.049-2.814,1.642-3.185c0.596-0.383,7.599,4.53,9.618,6.972c1.991,2.444,4.297,6.932,4.695,7.725
	c0.354,0.771,5.891,1.175,7.124,0.27c1.225-0.913,2.649-0.669,3.132,0.501c0,0,0,0,1.734-0.306c6.062-0.936,6.062-0.936,6.062-0.936
	c2.874,3.106,3.699,5.8,3.636,6.426c-0.058,0.593,1.755,3.121,2.932,3.389c1.178,0.27,2.038,4.242,2.4,5.223
	c0.341,0.986,3.806,6.919,4.506,9.425c0.711,2.492,3.662,7.366,4.372,8.68c0.685,1.306,1.28,5.089,1.28,6.119
	c0,1.033,2.212,3.069,3.596,2.972c1.366-0.084,4.155-8.779,4.811-12.013c0.627-3.229,2.864-5.893,3.494-5.893
	c0.646,0,1.146-1.817,1.146-2.513c0-0.674,3.515-0.606,3.832-1.49c0.296-0.884,1.34-6.623,2.592-7.496
	c1.262-0.873,5.705-3.788,7.279-4.336c1.545-0.533,5.532,2.903,6.431,4.506c0.884,1.6,1.692,5.689,1.345,6.353
	c-0.33,0.672,2.099,4.194,4.242,4.129c2.106-0.06,2.783,2.697,2.838,3.683c0.1,0.999,2.885,3.84,3.446,5.115
	c0.538,1.273,0.388,4.74,0.016,5.529c-0.385,0.781-0.134,5.333,0.275,6.61c0.406,1.262,6.945,7.89,9.385,9.9
	c2.458,2.004,3.604-4.087,2.339-5.988c-1.244-1.899-5.503-6.322-6.507-7.628c-1.005-1.329-1.175-6.626-0.794-8.092
	c0.362-1.492,3.728,0.81,5.125,1.88c1.393,1.076,3.224,3.46,3.274,4.26c0.047,0.786,8.803-4.11,9.099-9.441
	c0.322-5.315,3.224-11.313,3.509-12.706c0.291-1.408-0.865-3.336-1.598-3.386c-0.748-0.074,1.301-4.06,3.751-4
	c2.455,0.081,8.365-6.507,9.76-9.112c1.393-2.615,4.213-4.761,4.527-5.094c0.338-0.304,2.305-6.486,2.647-9.044
	c0.333-2.552-1.445-6.544-1.653-7.867c-0.21-1.314-2.326-4.354-2.885-5.312c-0.533-0.949-1.055-4.53-0.711-5.202
	c0.312-0.653,2.529-1.372,2.762-1.959c0.247-0.609,2.77-3.308,2.586-4.493c-0.189-1.199,1.576,1.54,2.736,2.518
	c1.157,0.989,2.408,7.332,3.858,8.031c1.414,0.698,7.232-6.723,6.51-11.517c-0.711-4.801,1.69-10.93,3.085-11.48
	c1.06-0.409,3.796-4.286,5.655-7.071c-12.782-36.895-33.975-69.866-61.318-96.626c-0.322,0.021-0.643,0.032-0.947-0.026
	c-2.13-0.459-2.13-0.459-2.13-0.459c-3.575-0.766-5.653-4.58-5.044-5.461c0.21-0.28,0.16-0.918-0.021-1.679
	c-1.978-1.794-4.018-3.562-6.098-5.286c-1.679-0.055-3.462,0-4.498-0.055c-2.143-0.074-6.781-1.598-7.607-2.429
	c-0.847-0.823-3.643,0.732-3.796,2.28c-0.189,1.548-5.065,2.264-5.511,3.441c-0.496,1.165-2.995,1.257-3.483,0.593
	c-0.48-0.656-5.01,1.592-7.255,1.93c-2.248,0.309-6.431,2.138-7.433,2.586c-1.01,0.441-3.391,2.773-3.78,3.73
	c-0.38,0.976-3.274,2.586-4.192,2.964c-0.939,0.364-0.751,4.564,0.454,5.16c1.186,0.58-2.23-0.509-3.728-1.29
	c-1.529-0.745-3.19,1.799-3.654,2.678c-0.483,0.873-1.859-0.53-1.804-1.771c0.047-1.273-3.728-2.28-4.221-1.277
	c-0.511,1.002-3.122-0.328-4.205-0.897c-1.091-0.58-5.766,4.313-7.501,6.075c-1.737,1.745-10.046,3.106-11.601,2.447
	c-1.558-0.653-3.087,3.672-1.758,3.974c1.306,0.257-3.378-0.223-5.949,0.016c-2.586,0.257-10.093,3.263-11.875,4.595
	c-1.815,1.337-3.248-0.293-3.248-1.322c0-1.026-2.856-1.975-3.714-2.264c-0.831-0.285-2.513,5.618-3.992,6.749
	c-1.49,1.157-3.284-4.609-6.783-5.55c-3.504-0.944-8.975-4.333-10.542-4.73c-1.537-0.414-4.669-3.691-5.548-4.635
	c-0.884-0.947-5.358-1.724-6.797-1.724c-1.44,0-6.08,2.665-7.313,3.704c-1.282,1.052-3.132,0.842-3.751,1.223
	c-0.614,0.372-5.87,5.513-7.896,7.119c-2.038,1.605-5.597,8.524-6.736,10.185c-1.183,1.645-2.838,1.954-3.52,2.001
	c-0.682,0.032-1.244,1.875-1.244,2.55c0,0.688-6.022,3.82-6.649,6.557c-0.632,2.731,0.59,8.975,0.59,11.2
	c0,2.219,2.24,6.623,3.905,6.699c1.663,0.079,0.797,3.772,0.351,4.808c-0.438,1.041,1.052,2.172,1.005,3.053
	c-0.037,0.884-4.221,2.12-5.511,2.621c-1.308,0.477-3.389,3.396-3.672,4.477c-0.229,0.957-4.239,1.632-5.569,2.903
	c0.325-0.92,0.779-2.19,1.139-2.903c0.768-1.456-0.293-4-0.918-4.522c-0.635-0.535-0.928-7.775-1.943-9.317
	c-1.015-1.566-3.549-4.197-4.173-4.709c-0.627-0.498,0.435-2.41,0.792-3.224c0.372-0.8-3.375-1.267-4.401-0.661
	c-1.023,0.58-1.571,7.754-1.999,9.713c-0.42,1.957,1.851,4.976,2.479,5.11c0.596,0.15,0.438,3.68-0.873,3.788
	c-1.316,0.134-2.515,5.286-1.841,6.463c0.677,1.175-0.939,3.488-1.716,4.018c-0.768,0.522,5.026,0.229,7.691,0.152
	c2.647-0.066,4.73,1.118,4.448,1.327c-0.28,0.223-5.075,0.941-5.938,2.075c-0.852,1.133-4.108,3.326-4.74,4.205
	c-0.627,0.863,1.07,2.807,2.458,2.715c1.374-0.081,2.943,4.772,4.021,5.661c1.07,0.913,0.674,3.415,0.218,4.113
	c-0.504,0.677-6.972-0.467-9.43,0.142c-2.476,0.606-5.59,5.818-5.8,7.78c-0.229,1.98,0.398,7.622,0.732,9.186
	c0.301,1.553,5.466,2.539,6.5,3.305c1.07,0.748,5.993,0.018,7.037,0.493c0.994,0.49,4.334-5.002,4.997-7.546
	c0.638-2.557,5.912-7.221,7.003-8.962c1.091-1.724,6.765-1.527,8.16-2.442c1.395-0.886,0.614,4.31,1.287,7.161
	c0.664,2.869,6.093,2.513,5.294-0.187c-0.797-2.668,0.54-3.842,0.758-2.861c0.239,0.955,5.44,3.087,6.431,4.595
	c0.976,1.513,0.706,4.719-0.454,4.685c-1.16-0.047-1.207,3.512,0.026,3.895c1.215,0.385,2.856-4.005,4.176-4.645
	c1.306-0.664,2.371-3.389,1.753-3.604c-0.588-0.21,1.123-2.655,1.87-1.851c0.74,0.802-2.789-5.322-5.01-7.562
	c-2.219-2.233-0.656-1.238,3.491,2.204c0,0,0,0,2.864,4.018c0.559,0.722,1.29,2.916,1.782,3.722
	c0.677,1.183,0.677,1.183,0.677,1.183c0.559,1.403,1.049,5.246,1.049,6.296c0,1.018,2.248,3.069,3.609,2.974
	c1.364-0.095,2.397,0.651,2.112,0.701c-0.283,0.05,0.902,2.707,2.259,2.773c1.348,0.058,1.938-3.436,0.569-3.523
	c-1.356-0.074-1.149-5.136-1.327-7.319c-0.155-2.204,0.986-4.01,1.458-4.01c0.464,0-0.063,4.525-0.018,5.566
	c0.018,1.031,0.588,3.087,1.236,4.556c0,0,0,0,1.403,1.068c3.142,2.416,3.142,2.416,3.142,2.416
	c4.506-1.329,10.56-0.314,10.322,0.617c-0.247,0.923,3.331,1.141,3.549-0.354c0.21-1.471,0.38,0.045,0.38,1.081
	c0,1.01-2.961,5.031-3.446,6.903c-0.501,1.844-10.902,0.585-15.376,0.244c-4.48-0.333-11.079,1.189-11.596,2.523
	c-0.49,1.34-7.486-3.074-10.681-4.412c-3.213-1.358-5.731-6.246-6.384-6.881c-0.664-0.64,0.548-2.219,0.244-3.177
	c-0.312-0.984-7.628-1.183-9.742-0.385c-2.135,0.777-13.102,1.938-15.701,3.079c-2.576,1.16-6.497-0.071-7.714-0.288
	c-1.212-0.213-4.116,3.365-5.579,4.016c-1.498,0.646-3.357,5.716-4.165,11.297c0,0,0,0-1.991,3.876
	c-1.287,2.479-1.287,2.479-1.287,2.479c-3.628,2.757-7.63,11.951-8.816,13.794c-1.165,1.844-2.106,15.079-2.106,19.531
	s3.879,13.876,4.981,16.473c1.102,2.605,7.819,8.355,10.059,9.739c2.248,1.343,9.542,1.527,11.932,1.524
	c2.381-0.01,5.115-2.282,6.035-5.049c0,0,0,0,3.512,0.351c1.603,0.168,1.603,0.168,1.603,0.168c0.087,1.957,5.257,3.523,6.528,4.215
	c1.26,0.69,4.68,0.176,5.684-0.129c1.023-0.283,2.154,8.848,1.416,11.496c-0.722,2.639,1.799,11.909,2.542,14.702
	c0.748,2.794,3.918,10.416,4.25,13.159c0.293,2.744-1.87,11.848-2.233,15.033c-0.349,3.208,3.974,12.121,5.136,15.19
	c1.118,3.064,2.046,9.668,2.046,11.19c0,1.532,4.745,10.765,5.818,14.556c1.099,3.809,12.987,4.74,16.176,2.869L275.196,500.372z
	 M468.716,354.548L468.716,354.548c0.902-1.228-1.241-7.061-2.321-5.742c-1.073,1.316-0.288,4.706,0.045,5.904
	c0.341,1.162,1.385,1.089,2.277-0.166L468.716,354.548L468.716,354.548z M475.434,367.055L475.434,367.055
	c0.643-1.498-0.797-3.156-3.206-3.67c-2.418-0.496-2.059,6.749-0.997,7.675c1.044,0.902,3.541-2.486,4.205-4.005H475.434z
	 M486.411,323.117L486.411,323.117c-1.204,0.844-1.83,2.972-1.458,3.84c-0.173-0.013-0.328-0.018-0.498-0.018
	c-0.955,0-1.07,3.793-0.047,4.448c0.978,0.643,3.428-2.966,4.695-3.825c1.267-0.863,3.814-1.39,4.197-1.11
	c0.396,0.275,2.623-0.401,4.978-1.485c0.42-0.197,0.899-0.815,1.4-1.703c-0.559-2.773-1.228-5.508-1.896-8.244
	c-1.191,0.889-2.55,1.838-3.177,2.392c-1.272,1.16-6.634,4.63-8.2,5.705L486.411,323.117z M420.608,399.538L420.608,399.538
	c0,0,0.026,0,0.039,0.013C420.143,399.182,420.076,399.147,420.608,399.538z M438.549,416.242L438.549,416.242
	c-1.044-2.363-4.496-6.34-7.664-8.858c0,0,0,0-1.207-1.978c-1.311-2.177-1.311-2.177-1.311-2.177
	c-1.183-2.394-4.751-4.231-5.065-4.944c-0.304-0.698-1.445,2.072-2.657,1.27c0.638,0.446,1.964,1.39,3.842,2.723
	c3.349,2.4,9.802,18.611,11.261,19.746c1.453,1.139,3.832-3.412,2.799-5.779L438.549,416.242z M387.149,390.051L387.149,390.051
	c-0.894,1.836,4.769,5.726,5.207,4.832c0.462-0.889-0.722-5.374-1.737-6.38C389.625,387.528,388.056,388.225,387.149,390.051z
	 M311.929,476.66L311.929,476.66c0.229,1.93,4.139,3.452,5.257,3.14c1.168-0.317,4.318-6.146,4.751-7.817
	c0.448-1.687,0.81-5.288,0.81-6.151c0-0.839,0.517-2.783,0.955-3.027c0.417-0.216,1.146-2.212,1.584-4.383
	c0.441-2.222-2.339-12.439-2.426-14.227c-0.068-1.807-2.096,0.926-2.61,2.744c-0.551,1.809-5.626,5.516-6.768,7.061
	c-1.118,1.54-2.368,6.762-1.925,7.67c0.417,0.897-0.443,4.456-0.968,5.442c-0.485,0.999,1.141,7.609,1.337,9.55L311.929,476.66z
	 M219.62,162.243L219.62,162.243c-1.435,0.173-5.144-0.575-5.787-1.257c-0.627-0.677-6.206-1.281-7.801-0.609
	c-1.611,0.672-0.509-3.913,1.729-4.406c2.227-0.509,0.33-3.667-2.043-3.667c-2.387-0.021-8.252-0.881-9.632-0.572
	c-1.382,0.299-4.079-0.965-5.057-1.107c-0.984-0.142-8.034,2.109-11.363,1.941c-3.347-0.142-11.538,0.189-13.301,0.688
	c-1.804,0.464-3.085,3.939-2.827,5.157c0.264,1.249-7.921,1.217-10.492,1.257c-2.581,0.039-16.307,2.959-19.885,4.931
	c-3.586,1.962-6.384,7.001-5.199,7.106c1.189,0.097-1.993,2.953-3.918,3.625c-1.922,0.653-6.515,0.949-7.607,2.033
	c-1.073,1.076,1.16,1.82,1.584,2.555c0.42,0.706,1.7-0.632,2.932,0.06c1.194,0.685,5.196,1.007,6.248,1.414
	c1.078,0.422-3.386,1.267-5.479,1.424c-2.096,0.139-1.624,4.26,0.081,4.824c1.711,0.58,6.112,1.186,6.557,0.475
	c0.456-0.716,5.228,0.768,7.392,1.028c2.135,0.226,3.796,5.626,4.44,6.797c0.669,1.162,0.805,5.27,0.64,6.46
	c-0.145,1.183,3.804,3.347,4.525,2.594c0.693-0.753,0.49,1.859-1.083,1.724c-1.574-0.139-0.554,4.425,1.416,5.086
	c1.933,0.651,0.606,3.457-0.511,4.321c-1.141,0.836-0.525,3.523-1.682,4.49c-1.139,0.955,4.1,10.027,4.063,14.71
	c-0.029,4.659,2.882,8.472,3.992,8.472c1.12,0,4.952,0.936,5.463,1.941c0.501,0.994,2.352-0.695,3.095-1.463
	c0.711-0.759,2.285-3.008,3.465-4.981c1.178-1.986,3.801-11.342,4.163-12.347c0.351-1.01,4.743-0.372,5.75-0.892
	c0.997-0.514,3.876-2.783,4.695-3.46c0.813-0.674,7.087-3.328,8.816-4.567c1.695-1.22,4.551-6.542,5.88-7.672
	c1.34-1.149-0.685-0.805-2.363-1.901c-1.65-1.089-0.92-2.426-0.433-2.935c0.472-0.522,5.529,0.839,7.276,1.511
	c1.742,0.693,5.065-1.711,3.804-2.649c-1.301-0.92-0.617-0.894,0-0.501c0.606,0.38,1.26-3.069,0.598-3.72
	c-0.677-0.669,5.112-4.884,4.089-8.877c-1.005-3.989,1.582-8.079,3.132-8.129c1.563-0.042,1.097-4.504-0.76-4.92
	c-1.851-0.412-0.105-0.823,0.588-1.461c0.69-0.627,1.574-4.611,1.175-5.371c-0.42-0.776,2.846-1.634,3.407-2.542
	c0.585-0.897,4.305-2.684,5.637-2.977c1.308-0.301,2.02-3.796,0.596-3.638h-0.002V162.243z M252.046,165.493L252.046,165.493
	c-1.763-0.606-5.369,1.364-4.915,2.471c0.477,1.131-2.922-1.421-5.294-0.202c-2.373,1.238-3.016,5.382-1.933,5.933
	c1.091,0.533,1.888,3.834,1.907,4.467c0.039,0.653,4.611,0.184,5.781-0.771c1.144-0.968,0.994,3.347-0.147,4.506
	c-1.154,1.165,0.409,3.502,1.682,3.696c1.273,0.176,3.006,3.179,4.318,3.14c1.295-0.026,3.528-5.054,4.042-6.951
	c0.512-1.862,4.858-0.388,6.86,0.218c1.988,0.582,2.726-6.932,0.559-8.071c-2.143-1.115-4.845-0.561-5.747-1.419
	c-0.881-0.865-2.41-1.663-3.415-1.82c-0.999-0.145-1.936-4.588-3.691-5.194L252.046,165.493z M269.439,169.095L269.439,169.095
	c3.509,0.488,7.454-2.387,8.31-3.216c0.876-0.805-9.724-2.969-13.758-3.1c-4.029-0.121-7.292,0.422-7.227,1.223
	c0.066,0.781,9.154,4.582,12.677,5.091L269.439,169.095z M205.354,264.1L205.354,264.1c-0.923-0.385-1.437,3.087-1.225,4.404
	c0.218,1.316,3.452,1.204,4.837,0.973c1.377-0.234,2.442-1.35,2.389-2.502c-0.074-1.136-2.028-6.311-2.806-6.311
	S206.29,264.462,205.354,264.1z M215.757,223.695L215.757,223.695c-0.722-1.282-6.232-1.12-7.58-1.207
	c-1.327-0.076-5.456-1.445-6.243-2.324c-0.759-0.873-1.377,3.391-2.623,3.95c-1.267,0.548,0.622,1.358,1.141,0.907
	c0.501-0.456-0.037,2.196-0.606,3.103c-0.561,0.91,3.67,1.55,4.152,2.919c0.469,1.377,2.214,2.267,3.882,2.007
	c1.661-0.285,4.983-1.996,6.148-2.109c1.178-0.118,2.458-5.975,1.726-7.248h0.003V223.695z M331.462,192.138L331.462,192.138
	c1.901-1.899,9.681-4.464,10.57-6.431c0.873-1.951-0.551-3.554-1.337-3.554c-0.786,0-1.763,0.984-1.936,1.295
	c-0.197,0.333-9.133,2.429-11.867,3.749c-2.77,1.316-5.941,3.362-7.087,4.535c-1.16,1.16-3.048,10.025-3.72,11.024
	c-0.653,0.989,2.972,4.601,4.585,5.611c1.613,0.984,3.822,0.464,4.448,0.278c0.617-0.202-0.836-6.387-1.661-8.548
	c-0.865-2.138,6.119-6.035,8.005-7.953L331.462,192.138z M321.899,169.053L321.899,169.053c2.945,2.916,4.567-1.301,7.791-0.886
	C329.632,162.243,321.607,164.276,321.899,169.053z M379.081,170.16L379.081,170.16c-0.095,1.091,8.131,1.972,10.542,1.545
	c2.4-0.414-0.504-4.168-4.021-3.942C382.107,167.996,379.167,169.071,379.081,170.16z M81.228,231.152L81.228,231.152
	c-0.863,0.807-0.105,4.845,1.548,4.962c1.642,0.113,4.271-6.091,6.29-4.845c2.012,1.241,3.378,1.737,3.045,1.073
	c-0.341-0.653-6.08-3.164-6.794-3.641C84.604,228.275,82.12,230.379,81.228,231.152z M102.272,367.751L102.272,367.751
	c0,0.677,3.586,0.582,4.176-0.522c0.569-1.094,0.262-1.993-0.706-1.993C104.795,365.235,102.272,367.055,102.272,367.751z
	 M86.306,361.848L86.306,361.848c1.724-0.33,0.918,2.452,1.316,3.444c0.43,1.002,4.535,1.796,5.364,2.476
	c0.813,0.669,2.94-1.262,4.59-1.052c1.642,0.208-0.54-5.695-3.308-5.529c-2.755,0.184-4.936-2.497-5.584-2.83
	c-0.68-0.293-3.845-2.24-4.779-2.969c-0.902-0.74-7.932-1.361-10.322-1.361c-2.389,0-5.02,2.437-5.379,3.232
	c-0.385,0.807,3.788,1.348,4.962,0.714c1.196-0.622,6.765,0.706,7.901,2.046c1.149,1.329,3.512,2.159,5.241,1.833L86.306,361.848z
	 M78.799,367.751L78.799,367.751c0,0.677,3.622,0.252,4.488,0.275c0.889,0.018,0.85-0.575-0.071-1.308
	c-0.907-0.732-4.419,0.338-4.419,1.033H78.799z M81.359,349.103L81.359,349.103c-0.936-0.364-1.695,1.115-1.695,1.817
	c0,0.69,0.519,1.27,1.144,1.27C81.456,352.19,82.301,349.491,81.359,349.103z M88.95,349.694L88.95,349.694
	c-0.322-0.703-1.867-1.267-2.326-1.267c-0.472,0-0.815,1.204-0.73,2.657c0.084,1.461,3.365-0.706,3.053-1.39L88.95,349.694
	L88.95,349.694z M94.414,358.11L94.414,358.11c1.463-0.714,1.642-2.465,0.776-2.363c-0.871,0.087-2.476-2.526-3.423-2.901
	c-0.942-0.377-1.708,1.571-1.708,2.421c0,0.85,0.53,1.437,1.175,1.26c0.643-0.155,1.7,2.261,3.177,1.582L94.414,358.11z"/>
<ellipse style="fill:#15BDB2;" cx="93.878" cy="284.802" rx="17.057" ry="3.897"/>
<path style="fill:#FF5B62;" d="M90.411,285.196h-3.733c-2.093-5.057-6.338-13.952-8.711-18.657l-28.195-57.648
	c-12.882-25.761-24.984-51.228-37.737-76.715c-14.715-29.422-17.33-58.281,0.042-88.296c33.96-58.682,117.907-58.068,152.477-0.776
	c18.044,29.904,15.557,58.978,0.501,89.072C162.855,136.569,91.796,279.266,90.411,285.196z"/>
<circle style="fill:#ECF0F1;" cx="88.608" cy="89.105" r="69.853"/>
<circle style="fill:#FFFFFF;" cx="88.618" cy="89.105" r="63.915"/>
<path style="fill:#21D0C3;" d="M84.696,58.055l0.262,12.002c-1.07,0.003-1.632,0.11-2.463-0.842
	c-0.63-0.716-0.878-1.859-1.316-2.846c-2.085-4.737-8.43-1.642-11.458-0.32c-6.831,2.974-21.768,2.277-29.813,2.282
	c-2.586,0-5.312-0.068-7.869,0.108c-0.016,1.162,1.679,2.755,2.296,3.25c0.989,0.8,2.235,1.461,3.541,2.004
	c2.442,1.015,5.5,1.595,8.2,1.29c0.362-0.042,0.907-0.181,1.212-0.171c0.137,2.112,0.554,3.357,2.673,4.377
	c1.236,0.596,2.922,0.8,4.336,0.585c0.351-0.053,1.162-0.317,1.364-0.288c0.64,5.561,6.789,6.288,10.306,4.3
	c0.535-0.301,1.015-0.753,1.411-0.949c0.237,0.582,0.582,3.316,2.387,4.15c1.133,0.525,2.825,0.535,4.052,0.134
	c0.406-0.134,0.818-0.422,1.144-0.48c0.653,0.667,1.02,1.115,2.159,1.356c1.849,0.396,4.102-0.312,5.852-0.907
	c0.677-0.231,1.59-0.435,2.347-0.661l1.463,66.556c0.609,0.018,1.217,0.029,1.828,0.029c0.614,0,1.223-0.011,1.83-0.029
	l1.463-66.556c0.759,0.223,1.671,0.43,2.347,0.661c1.75,0.593,4.003,1.303,5.852,0.907c1.141-0.244,1.506-0.69,2.159-1.353
	c0.325,0.055,0.735,0.343,1.144,0.477c1.228,0.398,2.919,0.391,4.052-0.134c1.804-0.836,2.151-3.567,2.387-4.15
	c0.396,0.197,0.873,0.648,1.411,0.949c3.517,1.988,9.666,1.262,10.306-4.3c0.202-0.029,1.012,0.237,1.364,0.288
	c1.414,0.216,3.1,0.011,4.336-0.585c2.12-1.02,2.539-2.269,2.673-4.377c0.306-0.011,0.85,0.129,1.212,0.171
	c2.697,0.301,5.755-0.275,8.2-1.29c1.306-0.543,2.55-1.204,3.541-2.004c0.617-0.496,2.31-2.088,2.296-3.25
	c-2.557-0.176-5.28-0.108-7.869-0.108c-8.045-0.008-22.98,0.693-29.811-2.282c-3.027-1.319-9.375-4.419-11.46,0.32
	c-0.435,0.986-0.688,2.13-1.316,2.846c-0.831,0.952-1.39,0.844-2.465,0.842l0.264-12.002c2.012-1.293,3.344-3.546,3.344-6.117
	c0-4.01-3.253-7.263-7.263-7.263c-4.01,0-7.266,3.25-7.266,7.263c0,2.571,1.335,4.824,3.344,6.117
	C84.687,58.055,84.696,58.055,84.696,58.055z M88.614,48.552c1.613,0,2.919,1.308,2.919,2.919c0,1.613-1.306,2.919-2.919,2.919
	c-1.613,0-2.919-1.306-2.919-2.919C85.695,49.86,87.001,48.552,88.614,48.552z"/>
<path style="fill:#FF5B62;" d="M91.802,147.022c-0.259,0.375-0.688,0.714-1.233,1.031l-0.034,1.366
	c-1.901-0.768-3.609-1.458-4.257-2.397c-0.698-1.273-0.493-2.18,0.285-2.895l-0.053-2.13c3.853,1.144,6.86,2.156,5.288,5.026h0.003
	V147.022z M81.726,152.648c1.228,0.131,2.465,0.229,3.712,0.291c0.362,0.018,0.722,0.029,1.086,0.042
	c0.695,0.024,1.39,0.037,2.091,0.037c2.589,0,5.144-0.16,7.651-0.459c-0.356-0.356-0.768-0.677-1.22-0.978
	c1.057-0.781,1.883-1.771,2.235-3.061c0.884-3.775-0.087-6.117-1.854-7.733c4.588-1.634,8.706-4.271,6.775-10.867
	c-0.91-2.204-3.143-3.968-5.461-5.294c3.976-2.209,6.979-5.753,5.737-13.062c-0.288-0.989-0.706-1.844-1.225-2.597
	c1.005-0.205,1.909-0.435,2.665-0.714c9.341-1.366,13.425-12.54,5.747-16.763c-3.939-2.164-11.557-2.201-14.377,1.899
	c-0.359,0.519-1.348,2.28-1.534,2.935c-1.519,5.371,9.023,0.648,9.11,0.588c2.938-2.064,4.91,0.792,3.827,2.169
	c-2.621,3.333-8.811,3.67-15.017,4.297l-0.016,0.685c-7.622-1.361-16.887-0.693-20.26-4.981c-1.086-1.374,0.886-4.234,3.826-2.169
	c0.089,0.06,10.631,4.787,9.11-0.588c-0.187-0.656-1.175-2.418-1.534-2.935c-2.819-4.1-10.44-4.063-14.379-1.899
	c-7.675,4.223-3.591,15.395,5.747,16.763c0.753,0.278,1.658,0.506,2.663,0.711c-0.519,0.753-0.931,1.613-1.223,2.599
	c-1.246,7.313,1.758,10.854,5.734,13.062c-2.318,1.324-4.553,3.087-5.461,5.294c-1.933,6.597,2.188,9.233,6.773,10.867
	c-1.768,1.616-2.736,3.96-1.854,7.733c0.351,1.293,1.175,2.28,2.235,3.061C82.545,151.906,82.104,152.258,81.726,152.648z
	 M96.627,94.494c0.181-1.603,1.503-1.867,1.682-1.403C98.605,93.856,97.291,94.381,96.627,94.494z M81.451,94.494
	c-0.181-1.603-1.503-1.867-1.684-1.403C79.471,93.856,80.787,94.381,81.451,94.494z M90.813,138.193
	c-3.72-1.456-7.575-2.345-7.565-5.338c0.008-2.059,1.343-2.922,2.715-3.68l0.231-0.134l-0.058-2.326
	c2.227,0.81,4.377,1.513,5.978,2.46c1.372,0.759,2.71,1.619,2.718,3.68c0.005,2.004-1.724,3.066-3.984,3.987L90.813,138.193z
	 M85.735,110.321l0.039,1.577c-1.629,0.659-2.789,1.527-3.137,2.726c-1.303,4.469,4.617,6.33,8.569,7.604l0.039-1.592
	c2.783-1.26,5.06-3.072,4.202-6.014c-0.732-2.513-4.999-3.565-9.71-4.302L85.735,110.321z M85.438,152.942L85.438,152.942
	l-0.05-0.024l-0.05-0.021l-0.011-0.005l-0.039-0.018l-0.05-0.024l-0.018-0.008l-0.034-0.016l-0.05-0.024l-0.047-0.024l-0.05-0.024
	l-0.097-0.047l-0.047-0.024l-0.005-0.003l-0.05-0.024l-0.047-0.024l-0.005-0.003l-0.045-0.024l-0.047-0.024l-0.05-0.026l-0.05-0.024
	l-0.021-0.011l-0.029-0.013l-0.05-0.026l-0.029-0.013l-0.018-0.011l-0.05-0.026l-0.037-0.021l-0.011-0.005l-0.05-0.024l-0.045-0.024
	l-0.003-0.003l-0.047-0.026l-0.047-0.026l-0.005-0.003l-0.042-0.024l-0.047-0.026l-0.142-0.081l-0.045-0.026"/>
<g>
</g>
<g>
</g>
<g>
</g>
<g>
</g>
<g>
</g>
<g>
</g>
<g>
</g>
<g>
</g>
<g>
</g>
<g>
</g>
<g>
</g>
<g>
</g>
<g>
</g>
<g>
</g>
<g>
</g>
</svg>
