<?xml version="1.0" encoding="iso-8859-1"?>
<!-- Generator: Adobe Illustrator 19.0.0, SVG Export Plug-In . SVG Version: 6.00 Build 0)  -->
<svg version="1.1" id="Layer_1" xmlns="http://www.w3.org/2000/svg" xmlns:xlink="http://www.w3.org/1999/xlink" x="0px" y="0px"
	 viewBox="0 0 512 512" style="enable-background:new 0 0 512 512;" xml:space="preserve">
<circle style="fill:#21D0C3;" cx="255.998" cy="255.998" r="255.998"/>
<path style="fill:#FF5B62;" d="M12.515,176.774c33.385,74.8,136.849,58.74,160.37-1.537l0.291,1.619
	c30.267,74.593,139.675,60.966,164.905-2.135c14.28,34.489,51.221,49.512,82.656,47.914c35.922-1.828,59.277-17.013,78.957-45.21
	C507.672,202.186,512,228.586,512,256.001C512,397.386,397.386,512,256.001,512s-256-114.614-256-255.999
	c0-27.654,4.401-54.277,12.514-79.224V176.774z"/>
<path style="fill:#EEF3F7;" d="M416.425,109.964c-18.156,0.16-63.012-17.021-75.598,0.915c-13.739,19.581-11.45,62.281-1.962,76.967
	c9.487,14.686,16.685,24.748,16.685,30.188c0,5.44-1.308,94.376-0.656,101.174c0.653,6.799,2.945,11.693,5.888,11.693
	c2.945,0,12.569-16.048,17.149-27.741c4.58-11.693,28.86-66.483,39.329-66.483c20.682,0,53.087,94.223,54.807,94.223
	c2.945,0,5.236-4.894,5.888-11.693c0.653-6.799-0.656-95.734-0.656-101.174c0-5.437,7.198-15.502,16.685-30.188
	c9.487-14.686,11.775-57.385-1.964-76.967C479.437,92.946,440.795,112.028,416.425,109.964z"/>
<g>
	<path style="fill:#FFFFFF;" d="M403.701,108.555c-18.19-1.758-43.379-0.48-53.05,5.165c-9.668,5.645-18.005,52.234-4.265,73.176
		c13.739,20.939,17.666,27.196,14.72,45.69c-2.945,18.492-4.899,88.114-0.325,98.315c-2.943,0-5.233-4.894-5.888-11.693
		c-0.653-6.799,0.656-95.734,0.656-101.171c0-5.44-7.198-15.502-16.685-30.188c-9.487-14.686-11.775-57.385,1.964-76.967
		c10.211-14.552,41.671-5.985,62.874-2.324L403.701,108.555L403.701,108.555z"/>
	<path style="fill:#FFFFFF;" d="M472.069,330.901c-11.46-27.009-30.257-100.311-55.149-94.205
		C433.036,236.696,464.433,332.234,472.069,330.901z"/>
</g>
<g>
	<path style="fill:#D9DADA;" d="M477.782,259.514c-0.229-20.578-0.48-39.088-0.48-41.478c0-5.44,7.198-15.502,16.685-30.188
		c5.231-8.097,8.271-24.711,7.646-41.273c-1.07,27.093-27.715,60.473-29.761,65.076c-2.046,4.606,5.739,30.964,5.912,47.843v0.016
		L477.782,259.514z"/>
	<path style="fill:#D9DADA;" d="M417.637,115.54c-12.023,0.396-24.945-6.426-31.851-2.486c0,0,16.758,3.633,26.479,6.951
		c17.351,5.922,34.521-10.728,45.795-8.339c-9.642-4.968-28.8,3.491-40.423,3.871L417.637,115.54L417.637,115.54z"/>
</g>
<path style="fill:#EEF3F7;" d="M90.961,109.964c-18.156,0.16-63.012-17.021-75.598,0.915C1.625,130.46,3.914,173.16,13.4,187.846
	c9.487,14.686,16.685,24.748,16.685,30.188c0,5.44-1.308,94.376-0.656,101.174c0.653,6.799,2.945,11.693,5.888,11.693
	c2.945,0,12.569-16.048,17.149-27.741s28.86-66.483,39.329-66.483c20.682,0,53.087,94.223,54.807,94.223
	c2.943,0,5.233-4.894,5.888-11.693c0.653-6.799-0.656-95.734-0.656-101.174c0-5.437,7.198-15.502,16.685-30.188
	c9.487-14.686,11.775-57.385-1.964-76.967c-12.585-17.934-51.227,1.149-75.598-0.915L90.961,109.964L90.961,109.964z"/>
<g>
	<path style="fill:#FFFFFF;" d="M78.237,108.555c-18.19-1.758-43.379-0.48-53.05,5.165c-9.668,5.645-18.005,52.234-4.265,73.176
		c13.739,20.939,17.666,27.196,14.72,45.69c-2.943,18.492-4.897,88.114-0.322,98.315c-2.945,0-5.233-4.894-5.888-11.693
		c-0.653-6.799,0.656-95.734,0.656-101.171c0-5.44-7.198-15.502-16.685-30.188c-9.487-14.686-11.775-57.385,1.964-76.967
		c10.211-14.552,41.671-5.985,62.874-2.324L78.237,108.555z"/>
	<path style="fill:#FFFFFF;" d="M146.605,330.901c-11.46-27.009-30.257-100.311-55.149-94.205
		C107.573,236.696,138.97,332.234,146.605,330.901z"/>
</g>
<g>
	<path style="fill:#D9DADA;" d="M152.318,259.514c-0.229-20.578-0.48-39.088-0.48-41.478c0-5.44,7.198-15.502,16.685-30.188
		c5.231-8.097,8.271-24.711,7.646-41.273c-1.07,27.093-27.715,60.473-29.761,65.076c-2.046,4.606,5.739,30.964,5.912,47.843v0.016
		L152.318,259.514z"/>
	<path style="fill:#D9DADA;" d="M92.173,115.54c-12.023,0.396-24.945-6.426-31.851-2.486c0,0,16.758,3.633,26.479,6.951
		c17.351,5.922,34.521-10.728,45.795-8.339c-9.642-4.968-28.8,3.491-40.423,3.871C92.173,115.538,92.173,115.54,92.173,115.54z"/>
</g>
<path style="fill:#EEF3F7;" d="M255.421,109.964c-18.153,0.16-63.012-17.021-75.598,0.915c-13.739,19.581-11.45,62.281-1.964,76.967
	c9.487,14.686,16.685,24.748,16.685,30.188c0,5.44-1.308,94.376-0.656,101.174c0.653,6.799,2.945,11.693,5.888,11.693
	s12.569-16.048,17.149-27.741s28.86-66.483,39.329-66.483c20.682,0,53.087,94.223,54.807,94.223c2.945,0,5.236-4.894,5.888-11.693
	c0.653-6.799-0.656-95.734-0.656-101.174c0-5.437,7.198-15.502,16.685-30.188c9.487-14.686,11.777-57.385-1.964-76.967
	c-12.585-17.934-51.227,1.149-75.598-0.915L255.421,109.964L255.421,109.964z"/>
<g>
	<path style="fill:#FFFFFF;" d="M242.697,108.555c-18.19-1.758-43.379-0.48-53.05,5.165c-9.668,5.645-18.005,52.234-4.265,73.176
		c13.739,20.939,17.666,27.196,14.72,45.69c-2.945,18.492-4.897,88.114-0.325,98.315c-2.943,0-5.233-4.894-5.888-11.693
		c-0.653-6.799,0.656-95.734,0.656-101.171c0-5.44-7.198-15.502-16.685-30.188c-9.487-14.686-11.775-57.385,1.964-76.967
		c10.211-14.552,41.671-5.985,62.874-2.324V108.555z"/>
	<path style="fill:#FFFFFF;" d="M311.064,330.901c-11.46-27.009-30.257-100.311-55.149-94.205
		C272.032,236.696,303.429,332.234,311.064,330.901z"/>
</g>
<g>
	<path style="fill:#D9DADA;" d="M316.777,259.514c-0.229-20.578-0.48-39.088-0.48-41.478c0-5.44,7.198-15.502,16.685-30.188
		c5.231-8.097,8.273-24.711,7.646-41.273c-1.07,27.093-27.718,60.473-29.761,65.076c-2.049,4.606,5.737,30.964,5.912,47.843v0.016
		L316.777,259.514z"/>
	<path style="fill:#D9DADA;" d="M256.632,115.54c-12.023,0.396-24.945-6.426-31.852-2.486c0,0,16.758,3.633,26.479,6.951
		c17.351,5.922,34.521-10.728,45.795-8.339c-9.642-4.968-28.8,3.491-40.423,3.871V115.54z"/>
</g>
<path style="fill:#076673;" d="M16.406,173.823h479.189c2.149,0,3.89,1.741,3.89,3.888l0,0c0,2.148-1.742,3.888-3.89,3.888H16.406
	c-2.149,0-3.89-1.741-3.89-3.888l0,0C12.515,175.564,14.257,173.823,16.406,173.823z"/>
<g>
	<circle style="fill:#0F7986;" cx="86.75" cy="179.398" r="18.124"/>
	<circle style="fill:#0F7986;" cx="259.63" cy="179.398" r="18.124"/>
	<circle style="fill:#0F7986;" cx="421.443" cy="179.398" r="18.124"/>
</g>
<g>
</g>
<g>
</g>
<g>
</g>
<g>
</g>
<g>
</g>
<g>
</g>
<g>
</g>
<g>
</g>
<g>
</g>
<g>
</g>
<g>
</g>
<g>
</g>
<g>
</g>
<g>
</g>
<g>
</g>
</svg>
