<?xml version="1.0" encoding="iso-8859-1"?>
<!-- Generator: Adobe Illustrator 19.0.0, SVG Export Plug-In . SVG Version: 6.00 Build 0)  -->
<svg version="1.1" id="Layer_1" xmlns="http://www.w3.org/2000/svg" xmlns:xlink="http://www.w3.org/1999/xlink" x="0px" y="0px"
	 viewBox="0 0 512 512" style="enable-background:new 0 0 512 512;" xml:space="preserve">
<circle style="fill:#FF5B62;" cx="256" cy="256" r="256"/>
<path style="fill:#FAD24D;" d="M296.687,111.603L111.603,296.687c-78.177,78.177,25.528,181.887,103.705,103.705l185.084-185.084
	C478.569,137.131,374.86,33.426,296.687,111.603z"/>
<g>
	<path style="fill:#EDB937;" d="M184.802,403.385c-2.278-2.277-5.972-2.277-8.249,0c-2.277,2.277-2.277,5.972,0,8.249
		c2.278,2.278,5.972,2.278,8.249,0C187.079,409.357,187.079,405.662,184.802,403.385z M205.425,382.762
		c-2.277-2.277-5.972-2.277-8.249,0c-2.277,2.277-2.277,5.972,0,8.249c2.278,2.277,5.972,2.277,8.249,0
		C207.701,388.734,207.701,385.039,205.425,382.762z M226.048,362.14c-2.277-2.277-5.972-2.277-8.249,0
		c-2.278,2.277-2.278,5.972,0,8.249c2.277,2.277,5.967,2.277,8.245,0c2.278-2.277,2.278-5.972,0-8.249H226.048z M246.67,341.517
		c-2.278-2.278-5.972-2.278-8.249,0c-2.277,2.277-2.277,5.972,0,8.249c2.278,2.277,5.972,2.277,8.249,0
		C248.947,347.488,248.947,343.794,246.67,341.517z M267.293,320.893c-2.278-2.277-5.972-2.277-8.249,0
		c-2.277,2.278-2.277,5.972,0,8.249c2.278,2.277,5.972,2.277,8.249,0C269.57,326.866,269.57,323.171,267.293,320.893z
		 M287.916,300.271c-2.277-2.277-5.972-2.277-8.249,0c-2.278,2.277-2.278,5.972,0,8.249c2.277,2.278,5.972,2.278,8.249,0
		C290.193,306.243,290.193,302.548,287.916,300.271z M308.538,279.648c-2.277-2.277-5.972-2.277-8.249,0
		c-2.278,2.277-2.278,5.972,0,8.249c2.277,2.277,5.972,2.277,8.249,0C310.815,285.62,310.816,281.929,308.538,279.648z
		 M329.161,259.025c-2.277-2.277-5.972-2.277-8.249,0c-2.277,2.277-2.277,5.972,0,8.249c2.277,2.277,5.972,2.277,8.249,0
		C331.438,264.997,331.439,261.303,329.161,259.025z M349.784,238.402c-2.277-2.277-5.972-2.277-8.249,0
		c-2.277,2.278-2.277,5.972,0,8.249c2.277,2.277,5.972,2.277,8.249,0C352.061,244.375,352.061,240.68,349.784,238.402z
		 M370.407,217.78c-2.278-2.278-5.972-2.278-8.249,0c-2.277,2.277-2.277,5.972,0,8.249c2.278,2.278,5.972,2.278,8.249,0
		C372.684,223.752,372.684,220.057,370.407,217.78z M391.03,197.162c-2.277-2.278-5.972-2.278-8.249,0
		c-2.278,2.277-2.278,5.972,0,8.249c2.277,2.278,5.972,2.278,8.249,0C393.307,203.133,393.307,199.438,391.03,197.162z
		 M411.653,176.538c-2.277-2.277-5.972-2.277-8.249,0c-2.278,2.278-2.278,5.972,0,8.249c2.277,2.277,5.972,2.277,8.249,0
		C413.93,182.511,413.93,178.816,411.653,176.538z"/>
	<path style="fill:#EDB937;" d="M138.785,398.609c-2.277-2.277-5.972-2.277-8.249,0c-2.278,2.277-2.278,5.972,0,8.249
		c2.277,2.277,5.972,2.277,8.249,0C141.061,404.581,141.061,400.886,138.785,398.609z M159.408,377.987
		c-2.278-2.278-5.972-2.278-8.249,0c-2.277,2.277-2.277,5.972,0,8.249c2.278,2.277,5.972,2.277,8.249,0
		C161.684,383.958,161.684,380.263,159.408,377.987z M180.03,357.364c-2.277-2.277-5.972-2.277-8.249,0
		c-2.278,2.278-2.278,5.972,0,8.249c2.277,2.277,5.972,2.277,8.249,0C182.308,363.335,182.308,359.641,180.03,357.364z
		 M200.653,336.74c-2.278-2.277-5.972-2.277-8.249,0c-2.277,2.277-2.277,5.972,0,8.249c2.278,2.278,5.972,2.278,8.249,0
		C202.931,342.713,202.931,339.018,200.653,336.74z M221.276,316.118c-2.277-2.277-5.972-2.277-8.249,0
		c-2.277,2.277-2.277,5.972,0,8.249c2.278,2.278,5.972,2.278,8.249,0C223.553,322.09,223.553,318.395,221.276,316.118z
		 M241.899,295.495c-2.277-2.277-5.972-2.277-8.249,0c-2.278,2.277-2.278,5.972,0,8.249c2.277,2.277,5.972,2.277,8.249,0
		C244.176,301.467,244.176,297.772,241.899,295.495z M262.521,274.872c-2.277-2.278-5.972-2.278-8.249,0
		c-2.277,2.277-2.277,5.972,0,8.249c2.278,2.277,5.972,2.277,8.249,0C264.798,280.844,264.799,277.15,262.521,274.872z
		 M283.145,254.249c-2.277-2.278-5.972-2.278-8.249,0c-2.277,2.278-2.277,5.972,0,8.249c2.277,2.277,5.972,2.277,8.249,0
		C285.422,260.222,285.422,256.527,283.145,254.249z M303.768,233.627c-2.277-2.277-5.972-2.277-8.249,0
		c-2.277,2.278-2.277,5.972,0,8.249s5.972,2.277,8.249,0C306.044,239.599,306.044,235.903,303.768,233.627z M324.39,213.004
		c-2.277-2.277-5.972-2.277-8.249,0c-2.277,2.277-2.277,5.972,0,8.249c2.277,2.277,5.972,2.277,8.249,0
		S326.667,215.281,324.39,213.004z M345.013,192.381c-2.278-2.278-5.972-2.278-8.249,0c-2.277,2.277-2.277,5.972,0,8.249
		c2.278,2.278,5.972,2.278,8.249,0C347.29,198.354,347.29,194.658,345.013,192.381z M365.636,171.759
		c-2.277-2.277-5.972-2.277-8.249,0c-2.278,2.278-2.278,5.972,0,8.249c2.277,2.277,5.972,2.277,8.249,0
		C367.912,177.73,367.912,174.035,365.636,171.759z M386.259,151.136c-2.277-2.278-5.972-2.278-8.249,0
		c-2.277,2.277-2.277,5.972,0,8.249c2.277,2.278,5.972,2.278,8.249,0C388.535,157.107,388.535,153.412,386.259,151.136z
		 M406.881,130.513c-2.277-2.277-5.972-2.277-8.249,0c-2.277,2.278-2.277,5.972,0,8.249c2.277,2.277,5.972,2.277,8.249,0
		C409.159,136.484,409.159,132.79,406.881,130.513z"/>
	<path style="fill:#EDB937;" d="M113.387,373.215c-2.278-2.277-5.972-2.277-8.249,0c-2.277,2.277-2.278,5.972,0,8.249
		c2.278,2.277,5.972,2.277,8.249,0C115.663,379.187,115.663,375.493,113.387,373.215z M134.009,352.592
		c-2.278-2.278-5.972-2.278-8.249,0c-2.278,2.277-2.278,5.972,0,8.249c2.278,2.277,5.972,2.277,8.249,0
		C136.286,358.565,136.286,354.87,134.009,352.592z M154.632,331.97c-2.277-2.277-5.972-2.277-8.249,0
		c-2.277,2.278-2.277,5.972,0,8.249c2.278,2.277,5.972,2.277,8.249,0C156.909,337.942,156.909,334.246,154.632,331.97z
		 M175.255,311.347c-2.277-2.277-5.972-2.277-8.249,0c-2.278,2.278-2.278,5.972,0,8.249c2.277,2.277,5.972,2.277,8.249,0
		C177.531,317.319,177.531,313.623,175.255,311.347z M195.877,290.724c-2.278-2.277-5.972-2.277-8.249,0
		c-2.277,2.277-2.277,5.972,0,8.249c2.278,2.278,5.972,2.278,8.249,0C198.155,296.696,198.155,293.001,195.877,290.724z
		 M216.5,270.101c-2.277-2.277-5.972-2.277-8.249,0c-2.278,2.277-2.278,5.972,0,8.249c2.277,2.277,5.972,2.277,8.249,0
		C218.778,276.073,218.778,272.378,216.5,270.101z M237.123,249.479c-2.278-2.277-5.972-2.277-8.249,0
		c-2.277,2.278-2.277,5.972,0,8.249c2.278,2.277,5.972,2.277,8.249,0C239.4,255.45,239.4,251.755,237.123,249.479z M257.746,228.855
		c-2.278-2.278-5.972-2.278-8.249,0c-2.277,2.277-2.277,5.972,0,8.249c2.278,2.278,5.972,2.278,8.249,0
		C260.023,234.827,260.023,231.133,257.746,228.855z M278.368,208.232c-2.278-2.278-5.972-2.278-8.249,0
		c-2.277,2.277-2.277,5.972,0,8.249c2.278,2.278,5.972,2.278,8.249,0C280.646,214.205,280.646,210.51,278.368,208.232z
		 M298.992,187.61c-2.277-2.277-5.972-2.277-8.249,0c-2.278,2.278-2.278,5.972,0,8.249c2.277,2.277,5.972,2.277,8.249,0
		C301.269,193.582,301.269,189.887,298.992,187.61z M319.615,166.987c-2.277-2.278-5.972-2.278-8.249,0
		c-2.277,2.277-2.277,5.972,0,8.249c2.277,2.278,5.972,2.278,8.249,0C321.891,172.959,321.891,169.264,319.615,166.987z
		 M340.237,146.369c-2.277-2.278-5.972-2.278-8.249,0c-2.277,2.277-2.277,5.972,0,8.249c2.277,2.278,5.972,2.278,8.249,0
		C342.514,152.34,342.514,148.646,340.237,146.369z M360.86,125.746c-2.278-2.278-5.972-2.278-8.249,0
		c-2.277,2.278-2.277,5.972,0,8.249c2.277,2.277,5.972,2.277,8.249,0C363.137,131.718,363.137,128.023,360.86,125.746z
		 M381.483,105.124c-2.278-2.278-5.972-2.278-8.249,0s-2.277,5.972,0,8.249c2.278,2.278,5.972,2.278,8.249,0
		C383.759,111.095,383.759,107.4,381.483,105.124z"/>
	<path style="fill:#EDB937;" d="M108.615,327.198c-2.278-2.278-5.972-2.278-8.249,0c-2.278,2.277-2.278,5.967,0,8.249
		c2.278,2.277,5.972,2.277,8.249,0C110.891,333.17,110.892,329.475,108.615,327.198z M129.238,306.575
		c-2.278-2.278-5.972-2.278-8.249,0c-2.278,2.277-2.278,5.972,0,8.249c2.278,2.277,5.967,2.277,8.249,0
		C131.515,312.548,131.515,308.853,129.238,306.575z M149.86,285.952c-2.278-2.277-5.972-2.277-8.249,0
		c-2.277,2.278-2.277,5.967,0,8.249c2.278,2.277,5.967,2.277,8.249,0C152.138,291.925,152.138,288.23,149.86,285.952z
		 M170.483,265.33c-2.277-2.277-5.972-2.277-8.249,0c-2.277,2.277-2.277,5.972,0,8.249c2.278,2.278,5.972,2.278,8.249,0
		C172.761,271.302,172.761,267.607,170.483,265.33z M191.107,244.707c-2.277-2.278-5.972-2.278-8.249,0
		c-2.278,2.277-2.278,5.972,0,8.249c2.277,2.278,5.972,2.278,8.249,0C193.383,250.679,193.383,246.985,191.107,244.707z
		 M211.729,224.084c-2.278-2.277-5.972-2.277-8.249,0c-2.277,2.278-2.277,5.972,0,8.249c2.278,2.278,5.972,2.278,8.249,0
		C214.006,230.057,214.006,226.361,211.729,224.084z M232.352,203.462c-2.277-2.277-5.972-2.277-8.249,0
		c-2.278,2.278-2.278,5.972,0,8.249c2.277,2.277,5.972,2.277,8.249,0C234.629,209.434,234.629,205.738,232.352,203.462z
		 M252.975,182.839c-2.278-2.278-5.972-2.278-8.249,0c-2.277,2.277-2.277,5.972,0,8.249c2.278,2.278,5.972,2.278,8.249,0
		C255.251,188.811,255.251,185.115,252.975,182.839z M273.598,162.216c-2.277-2.277-5.972-2.277-8.249,0
		c-2.278,2.278-2.278,5.972,0,8.249c2.277,2.277,5.972,2.277,8.249,0C275.874,168.188,275.874,164.493,273.598,162.216z
		 M294.22,141.593c-2.277-2.278-5.972-2.278-8.249,0c-2.277,2.277-2.277,5.972,0,8.249c2.277,2.278,5.972,2.278,8.249,0
		C296.497,147.565,296.497,143.87,294.22,141.593z M314.838,120.971c-2.277-2.278-5.972-2.278-8.249,0
		c-2.277,2.278-2.277,5.972,0,8.249c2.278,2.278,5.972,2.278,8.249,0C317.116,126.942,317.116,123.247,314.838,120.971z
		 M335.462,100.347c-2.277-2.278-5.972-2.278-8.249,0c-2.278,2.278-2.278,5.972,0,8.249c2.277,2.278,5.972,2.278,8.249,0
		C337.738,106.318,337.738,102.625,335.462,100.347z"/>
</g>
<path style="fill:#F7C64A;" d="M356.972,246.519l-91.493-91.493c-1.155-1.155-3.138-1.045-4.429,0.246L155.273,261.048
	c-1.29,1.29-1.401,3.274-0.246,4.429l91.493,91.493c1.155,1.155,3.138,1.045,4.429-0.246l105.777-105.777
	C358.018,249.656,358.128,247.673,356.972,246.519z"/>
<path style="fill:#FFDB66;" d="M348.084,247.541l-83.627-83.627c-0.957-0.957-2.6-0.866-3.67,0.204l-96.669,96.669
	c-1.07,1.07-1.161,2.713-0.204,3.67l83.627,83.627c0.957,0.957,2.6,0.866,3.67-0.204l96.669-96.669
	C348.95,250.14,349.041,248.498,348.084,247.541z"/>
<path style="fill:#FAD24D;" d="M215.308,111.603l185.084,185.083c78.177,78.177-25.528,181.887-103.705,103.705L111.603,215.308
	C33.426,137.131,137.136,33.426,215.308,111.603z"/>
<g>
	<path style="fill:#EDB937;" d="M327.198,403.385c2.277-2.277,5.972-2.277,8.249,0c2.277,2.277,2.277,5.972,0,8.249
		c-2.277,2.278-5.972,2.278-8.249,0C324.921,409.357,324.921,405.662,327.198,403.385z M306.575,382.762
		c2.277-2.277,5.972-2.277,8.249,0c2.277,2.277,2.277,5.972,0,8.249c-2.277,2.277-5.972,2.277-8.249,0
		C304.299,388.734,304.299,385.039,306.575,382.762z M285.952,362.14c2.278-2.277,5.972-2.277,8.249,0s2.277,5.972,0,8.249
		c-2.278,2.277-5.967,2.277-8.245,0c-2.278-2.277-2.277-5.972,0-8.249H285.952z M265.33,341.517c2.277-2.278,5.972-2.278,8.249,0
		c2.278,2.277,2.278,5.972,0,8.249c-2.277,2.277-5.972,2.277-8.249,0S263.053,343.794,265.33,341.517z M244.707,320.893
		c2.277-2.277,5.972-2.277,8.249,0c2.278,2.278,2.278,5.972,0,8.249c-2.277,2.277-5.972,2.277-8.249,0
		S242.431,323.171,244.707,320.893z M224.084,300.271c2.278-2.277,5.972-2.277,8.249,0c2.278,2.277,2.278,5.972,0,8.249
		c-2.277,2.278-5.972,2.278-8.249,0C221.807,306.243,221.807,302.548,224.084,300.271z M203.462,279.648
		c2.278-2.277,5.972-2.277,8.249,0c2.277,2.277,2.277,5.972,0,8.249c-2.278,2.277-5.972,2.277-8.249,0
		C201.184,285.62,201.184,281.929,203.462,279.648z M182.839,259.025c2.277-2.277,5.972-2.277,8.249,0
		c2.278,2.277,2.278,5.972,0,8.249c-2.277,2.277-5.972,2.277-8.249,0C180.561,264.997,180.561,261.303,182.839,259.025z
		 M162.216,238.402c2.278-2.277,5.972-2.277,8.249,0c2.277,2.278,2.277,5.972,0,8.249c-2.278,2.277-5.972,2.277-8.249,0
		C159.939,244.375,159.939,240.68,162.216,238.402z M141.593,217.78c2.277-2.278,5.972-2.278,8.249,0
		c2.278,2.277,2.278,5.972,0,8.249c-2.277,2.278-5.972,2.278-8.249,0C139.316,223.752,139.316,220.057,141.593,217.78z
		 M120.971,197.162c2.278-2.278,5.972-2.278,8.249,0c2.278,2.277,2.278,5.972,0,8.249c-2.278,2.278-5.972,2.278-8.249,0
		C118.693,203.133,118.693,199.438,120.971,197.162z M100.347,176.538c2.278-2.277,5.972-2.277,8.249,0
		c2.278,2.278,2.278,5.972,0,8.249c-2.278,2.277-5.972,2.277-8.249,0C98.07,182.511,98.07,178.816,100.347,176.538z"/>
	<path style="fill:#EDB937;" d="M373.215,398.609c2.277-2.277,5.972-2.277,8.249,0c2.277,2.277,2.277,5.972,0,8.249
		c-2.277,2.277-5.972,2.277-8.249,0C370.939,404.582,370.939,400.886,373.215,398.609z M352.592,377.987
		c2.277-2.278,5.972-2.278,8.249,0c2.277,2.277,2.277,5.972,0,8.249c-2.277,2.277-5.972,2.277-8.249,0
		C350.316,383.958,350.316,380.263,352.592,377.987z M331.97,357.364c2.278-2.277,5.972-2.277,8.249,0
		c2.277,2.278,2.277,5.972,0,8.249s-5.972,2.277-8.249,0C329.692,363.335,329.692,359.641,331.97,357.364z M311.347,336.74
		c2.278-2.277,5.972-2.277,8.249,0c2.277,2.277,2.277,5.972,0,8.249c-2.278,2.278-5.972,2.278-8.249,0
		C309.069,342.713,309.069,339.018,311.347,336.74z M290.724,316.118c2.277-2.277,5.972-2.277,8.249,0
		c2.278,2.277,2.278,5.972,0,8.249c-2.277,2.278-5.972,2.278-8.249,0C288.447,322.09,288.447,318.395,290.724,316.118z
		 M270.101,295.495c2.277-2.277,5.972-2.277,8.249,0c2.277,2.277,2.277,5.972,0,8.249c-2.277,2.277-5.972,2.277-8.249,0
		C267.825,301.467,267.824,297.772,270.101,295.495z M249.479,274.872c2.278-2.278,5.972-2.278,8.249,0
		c2.277,2.277,2.277,5.972,0,8.249c-2.278,2.277-5.972,2.277-8.249,0C247.201,280.844,247.201,277.15,249.479,274.872z
		 M228.855,254.249c2.277-2.278,5.972-2.278,8.249,0c2.278,2.278,2.278,5.972,0,8.249c-2.277,2.277-5.972,2.277-8.249,0
		C226.578,260.222,226.578,256.527,228.855,254.249z M208.232,233.627c2.277-2.277,5.972-2.277,8.249,0
		c2.278,2.278,2.278,5.972,0,8.249c-2.277,2.277-5.972,2.277-8.249,0C205.956,239.599,205.956,235.903,208.232,233.627z
		 M187.61,213.004c2.278-2.277,5.972-2.277,8.249,0c2.277,2.277,2.277,5.972,0,8.249c-2.278,2.277-5.972,2.277-8.249,0
		C185.333,218.976,185.333,215.281,187.61,213.004z M166.987,192.381c2.277-2.278,5.972-2.278,8.249,0
		c2.278,2.277,2.278,5.972,0,8.249c-2.277,2.278-5.972,2.278-8.249,0C164.71,198.354,164.71,194.658,166.987,192.381z
		 M146.364,171.759c2.278-2.277,5.972-2.277,8.249,0c2.277,2.278,2.277,5.972,0,8.249c-2.278,2.277-5.972,2.277-8.249,0
		C144.088,177.73,144.088,174.035,146.364,171.759z M125.741,151.136c2.277-2.278,5.972-2.278,8.249,0
		c2.277,2.277,2.277,5.972,0,8.249c-2.278,2.278-5.972,2.278-8.249,0C123.465,157.107,123.465,153.412,125.741,151.136z
		 M105.119,130.513c2.278-2.277,5.972-2.277,8.249,0c2.278,2.278,2.278,5.972,0,8.249c-2.278,2.277-5.972,2.277-8.249,0
		C102.841,136.484,102.841,132.79,105.119,130.513z"/>
	<path style="fill:#EDB937;" d="M398.609,373.215c2.277-2.277,5.972-2.277,8.249,0c2.277,2.277,2.277,5.972,0,8.249
		c-2.277,2.277-5.972,2.277-8.249,0C396.333,379.187,396.332,375.493,398.609,373.215z M377.987,352.592
		c2.277-2.278,5.972-2.278,8.249,0c2.277,2.277,2.277,5.972,0,8.249c-2.277,2.277-5.972,2.277-8.249,0
		C375.709,358.565,375.709,354.87,377.987,352.592z M357.364,331.97c2.278-2.277,5.972-2.277,8.249,0
		c2.277,2.278,2.277,5.972,0,8.249c-2.278,2.277-5.972,2.277-8.249,0C355.086,337.942,355.086,334.246,357.364,331.97z
		 M336.74,311.347c2.277-2.277,5.972-2.277,8.249,0c2.278,2.278,2.278,5.972,0,8.249c-2.277,2.277-5.972,2.277-8.249,0
		C334.464,317.319,334.464,313.623,336.74,311.347z M316.118,290.724c2.277-2.277,5.972-2.277,8.249,0
		c2.278,2.277,2.278,5.972,0,8.249c-2.277,2.278-5.972,2.278-8.249,0S313.841,293.001,316.118,290.724z M295.495,270.101
		c2.277-2.277,5.972-2.277,8.249,0c2.277,2.277,2.277,5.972,0,8.249c-2.277,2.277-5.972,2.277-8.249,0
		C293.218,276.074,293.218,272.378,295.495,270.101z M274.872,249.479c2.277-2.277,5.972-2.277,8.249,0
		c2.277,2.278,2.277,5.972,0,8.249c-2.277,2.277-5.972,2.277-8.249,0C272.596,255.45,272.596,251.755,274.872,249.479z
		 M254.249,228.855c2.278-2.278,5.972-2.278,8.249,0c2.277,2.277,2.277,5.972,0,8.249c-2.278,2.278-5.972,2.278-8.249,0
		C251.973,234.827,251.973,231.133,254.249,228.855z M233.627,208.232c2.278-2.278,5.972-2.278,8.249,0
		c2.277,2.277,2.277,5.972,0,8.249c-2.278,2.278-5.972,2.278-8.249,0C231.349,214.205,231.349,210.51,233.627,208.232z
		 M213.004,187.61c2.277-2.277,5.972-2.277,8.249,0c2.277,2.278,2.277,5.972,0,8.249c-2.278,2.277-5.972,2.277-8.249,0
		C210.726,193.582,210.726,189.887,213.004,187.61z M192.381,166.987c2.277-2.278,5.972-2.278,8.249,0
		c2.278,2.277,2.278,5.972,0,8.249c-2.277,2.278-5.972,2.278-8.249,0C190.104,172.959,190.104,169.264,192.381,166.987z
		 M171.759,146.369c2.278-2.278,5.972-2.278,8.249,0c2.277,2.277,2.277,5.972,0,8.249c-2.278,2.278-5.972,2.278-8.249,0
		C169.481,152.34,169.481,148.646,171.759,146.369z M151.136,125.746c2.277-2.278,5.972-2.278,8.249,0
		c2.278,2.278,2.278,5.972,0,8.249c-2.277,2.277-5.972,2.277-8.249,0C148.858,131.718,148.858,128.023,151.136,125.746z
		 M130.513,105.124c2.278-2.278,5.972-2.278,8.249,0c2.277,2.278,2.277,5.972,0,8.249c-2.278,2.278-5.972,2.278-8.249,0
		C128.236,111.095,128.236,107.4,130.513,105.124z"/>
	<path style="fill:#EDB937;" d="M403.385,327.198c2.277-2.278,5.972-2.278,8.249,0c2.278,2.277,2.278,5.967,0,8.249
		c-2.277,2.277-5.972,2.277-8.249,0C401.109,333.17,401.108,329.475,403.385,327.198z M382.762,306.575
		c2.277-2.278,5.972-2.278,8.249,0c2.277,2.277,2.277,5.972,0,8.249c-2.277,2.277-5.967,2.277-8.249,0
		C380.485,312.548,380.485,308.853,382.762,306.575z M362.14,285.952c2.277-2.277,5.972-2.277,8.249,0
		c2.277,2.278,2.277,5.967,0,8.249c-2.277,2.277-5.967,2.277-8.249,0C359.862,291.925,359.862,288.23,362.14,285.952z
		 M341.517,265.33c2.277-2.277,5.972-2.277,8.249,0s2.277,5.972,0,8.249c-2.277,2.278-5.972,2.278-8.249,0
		C339.239,271.302,339.239,267.607,341.517,265.33z M320.893,244.707c2.278-2.278,5.972-2.278,8.249,0
		c2.277,2.277,2.277,5.972,0,8.249c-2.278,2.278-5.972,2.278-8.249,0C318.617,250.679,318.617,246.985,320.893,244.707z
		 M300.271,224.084c2.277-2.277,5.972-2.277,8.249,0c2.278,2.278,2.278,5.972,0,8.249c-2.277,2.278-5.972,2.278-8.249,0
		C297.994,230.057,297.994,226.361,300.271,224.084z M279.648,203.462c2.277-2.277,5.972-2.277,8.249,0
		c2.277,2.278,2.277,5.972,0,8.249c-2.277,2.277-5.972,2.277-8.249,0C277.371,209.434,277.371,205.738,279.648,203.462z
		 M259.025,182.839c2.277-2.278,5.972-2.278,8.249,0c2.277,2.277,2.277,5.972,0,8.249c-2.277,2.278-5.972,2.278-8.249,0
		C256.749,188.811,256.749,185.115,259.025,182.839z M238.402,162.216c2.278-2.277,5.972-2.277,8.249,0
		c2.277,2.278,2.277,5.972,0,8.249c-2.278,2.277-5.972,2.277-8.249,0C236.126,168.188,236.126,164.493,238.402,162.216z
		 M217.78,141.593c2.277-2.278,5.972-2.278,8.249,0c2.278,2.277,2.278,5.972,0,8.249c-2.277,2.278-5.972,2.278-8.249,0
		C215.503,147.565,215.503,143.87,217.78,141.593z M197.162,120.971c2.277-2.278,5.972-2.278,8.249,0
		c2.278,2.278,2.278,5.972,0,8.249c-2.277,2.278-5.972,2.278-8.249,0C194.884,126.942,194.884,123.247,197.162,120.971z
		 M176.538,100.347c2.278-2.278,5.972-2.278,8.249,0c2.277,2.278,2.277,5.972,0,8.249c-2.278,2.278-5.972,2.278-8.249,0
		C174.262,106.319,174.262,102.625,176.538,100.347z"/>
</g>
<path style="fill:#F7C64A;" d="M156.461,246.686l90.228-90.228c1.122-1.122,3.046-1.015,4.3,0.239l104.312,104.312
	c1.254,1.254,1.359,3.178,0.239,4.3l-90.228,90.228c-1.122,1.122-3.046,1.015-4.3-0.239L156.699,250.986
	C155.446,249.733,155.34,247.808,156.461,246.686z"/>
<path style="fill:#FFDB66;" d="M163.915,247.541l83.627-83.627c0.957-0.957,2.6-0.866,3.67,0.204l96.669,96.669
	c1.07,1.07,1.161,2.713,0.204,3.67l-83.627,83.627c-0.957,0.957-2.6,0.866-3.67-0.204l-96.669-96.669
	C163.049,250.14,162.958,248.498,163.915,247.541z"/>
<g>
</g>
<g>
</g>
<g>
</g>
<g>
</g>
<g>
</g>
<g>
</g>
<g>
</g>
<g>
</g>
<g>
</g>
<g>
</g>
<g>
</g>
<g>
</g>
<g>
</g>
<g>
</g>
<g>
</g>
</svg>
