<?xml version="1.0" encoding="iso-8859-1"?>
<!-- Generator: Adobe Illustrator 19.0.0, SVG Export Plug-In . SVG Version: 6.00 Build 0)  -->
<svg version="1.1" id="Layer_1" xmlns="http://www.w3.org/2000/svg" xmlns:xlink="http://www.w3.org/1999/xlink" x="0px" y="0px"
	 viewBox="0 0 512 512" style="enable-background:new 0 0 512 512;" xml:space="preserve">
<circle style="fill:#FAD24D;" cx="256" cy="255.999" r="255.999"/>
<path style="fill:#FFFFFF;" d="M0.229,266.374c27.83-0.463,74.118-1.072,85.687-0.225c16.834,1.231,56.093-1.224,82.9-1.224
	s53.507-8.397,59.116-2.879c-0.697,1.789-0.849,3.426-0.607,4.866c-6.718-4.495-32.563,3.369-58.508,3.369
	c-26.807,0-66.066,2.454-82.9,1.224c-11.531-0.844-57.562-0.243-85.418,0.223c-0.108-1.78-0.197-3.565-0.266-5.354L0.229,266.374
	L0.229,266.374z M511.84,264.599c-0.06,1.791-0.128,3.578-0.225,5.36c-10.486,0.157-24.721,0.315-39.275,0.315
	c-28.676,0-79.491-7.682-128.38-1.222c-48.89,6.46-97.443-13.487-99.941,0.868c-2.441,14.025-19.759,9.274-16.362-1.731
	c2.46,6.762,14.369,7.823,16.362-3.625c2.498-14.356,51.051,5.591,99.941-0.868c48.888-6.46,99.703,1.222,128.38,1.222
	c14.66,0,28.989-0.161,39.5-0.317L511.84,264.599L511.84,264.599z"/>
<path style="fill:#FED298;" d="M0.437,270.823c26.681-0.467,76.339-1.184,88.293-0.295c16.557,1.231,55.165-1.224,81.526-1.224
	c26.363,0,52.623-8.397,58.137-2.879c-4.425,11.557,13.368,16.876,15.824,2.518c2.456-14.356,50.207,5.591,98.288-0.868
	c48.081-6.459,98.052,1.222,126.254,1.222c16.415,0,32.409-0.21,42.915-0.383c-0.483,9.73-1.526,19.31-3.065,28.725
	c-45.524-3.475-149.545-10.837-172.842-7.507c-30.039,4.293-48.427,4.293-83.981,4.293c-35.555,0-50.881,0-91.338,0
	S47.652,293.19,32.943,293.19H2.698C1.626,285.831,0.867,278.369,0.437,270.823L0.437,270.823L0.437,270.823z"/>
<path style="fill:#FF5B62;" d="M6.585,313.937c13.306,0.15,27.401,2.183,37.924,8.43c27.089,16.083,44.022-15.24,76.186-5.082
	c32.166,10.16,89.164-0.668,103.439,0.013c14.274,0.679,12.536-5.937,29.463,4.22c16.929,10.16,50.791-7.62,78.724-9.311
	c27.935-1.691,36.4,25.395,77.03,16.085c29.618-6.787,65.53-8.627,94.628-8.471c1.865-7.274,3.402-14.675,4.632-22.181
	c-45.519-3.475-149.545-10.837-172.845-7.505c-30.036,4.289-48.425,4.289-83.978,4.289s-50.881,0-91.34,0
	c-40.455,0-112.793-1.231-127.506-1.231H2.698C3.719,300.2,5.008,307.124,6.585,313.937z"/>
<path style="fill:#ED4C54;" d="M503.98,319.819c-29.097-0.157-65.01,1.685-94.628,8.471c-40.63,9.311-49.095-17.775-77.03-16.085
	c-27.933,1.691-61.795,19.471-78.724,9.311c-16.929-10.158-15.191-3.539-29.463-4.22c-14.274-0.679-71.272,10.147-103.439-0.013
	c-32.164-10.158-49.098,21.165-76.186,5.082c-10.519-6.247-24.617-8.279-37.924-8.43C32.842,427.414,134.543,512,256.001,512
	C375.351,512,475.623,430.326,503.98,319.819z"/>
<path style="fill:#FF5B62;" d="M216.21,316.305l27.219-0.789l0.317,58.923c0,0-0.197,24.95,12.031,35.877
	c12.228,10.928,12.259,30.313,3.003,39.401c-3.288,3.228-14.486,6.154-36.248,4.593c-26.956-5.091-20.271-33.94-15.332-42.479
	C220.995,387.98,216.21,340.313,216.21,316.305z"/>
<path style="fill:#4D4D4D;" d="M363.373,61.912c-0.364,0.275-133.05,98.091-125.078,304.881l1.725,22.679
	c0,0-0.121,16.807,7.376,24.168c7.494,7.36,7.786,20.598,1.898,26.476c-3.371,3.369-7.283,3.277-10.579,1.661
	c-4.597-2.256,6.692-8.84-3.94-8.703c-14.073,0.183,8.475,11.483-7.752,10.202c-16.519-3.428-12.42-22.862-9.395-28.614
	c8.451-16.065,5.898-31.115,5.898-47.287c-7.102-94.431,29.345-226.647,139.846-305.461L363.373,61.912L363.373,61.912z"/>
<g>
	<path style="fill:#666666;" d="M295.889,270.513l-10.275-0.472c21.329-84.391,97.097-109.622,97.313-109.682
		C380.01,165.817,318.888,179.51,295.889,270.513z"/>
	<path style="fill:#666666;" d="M403.241,273.85l-8.831-0.726c4.044-47.036,34.724-67.219,34.81-67.272
		C425.239,211.431,407.531,223.973,403.241,273.85z"/>
	<path style="fill:#666666;" d="M242.752,140.471c-0.286,0.163-101.322,60.367-96.638,134.533l-11.787-0.046
		C131.862,235.931,163.627,184.019,242.752,140.471z"/>
	<path style="fill:#666666;" d="M34.059,277.575l-8.43-0.693c2.983-34.686,27.521-49.41,27.585-49.448
		c-2.937,4.112-15.994,13.362-19.158,50.143L34.059,277.575z"/>
</g>
<path style="fill:#FF5B62;" d="M322.792,452.639c5.598,0,10.136,4.537,10.136,10.136c0,5.598-4.537,10.135-10.136,10.135
	c-5.598,0-10.135-4.537-10.135-10.135C312.657,457.176,317.194,452.639,322.792,452.639z M114.614,373.111
	c7.752,0,14.034,6.284,14.034,14.034c0,7.752-6.284,14.034-14.034,14.034c-7.752,0-14.034-6.284-14.034-14.034
	C100.579,379.392,106.863,373.111,114.614,373.111z M323.573,384.026c10.337,0,18.712,8.379,18.712,18.712
	c0,10.337-8.379,18.712-18.712,18.712c-10.337,0-18.712-8.379-18.712-18.712C304.86,392.403,313.239,384.026,323.573,384.026z"/>
<path style="fill:#ED4C54;" d="M22.224,300.505c8.153-0.551,31.221-0.421,45.907,0.877c1.342,0.018,6.141,5.512-0.293,7.755
	c-6.431,2.243-17.35,1.114-27.485,1.114s-17.544,0-19.881-1.559c-2.339-1.559-2.339-5.263,1.755-8.187L22.224,300.505
	L22.224,300.505z M436.344,310.742c3.12,3.702,43.568,1.074,42.397-0.682c-1.169-1.755-0.974-7.992-7.018-10.526
	c-11.677,0.194-32.323-1.758-35.035,0.582c-2.454,1.592-2.569,7.474-0.344,10.627v-0.001H436.344z M335.943,299.175
	c5.457-2.923,18.238-0.423,39.29,1.526c21.052,1.949,29.939,0.791,31.595,3.521c1.658,2.73,0.706,6.251-2.748,7.783
	c-3.453,1.532-56.984,0.655-64.953-4.573c-7.966-5.228-3.188-8.26-3.188-8.26L335.943,299.175z M252.213,300.104
	c6.238,0.39,7.626,2.939,20.882,1.184c13.255-1.755,25.411-2.828,25.946,2.688c0.824,8.488-18.809,9.002-28.676,7.642
	c-5.653-0.78-14.449,0.768-17.566-0.793C249.679,309.265,248.315,305.561,252.213,300.104z M166.996,302.795
	c16.648-0.417,33.853-3.111,43.083-4.326c9.23-1.215,2.798,12.486-0.71,12.709c-3.506,0.223-39.974,4.921-41.533,1.411
	s-6.297-8.822-0.84-9.796L166.996,302.795L166.996,302.795z M138.986,300.895c5.848,0,6.238,1.559,4.679,6.238
	s-1.755,4.484-17.738,4.874c-15.983,0.388-35.483-0.359-37.037-3.314c-6.517-15.304,42.734-7.797,50.096-7.797V300.895z"/>
<path style="fill:#FF5B62;" d="M338.036,430.716c0.445,0.472,0.421,1.22-0.051,1.663c-0.472,0.445-1.22,0.421-1.663-0.051
	c-0.038-0.04-12.678-14.139-27.424,6.502c-13.339,18.675-22.064,21.023-24.604,21.287c-2.657,4.033-5.88,7.212-9.511,9.726
	c14.748,0.252,34.565,14.872,34.631,14.92c0.523,0.383,0.637,1.12,0.253,1.645c-0.383,0.523-1.12,0.637-1.645,0.254
	c-0.075-0.055-25.788-19.013-38.971-13.525l-0.844,0.388l-0.027,0.013l-0.026,0.013l-0.002,0.002l-0.64,0.28
	c-10.164,4.363-22.188,5.254-33.61,5.649c-28.202,0.972-14.92,23.316-18.666,24.908c-0.598,0.254-1.878-0.038-2.132-0.633
	c-0.011-0.027-3.107-18.807,5.935-23.184c-7.52-4.469-35.37-21.619-33.891-29.761c0.582-3.204-1.702-6.264-5.345-8.953
	c-2.449-1.81-5.494-3.435-8.72-4.827c-17.167,12.515-38.816-3.331-38.878-3.377c-0.529-0.379-0.651-1.116-0.271-1.645
	c0.379-0.529,1.116-0.651,1.645-0.271c0.057,0.042,19.316,14.135,34.894,4.234c-2.626-1.008-5.299-1.858-7.81-2.527
	c-12.323-3.288-18.739-24.13-18.756-24.187c-0.188-0.62,0.163-1.276,0.782-1.464c0.62-0.188,1.277,0.163,1.464,0.782
	c0.015,0.055,6.046,19.643,17.11,22.595c3.224,0.86,6.714,2.015,10.058,3.415l0.027,0.009l0.053,0.022l0.027,0.011l0.007,0.002
	c3.598,1.515,7.024,3.314,9.77,5.341c4.337,3.204,7.027,7.009,6.255,11.258c-0.558,3.069,4.73,8.147,11.331,13.167
	c0.046-0.055,0.102-0.106,0.161-0.155c8.235-6.444-2.278-30.513-2.308-30.581c-0.254-0.598,0.024-1.289,0.622-1.543
	c0.598-0.254,1.289,0.024,1.543,0.622c0.031,0.073,11.033,25.193,1.903,33.09c8.537,6.255,18.452,12.106,20.818,13.481
	c2.842-1.16,6.8-1.984,12.299-2.174c11.187-0.386,22.946-1.253,32.762-5.463l0.642-0.282c0.269-0.137,0.542-0.26,0.82-0.379
	c8.998-4.269,16.234-11.655,19.646-24.58c7.294-27.64-0.291-42.805-0.31-42.847c-0.284-0.584-0.042-1.289,0.542-1.574
	c0.584-0.284,1.289-0.042,1.574,0.542c0.022,0.046,7.988,15.983,0.47,44.478c-1.036,3.929-2.41,7.376-4.063,10.401
	c3.331-1.069,10.449-5.087,21.072-19.958c16.444-23.021,31.011-6.798,31.055-6.751v-0.008H338.036z"/>
<g>
</g>
<g>
</g>
<g>
</g>
<g>
</g>
<g>
</g>
<g>
</g>
<g>
</g>
<g>
</g>
<g>
</g>
<g>
</g>
<g>
</g>
<g>
</g>
<g>
</g>
<g>
</g>
<g>
</g>
</svg>
