<?xml version="1.0" encoding="iso-8859-1"?>
<!-- Generator: Adobe Illustrator 19.0.0, SVG Export Plug-In . SVG Version: 6.00 Build 0)  -->
<svg version="1.1" id="Layer_1" xmlns="http://www.w3.org/2000/svg" xmlns:xlink="http://www.w3.org/1999/xlink" x="0px" y="0px"
	 viewBox="0 0 511.998 511.998" style="enable-background:new 0 0 511.998 511.998;" xml:space="preserve">
<circle style="fill:#21D0C3;" cx="255.999" cy="255.999" r="255.999"/>
<path style="fill:#FF5B62;" d="M265.549,225.359c9.084,1.127,13.35-1.66,21.872,9.962c8.521,11.619,40.887,29.219,46.092,42.069
	l4.344-2.737c-5.503-14.44-38.541-32.082-46.33-42.536c0,0,1.342-3.393,7.739-2.148c6.395,1.246,41.529,7.117,41.529,7.117
	l3.074-4.236c0,0-38.929-8.158-44.022-8.74c-5.093-0.584-8.524-0.746-8.043-1.792c0.481-1.045,31.234-16.596,48.288-17.421
	c0,0,1.078-3.729-1.537-4.927c-2.613-1.198-45.08,13.213-50.039,16.188c-4.956,2.976-18.503-5.711-18.503-5.711
	c-6.989-2.912-13.546,13.787-4.462,14.909L265.549,225.359L265.549,225.359z"/>
<path style="fill:#ED4C54;" d="M248.511,173.177c0,0,10.598-7.545,23.105-2.285c12.706,86.615-6.132,190.503-10.082,298.774
	l-19.141-0.793C248.651,362.245,263.459,263.175,248.511,173.177z"/>
<path style="fill:#FF5B62;" d="M252.832,222.541c-9.157,2.768-12.713,6.3-25.933-0.706c-13.22-7.002-52.028-6.732-62.622-16.236
	l-2.943,4.298c11.575,10.824,51.044,10.314,63.055,16.563c0,0,0.203,3.645-6.442,5.182c-6.648,1.537-52.468,13.32-52.468,13.32
	l-1.078,5.131c0,0,50.444-11.289,55.557-12.883c5.115-1.596,8.457-2.881,8.457-1.729c0,1.151-41.418,30.468-57.331,38.333
	c0,0,0.607,3.836,3.625,3.836c3.021,0,56.113-33.172,59.537-37.946c3.426-4.774,20.855-1.751,20.855-1.751
	c7.946-0.269,6.888-18.179-2.271-15.412L252.832,222.541L252.832,222.541z"/>
<g>
	<path style="fill:#076673;" d="M252.845,249.698c9.796-1.215,14.398,1.79,23.588-10.742c9.19-12.532,15.505-26.13,21.121-39.987
		l4.683,2.95c-5.935,15.571-12.976,29.219-21.376,40.494c0,0,1.451,3.658,8.348,2.315c6.897-1.342,44.784-7.675,44.784-7.675
		l3.317,4.566c0,0-41.983,8.798-47.475,9.426c-5.494,0.629-9.194,0.804-8.674,1.931c0.518,1.129,33.686,17.899,52.078,18.787
		c0,0,1.162,4.021-1.658,5.316c-2.817,1.289-48.617-14.248-53.963-17.46c-5.347-3.211-19.956,6.158-19.956,6.158
		c-7.536,3.14-14.609-14.87-4.814-16.08L252.845,249.698L252.845,249.698z"/>
	<path style="fill:#076673;" d="M240.741,258.946c-9.157,2.767-12.713,6.3-25.933-0.706c-13.22-7.005-24.33-16.019-34.925-25.523
		l-2.943,4.3c11.575,10.824,23.347,19.601,35.357,25.849c0,0,0.203,3.645-6.442,5.181c-6.648,1.537-24.771,4.03-24.771,4.03
		l-1.078,5.131c0,0,22.747-2.002,27.86-3.596c5.117-1.596,8.457-2.881,8.457-1.729c0,1.151-13.723,21.182-29.633,29.046
		c0,0,0.607,3.836,3.625,3.836c3.021,0,28.416-23.883,31.84-28.659c3.426-4.774,20.855-1.751,20.855-1.751
		c7.946-0.269,6.888-18.179-2.271-15.412L240.741,258.946L240.741,258.946z"/>
</g>
<path style="fill:#FF5B62;" d="M330.218,227.959c0,0-56.519-21.265-39.125-79.922c17.394-58.653,99.538-40.477,118.816-19.48
	c24.341,5.97,77.972,71.122,56.552,143.958c4.52,41.199-37.7,79.692-37.7,79.692s-36.402,58.505-95.972,35.988
	c-59.57-22.518-34.274-93.401-10.281-99.398c10.001-2.5,6.643-3.362,9.664-9.593C326.496,269.088,322.723,241.574,330.218,227.959z"
	/>
<g>
	<path style="fill:#ED4C54;" d="M329.053,230.369c0.247-0.093,40.895-15.383,45.94-41.246c0,0-18.262,26.868-48.041,37.399
		c2.033,0.972,3.266,1.437,3.266,1.437C329.781,228.752,329.397,229.558,329.053,230.369z M330.818,283.323
		c0.295-0.516,1.275-3.543,1.351-4.121c0.04-0.295,40.887,15.306,45.947,41.246C378.115,320.448,360.157,294.032,330.818,283.323z"
		/>
	<path style="fill:#ED4C54;" d="M407.482,256.39c0,0-29.106-11.864-44.765-5.379c-15.658,6.486-25.625,6.169-25.625,6.169
		s10.204,2.613,22.702-1.422C372.288,251.725,390.476,254.333,407.482,256.39z"/>
	<path style="fill:#ED4C54;" d="M292.17,144.755c0.992,26.861,10.239,61.178,47.856,75.805c0,0-5.217,12.821,1.654,37.297
		c0,0-10.211,10.08-3.253,25.583c0,0-51.926,31.748-24.469,94.004c-34.299-28.804-12.385-83.416,8.548-88.647
		c10.001-2.5,6.643-3.362,9.664-9.593c-5.673-10.116-9.445-37.63-1.951-51.245c0,0-56.519-21.265-39.125-79.922
		c0.333-1.127,0.697-2.212,1.078-3.281h-0.002V144.755z"/>
	<path style="fill:#ED4C54;" d="M470.311,221.821c0.038,1.914,0.556,36.062-8.667,49.281c0,0,1.581,43.976-35.432,77.194
		c0,0-26.258,43.026-71.811,42.393c-10.484-0.146-19.677-2.121-27.618-5.071c1.902,0.915,3.893,1.78,6.006,2.577
		c59.57,22.518,95.972-35.988,95.972-35.988s42.22-38.495,37.7-79.692C471.634,254.926,472.421,237.788,470.311,221.821z"/>
</g>
<path style="fill:#FF878E;" d="M299.312,130.968c3.762-4.326,57.123-38.358,107.753,1.736
	c40.132,15.425,57.324,64.665,64.322,103.586c-0.897-57.05-41.274-102.777-61.478-107.733c-17.097-18.618-83.618-35.01-110.598,2.41
	V130.968z"/>
<path style="fill:#FF5B62;" d="M181.78,227.959c0,0,56.519-21.265,39.125-79.922c-17.394-58.653-99.538-40.477-118.816-19.48
	c-24.341,5.97-77.972,71.122-56.552,143.958c-4.52,41.2,37.7,79.693,37.7,79.693s36.402,58.505,95.972,35.988
	s34.274-93.401,10.281-99.398c-10.001-2.5-6.643-3.362-9.664-9.593C185.502,269.088,189.275,241.574,181.78,227.959z"/>
<g>
	<path style="fill:#ED4C54;" d="M182.945,230.369c-0.247-0.093-40.895-15.383-45.94-41.246c0,0,18.262,26.868,48.041,37.399
		c-2.033,0.972-3.266,1.437-3.266,1.437C182.217,228.752,182.601,229.558,182.945,230.369z M181.18,283.323
		c-0.295-0.516-1.274-3.543-1.351-4.121c-0.04-0.295-40.884,15.306-45.947,41.246C133.883,320.448,151.841,294.032,181.18,283.323z"
		/>
	<path style="fill:#ED4C54;" d="M104.516,256.39c0,0,29.106-11.864,44.765-5.379c15.658,6.486,25.625,6.169,25.625,6.169
		s-10.204,2.613-22.699-1.422C139.71,251.725,121.524,254.333,104.516,256.39z"/>
	<path style="fill:#ED4C54;" d="M219.828,144.755c-0.992,26.861-10.242,61.178-47.856,75.805c0,0,5.217,12.821-1.656,37.297
		c0,0,10.211,10.08,3.252,25.583c0,0,51.926,31.748,24.469,94.004c34.299-28.804,12.385-83.416-8.548-88.647
		c-10.001-2.5-6.643-3.362-9.664-9.593c5.673-10.116,9.446-37.63,1.951-51.245c0,0,56.519-21.265,39.125-79.922
		c-0.333-1.127-0.697-2.212-1.078-3.281h0.005V144.755z"/>
	<path style="fill:#ED4C54;" d="M41.687,221.821c-0.038,1.914-0.556,36.062,8.667,49.281c0,0-1.581,43.976,35.432,77.194
		c0,0,26.258,43.026,71.811,42.393c10.484-0.146,19.676-2.121,27.618-5.071c-1.9,0.915-3.893,1.78-6.006,2.577
		c-59.57,22.518-95.97-35.988-95.97-35.988s-42.222-38.495-37.7-79.692c-5.173-17.588-5.959-34.726-3.849-50.694L41.687,221.821
		L41.687,221.821z"/>
</g>
<path style="fill:#FF878E;" d="M212.686,130.968c-3.762-4.326-57.123-38.358-107.753,1.736
	C64.8,148.128,47.609,197.369,40.611,236.29c0.897-57.05,41.274-102.777,61.48-107.733c17.097-18.618,83.616-35.01,110.595,2.41
	L212.686,130.968L212.686,130.968z"/>
<path style="fill:#0F7986;" d="M258.263,189.083c0,0-10.596-7.54-23.103-2.282c-12.704,86.612,30.927,174.595,34.874,282.866
	l19.143-0.793C282.917,362.245,243.314,279.083,258.263,189.083z"/>
<g>
</g>
<g>
</g>
<g>
</g>
<g>
</g>
<g>
</g>
<g>
</g>
<g>
</g>
<g>
</g>
<g>
</g>
<g>
</g>
<g>
</g>
<g>
</g>
<g>
</g>
<g>
</g>
<g>
</g>
</svg>
