<?xml version="1.0" encoding="iso-8859-1"?>
<!-- Generator: Adobe Illustrator 19.0.0, SVG Export Plug-In . SVG Version: 6.00 Build 0)  -->
<svg version="1.1" id="Layer_1" xmlns="http://www.w3.org/2000/svg" xmlns:xlink="http://www.w3.org/1999/xlink" x="0px" y="0px"
	 viewBox="0 0 511.997 511.997" style="enable-background:new 0 0 511.997 511.997;" xml:space="preserve">
<circle style="fill:#0F7986;" cx="255.999" cy="255.999" r="255.999"/>
<path style="fill:#076673;" d="M256,410.849c66.564,0,120.524,4.404,120.524,9.837c0,5.432-53.96,9.834-120.524,9.834
	s-120.524-4.401-120.524-9.834C135.476,415.254,189.436,410.849,256,410.849z"/>
<path style="fill:#21D0C3;" d="M198.808,145.902h114.384c10.443,0,18.983,8.543,18.983,18.983v236.692
	c0,10.443-8.543,18.983-18.983,18.983H198.808c-10.443,0-18.983-8.543-18.983-18.983V164.885
	C179.825,154.442,188.368,145.902,198.808,145.902z"/>
<g>
	<path style="fill:#15BDB2;" d="M326.861,151.749v262.967c3.284-3.415,5.315-8.05,5.315-13.136V164.887
		c0-5.086-2.028-9.721-5.315-13.136V151.749z"/>
	<path style="fill:#15BDB2;" d="M302.112,125.225v21.063h-92.227v-21.063H302.112z"/>
</g>
<path style="fill:#FFFFFF;" d="M208.059,125.225h95.878c3.29,0,5.978-2.691,5.978-5.978V87.454c0-3.287-2.689-5.975-5.978-5.975
	h-95.878c-3.29,0-5.978,2.689-5.978,5.975v31.794C202.081,122.536,204.77,125.225,208.059,125.225z"/>
<path style="fill:#DCE3DB;" d="M296.725,88.015h6.119v30.671h-6.119V88.015z M282.127,88.015h6.122v30.671h-6.122V88.015z
	 M267.533,88.015h6.122v30.671h-6.122V88.015z M252.941,88.015h6.119v30.671h-6.119V88.015z M238.347,88.015h6.122v30.671h-6.122
	V88.015z M223.753,88.015h6.117v30.671h-6.117V88.015z M209.158,88.015h6.119v30.671h-6.119V88.015z"/>
<path style="fill:#15BDB2;" d="M183.356,412.572h145.285c-3.452,4.827-9.099,7.989-15.452,7.989H198.806
	c-6.353,0-12.001-3.161-15.452-7.989H183.356z"/>
<path style="fill:#FFFFFF;" d="M332.174,217.315H204.665v113.826h127.509V217.315z"/>
<path style="fill:#DCE3DB;" d="M332.174,217.315h-4.766v113.826h4.766V217.315z"/>
<path style="fill:#15BDB2;" d="M204.662,331.141h97.355v2.4h-97.355L204.662,331.141L204.662,331.141z"/>
<g>
	<path style="fill:#FF5B62;" d="M258.203,249.025c0-5.498-6.206-10.841-4.656-19.542c2.13-11.943,27.615-11.943,29.742,0
		c1.553,8.701-4.653,14.043-4.653,19.542c0,2.18-1.503,3.767-3.693,4.764v1.055c0,0.784-0.64,1.427-1.427,1.427h-0.003
		c-0.784,0-1.424-0.64-1.424-1.427v-0.15c-0.603,0.124-1.223,0.215-1.854,0.275c-0.066,0.727-0.677,1.301-1.419,1.301l0,0
		c-0.724,0-1.324-0.546-1.416-1.244c-0.63-0.032-1.252-0.095-1.859-0.192v0.008c0,0.784-0.64,1.427-1.427,1.427l0,0
		c-0.784,0-1.427-0.64-1.427-1.427v-0.73C260.076,253.154,258.203,251.459,258.203,249.025z M262.067,234.764
		c2.014,0,3.649,1.637,3.649,3.649c0,2.014-1.634,3.649-3.649,3.649c-2.015,0-3.649-1.637-3.649-3.649
		C258.418,236.401,260.053,234.764,262.067,234.764z M274.776,234.764c2.014,0,3.649,1.637,3.649,3.649
		c0,2.014-1.634,3.649-3.649,3.649c-2.014,0-3.649-1.637-3.649-3.649C271.127,236.401,272.764,234.764,274.776,234.764z
		 M292.254,252.821c-1.052-1.049-1.724-1.078-2.691-1.012c0.063-0.968,0.037-1.64-1.012-2.691c-1.049-1.049-3.573-1.361-4.936,0
		c-1.361,1.364-1.049,3.887,0,4.936c0.21,0.21,0.404,0.377,0.588,0.511l-15.78,15.78l-15.78-15.78
		c0.184-0.134,0.377-0.301,0.585-0.511c1.052-1.049,1.361-3.573,0-4.936c-1.364-1.361-3.884-1.049-4.936,0
		c-1.052,1.052-1.076,1.724-1.015,2.691c-0.965-0.063-1.64-0.037-2.689,1.012s-1.361,3.573,0,4.936c1.364,1.361,3.884,1.049,4.936,0
		c0.152-0.152,0.28-0.296,0.393-0.433l15.762,15.764l-15.552,15.55c-0.137-0.216-0.299-0.422-0.488-0.609
		c-1.361-1.364-3.573-1.364-4.936,0c-1.361,1.361-1.361,3.573,0,4.936c0.737,0.737,1.724,1.076,2.689,1.012
		c-0.06,0.965,0.275,1.951,1.012,2.689c1.364,1.361,3.575,1.361,4.936,0c1.364-1.361,1.364-3.573,0-4.936
		c-0.139-0.142-0.291-0.267-0.446-0.38l15.526-15.526l15.523,15.526c-0.155,0.113-0.304,0.239-0.443,0.38
		c-1.364,1.361-1.364,3.573,0,4.936c1.361,1.361,3.57,1.361,4.934,0c0.737-0.738,1.076-1.724,1.015-2.689
		c0.965,0.06,1.949-0.278,2.689-1.012c1.364-1.364,1.364-3.575,0-4.936c-1.361-1.364-3.572-1.364-4.934,0
		c-0.189,0.187-0.351,0.393-0.488,0.609l-15.552-15.55l15.761-15.764c0.11,0.139,0.242,0.28,0.391,0.433
		c1.049,1.049,3.573,1.361,4.936,0c1.361-1.364,1.049-3.887,0-4.936H292.254z"/>
	<path style="fill:#FF5B62;" d="M227.868,317.507h-3.29v5.018c0,0.719-0.171,1.26-0.509,1.632c-0.338,0.372-0.766,0.559-1.277,0.559
		c-0.54,0-0.978-0.184-1.308-0.548c-0.328-0.367-0.496-0.907-0.496-1.613v-13.66c0-0.789,0.181-1.353,0.546-1.692
		c0.364-0.338,0.936-0.509,1.729-0.509h4.603c1.361,0,2.41,0.105,3.143,0.314c0.727,0.202,1.353,0.535,1.88,1.002
		c0.527,0.469,0.928,1.039,1.202,1.716c0.275,0.677,0.412,1.44,0.412,2.285c0,1.807-0.556,3.171-1.666,4.105
		c-1.115,0.928-2.77,1.393-4.973,1.393h0.005V317.507z M226.997,309.389h-2.418v5.421h2.418c0.844,0,1.553-0.092,2.125-0.267
		c0.564-0.179,0.999-0.467,1.298-0.871c0.296-0.401,0.446-0.934,0.446-1.584c0-0.781-0.231-1.419-0.688-1.909
		c-0.517-0.525-1.577-0.786-3.179-0.786L226.997,309.389z M245.298,306.393c1.838,0,3.415,0.372,4.732,1.118
		c1.316,0.743,2.316,1.804,2.99,3.177c0.677,1.374,1.015,2.987,1.015,4.84c0,1.369-0.187,2.615-0.556,3.733
		c-0.372,1.123-0.926,2.093-1.668,2.914c-0.743,0.821-1.65,1.448-2.731,1.886c-1.081,0.433-2.316,0.653-3.709,0.653
		c-1.385,0-2.626-0.223-3.722-0.674c-1.097-0.443-2.009-1.076-2.744-1.888c-0.735-0.812-1.287-1.792-1.663-2.938
		c-0.375-1.144-0.561-2.379-0.561-3.709c0-1.361,0.194-2.607,0.588-3.746c0.393-1.136,0.957-2.101,1.7-2.901
		c0.738-0.797,1.642-1.408,2.705-1.828c1.06-0.425,2.272-0.635,3.622-0.635h0.001V306.393z M250.397,315.503
		c0-1.293-0.21-2.421-0.627-3.375c-0.42-0.949-1.02-1.666-1.794-2.156c-0.776-0.488-1.671-0.732-2.678-0.732
		c-0.714,0-1.377,0.137-1.986,0.404c-0.611,0.272-1.136,0.664-1.571,1.181c-0.438,0.517-0.784,1.175-1.041,1.978
		c-0.252,0.802-0.377,1.705-0.377,2.702c0,1.012,0.129,1.92,0.377,2.736c0.257,0.813,0.617,1.49,1.078,2.025
		c0.462,0.535,0.994,0.936,1.592,1.202c0.603,0.267,1.257,0.398,1.978,0.398c0.92,0,1.763-0.231,2.534-0.688
		c0.768-0.459,1.377-1.168,1.836-2.13c0.454-0.957,0.682-2.141,0.682-3.544h-0.003V315.503z M257.256,322.524v-13.957
		c0-0.727,0.163-1.267,0.493-1.629c0.33-0.364,0.759-0.546,1.282-0.546c0.535,0,0.973,0.179,1.308,0.535
		c0.333,0.359,0.501,0.905,0.501,1.64v13.957c0,0.735-0.168,1.28-0.501,1.642c-0.335,0.362-0.773,0.546-1.308,0.546
		c-0.514,0-0.942-0.184-1.275-0.548C257.424,323.797,257.256,323.251,257.256,322.524z M278.322,319.102
		c0,1.07-0.278,2.03-0.828,2.885c-0.548,0.852-1.358,1.521-2.421,2.004c-1.065,0.483-2.326,0.722-3.783,0.722
		c-1.75,0-3.192-0.33-4.328-0.986c-0.805-0.475-1.456-1.11-1.959-1.901c-0.504-0.792-0.756-1.563-0.756-2.316
		c0-0.433,0.152-0.805,0.454-1.118c0.301-0.309,0.685-0.462,1.152-0.462c0.38,0,0.698,0.121,0.957,0.362
		c0.264,0.242,0.488,0.598,0.672,1.078c0.223,0.561,0.469,1.036,0.732,1.411c0.262,0.377,0.632,0.693,1.107,0.942
		c0.477,0.243,1.102,0.367,1.875,0.367c1.06,0,1.928-0.247,2.592-0.743c0.664-0.496,0.999-1.112,0.999-1.854
		c0-0.59-0.179-1.07-0.535-1.432c-0.359-0.367-0.826-0.648-1.395-0.842c-0.564-0.194-1.327-0.401-2.277-0.619
		c-1.27-0.296-2.339-0.648-3.192-1.041c-0.857-0.401-1.54-0.944-2.041-1.634c-0.504-0.688-0.756-1.542-0.756-2.571
		c0-0.973,0.263-1.838,0.794-2.599c0.533-0.755,1.303-1.337,2.31-1.747c1.005-0.406,2.191-0.611,3.552-0.611
		c1.086,0,2.025,0.137,2.822,0.404c0.792,0.272,1.453,0.632,1.975,1.078c0.519,0.446,0.905,0.915,1.146,1.408
		c0.239,0.49,0.364,0.973,0.364,1.44c0,0.425-0.152,0.813-0.454,1.154c-0.299,0.341-0.68,0.511-1.131,0.511
		c-0.412,0-0.722-0.103-0.936-0.304c-0.216-0.208-0.443-0.546-0.693-1.012c-0.325-0.669-0.709-1.191-1.165-1.566
		c-0.451-0.375-1.175-0.561-2.177-0.561c-0.923,0-1.676,0.202-2.24,0.611c-0.569,0.409-0.855,0.897-0.855,1.469
		c0,0.354,0.095,0.661,0.291,0.92c0.192,0.258,0.462,0.477,0.8,0.664c0.338,0.187,0.68,0.328,1.028,0.435
		c0.346,0.105,0.92,0.257,1.716,0.459c0.997,0.234,1.907,0.49,2.712,0.776c0.81,0.28,1.5,0.622,2.067,1.026
		c0.569,0.401,1.01,0.913,1.327,1.527c0.317,0.617,0.477,1.374,0.477,2.269L278.322,319.102z M289.163,306.396
		c1.838,0,3.415,0.372,4.732,1.118c1.316,0.743,2.316,1.804,2.99,3.177c0.677,1.374,1.015,2.987,1.015,4.84
		c0,1.369-0.187,2.615-0.556,3.733c-0.372,1.123-0.926,2.093-1.669,2.914c-0.743,0.821-1.65,1.448-2.731,1.886
		c-1.081,0.433-2.316,0.653-3.709,0.653c-1.385,0-2.626-0.223-3.722-0.674c-1.097-0.443-2.009-1.076-2.744-1.888
		c-0.735-0.813-1.287-1.792-1.663-2.938c-0.375-1.144-0.561-2.379-0.561-3.709c0-1.361,0.194-2.607,0.588-3.746
		c0.393-1.136,0.957-2.101,1.7-2.901c0.737-0.797,1.642-1.408,2.705-1.828c1.06-0.425,2.272-0.635,3.622-0.635h0.002V306.396z
		 M294.262,315.505c0-1.293-0.21-2.421-0.627-3.375c-0.42-0.949-1.02-1.666-1.794-2.156c-0.776-0.488-1.671-0.732-2.678-0.732
		c-0.714,0-1.377,0.137-1.986,0.404c-0.611,0.272-1.133,0.664-1.571,1.181c-0.438,0.517-0.784,1.175-1.041,1.978
		c-0.252,0.802-0.377,1.705-0.377,2.702c0,1.012,0.129,1.92,0.377,2.736c0.258,0.813,0.617,1.49,1.078,2.025
		c0.461,0.535,0.994,0.936,1.592,1.202c0.603,0.267,1.257,0.398,1.978,0.398c0.92,0,1.763-0.231,2.534-0.688
		c0.768-0.459,1.377-1.168,1.836-2.13c0.454-0.957,0.682-2.141,0.682-3.544h-0.003V315.505z M305.656,308.552l6.898,10.445v-10.544
		c0-0.688,0.15-1.199,0.441-1.54c0.293-0.343,0.69-0.517,1.189-0.517c0.511,0,0.92,0.171,1.217,0.511
		c0.296,0.341,0.446,0.857,0.446,1.545v13.931c0,1.555-0.643,2.331-1.93,2.331c-0.322,0-0.611-0.047-0.871-0.142
		c-0.257-0.089-0.501-0.239-0.722-0.438c-0.226-0.202-0.433-0.438-0.627-0.709c-0.194-0.267-0.388-0.546-0.582-0.826l-6.731-10.314
		v10.372c0,0.677-0.158,1.189-0.469,1.537c-0.317,0.346-0.722,0.519-1.212,0.519c-0.506,0-0.915-0.176-1.223-0.525
		c-0.309-0.349-0.462-0.863-0.462-1.532v-13.66c0-0.582,0.066-1.036,0.192-1.366c0.152-0.362,0.409-0.661,0.766-0.892
		c0.354-0.229,0.737-0.343,1.146-0.343c0.325,0,0.603,0.055,0.828,0.158c0.231,0.108,0.433,0.247,0.606,0.425
		c0.176,0.179,0.349,0.404,0.533,0.688c0.181,0.28,0.37,0.575,0.564,0.884L305.656,308.552z"/>
</g>
<g>
</g>
<g>
</g>
<g>
</g>
<g>
</g>
<g>
</g>
<g>
</g>
<g>
</g>
<g>
</g>
<g>
</g>
<g>
</g>
<g>
</g>
<g>
</g>
<g>
</g>
<g>
</g>
<g>
</g>
</svg>
