<?xml version="1.0" encoding="iso-8859-1"?>
<!-- Generator: Adobe Illustrator 19.0.0, SVG Export Plug-In . SVG Version: 6.00 Build 0)  -->
<svg version="1.1" id="Layer_1" xmlns="http://www.w3.org/2000/svg" xmlns:xlink="http://www.w3.org/1999/xlink" x="0px" y="0px"
	 viewBox="0 0 512 512" style="enable-background:new 0 0 512 512;" xml:space="preserve">
<circle style="fill:#0F7986;" cx="256" cy="256" r="256"/>
<path style="fill:#21D0C3;" d="M116.527,163.874h361.142c3.852,0,7.002,3.15,7.002,7.002v20.285H109.525v-20.285
	C109.525,167.024,112.675,163.874,116.527,163.874z"/>
<path style="fill:#15BDB2;" d="M484.675,186.136v5.025H109.529v-5.025H484.675z"/>
<path style="fill:#FFFFFF;" d="M145.57,191.167v-57.984c0-5.792,2.378-11.075,6.208-14.919l0.014-0.014l0.014-0.014
	c3.842-3.834,9.127-6.208,14.919-6.208h175.569c5.825,0,11.117,2.378,14.947,6.208c3.83,3.83,6.208,9.122,6.208,14.947v57.984
	h-13.572v-57.984c0-2.079-0.854-3.972-2.236-5.354c-1.376-1.376-3.27-2.231-5.354-2.231H166.719c-2.097,0-3.99,0.845-5.354,2.208
	l-0.028,0.028c-1.362,1.362-2.208,3.257-2.208,5.354v57.984h-13.569L145.57,191.167z"/>
<path style="fill:#FAD24D;" d="M8.831,190.09h494.342v20.106H8.831V190.09z"/>
<path style="fill:#FFFFFF;" d="M114.158,349.516h261.677v12.207H114.158V349.516z"/>
<path style="fill:#15BDB2;" d="M111.336,363.17c10.161,0,18.401,8.24,18.401,18.401c0,10.161-8.24,18.401-18.401,18.401
	s-18.401-8.24-18.401-18.401C92.935,371.41,101.174,363.17,111.336,363.17z"/>
<path style="fill:#FAD24D;" d="M111.336,372.458c5.03,0,9.113,4.078,9.113,9.113c0,5.03-4.078,9.113-9.113,9.113
	c-5.03,0-9.113-4.078-9.113-9.113C102.222,376.541,106.301,372.458,111.336,372.458z"/>
<path style="fill:#FEFEFE;" d="M106.588,349.516h21.897l-12.567,30.877c-3.307,8.12-9.33,5.649-9.33,0.928v-31.81
	C106.588,349.511,106.588,349.516,106.588,349.516z"/>
<g>
	<path style="fill:#D9DADA;" d="M254.513,122.129h87.96c4.73,0,10.563,3.473,10.563,10.073v58.963h-3.15v-57.984
		c0-2.079-0.854-3.972-2.236-5.354c-1.376-1.376-3.27-2.231-5.354-2.231h-87.785h-87.785c-2.079,0-3.977,0.854-5.354,2.231
		s-2.231,3.27-2.231,5.354v57.984h-3.155v-58.963c0-6.6,5.834-10.073,10.563-10.073H254.513z"/>
	<path style="fill:#D9DADA;" d="M321.665,349.516l-153.69-139.321h10.059l153.69,139.321H321.665z"/>
	<path style="fill:#D9DADA;" d="M168.326,349.516l153.69-139.321h-10.059l-153.69,139.321H168.326z"/>
</g>
<path style="fill:#15BDB2;" d="M371.086,363.17c-10.166,0-18.401,8.24-18.401,18.401c0,10.161,8.24,18.401,18.401,18.401
	c10.161,0,18.401-8.24,18.401-18.401C389.487,371.41,381.247,363.17,371.086,363.17z"/>
<path style="fill:#FAD24D;" d="M371.086,372.458c-5.03,0-9.113,4.078-9.113,9.113c0,5.03,4.078,9.113,9.113,9.113
	c5.03,0,9.113-4.078,9.113-9.113C380.198,376.541,376.12,372.458,371.086,372.458z"/>
<path style="fill:#FEFEFE;" d="M375.834,349.516h-21.897l12.567,30.877c3.308,8.12,9.33,5.649,9.33,0.928v-31.81V349.516z"/>
<path style="fill:#FFFFFF;" d="M95.803,190.45l-79.78-53.591l-3.935,5.862l79.78,53.591L95.803,190.45z"/>
<path style="fill:#21D0C3;" d="M38.262,118.901l66.953,44.991c3.196,2.148,4.055,6.521,1.903,9.718l-11.316,16.84l-78.575-52.802
	l11.316-16.839C30.692,117.612,35.066,116.753,38.262,118.901z"/>
<path style="fill:#15BDB2;" d="M98.61,186.275l-2.804,4.171l-78.575-52.802l2.804-4.171L98.61,186.275z"/>
<g>
	<path style="fill:#FFFFFF;" d="M38.623,155.81c0.721,0,1.307,0.587,1.307,1.307s-0.582,1.307-1.307,1.307
		c-0.721,0-1.307-0.587-1.307-1.307S37.902,155.81,38.623,155.81z"/>
	<path style="fill:#FFFFFF;" d="M40.04,161.496l4.236,2.845L30.16,190.086h-5.815L40.04,161.496z"/>
</g>
<path style="fill:#D9DADA;" d="M40.04,161.496l4.236,2.845l-1.445,2.642l-4.287-2.762l1.496-2.73
	C40.04,161.492,40.04,161.496,40.04,161.496z"/>
<g>
</g>
<g>
</g>
<g>
</g>
<g>
</g>
<g>
</g>
<g>
</g>
<g>
</g>
<g>
</g>
<g>
</g>
<g>
</g>
<g>
</g>
<g>
</g>
<g>
</g>
<g>
</g>
<g>
</g>
</svg>
