<?xml version="1.0" encoding="iso-8859-1"?>
<!-- Generator: Adobe Illustrator 19.0.0, SVG Export Plug-In . SVG Version: 6.00 Build 0)  -->
<svg version="1.1" id="Layer_1" xmlns="http://www.w3.org/2000/svg" xmlns:xlink="http://www.w3.org/1999/xlink" x="0px" y="0px"
	 viewBox="0 0 512 512" style="enable-background:new 0 0 512 512;" xml:space="preserve">
<circle style="fill:#21D0C3;" cx="256" cy="256" r="256"/>
<g>
	<path style="fill:#666666;" d="M337.192,368.403l18.062,32.384l-20.753,11.578l-18.065-32.386
		c3.481-1.841,6.961-3.728,10.448-5.674c3.483-1.943,6.916-3.908,10.311-5.904L337.192,368.403z"/>
	<path style="fill:#666666;" d="M165.876,85.662c80.052-44.652,181.147-15.956,225.801,64.099
		c44.649,80.052,15.951,181.144-64.099,225.796c-80.054,44.652-181.144,15.953-225.799-64.096
		C57.129,231.407,85.824,130.313,165.876,85.662z"/>
</g>
<path style="fill:#21D0C3;" d="M176.353,104.44c69.678-38.868,157.674-13.886,196.542,55.794
	c38.87,69.68,13.886,157.674-55.791,196.542c-69.68,38.868-157.671,13.886-196.542-55.791
	c-38.868-69.678-13.886-157.671,55.794-196.542L176.353,104.44z"/>
<path style="fill:#666666;" d="M407.402,462.431l-29.727-53.292c-2.529-4.53-8.231-6.214-12.632-3.762l-31.78,17.731
	c-4.396,2.452-5.954,8.213-3.441,12.721l30.199,54.136c16.829-7.496,32.701-16.753,47.381-27.539L407.402,462.431L407.402,462.431z"
	/>
<path style="fill:#FEFEFE;" d="M381.29,415.617l-7.893-14.156c-2.523-4.519-8.215-6.214-12.629-3.754l-31.783,17.726
	c-4.409,2.463-5.962,8.202-3.441,12.721l7.893,14.151l47.855-26.692L381.29,415.617L381.29,415.617z"/>
<path style="fill:#ECF0F1;" d="M381.29,415.617l-7.893-14.148c-2.418-4.334-7.735-6.067-12.063-4.047l12.475,22.363L381.29,415.617z
	 M328.437,415.773c-3.987,2.618-5.309,8.058-2.893,12.386l7.893,14.151l7.475-4.168L328.437,415.773z"/>
<g>
	<path style="fill:#EEF3F7;" d="M303.953,361.368c-65.362,31.408-145.645,5.288-182.54-60.859
		c-36.898-66.155-16.942-148.182,44.124-187.293c-5.747,5.346-10.972,11.134-15.664,17.277
		c-37.955,43.175-46.141,108.435-15.748,162.926c30.396,54.488,90.218,81.809,146.899,72.193
		C288.714,364.854,296.384,363.449,303.953,361.368z"/>
	<path style="fill:#EEF3F7;" d="M329.693,335.692c53.942-34.784,70.223-109.83,35.888-171.376
		c-34.333-61.552-106.738-87.129-164.672-59.508c1.471-0.388,2.956-0.745,4.438-1.076c56.028-20.36,122.242,5.679,154.613,63.716
		s19.74,128.063-27.019,165.032C331.878,333.568,330.798,334.64,329.693,335.692z"/>
</g>
<path style="fill:#ED4C54;" d="M329.184,273.113V170.22c0-52.287-79.05-52.29-79.05,0v102.893
	C250.135,325.402,329.184,325.399,329.184,273.113z"/>
<path style="fill:#FF5B62;" d="M308.783,135.418c-23.421-11.701-58.647-0.105-58.647,34.802v102.893
	c0,34.907,35.227,46.503,58.647,34.802c7.78-6.99,12.95-17.393,12.95-31.216V166.635
	C321.733,152.811,316.563,142.408,308.783,135.418z"/>
<path style="fill:#EEF3F7;" d="M329.184,273.113v-51.448h-79.05v51.448C250.135,325.402,329.184,325.399,329.184,273.113z"/>
<g>
	<path style="fill:#FEFEFE;" d="M321.733,276.699v-55.033h-71.597v51.448c0,34.907,35.227,46.503,58.647,34.802
		C316.563,300.924,321.733,290.522,321.733,276.699z"/>
	<path style="fill:#FEFEFE;" d="M260.1,221.665h5.629V164.04c0-1.548-1.267-2.815-2.814-2.815l0,0c-1.548,0-2.815,1.267-2.815,2.815
		V221.665z"/>
</g>
<path style="fill:#DCE3E8;" d="M192.692,215.745c25.727,0,46.585,20.858,46.585,46.585s-20.858,46.582-46.585,46.582
	s-46.582-20.855-46.582-46.582S166.965,215.745,192.692,215.745z"/>
<path style="fill:#EEF3F7;" d="M191.408,214.551c25.297,0,45.806,20.507,45.806,45.806c0,25.297-20.509,45.806-45.806,45.806
	c-25.299,0-45.806-20.509-45.806-45.806C145.603,235.058,166.11,214.551,191.408,214.551z"/>
<path style="fill:#FEFEFE;" d="M191.408,218.229c23.266,0,42.128,18.862,42.128,42.128s-18.862,42.128-42.128,42.128
	c-23.269,0-42.128-18.862-42.128-42.128C149.28,237.088,168.143,218.229,191.408,218.229z"/>
<path style="fill:#DCE3E8;" d="M186.501,218.746l4.907-4.15v91.516l-4.907-4.158L186.501,218.746L186.501,218.746z"/>
<path style="fill:#EEF3F7;" d="M196.317,218.746l-4.907-4.15v91.516l4.907-4.158L196.317,218.746L196.317,218.746z"/>
<g>
</g>
<g>
</g>
<g>
</g>
<g>
</g>
<g>
</g>
<g>
</g>
<g>
</g>
<g>
</g>
<g>
</g>
<g>
</g>
<g>
</g>
<g>
</g>
<g>
</g>
<g>
</g>
<g>
</g>
</svg>
