<?xml version="1.0" encoding="iso-8859-1"?>
<!-- Generator: Adobe Illustrator 19.0.0, SVG Export Plug-In . SVG Version: 6.00 Build 0)  -->
<svg version="1.1" id="Layer_1" xmlns="http://www.w3.org/2000/svg" xmlns:xlink="http://www.w3.org/1999/xlink" x="0px" y="0px"
	 viewBox="0 0 512 512" style="enable-background:new 0 0 512 512;" xml:space="preserve">
<circle style="fill:#21D0C3;" cx="256" cy="256" r="256"/>
<path style="fill:#FF5B62;" d="M178.081,122.282c44.899,0,81.304,27.426,81.304,76.588c0-49.162,36.405-76.588,81.304-76.588
	s81.304,39.851,81.304,89.013c0,63.624-122.134,181.139-162.608,229.885C218.911,392.439,96.777,274.918,96.777,211.295
	C96.777,162.132,133.182,122.282,178.081,122.282z"/>
<path style="fill:#FEFEFE;" d="M0.527,272.235h131.109l27.606-62.571c0.9-2.055,3.422-3.039,5.621-2.194
	c1.127,0.434,1.954,1.266,2.364,2.25l0.014-0.005l42.031,99.253l36.932-58.497c1.215-1.917,3.861-2.554,5.907-1.422
	c0.67,0.369,1.197,0.887,1.552,1.478l21.713,31.144l31.038-30.877c1.631-1.621,4.36-1.7,6.092-0.176
	c0.328,0.291,0.596,0.614,0.803,0.965h0.005l12.397,20.683h185.753c-0.171,2.707-0.378,5.399-0.628,8.083H323.189v-0.009
	c-1.506,0-2.974-0.744-3.765-2.06l-10.762-17.958l-30.761,30.599h-0.005c-0.231,0.231-0.494,0.439-0.794,0.619
	c-1.995,1.21-4.665,0.684-5.958-1.183l-21.052-30.193l-37.814,59.892c-0.466,0.803-1.224,1.464-2.203,1.824
	c-2.217,0.817-4.73-0.199-5.603-2.273l-41.352-97.645l-24.512,55.554c-0.559,1.631-2.19,2.809-4.115,2.809H1.141
	c-0.255-2.684-0.462-5.376-0.628-8.083L0.527,272.235z M253.668,250.518c0.739,1.215,0.78,2.762-0.032,4.051"/>
<g>
</g>
<g>
</g>
<g>
</g>
<g>
</g>
<g>
</g>
<g>
</g>
<g>
</g>
<g>
</g>
<g>
</g>
<g>
</g>
<g>
</g>
<g>
</g>
<g>
</g>
<g>
</g>
<g>
</g>
</svg>
