<?xml version="1.0" encoding="iso-8859-1"?>
<!-- Generator: Adobe Illustrator 19.0.0, SVG Export Plug-In . SVG Version: 6.00 Build 0)  -->
<svg version="1.1" id="Layer_1" xmlns="http://www.w3.org/2000/svg" xmlns:xlink="http://www.w3.org/1999/xlink" x="0px" y="0px"
	 viewBox="0 0 512 512" style="enable-background:new 0 0 512 512;" xml:space="preserve">
<circle style="fill:#FAD24D;" cx="256" cy="256" r="256"/>
<path style="fill:#FF5B62;" d="M65.179,216.621h83.081c2.167,0,4.018-1.238,4.85-3.24c0.831-2.004,0.396-4.189-1.139-5.721
	l-58.745-58.745c-2.043-2.046-2.043-5.379,0-7.426l48.264-48.264c2.046-2.043,5.379-2.043,7.425,0l58.745,58.745
	c1.534,1.534,3.717,1.967,5.721,1.139c2.004-0.828,3.24-2.681,3.24-4.85V65.179c0-2.89,2.36-5.252,5.252-5.252h68.256
	c2.89,0,5.252,2.358,5.252,5.252v83.081c0,2.167,1.238,4.018,3.24,4.85c2.004,0.831,4.189,0.396,5.721-1.139l58.745-58.745
	c2.046-2.043,5.379-2.043,7.425,0l48.264,48.264c2.043,2.046,2.043,5.379,0,7.425l-58.745,58.745
	c-1.534,1.534-1.967,3.717-1.139,5.721c0.828,2.004,2.681,3.24,4.85,3.24h83.079c2.89,0,5.252,2.36,5.252,5.252v68.256
	c0,2.89-2.358,5.252-5.252,5.252H363.74c-2.167,0-4.018,1.238-4.85,3.24c-0.831,2.004-0.396,4.189,1.139,5.721l58.745,58.745
	c2.043,2.046,2.043,5.379,0,7.425l-48.266,48.266c-2.046,2.043-5.38,2.043-7.426,0l-58.745-58.745
	c-1.534-1.534-3.717-1.967-5.721-1.139c-2.004,0.828-3.24,2.681-3.24,4.85v83.079c0,2.89-2.358,5.252-5.252,5.252H221.87
	c-2.89,0-5.252-2.358-5.252-5.252v-83.079c0-2.167-1.238-4.018-3.24-4.85c-2.004-0.831-4.189-0.396-5.721,1.139l-58.745,58.745
	c-2.046,2.043-5.379,2.043-7.425,0L93.221,370.51c-2.043-2.046-2.043-5.379,0-7.425l58.745-58.745
	c1.534-1.534,1.967-3.717,1.139-5.721c-0.828-2.004-2.681-3.24-4.85-3.24H65.177c-2.89,0-5.252-2.358-5.252-5.252v-68.256
	c0-2.89,2.358-5.252,5.252-5.252h0.002V216.621z"/>
<path style="fill:#FFFFFF;" d="M241.82,122.798c-7.512-4.532-12.533-12.771-12.533-22.186c0-14.301,11.591-25.894,25.894-25.894
	c14.301,0,25.894,11.593,25.894,25.894c0,9.414-5.023,17.653-12.533,22.186c-3.277,97.151-5.424,217.723-13.931,314.585
	c-7-96.681-9.518-217.72-12.79-314.585C241.823,122.798,241.82,122.798,241.82,122.798z M255.179,89.515
	c6.127,0,11.098,4.97,11.098,11.098c0,6.13-4.97,11.098-11.098,11.098c-6.13,0-11.098-4.968-11.098-11.098
	C244.081,94.485,249.049,89.515,255.179,89.515z"/>
<path style="fill:#DCE3DB;" d="M268.54,122.798l-6.39,1.872l-7.541,312.712l6.014-84.639l7.919-229.946L268.54,122.798
	L268.54,122.798z"/>
<path style="fill:#076673;" d="M246.161,344.251c-1.041-0.764-2.442-1.917-3.412-2.802c-0.776-0.709-0.74-0.85-1.442-1.576
	c-3.019-3.124-5.065-6.974-1.598-10.44c1.98-1.975,4.902-3.918,8.155-5.721c4.915-2.728,10.581-5.136,14.878-6.867
	c0.611-0.243,1.196-0.477,1.747-0.695c12.155-4.808,32.982-13.393,36.347-27.122c1.962-8.002-0.685-14.702-4.498-19.594
	c-1.954-2.505-4.328-4.113-6.513-6.19c-2.049-1.949-4.751-3.575-7.29-5.398c-3.955-2.843-11.318-7.056-16.019-9.325l-1.377-0.844
	l-0.664,19.279l1.316,0.682c4.039,1.825,21.356,10.778,19.528,17.341c-0.792,2.835-3.806,5.044-6.088,6.61
	c-4.517,3.1-10.301,5.734-15.89,8.134l-0.745,0.32c-3.963,1.692-9.763,4.045-15.326,6.639c-5.513,2.571-10.802,5.378-13.85,8.013
	c-1.35,1.168-2.35,1.729-3.425,2.916c-1.178,1.301-1.782,1.637-2.922,3.116c-3.331,4.315-4.601,9.02-4.087,14.883
	c0.839,9.655,8.924,16.1,16.011,21.385c1.487,1.11,6.114,4.202,7.827,4.764l2.434,1.345l-0.617-17.425
	c-0.815-0.48-1.64-0.955-2.471-1.421L246.161,344.251z M235.802,410.041c0,0,43.7-23.513,25.194-41.32l0.443-14.993
	c5.745,2.329,9.905,5.315,13.765,10.951l0.003,0.003c0.569,0.829,1.131,1.718,1.69,2.668l-0.354,0.047
	c3.192,7.945,6.945,30.18-40.743,42.642L235.802,410.041z M306.999,176.235c4.962,0.485,11.234,1.303,14.033,4.926
	c2.29,2.966,1.202,2.468-0.551,0.496c-2.198-2.476-9.422-3.966-11.596-3.791c2.03,0.931,3.987,1.901,5.776,3.019
	c1.786,1.118,3.344,3.19,3.777,4.092c0.43,0.905,0.393,1.141-0.669,0.314c-1.062-0.826-1.653-2.636-3.344-3.386
	c-1.692-0.748-6.731-2.794-7.124-3.148c-0.176-0.16-0.779-0.467-1.393-0.764c-3.712,4.045-14.435,6.125-18.453,6.494
	c-13.264,1.22-10.657-3.373-27.03,3.043c-5.458,2.141-10.715,4.716-14.938,7.756c-0.761,0.548-1.406,1.039-2.004,1.513
	c-1.4,1.118-2.531,2.154-4.257,3.704c-4.369,3.926-7.578,8.139-8.509,14.085c-1.015,6.494,2.547,10.883,6.878,15.043
	c2.088,2.001,4.377,3.344,6.154,4.939l1.044,0.64l0.753,21.939l-1.414-0.735l-15.751-10.014l-3.129-2.618
	c-0.469-0.435-0.915-0.813-1.442-1.27l-5.566-5.626c-10.206-12.693-9.871-29.092,0.454-41.493
	c3.842-4.617,8.386-8.806,13.561-12.136l5.02-3.145c1.83-1.041,3.675-2.109,5.529-3.171c2.998-1.716,6.017-3.41,9.044-4.915
	c5.737-2.851,19.599-7.441,24.811-8.774c5.883-1.506,11.854-1.445,18.864,1.537c2.791,1.189,4.907,2.584,7.232,4.255
	c3.887,2.797,4.912,5.183,4.239,7.19h0.005V176.235z"/>
<path style="fill:#FFFFFF;" d="M281.424,169.05c0,0,1.149-2.694,4.886-1.833c3.738,0.86,3.738,2.465,2.185,2.752
	C286.944,170.256,284.126,171.516,281.424,169.05z"/>
<g>
</g>
<g>
</g>
<g>
</g>
<g>
</g>
<g>
</g>
<g>
</g>
<g>
</g>
<g>
</g>
<g>
</g>
<g>
</g>
<g>
</g>
<g>
</g>
<g>
</g>
<g>
</g>
<g>
</g>
</svg>
