<?xml version="1.0" encoding="iso-8859-1"?>
<!-- Generator: Adobe Illustrator 19.0.0, SVG Export Plug-In . SVG Version: 6.00 Build 0)  -->
<svg version="1.1" id="Layer_1" xmlns="http://www.w3.org/2000/svg" xmlns:xlink="http://www.w3.org/1999/xlink" x="0px" y="0px"
	 viewBox="0 0 511.998 511.998" style="enable-background:new 0 0 511.998 511.998;" xml:space="preserve">
<circle style="fill:#ECF0F1;" cx="255.999" cy="255.999" r="255.999"/>
<circle style="fill:#21D0C3;" cx="255.999" cy="255.999" r="255.999"/>
<path style="fill:#666666;" d="M375.97,336.94v-11.747l34.991-0.104c2.513,0,4.659,1.581,5.499,3.804l0.007-0.002l21.103,55.769
	h32.122c3.257,0,5.898,2.642,5.898,5.898s-2.642,5.898-5.898,5.898l-36.181-0.013c-2.379,0-4.619-1.453-5.505-3.81l-21.107-55.783
	l-30.927,0.093v-0.004H375.97z"/>
<path style="fill:#FF5B62;" d="M183.218,158.155h181.527c10.451,0,19.947,4.271,26.827,11.148
	c6.88,6.88,11.148,16.375,11.148,26.827v133.413v8.025h-8.028H183.216h-8.025v-8.025V166.182v-8.028h8.025L183.218,158.155z
	 M364.745,174.209H191.244v147.308h195.422V196.13c0-6.019-2.469-11.499-6.447-15.476
	C376.244,176.678,370.762,174.209,364.745,174.209z"/>
<path style="fill:#FEFEFE;" d="M175.19,196.811h227.527v59.211H175.19V196.811z"/>
<path style="fill:#EEF3F7;" d="M192.287,196.811h193.337v59.211H192.287V196.811z"/>
<path style="fill:#FF5B62;" d="M175.19,259.492h226.695v15.926H175.19V259.492z"/>
<path style="fill:#666666;" d="M224.93,141.17h132.348c4.712,0,8.566,3.854,8.566,8.566v8.563H216.367v-8.563
	c0-4.712,3.854-8.566,8.566-8.566L224.93,141.17L224.93,141.17z"/>
<g>
	<path style="fill:#FEFEFE;" d="M186.001,443.637h-5.565l-1.9-85.857l-28.339,81.067l-5.292-1.72l24.726-82.241l-52.003,68.343
		l-4.502-3.272l48.927-70.575L91.476,398.31l-3.272-4.502l68.343-52.001l-82.243,24.725l-1.718-5.294l81.067-28.339l-85.859-1.9
		l0.002-5.565l85.857-1.898l-81.067-28.339l1.722-5.294l82.241,24.726l-68.343-52.001l3.275-4.504l70.575,48.93l-48.93-70.577
		l4.504-3.272l52.001,68.343l-24.726-82.241l5.294-1.722l28.339,81.07l1.898-85.859h5.567l1.898,85.854l28.339-81.065l5.292,1.72
		l-24.723,82.241l52.001-68.341l4.502,3.272l-48.93,70.577l70.577-48.927l3.272,4.502l-68.343,52.003l82.241-24.723l1.72,5.292
		l-81.067,28.339l85.857,1.9v5.565l-85.857,1.9l81.065,28.339l-1.72,5.292l-82.241-24.723l68.343,52.003l-3.272,4.502l-70.577-48.93
		l48.927,70.577l-4.502,3.272l-52.001-68.343l24.723,82.241l-5.292,1.72l-28.339-81.065l-1.9,85.857L186.001,443.637z
		 M183.218,313.769c7.977,0,14.444,6.466,14.444,14.444s-6.466,14.444-14.444,14.444s-14.444-6.466-14.444-14.444
		S175.241,313.769,183.218,313.769z"/>
	<path style="fill:#FEFEFE;" d="M183.218,205.877c33.783,0,64.366,13.694,86.505,35.833s35.833,52.722,35.833,86.505
		s-13.694,64.366-35.833,86.507c-22.137,22.137-52.722,35.831-86.505,35.831c-33.781,0-64.366-13.694-86.505-35.831
		c-22.139-22.139-35.831-52.725-35.831-86.507c0-33.781,13.694-64.366,35.831-86.505
		C118.852,219.571,149.438,205.877,183.218,205.877z M260.132,251.301c-19.682-19.684-46.877-31.86-76.913-31.86
		s-57.231,12.175-76.913,31.86c-19.682,19.682-31.858,46.877-31.858,76.913c0,30.039,12.175,57.231,31.858,76.916
		c19.684,19.682,46.877,31.858,76.913,31.858c30.039,0,57.231-12.175,76.913-31.858c19.684-19.682,31.86-46.877,31.86-76.916
		C291.992,298.178,279.816,270.985,260.132,251.301z"/>
</g>
<path style="fill:#D9DADA;" d="M183.218,308.502c10.888,0,19.711,8.826,19.711,19.711c0,10.888-8.824,19.711-19.711,19.711
	c-10.888,0-19.711-8.826-19.711-19.711S172.331,308.502,183.218,308.502z M183.218,313.769c7.977,0,14.444,6.466,14.444,14.444
	s-6.466,14.444-14.444,14.444s-14.444-6.466-14.444-14.444S175.241,313.769,183.218,313.769z"/>
<g>
	<path style="fill:#666666;" d="M183.218,199.86c35.443,0,67.532,14.367,90.76,37.594c23.226,23.228,37.594,55.318,37.594,90.76
		s-14.367,67.532-37.594,90.76c-23.228,23.226-55.318,37.594-90.76,37.594s-67.532-14.367-90.76-37.594
		c-23.226-23.228-37.594-55.318-37.594-90.76c0-35.441,14.367-67.532,37.594-90.76C115.686,214.23,147.775,199.86,183.218,199.86z
		 M268.228,243.205c-21.755-21.755-51.812-35.211-85.01-35.211s-63.255,13.456-85.01,35.211s-35.211,51.812-35.211,85.01
		s13.457,63.255,35.211,85.01c21.755,21.753,51.812,35.211,85.01,35.211s63.255-13.459,85.01-35.211
		c21.753-21.755,35.211-51.812,35.211-85.01S289.982,264.96,268.228,243.205z"/>
	<path style="fill:#666666;" d="M374.063,381.482c20.492,0,37.105,16.612,37.105,37.105c0,20.492-16.612,37.105-37.105,37.105
		c-20.492,0-37.105-16.612-37.105-37.105C336.958,398.096,353.569,381.482,374.063,381.482z"/>
</g>
<path style="fill:#FEFEFE;" d="M374.063,392.546c14.382,0,26.041,11.659,26.041,26.041c0,14.382-11.659,26.041-26.041,26.041
	c-14.38,0-26.041-11.659-26.041-26.041C348.022,404.208,359.681,392.546,374.063,392.546z"/>
<path style="fill:#D9DADA;" d="M374.063,409.376c5.087,0,9.212,4.125,9.212,9.212c0,5.087-4.125,9.21-9.212,9.21
	c-5.087,0-9.21-4.123-9.21-9.21C364.853,413.501,368.976,409.376,374.063,409.376z"/>
<path style="fill:#FF5B62;" d="M367.323,321.517h13.479v95.243c0,3.689-3.032,6.707-6.738,6.707l0,0
	c-3.707,0-6.738-3.018-6.738-6.707v-95.243H367.323z"/>
<path style="fill:#666666;" d="M183.218,312.51c8.672,0,15.7,7.029,15.7,15.703s-7.029,15.703-15.7,15.703
	c-8.674,0-15.703-7.029-15.703-15.703C167.515,319.542,174.544,312.51,183.218,312.51z"/>
<path style="fill:#FF5B62;" d="M115.534,34.938h41.434c9.351,0,17.868,3.715,24.062,9.695c6.277,6.065,10.175,14.44,10.175,23.654
	v109.453h-16.052V68.286c0-4.712-2.002-9.002-5.224-12.113c-3.31-3.195-7.896-5.182-12.963-5.182h-41.433V34.938z"/>
<path style="fill:#666666;" d="M99.5,33.11h56.497v19.303H99.5C89.429,52.413,89.078,33.117,99.5,33.11z"/>
<path style="fill:#FEFEFE;" d="M374.145,413.406c1.784,0,3.228,1.444,3.228,3.228c0,1.783-1.444,3.228-3.228,3.228
	c-1.783,0-3.228-1.444-3.228-3.228C370.916,414.85,372.36,413.406,374.145,413.406z"/>
<path style="fill:#EEF3F7;" d="M445.76,368.646h26.247c4.13,0,7.509,3.377,7.509,7.509v20.567h-41.268v-20.567
	c0-4.132,3.38-7.509,7.509-7.509H445.76z"/>
<g>
	<path style="fill:#FEFEFE;" d="M438.25,387.052v9.67h33.251h0.299h7.717v-11.63h-41.268v1.96H438.25z"/>
	<path style="fill:#FEFEFE;" d="M183.218,320.975c3.997,0,7.241,3.241,7.241,7.239c0,3.997-3.241,7.241-7.241,7.241
		c-3.997,0-7.239-3.241-7.239-7.241C175.98,324.215,179.221,320.975,183.218,320.975z"/>
</g>
<g>
</g>
<g>
</g>
<g>
</g>
<g>
</g>
<g>
</g>
<g>
</g>
<g>
</g>
<g>
</g>
<g>
</g>
<g>
</g>
<g>
</g>
<g>
</g>
<g>
</g>
<g>
</g>
<g>
</g>
</svg>
