<?xml version="1.0" encoding="iso-8859-1"?>
<!-- Generator: Adobe Illustrator 19.0.0, SVG Export Plug-In . SVG Version: 6.00 Build 0)  -->
<svg version="1.1" id="Layer_1" xmlns="http://www.w3.org/2000/svg" xmlns:xlink="http://www.w3.org/1999/xlink" x="0px" y="0px"
	 viewBox="0 0 512.002 512.002" style="enable-background:new 0 0 512.002 512.002;" xml:space="preserve">
<circle style="fill:#FF5B62;" cx="256.001" cy="256.001" r="256.001"/>
<ellipse style="fill:#ED4C54;" cx="256.001" cy="400.659" rx="201.248" ry="16.344"/>
<path style="fill:#FAD24D;" d="M56.773,128.341h399.088V371.35c0,16.719-13.679,30.399-30.401,30.399H87.174
	c-16.721,0-30.401-13.679-30.401-30.399C56.773,371.35,56.773,128.341,56.773,128.341z"/>
<g>
	<path style="fill:#EDB937;" d="M444.59,394.932c-5.235,4.258-11.895,6.818-19.127,6.818H87.171c-7.232,0-13.893-2.562-19.127-6.818
		H444.59z"/>
	<path style="fill:#EDB937;" d="M455.861,208.448v9.894c0,4.295-3.514,7.81-7.81,7.81H64.582c-4.295,0-7.81-3.514-7.81-7.81v-9.891
		c3.902,5.704,10.46,9.466,17.853,9.466h363.381C445.402,217.915,451.959,214.154,455.861,208.448z"/>
</g>
<path style="fill:#FAD24D;" d="M53.005,128.341h406.622v67.954c0,11.891-9.728,21.619-21.619,21.619H74.628
	c-11.891,0-21.621-9.728-21.621-21.619v-67.954H53.005z"/>
<path style="fill:#FFDB66;" d="M53.005,128.341h406.622v5.863H53.005V128.341z"/>
<circle style="fill:#FFFFFF;" cx="256.32" cy="300.045" r="49.85"/>
<path style="fill:#FF5B62;" d="M247.756,268.524h17.123v22.963h22.966v17.123h-22.966v22.963h-17.123v-22.963H224.79v-17.123h22.966
	L247.756,268.524L247.756,268.524z"/>
<path style="fill:#DCE3DB;" d="M164.663,128.341c2.238-4.998,12.985-27.398,28.727-34.07l2.921,8.089
	c-10.685,4.529-18.926,18.629-22.626,25.98h-9.024H164.663z M338.946,128.341c-3.7-7.351-11.942-21.451-22.629-25.98l2.923-8.089
	c15.742,6.672,26.489,29.069,28.727,34.07h-9.024H338.946z"/>
<path style="fill:#0F7986;" d="M256.315,76.644c23.909,0,46.748,4.225,67.689,11.909c0.93,0.341,1.612,1.014,2.015,1.984
	c0.401,0.968,0.412,1.969,0.026,2.948l-6.096,15.573c-0.677,1.729-2.423,2.626-4.09,2.099c-18.667-5.917-38.702-9.128-59.545-9.128
	c-20.357,0-39.936,3.065-58.23,8.718c-1.581,0.487-3.222-0.284-3.968-1.874l-7.177-15.244c-0.465-0.985-0.505-2.037-0.122-3.067
	c0.388-1.027,1.094-1.749,2.064-2.104c20.869-7.624,43.621-11.814,67.432-11.814h0.003V76.644z"/>
<path style="fill:#076673;" d="M320.483,107.696l-0.531,1.358c-0.679,1.731-2.425,2.628-4.092,2.099
	c-18.667-5.917-38.702-9.128-59.545-9.128c-20.357,0-39.936,3.065-58.23,8.718c-1.581,0.487-3.222-0.284-3.968-1.872l-0.75-1.592
	c19.628-6.626,40.831-10.239,62.949-10.239C278.89,97.041,300.514,100.807,320.483,107.696z"/>
<rect x="120.615" y="128.34" style="fill:#EDB937;" width="22.467" height="136.145"/>
<path style="fill:#FFFFFF;" d="M119.025,257.206h26.829v9.048c0,3.738-2.524,6.8-5.609,6.8h-15.611c-3.085,0-5.609-3.058-5.609-6.8
	V257.206z"/>
<path style="fill:#DCE3DB;" d="M145.347,269.071c-0.888,2.343-2.844,3.982-5.102,3.982h-15.611c-2.258,0-4.216-1.638-5.102-3.982
	h25.817H145.347z"/>
<rect x="368.372" y="128.34" style="fill:#EDB937;" width="22.467" height="136.145"/>
<path style="fill:#FFFFFF;" d="M366.781,257.206h26.829v9.048c0,3.738-2.524,6.8-5.609,6.8H372.39c-3.085,0-5.609-3.058-5.609-6.8
	L366.781,257.206L366.781,257.206z"/>
<path style="fill:#DCE3DB;" d="M393.105,269.071c-0.888,2.343-2.844,3.982-5.102,3.982h-15.611c-2.258,0-4.216-1.638-5.102-3.982
	h25.817H393.105z"/>
<path style="fill:#EDB937;" d="M71.166,230.181h2.73v13.632h-2.73V230.181z M71.166,251.996h2.73v13.634h-2.73V251.996z
	 M71.166,273.81h2.73v13.634h-2.73V273.81z M71.166,295.626h2.73v13.634h-2.73V295.626z M71.166,317.44h2.73v13.632h-2.73V317.44z
	 M71.166,339.256h2.73v13.634h-2.73V339.256z M71.166,361.07h2.73v7.175c0,1.942,0.355,4.022,1.061,5.832l-2.549,0.979
	c-0.818-2.229-1.24-4.431-1.24-6.811v-7.175L71.166,361.07L71.166,361.07z M77.238,382.31c3.506,3.393,8.427,5.336,13.295,5.336
	v-2.728c-4.185,0-8.408-1.676-11.417-4.59l-1.878,1.98C77.238,382.308,77.238,382.31,77.238,382.31z M98.719,387.645v-2.728h13.641
	v2.728H98.719z M120.546,387.645v-2.728h13.643v2.728H120.546z M142.374,387.645v-2.728h13.641v2.728H142.374z M164.203,387.645
	v-2.728h13.643v2.728H164.203z M186.03,387.645v-2.728h13.641v2.728H186.03z M207.859,387.645v-2.728h13.643v2.728H207.859z
	 M229.687,387.645v-2.728h13.641v2.728H229.687z M251.515,387.645v-2.728h13.641v2.728H251.515z M273.343,387.645v-2.728h13.641
	v2.728H273.343z M295.172,387.645v-2.728h13.641v2.728H295.172z M316.999,387.645v-2.728h13.643v2.728H316.999z M338.828,387.645
	v-2.728h13.641v2.728H338.828z M360.656,387.645v-2.728h13.643v2.728H360.656z M382.484,387.645v-2.728h13.641v2.728H382.484z
	 M404.312,387.645v-2.728h13.643v2.728H404.312z M426.416,387.149c4.776-1.023,9.062-4.143,11.785-8.153l-2.276-1.506
	c-2.287,3.426-6.079,6.136-10.127,7.002l0.62,2.655L426.416,387.149z M441.299,370.844l0.002-0.02l0.015-0.115l0.018-0.128
	l0.013-0.119l0.013-0.122l0.013-0.121l0.011-0.124l0.011-0.124l0.013-0.119l0.009-0.133l0.009-0.115l0.009-0.124l0.007-0.124
	l0.007-0.124l0.007-0.13l0.004-0.124l0.004-0.115l0.007-0.126l0.002-0.13l0.002-0.124l0.002-0.124v-0.124v-11.205h-2.728v11.205
	v0.108l-0.002,0.108l-0.002,0.108l-0.002,0.099l-0.002,0.108l-0.004,0.115l-0.004,0.108l-0.007,0.097l-0.007,0.108l-0.007,0.106
	l-0.007,0.106l-0.009,0.115l-0.009,0.097l-0.009,0.108l-0.009,0.106l-0.011,0.104l-0.011,0.106l-0.011,0.106l-0.011,0.104
	l-0.013,0.097l-0.015,0.113l-0.002,0.02l2.703,0.359L441.299,370.844L441.299,370.844z M441.473,348.858h-2.728v-13.634h2.728
	V348.858z M441.473,327.043h-2.728V313.41h2.728V327.043z M441.473,305.228h-2.728v-13.634h2.728V305.228z M441.473,283.413h-2.728
	v-13.634h2.728V283.413z M441.473,261.598h-2.728v-13.634h2.728V261.598z M441.473,239.784h-2.728v-13.632h2.728V239.784z"/>
<g>
</g>
<g>
</g>
<g>
</g>
<g>
</g>
<g>
</g>
<g>
</g>
<g>
</g>
<g>
</g>
<g>
</g>
<g>
</g>
<g>
</g>
<g>
</g>
<g>
</g>
<g>
</g>
<g>
</g>
</svg>
