<?xml version="1.0" encoding="iso-8859-1"?>
<!-- Generator: Adobe Illustrator 19.0.0, SVG Export Plug-In . SVG Version: 6.00 Build 0)  -->
<svg version="1.1" id="Layer_1" xmlns="http://www.w3.org/2000/svg" xmlns:xlink="http://www.w3.org/1999/xlink" x="0px" y="0px"
	 viewBox="0 0 511.997 511.997" style="enable-background:new 0 0 511.997 511.997;" xml:space="preserve">
<circle style="fill:#21D0C3;" cx="255.999" cy="255.999" r="255.999"/>
<path style="fill:#FED298;" d="M413.677,457.69c2.789-62.732,7.066-174.345,6.238-252.642
	C418.702,90.57,317.855,85.484,317.855,85.484H65.051C24.593,130.757,0,190.506,0,256c0,17.388,1.734,34.372,5.039,50.787
	c49.514,2.987,209.46-51.088,239.923-57.218c31.591-6.359,30.382,20.349,30.382,20.349c-4.341,61.682-21.121,134.5,21.64,204.443
	c0.522,0.852,4.475,18.06,7.958,32.968c40.452-7.833,77.504-25.186,108.737-49.635L413.677,457.69z"/>
<path style="fill:#FAD24D;" d="M370.559,103.68c-26.062-16.85-52.704-18.195-52.704-18.195h-35.56
	c1.587,18.345,8.527,122.71-34.56,163.597c10.159-1.513,16.586,0.646,20.651,4.068c7.433,6.267,6.958,16.766,6.958,16.766
	c-0.601,8.535-1.44,17.285-2.326,26.215c-1.081,10.867-2.23,21.997-3.106,33.318c14.812-17.973,52.357-54.758,113.369-57.746
	l36.063,16.629c0.54-27.746,0.863-55.531,0.569-83.283c-0.024-2.23-0.084-4.419-0.184-6.568
	c-2.342-51.437-25.517-79.506-49.174-94.8L370.559,103.68L370.559,103.68z"/>
<g>
	<path style="fill:#F0BA7D;" d="M316.069,504.912l-6.442-30.938c0,0-35.752-34.516-40.979-99.414
		c1.191,32.919,8.089,66.682,28.333,99.798c0.522,0.852,4.475,18.06,7.958,32.968c3.738-0.724,7.449-1.529,11.127-2.413H316.069z"/>
	<path style="fill:#F0BA7D;" d="M255.431,240.459C95.147,291.056,26.532,289.522,1.658,285.291
		c0.826,7.263,1.957,14.432,3.381,21.496c49.514,2.987,209.46-51.088,239.923-57.218c0.955-0.192,1.878-0.354,2.773-0.488
		C250.502,246.455,253.062,243.57,255.431,240.459z"/>
</g>
<g>
	<path style="fill:#EDB937;" d="M381.14,111.494L273.661,260.7c0.546,1.393,0.915,2.752,1.168,3.979l112.178-147.853
		c-1.92-1.888-3.879-3.667-5.866-5.336v0.003H381.14z"/>
	<path style="fill:#EDB937;" d="M383.283,271.701l-85.432-36.719l-1.729,1.44l73.341,36.564c4.461-0.617,9.067-1.055,13.815-1.285
		H383.283z"/>
	<path style="fill:#EDB937;" d="M419.937,207.291l-119.323,23.217l-3.486,4.596l122.866-20.478
		c-0.013-2.444-0.034-4.889-0.055-7.334L419.937,207.291L419.937,207.291z"/>
	<path style="fill:#EDB937;" d="M273.018,296.129c0,0,25.052-39.214,48.628-46.981l-3.523-1.758
		c-1.915-0.955-24.583,11.62-44.093,38.298c-0.322,3.452-0.664,6.932-1.012,10.443V296.129z"/>
</g>
<path style="fill:#FFDB66;" d="M282.532,88.385L282.532,88.385c0,0,35.568-1.437,55.059,4.409
	c19.492,5.847,49.512,19.882,63.545,53.801c14.034,33.918,13.642,65.497,14.424,88.888c0.779,23.392,3.785,52.848,3.785,52.848
	c0.54-27.746,0.863-55.531,0.569-83.283c-0.024-2.23-0.084-4.419-0.184-6.568c-2.342-51.437-25.517-79.506-49.174-94.8
	c-26.062-16.85-52.704-18.195-52.704-18.195h-35.56c0.071,0.802,0.15,1.782,0.234,2.901L282.532,88.385L282.532,88.385z"/>
<path style="fill:#EDB937;" d="M255.421,240.464l0.01-0.005c0,0,32.111-2.613,35.08,13.443s-17.026,43.878-20.599,75.545
	c0.876-11.321,2.025-22.45,3.106-33.318c0.886-8.927,1.724-17.676,2.326-26.215c0,0,0.475-10.502-6.958-16.766
	c-4.063-3.423-10.492-5.582-20.651-4.068C250.499,246.457,253.054,243.57,255.421,240.464z"/>
<g>
</g>
<g>
</g>
<g>
</g>
<g>
</g>
<g>
</g>
<g>
</g>
<g>
</g>
<g>
</g>
<g>
</g>
<g>
</g>
<g>
</g>
<g>
</g>
<g>
</g>
<g>
</g>
<g>
</g>
</svg>
