<?xml version="1.0" encoding="iso-8859-1"?>
<!-- Generator: Adobe Illustrator 19.0.0, SVG Export Plug-In . SVG Version: 6.00 Build 0)  -->
<svg version="1.1" id="Layer_1" xmlns="http://www.w3.org/2000/svg" xmlns:xlink="http://www.w3.org/1999/xlink" x="0px" y="0px"
	 viewBox="0 0 511.995 511.995" style="enable-background:new 0 0 511.995 511.995;" xml:space="preserve">
<circle style="fill:#0F7986;" cx="255.998" cy="255.998" r="255.998"/>
<path style="fill:#FEFEFE;" d="M160.73,263.431h276.28v29.055H160.73V263.431z"/>
<path style="fill:#FF5B62;" d="M157.11,263.431h64.62v29.055h-64.62V263.431z"/>
<g>
	<path style="fill:#EBECEC;" d="M227.377,263.431h-5.65v29.055h5.65V263.431z"/>
	<path style="fill:#EBECEC;" d="M227.377,288.885h209.633v3.58H227.377V288.885z"/>
</g>
<path style="fill:#ED4C54;" d="M157.11,288.885h64.62v3.58h-64.62V288.885z"/>
<g>
	<path style="fill:#D9DADA;" d="M227.377,288.885h-5.65v3.58h5.65V288.885z"/>
	<path style="fill:#D9DADA;" d="M449.846,249.233c1.361-1.69,2.275-3.866,2.755-6.29c0.779-3.947,0.412-8.524-1.015-12.819
		c-1.416-4.268-3.876-8.228-7.292-10.977c-2.106-1.697-4.582-2.932-7.402-3.488l-0.2-0.039c-0.656-0.129-1.162-0.533-1.435-1.141
		c-0.272-0.609-0.237-1.257,0.102-1.83l0.105-0.176c3.208-5.442,4.404-11.785,3.887-17.986c-0.417-4.976-1.938-9.863-4.412-14.125
		c-2.447-4.221-5.831-7.825-9.993-10.277c-4.321-2.544-9.498-3.866-15.363-3.375l-0.267,0.024c-0.743,0.063-1.411-0.259-1.825-0.881
		c-0.414-0.619-0.456-1.361-0.116-2.025l0.121-0.234c1.624-3.145,2.452-6.953,2.51-10.979c0.076-5.408-1.246-11.184-3.913-16.291
		c-2.642-5.054-6.602-9.445-11.833-12.144c-3.399-1.758-7.358-2.806-11.851-2.869c-2.835,0.259-4.239-4.482,0.074-4.286
		c5.188,0.071,9.779,1.295,13.742,3.341c6.064,3.132,10.636,8.179,13.666,13.976c2.998,5.745,4.485,12.247,4.398,18.343
		c-0.047,3.389-0.58,6.67-1.608,9.642c5.416,0.116,10.269,1.595,14.44,4.055c4.819,2.84,8.722,6.985,11.528,11.827
		c2.786,4.803,4.501,10.309,4.97,15.917c0.514,6.148-0.464,12.431-3.153,18.073c2.418,0.826,4.593,2.067,6.513,3.615
		c4.081,3.287,7.003,7.96,8.666,12.974c1.655,4.978,2.072,10.335,1.149,15.004c-0.609,3.087-1.804,5.893-3.612,8.136
		C451.204,253.763,448.317,251.48,449.846,249.233z"/>
	<path style="fill:#D9DADA;" d="M440.18,248.74c-2.768,0.786-5.821,0.786-8.9,0.142c-4.661-0.976-9.427-3.449-13.362-6.916
		c-3.955-3.483-7.116-8.002-8.548-13.057c-0.674-2.371-0.965-4.857-0.779-7.407c-6.246,0.275-12.41-1.28-17.863-4.158
		c-4.976-2.623-9.375-6.356-12.706-10.796c-3.357-4.475-5.645-9.687-6.376-15.234c-0.635-4.806-0.103-9.847,1.907-14.873
		c-3.14-0.218-6.371-1.01-9.513-2.296c-5.642-2.305-11.045-6.214-15.163-11.224c-4.152-5.052-7.008-11.232-7.52-18.033
		c-0.335-4.446,0.335-9.149,2.297-13.963c1.094-2.141,4.968-0.873,3.968,1.619c-1.695,4.155-2.275,8.202-1.988,12.018
		c0.441,5.87,2.932,11.237,6.555,15.643c3.657,4.448,8.454,7.921,13.467,9.967c3.725,1.521,7.549,2.243,11.079,1.978l0.264-0.021
		c0.745-0.055,1.408,0.272,1.817,0.897c0.406,0.625,0.443,1.366,0.097,2.025l-0.126,0.237c-2.749,5.217-3.562,10.502-2.906,15.468
		c0.63,4.787,2.626,9.309,5.555,13.217c2.953,3.937,6.857,7.248,11.279,9.579c5.511,2.906,11.819,4.286,18.083,3.46l0.197-0.026
		c0.664-0.087,1.27,0.131,1.724,0.622c0.454,0.488,0.627,1.112,0.49,1.766l-0.039,0.195c-0.59,2.809-0.42,5.571,0.32,8.176
		c1.194,4.208,3.879,8.018,7.258,10.995c3.399,2.995,7.467,5.125,11.403,5.949c2.416,0.506,4.774,0.517,6.867-0.079
		c3.245-0.187,3.048,3.659,1.16,4.123L440.18,248.74z"/>
</g>
<path style="fill:#FED198;" d="M187.605,9.258c19.717,40.859,58.915,96.193,74.349,129.009c4.184,8.898,0.839,27.641-7.854,33.777
	c-8.341,5.888-33.808,15.021-60.491,16.869c-13.734,32.817-1.857,41.52-1.327,54.416c0.173,4.229-3.229,16.333-7.544,20.085
	c-27.397,0-16.354,22.44-14.019,29.055c8.921,25.256-11.94,25.309-38.681,57.596c-11.437,14.033,4.242,41.023-12.974,78.878
	c-6.222,13.681-13.676,22.421-22.123,27.644C37.882,409.689,0,337.274,0,256C0,138.307,79.429,39.178,187.602,9.258H187.605z"/>
<path style="fill:#EBECEC;" d="M438.952,264.669l5.718-0.737l2.99,2.112c0,0,0.907,7.077,1.039,7.604
	c0.129,0.527-4.158,6.125-3.638,7.287c0.519,1.162,2.468,5.705,1.429,6.442c-1.039,0.737,1.17,4.435,1.17,4.435
	s-2.599,0.527-3.638,0.632c-1.039,0.105-5.377,0.105-5.377,0.105l0.306-27.882L438.952,264.669L438.952,264.669z"/>
<path style="fill:#21D0C3;" d="M269.948,314.857l37.49-37.49l-37.49-37.49l13.968-13.968l37.49,37.49l37.49-37.49l13.968,13.968
	l-37.49,37.49l37.49,37.49l-13.968,13.968l-37.49-37.49l-37.49,37.49L269.948,314.857z"/>
<path style="fill:#FAD24D;" d="M441.833,263.969c0,0-0.64,4.089-0.64,4.724c0,0.632,0.259,6.442,0.259,6.442
	s-0.259,1.901-0.259,2.429s-2.4,3.837-2.4,3.837l1.878,8.837c0,0-0.485,0.469-0.779,1.584c-0.293,1.115-2.882,0.664-2.882,0.664
	s-0.624-12.601-0.884-16.51c-0.26-3.908-0.651-8.236-0.651-8.236s-5.328-2.219-2.728-2.324c2.6-0.106,0.651-3.381,9.089-1.45
	L441.833,263.969z"/>
<g>
</g>
<g>
</g>
<g>
</g>
<g>
</g>
<g>
</g>
<g>
</g>
<g>
</g>
<g>
</g>
<g>
</g>
<g>
</g>
<g>
</g>
<g>
</g>
<g>
</g>
<g>
</g>
<g>
</g>
</svg>
