<?xml version="1.0" encoding="iso-8859-1"?>
<!-- Generator: Adobe Illustrator 19.0.0, SVG Export Plug-In . SVG Version: 6.00 Build 0)  -->
<svg version="1.1" id="Layer_1" xmlns="http://www.w3.org/2000/svg" xmlns:xlink="http://www.w3.org/1999/xlink" x="0px" y="0px"
	 viewBox="0 0 512 512" style="enable-background:new 0 0 512 512;" xml:space="preserve">
<circle style="fill:#FF5B62;" cx="256" cy="256" r="256"/>
<path style="fill:#EEF3F7;" d="M412.987,99.35L412.987,99.35c-13.57-13.57-35.782-13.57-49.352,0L153.352,309.633
	c-10.295,10.3-12.78,25.565-7.45,38.262l-17.468,17.468l18.54,18.54l17.468-17.468c12.697,5.33,27.966,2.845,38.262-7.45
	l210.283-210.283C426.558,135.131,426.558,112.919,412.987,99.35z"/>
<path style="fill:#15BDB2;" d="M147.704,383.174l-20.032-20.032l-35.846,35.846c-5.51,5.505-5.51,14.522,0,20.027l0,0
	c5.51,5.51,14.522,5.51,20.032,0l35.842-35.842L147.704,383.174L147.704,383.174z"/>
<path style="fill:#FFFFFF;" d="M411.182,96.084L411.182,96.084c-13.569-13.57-35.782-13.57-49.352,0L151.546,306.368
	c-10.295,10.3-12.78,25.565-7.45,38.262l-17.468,17.468l18.54,18.54l17.468-17.468c12.697,5.33,27.966,2.845,38.262-7.45
	l210.284-210.283C424.751,131.865,424.751,109.654,411.182,96.084z"/>
<g>
	<path style="fill:#21D0C3;" d="M145.912,381.386l-20.032-20.032L90.034,397.2c-5.51,5.505-5.51,14.522,0,20.027l0,0
		c5.51,5.51,14.522,5.51,20.032,0l35.842-35.842L145.912,381.386L145.912,381.386z"/>
	<path style="fill:#21D0C3;" d="M388.115,119.155L388.115,119.155c-1.626-1.626-4.287-1.626-5.912,0L243.807,257.547l5.916,5.916
		l138.393-138.397C389.741,123.441,389.741,120.781,388.115,119.155z"/>
</g>
<g>
	<path style="fill:#FF5B62;" d="M249.723,263.464l-5.916-5.916L132.942,368.411l5.916,5.912l110.864-110.864V263.464z"/>
	<path style="fill:#FF5B62;" d="M252.573,254.693c-3.21-3.21-8.411-3.21-11.621,0c-3.21,3.21-3.21,8.411,0,11.621
		c3.21,3.21,8.411,3.21,11.621,0S255.783,257.903,252.573,254.693z"/>
</g>
<path style="fill:#B0B0B0;" d="M403.062,144.216l-12.822-12.822l-2.097,2.097l12.822,12.822L403.062,144.216z M375.876,117.03
	l-12.822-12.826l-2.097,2.097l12.826,12.826l2.097-2.097H375.876z M216.2,331.078l-12.822-12.822l-2.097,2.097l12.822,12.822
	L216.2,331.078z M189.014,303.892l-12.822-12.826l-2.097,2.097l12.826,12.826l2.097-2.097H189.014z M233.188,314.091l-12.822-12.822
	l-2.097,2.097l12.822,12.822L233.188,314.091z M206.002,286.905l-12.826-12.826l-2.097,2.097l12.826,12.822l2.097-2.097V286.905z
	 M250.175,297.103l-12.822-12.822l-2.097,2.097l12.822,12.822L250.175,297.103z M222.989,269.917l-12.826-12.822l-2.097,2.097
	l12.822,12.826l2.097-2.097L222.989,269.917z M267.163,280.115l-12.822-12.822l-2.097,2.097l12.822,12.822L267.163,280.115z
	 M239.977,252.929l-12.822-12.826l-2.097,2.097l12.826,12.826l2.097-2.097H239.977z M284.151,263.127l-12.822-12.822l-2.097,2.097
	l12.822,12.822L284.151,263.127z M256.965,235.941l-12.826-12.826l-2.097,2.097l12.822,12.822l2.097-2.097L256.965,235.941z
	 M301.139,246.139l-12.822-12.822l-2.097,2.097l12.822,12.822L301.139,246.139z M273.953,218.952l-12.822-12.822l-2.097,2.097
	l12.826,12.826l2.097-2.097L273.953,218.952z M318.127,229.151l-12.822-12.822l-2.097,2.097l12.822,12.822L318.127,229.151z
	 M290.941,201.965l-12.826-12.826l-2.097,2.097l12.826,12.822l2.097-2.097V201.965z M335.115,212.164l-12.822-12.822l-2.097,2.097
	l12.822,12.822L335.115,212.164z M307.929,184.977l-12.826-12.822l-2.097,2.097l12.822,12.826l2.097-2.097L307.929,184.977z
	 M352.102,195.176l-12.822-12.822l-2.097,2.097l12.822,12.822L352.102,195.176z M324.916,167.989l-12.822-12.826l-2.097,2.097
	l12.826,12.826l2.097-2.097H324.916z M369.09,178.188l-12.822-12.822l-2.097,2.097l12.822,12.822L369.09,178.188z M341.904,151.001
	l-12.826-12.826l-2.097,2.097l12.826,12.822l2.097-2.097V151.001z M386.079,161.2l-12.822-12.822l-2.097,2.097l12.822,12.822
	L386.079,161.2z M358.892,134.013l-12.826-12.822l-2.097,2.097l12.822,12.826l2.097-2.097L358.892,134.013z"/>
<path style="fill:#FEFEFE;" d="M128.605,372.878l-4.277-4.374l-33.496,33.2l4.277,4.374L128.605,372.878z"/>
<g>
</g>
<g>
</g>
<g>
</g>
<g>
</g>
<g>
</g>
<g>
</g>
<g>
</g>
<g>
</g>
<g>
</g>
<g>
</g>
<g>
</g>
<g>
</g>
<g>
</g>
<g>
</g>
<g>
</g>
</svg>
