<?xml version="1.0" encoding="iso-8859-1"?>
<!-- Generator: Adobe Illustrator 19.0.0, SVG Export Plug-In . SVG Version: 6.00 Build 0)  -->
<svg version="1.1" id="Layer_1" xmlns="http://www.w3.org/2000/svg" xmlns:xlink="http://www.w3.org/1999/xlink" x="0px" y="0px"
	 viewBox="0 0 512.002 512.002" style="enable-background:new 0 0 512.002 512.002;" xml:space="preserve">
<circle style="fill:#FAD24D;" cx="256.001" cy="256.001" r="256.001"/>
<ellipse style="fill:#EDB937;" cx="277.15" cy="416.179" rx="123.19" ry="12.243"/>
<path style="fill:#FFFFFF;" d="M87.262,208.608h380.559c0,88.13-34.305,197.183-157.743,197.183h-65.076
	C121.567,405.792,87.262,296.742,87.262,208.608z"/>
<path style="fill:#EEF3F7;" d="M445.953,208.608h21.867c0,88.13-34.305,197.183-157.742,197.183
	c113.608-14.682,139.041-112.756,135.872-197.183H445.953z"/>
<path style="fill:#D9DADA;" d="M221.896,403.938h111.293c3.815,0,6.935,3.12,6.935,6.934v6.936H214.961v-6.936
	C214.961,407.058,218.081,403.938,221.896,403.938z"/>
<path style="fill:#FF5B62;" d="M56.431,170.398l37.251-46.522l133.945,84.731H94.403l-37.972-38.211
	C56.431,170.396,56.431,170.398,56.431,170.398z"/>
<path style="fill:#ED4C54;" d="M56.431,170.398l3.729-4.657l0.002,0.002l2.75-3.433l49.387,46.3H94.403L56.431,170.398
	C56.431,170.399,56.431,170.398,56.431,170.398z"/>
<path style="fill:#EEF3F7;" d="M49.978,88.88l43.707,34.996l-37.642,47.007l-43.705-34.998c-2.759,2.015-6.65,2.033-9.437-0.199l0,0
	c-3.332-2.668-3.876-7.576-1.206-10.908l35.117-43.857c2.668-3.331,7.576-3.873,10.908-1.206l0,0
	c2.787,2.232,3.623,6.032,2.258,9.165C49.978,88.882,49.978,88.88,49.978,88.88z"/>
<path style="fill:#D9DADA;" d="M60.16,165.742l-4.117,5.144l-43.705-34.998l4.251-4.59l43.572,34.447L60.16,165.742z"/>
<path style="fill:#21D0C3;" d="M258.267,177.505c4.158-42.104-28.59-76.412-82.129-77.45
	C176.138,100.054,170.421,196.218,258.267,177.505z"/>
<path style="fill:#15BDB2;" d="M258.267,177.505c0.122-1.231,0.21-2.456,0.266-3.671c-8.479-3.127-43.169-17.544-59.525-49.347
	c0,0,8.352,40.395,49.558,54.658C251.671,178.755,254.891,178.224,258.267,177.505z"/>
<path style="fill:#21D0C3;" d="M265.577,193.966c-2.243-22.713,15.423-41.22,44.305-41.78
	C309.882,152.186,312.967,204.06,265.577,193.966z"/>
<path style="fill:#15BDB2;" d="M265.577,193.966c-0.064-0.664-0.113-1.325-0.144-1.982c4.573-1.687,23.286-9.464,32.109-26.619
	c0,0-4.504,21.791-26.734,29.486C269.134,194.639,267.399,194.354,265.577,193.966z"/>
<g>
</g>
<g>
</g>
<g>
</g>
<g>
</g>
<g>
</g>
<g>
</g>
<g>
</g>
<g>
</g>
<g>
</g>
<g>
</g>
<g>
</g>
<g>
</g>
<g>
</g>
<g>
</g>
<g>
</g>
</svg>
