<?xml version="1.0" encoding="iso-8859-1"?>
<!-- Generator: Adobe Illustrator 19.0.0, SVG Export Plug-In . SVG Version: 6.00 Build 0)  -->
<svg version="1.1" id="Layer_1" xmlns="http://www.w3.org/2000/svg" xmlns:xlink="http://www.w3.org/1999/xlink" x="0px" y="0px"
	 viewBox="0 0 511.998 511.998" style="enable-background:new 0 0 511.998 511.998;" xml:space="preserve">
<circle style="fill:#ECF0F1;" cx="255.999" cy="255.999" r="255.999"/>
<circle style="fill:#0F7986;" cx="255.999" cy="255.999" r="255.999"/>
<path style="fill:#21D0C3;" d="M211.358,98.749h89.283v324.493c0,24.553-20.086,44.64-44.64,44.64H256
	c-24.553,0-44.642-20.086-44.642-44.64V98.749z"/>
<path style="fill:#15BDB2;" d="M300.64,131.655v4.626h-89.283v-4.626H300.64z"/>
<path style="fill:#FF5B62;" d="M215.29,44.117h81.419c3.704,0,6.734,3.029,6.734,6.734v80.805h-94.885V50.85
	C208.556,47.146,211.586,44.117,215.29,44.117z"/>
<g>
	<path style="fill:#ED4C54;" d="M298.185,44.282c3.001,0.677,5.257,3.371,5.257,6.568v80.805h-5.257V44.282z"/>
	<path style="fill:#ED4C54;" d="M222.31,49.364L222.31,49.364c2.024,0,3.68,1.867,3.68,4.152v64.191c0,2.285-1.656,4.152-3.68,4.152
		l0,0c-2.024,0-3.68-1.867-3.68-4.152V53.516C218.63,51.232,220.286,49.364,222.31,49.364z M289.688,49.364L289.688,49.364
		c2.024,0,3.68,1.867,3.68,4.152v64.191c0,2.285-1.656,4.152-3.68,4.152l0,0c-2.024,0-3.68-1.867-3.68-4.152V53.516
		C286.008,51.232,287.664,49.364,289.688,49.364z M272.843,49.364L272.843,49.364c2.024,0,3.68,1.867,3.68,4.152v64.191
		c0,2.285-1.656,4.152-3.68,4.152l0,0c-2.024,0-3.68-1.867-3.68-4.152V53.516C269.163,51.232,270.819,49.364,272.843,49.364z
		 M255.998,49.364L255.998,49.364c2.024,0,3.68,1.867,3.68,4.152v64.191c0,2.285-1.656,4.152-3.68,4.152l0,0
		c-2.024,0-3.68-1.867-3.68-4.152V53.516C252.318,51.232,253.974,49.364,255.998,49.364z M239.153,49.364L239.153,49.364
		c2.024,0,3.68,1.867,3.68,4.152v64.191c0,2.285-1.656,4.152-3.68,4.152l0,0c-2.024,0-3.68-1.867-3.68-4.152V53.516
		C235.473,51.232,237.129,49.364,239.153,49.364z"/>
	<path style="fill:#ED4C54;" d="M220.871,178.354h70.258v244.182c0,19.321-15.806,35.127-35.127,35.127h-0.002
		c-19.321,0-35.127-15.806-35.127-35.127V178.354H220.871z"/>
</g>
<g>
	<path style="fill:#EEF3F7;" d="M226.394,136.281h6.286v290.556h-6.286V136.281z"/>
	<path style="fill:#EEF3F7;" d="M211.358,204.513h89.283v160.099h-89.283V204.513z"/>
</g>
<path style="fill:#FEFEFE;" d="M226.394,204.513h6.286v160.099h-6.286V204.513z"/>
<g>
	<path style="fill:#D9DADA;" d="M211.358,204.513h9.511v160.099h-9.511V204.513z"/>
	<path style="fill:#D9DADA;" d="M291.127,204.513h9.511v160.099h-9.511V204.513z"/>
</g>
<path style="fill:#FF5B62;" d="M255.16,237.4h9.739v13.061h13.061v9.739h-13.061v13.061h-9.739v-13.061h-13.061v-9.739h13.061V237.4
	z"/>
<g>
	<path style="fill:#D9DADA;" d="M242.233,282.491h48.894v4.939h-48.894L242.233,282.491L242.233,282.491z"/>
	<path style="fill:#D9DADA;" d="M242.233,297.824h48.894v4.939h-48.894L242.233,297.824L242.233,297.824z"/>
</g>
<g>
</g>
<g>
</g>
<g>
</g>
<g>
</g>
<g>
</g>
<g>
</g>
<g>
</g>
<g>
</g>
<g>
</g>
<g>
</g>
<g>
</g>
<g>
</g>
<g>
</g>
<g>
</g>
<g>
</g>
</svg>
