<?xml version="1.0" encoding="iso-8859-1"?>
<!-- Generator: Adobe Illustrator 19.0.0, SVG Export Plug-In . SVG Version: 6.00 Build 0)  -->
<svg version="1.1" id="Layer_1" xmlns="http://www.w3.org/2000/svg" xmlns:xlink="http://www.w3.org/1999/xlink" x="0px" y="0px"
	 viewBox="0 0 511.998 511.998" style="enable-background:new 0 0 511.998 511.998;" xml:space="preserve">
<circle style="fill:#FF5B62;" cx="255.999" cy="255.999" r="255.999"/>
<path style="fill:#ECF0F1;" d="M189.749,64.016h293.056v383.97H189.749V64.016z"/>
<g>
	<path style="fill:#C8C8C8;" d="M256.432,215.049h55.989v15.762h-33.267v12.795h28.455v14.841h-28.455v29.892h-22.724v-73.292v0.002
		H256.432z M353.888,215.049h37.669c8.204,0,14.347,1.947,18.441,5.852c4.077,3.907,6.123,9.467,6.123,16.686
		c0,7.404-2.236,13.202-6.687,17.368c-4.451,4.181-11.26,6.262-20.404,6.262h-12.42v27.126h-22.724v-73.292v-0.002H353.888z
		 M376.612,246.372h5.578c4.4,0,7.487-0.768,9.265-2.287c1.775-1.519,2.661-3.464,2.661-5.834c0-2.304-0.77-4.249-2.321-5.852
		c-1.535-1.603-4.436-2.405-8.7-2.405h-6.482L376.612,246.372L376.612,246.372z"/>
	<path style="fill:#C8C8C8;" d="M298.527,90.496h74.123v19.158h-46.326v14.274h42.946v18.28h-42.946v17.654h47.704v20.284h-75.5
		V90.498V90.496z"/>
	<path style="fill:#C8C8C8;" d="M229.498,316.761h51.035v13.423h-17.138v40.873h-16.759v-40.873h-17.138L229.498,316.761
		L229.498,316.761z M305.111,343.947c0-8.862,2.465-15.76,7.407-20.69c4.943-4.941,11.818-7.406,20.64-7.406
		c9.035,0,16.001,2.427,20.893,7.267c4.89,4.855,7.331,11.652,7.331,20.386c0,6.346-1.063,11.54-3.197,15.597
		c-2.137,4.057-5.232,7.217-9.265,9.478c-4.046,2.263-9.075,3.386-15.105,3.386c-6.116,0-11.185-0.974-15.204-2.919
		c-4.006-1.96-7.267-5.042-9.757-9.265c-2.489-4.209-3.742-9.491-3.742-15.837L305.111,343.947L305.111,343.947z M321.87,343.985
		c0,5.472,1.023,9.417,3.058,11.805c2.048,2.39,4.829,3.59,8.341,3.59c3.603,0,6.409-1.178,8.381-3.514
		c1.984-2.352,2.97-6.546,2.97-12.627c0-5.106-1.036-8.835-3.096-11.185c-2.073-2.363-4.866-3.539-8.405-3.539
		c-3.386,0-6.118,1.2-8.165,3.589c-2.062,2.388-3.085,6.357-3.085,11.88L321.87,343.985L321.87,343.985z M428.349,348.837
		l14.711,4.436c-0.985,4.119-2.54,7.569-4.677,10.326c-2.123,2.767-4.752,4.852-7.911,6.255c-3.146,1.404-7.155,2.112-12.02,2.112
		c-5.915,0-10.731-0.86-14.484-2.566c-3.74-1.718-6.965-4.741-9.681-9.048c-2.717-4.311-4.081-9.847-4.081-16.57
		c0-8.973,2.388-15.875,7.166-20.703c4.792-4.816,11.551-7.23,20.298-7.23c6.838,0,12.221,1.378,16.141,4.145
		c3.904,2.767,6.824,7.016,8.72,12.753l-14.788,3.275c-0.518-1.643-1.063-2.844-1.63-3.603c-0.948-1.276-2.099-2.263-3.45-2.943
		c-1.364-0.695-2.881-1.036-4.564-1.036c-3.817,0-6.736,1.53-8.76,4.575c-1.528,2.263-2.299,5.828-2.299,10.667
		c0,6.017,0.91,10.124,2.743,12.363c1.832,2.225,4.398,3.338,7.708,3.338c3.211,0,5.638-0.897,7.281-2.706
		c1.643-1.794,2.831-4.412,3.578-7.836v-0.004H428.349z"/>
	<path style="fill:#C8C8C8;" d="M270.159,420.107c1.382,0.963,2.289,1.574,2.717,1.819c0.626,0.359,1.49,0.778,2.564,1.255
		l-3.076,6.227c-1.548-0.755-3.091-1.643-4.606-2.681c-1.526-1.038-2.591-1.816-3.193-2.337c-2.456,1.065-5.53,1.601-9.234,1.601
		c-5.472,0-9.785-1.424-12.947-4.276c-3.738-3.366-5.605-8.1-5.605-14.201c0-5.924,1.636-10.523,4.901-13.809
		c3.268-3.277,7.828-4.919,13.692-4.919c5.975,0,10.581,1.601,13.833,4.811c3.25,3.2,4.877,7.792,4.877,13.758
		c0,5.312-1.305,9.56-3.922,12.753L270.159,420.107L270.159,420.107z M261.638,414.401c0.888-1.585,1.334-3.955,1.334-7.113
		c0-3.629-0.679-6.218-2.028-7.777c-1.358-1.55-3.217-2.328-5.596-2.328c-2.221,0-4.015,0.796-5.388,2.379
		c-1.382,1.585-2.07,4.063-2.07,7.432c0,3.929,0.673,6.685,2.013,8.271c1.349,1.583,3.193,2.379,5.53,2.379
		c0.755,0,1.468-0.075,2.137-0.219c-0.939-0.906-2.412-1.751-4.434-2.555l1.744-3.995c0.99,0.175,1.76,0.401,2.304,0.662
		c0.554,0.26,1.625,0.946,3.228,2.062c0.377,0.26,0.787,0.529,1.231,0.804L261.638,414.401z M290.828,389.389h10.559l3.795,20.084
		l5.563-20.084h10.475l5.607,20.12l3.821-20.12h10.508l-7.935,35.997h-10.91l-6.319-22.666l-6.275,22.666h-10.893l-7.994-35.997
		H290.828z M359.207,389.389h29.763v7.691h-18.603v5.733h17.244v7.34h-17.244v7.088h19.155v8.145h-30.315L359.207,389.389
		L359.207,389.389z M410.096,425.385v-35.997h18.534c3.435,0,6.065,0.293,7.876,0.888c1.819,0.587,3.286,1.683,4.4,3.277
		c1.114,1.601,1.667,3.552,1.667,5.85c0,1.995-0.428,3.72-1.284,5.17c-0.846,1.457-2.02,2.631-3.519,3.534
		c-0.946,0.571-2.254,1.047-3.904,1.424c1.325,0.445,2.289,0.879,2.89,1.323c0.401,0.293,0.997,0.93,1.778,1.894
		c0.77,0.963,1.288,1.709,1.55,2.238l5.404,10.398h-12.567l-5.939-10.976c-0.755-1.424-1.424-2.346-2.013-2.772
		c-0.804-0.554-1.718-0.829-2.732-0.829h-0.979v14.578L410.096,425.385L410.096,425.385L410.096,425.385z M421.258,404.018h4.701
		c0.503,0,1.493-0.168,2.95-0.494c0.737-0.144,1.338-0.52,1.801-1.131c0.47-0.611,0.704-1.307,0.704-2.097
		c0-1.164-0.368-2.062-1.105-2.681c-0.739-0.626-2.121-0.939-4.156-0.939h-4.892v7.342L421.258,404.018L421.258,404.018z"/>
</g>
<g>
	<path style="fill:#076673;" d="M387.874,174.105c6.375-0.629,7.881-7.002,7.051-11.827c-0.831-4.825-6.42-5.81-12.797-5.179
		c-0.635,0.062-236.059,44.31-255.511,65.761c-16.607,18.311-42.521,63.947-42.609,64.056c-3.349,4.158-1.614,9.586,3.878,12.12
		c5.492,2.536,12.669,1.222,16.019-2.937c0.084-0.106,16.651-47.823,33.039-65.894c13.542-14.934,250.325-56.045,250.929-56.104
		L387.874,174.105L387.874,174.105z"/>
	<path style="fill:#076673;" d="M7.261,173.755c-6.375-0.629-7.881-7.002-7.051-11.827c0.831-4.825,6.42-5.81,12.797-5.179
		c0.635,0.062,236.059,44.31,255.511,65.761c16.607,18.311,42.521,63.947,42.609,64.056c3.349,4.158,1.614,9.586-3.878,12.12
		c-5.492,2.536-12.669,1.222-16.019-2.937c-0.084-0.106-16.651-47.823-33.039-65.894C244.647,214.921,7.865,173.81,7.261,173.751
		V173.755z"/>
</g>
<path style="fill:#ECF0F1;" d="M370.17,230.667l7.199-57.835c0.591-4.741-132.678-12.669-145.934,4.013l8.455,52.645
	c1.182,7.367,5.788,13.009,11.71,17.048c8.151,5.563,18.644,8.127,26.67,8.127h68.615c6.017,0,11.134-2.405,15.013-6.284
	c4.429-4.429,7.338-10.753,8.271-17.713L370.17,230.667L370.17,230.667z"/>
<path style="fill:#0F7986;" d="M18.185,172.831l7.199,57.835c0.932,6.96,3.84,13.284,8.271,17.713
	c3.878,3.878,8.995,6.284,15.013,6.284h68.615c8.025,0,18.519-2.564,26.67-8.127c5.922-4.039,10.528-9.681,11.71-17.048
	l8.455-52.645c-13.255-16.682-146.525-8.753-145.934-4.013L18.185,172.831L18.185,172.831z M377.37,172.831l-7.199,57.835
	c-0.932,6.96-3.84,13.284-8.271,17.713c-3.878,3.878-8.995,6.284-15.013,6.284h-68.615c-8.025,0-18.519-2.564-26.67-8.127
	c-5.922-4.039-10.528-9.681-11.71-17.048l-8.455-52.645c13.255-16.682,146.525-8.753,145.934-4.013L377.37,172.831L377.37,172.831z
	 M389.695,173.594c7.27-1.711,6.26-13.099,2.75-14.799c-19.663-9.518-132.361-13.112-174.588-0.52H177.7
	c-42.225-12.592-154.926-8.998-174.588,0.52c-3.51,1.7-4.52,13.085,2.75,14.799l7.876,58.638
	c1.275,9.507,5.347,18.243,11.586,24.483c6.012,6.012,13.966,9.737,23.347,9.737h68.615c9.981,0,23.072-3.219,33.302-10.2
	c8.368-5.708,14.914-13.908,16.681-24.921l7.609-47.373l0.002-0.002c4.619-5.744,41.182-5.744,45.801,0l0.002,0.002l7.609,47.373
	c1.769,11.013,8.315,19.213,16.682,24.921c10.228,6.98,23.32,10.2,33.302,10.2h68.615c9.382,0,17.334-3.724,23.347-9.737
	c6.24-6.24,10.31-14.976,11.586-24.483l7.876-58.638L389.695,173.594L389.695,173.594z"/>
<path style="fill:#FF878E;" d="M155.662,229.489l8.455-52.645c-13.255-16.682-146.525-8.753-145.934-4.013l7.199,57.835
	c0.932,6.96,3.84,13.284,8.271,17.713c3.878,3.878,8.995,6.284,15.013,6.284h68.615c8.025,0,18.519-2.564,26.67-8.127
	c5.922-4.039,10.528-9.681,11.71-17.048L155.662,229.489L155.662,229.489z"/>
<g>
	<path style="fill:#A2A2A2;" d="M361.29,169.566c-18.774-1.975-50.789-3.466-78.459-2.544v18.115h78.459V169.566z"/>
	<path style="fill:#A2A2A2;" d="M370.17,230.667l0.813-6.542c-0.412,0.776-0.981,1.477-1.711,2.101
		c-1.667,1.429-4.573,2.15-8.714,2.15h-5.248V212.97h6.099c4.01,0,6.738,0.755,8.184,2.263c1.063,1.098,1.733,2.365,2.02,3.81
		l2.474-19.874c-1.484-0.17-3.056-0.255-4.721-0.255h-35.432v55.75h12.947c3.056,0,5.88-0.622,8.43-1.74v-10.585h11.086
		c1.914-3.468,3.206-7.452,3.771-11.67h0.001V230.667z M242.266,236.531c2.157,4.041,5.463,7.367,9.336,10.005
		c3.684,2.513,7.845,4.414,12.04,5.744v-12.543h26.767v-13.961h-26.767v-12.034h31.294v-14.828h-52.667v37.616L242.266,236.531
		L242.266,236.531z"/>
</g>
<path style="fill:#E8E5E6;" d="M33.721,169.621c-15.042,2.659-7.975,73.181,3.988,81.974c-7.181-4.42-11.229-12.775-12.323-20.928
	l-7.199-57.835c-0.126-1.012,5.739-2.243,15.536-3.211L33.721,169.621L33.721,169.621z"/>
<g>
	<path style="fill:#FEFEFE;" d="M361.835,169.621c15.042,2.659,7.975,73.181-3.988,81.974c7.181-4.42,11.229-12.775,12.323-20.928
		l7.199-57.835c0.126-1.012-5.739-2.243-15.536-3.211L361.835,169.621L361.835,169.621z"/>
	<path style="fill:#FEFEFE;" d="M245.672,170.983c-16.47,6.266,0.31,72.14,12.272,79.11c-9.522-3.636-16.539-12.113-17.632-18.576
		l-8.877-54.674C231.31,176.041,238.223,171.689,245.672,170.983z"/>
</g>
<path style="fill:#E8E5E6;" d="M149.883,170.983c16.47,6.266-0.31,72.14-12.272,79.11c9.522-3.636,16.539-12.113,17.633-18.576
	l8.877-54.674C164.246,176.041,157.333,171.689,149.883,170.983z"/>
<g>
</g>
<g>
</g>
<g>
</g>
<g>
</g>
<g>
</g>
<g>
</g>
<g>
</g>
<g>
</g>
<g>
</g>
<g>
</g>
<g>
</g>
<g>
</g>
<g>
</g>
<g>
</g>
<g>
</g>
</svg>
