<?xml version="1.0" encoding="iso-8859-1"?>
<!-- Generator: Adobe Illustrator 19.0.0, SVG Export Plug-In . SVG Version: 6.00 Build 0)  -->
<svg version="1.1" id="Layer_1" xmlns="http://www.w3.org/2000/svg" xmlns:xlink="http://www.w3.org/1999/xlink" x="0px" y="0px"
	 viewBox="0 0 512 512" style="enable-background:new 0 0 512 512;" xml:space="preserve">
<circle style="fill:#21D0C3;" cx="256" cy="256" r="256"/>
<path style="fill:#FAD24D;" d="M45.283,143.68h421.431c12.092,0,21.985,9.894,21.985,21.985v262.633H23.293V165.666
	c0-12.092,9.894-21.985,21.985-21.985h0.005V143.68z"/>
<path style="fill:#EDB937;" d="M177.01,104.901h264.952c12.092,0,21.985,9.894,21.985,21.985v16.794H48.049v-16.794V90.514
	c0-3.751,3.067-6.818,6.818-6.818h115.321c3.751,0,6.818,3.067,6.818,6.818v14.388L177.01,104.901L177.01,104.901z"/>
<path style="fill:#FEFEFE;" d="M77.808,124.896H459.54c8.064,0,14.66,6.595,14.66,14.66v5.45c-2.337-0.854-4.859-1.321-7.487-1.321
	H63.148v-4.129C63.148,131.492,69.744,124.896,77.808,124.896z"/>
<path style="fill:#EDB937;" d="M488.703,418.554v9.746H23.297v-9.746H488.703z"/>
<circle style="fill:#FF5B62;" cx="256" cy="298.667" r="65.795"/>
<path style="fill:#FEFEFE;" d="M246.887,265.113h18.225v24.442h24.442v18.221h-24.442v24.442h-18.225v-24.442h-24.442v-18.221
	h24.442V265.113z"/>
<g>
</g>
<g>
</g>
<g>
</g>
<g>
</g>
<g>
</g>
<g>
</g>
<g>
</g>
<g>
</g>
<g>
</g>
<g>
</g>
<g>
</g>
<g>
</g>
<g>
</g>
<g>
</g>
<g>
</g>
</svg>
