<?xml version="1.0" encoding="iso-8859-1"?>
<!-- Generator: Adobe Illustrator 19.0.0, SVG Export Plug-In . SVG Version: 6.00 Build 0)  -->
<svg version="1.1" id="Layer_1" xmlns="http://www.w3.org/2000/svg" xmlns:xlink="http://www.w3.org/1999/xlink" x="0px" y="0px"
	 viewBox="0 0 512 512" style="enable-background:new 0 0 512 512;" xml:space="preserve">
<circle style="fill:#0F7986;" cx="256" cy="256" r="256"/>
<path style="fill:#FED198;" d="M360.075,22.055c-1.515,14.613-2.222,32.123,1.533,41.056c7.145,16.993,32.086,39.518,30.424,68.247
	c-1.658,28.729-9.154,31.657-9.672,40.179c-0.517,8.521,23.695,92.274,3.93,145.118c-19.763,52.848-34.345,101.821-34.345,101.821
	s-8.734,35.805-6.882,46.123c1.756,9.773,6.36,19.551,6.836,28.812c-20.23,8.18-41.735,13.852-64.146,16.628
	c-1.367-15.186-3.071-29.394-5.048-36.858c-5.556-20.937-19.584-133.907-23.371-176.904c-3.783-43.001-2.374-26.003-3.344-35.472
	c-0.97,9.469,0.439-7.528-3.348,35.472c-3.783,43.001-17.422,158.304-22.978,179.241c-1.907,7.196-3.603,20.369-5.007,34.566
	c-22.567-2.753-44.22-8.448-64.58-16.678c0.48-9.261,5.085-19.034,6.836-28.808c1.852-10.318-6.878-46.123-6.878-46.123
	s-14.587-48.972-34.345-101.821c-19.759-52.844,4.448-136.591,3.935-145.118c-0.517-8.521-8.009-11.455-9.672-40.179
	c-1.658-28.729,23.284-51.255,30.424-68.247c3.755-8.929,3.044-26.442,1.533-41.056C183.711,7.885,218.929,0,255.991,0
	s72.275,7.889,104.075,22.055H360.075z"/>
<path style="fill:#FEFEFE;" d="M248.078,266.036c-18.979-64.524-68.857-73.952-118.873-90.805
	c-2.882-6.337-7.136-13.81-3.344-14.683c161.274,53.051,96.777,53.051,258.051,0c3.792,0.873-0.466,8.346-3.344,14.683
	c-50.021,16.849-97.294,26.281-116.273,90.805C259.136,267.528,253.755,267.662,248.078,266.036z"/>
<ellipse style="fill:#F0B97D;" cx="253.335" cy="181.416" rx="10.406" ry="4.772"/>
<g>
</g>
<g>
</g>
<g>
</g>
<g>
</g>
<g>
</g>
<g>
</g>
<g>
</g>
<g>
</g>
<g>
</g>
<g>
</g>
<g>
</g>
<g>
</g>
<g>
</g>
<g>
</g>
<g>
</g>
</svg>
