<?xml version="1.0" encoding="iso-8859-1"?>
<!-- Generator: Adobe Illustrator 19.0.0, SVG Export Plug-In . SVG Version: 6.00 Build 0)  -->
<svg version="1.1" id="Layer_1" xmlns="http://www.w3.org/2000/svg" xmlns:xlink="http://www.w3.org/1999/xlink" x="0px" y="0px"
	 viewBox="0 0 511.997 511.997" style="enable-background:new 0 0 511.997 511.997;" xml:space="preserve">
<circle style="fill:#FAD24D;" cx="255.999" cy="255.999" r="255.999"/>
<path style="fill:#FEFEFE;" d="M197.974,278.23c9.808,3.772,16.816,13.304,16.816,24.396v83.766h-52.24v-83.766
	c0-11.092,7.008-20.625,16.813-24.396l3.333-53.297c-38.162-3.04-68.185-34.969-68.185-73.913c0-40.953,33.205-74.155,74.155-74.155
	c40.953,0,74.158,33.202,74.158,74.155c0,38.947-30.023,70.876-68.182,73.913L197.974,278.23z"/>
<path style="fill:#21D0C3;" d="M214.787,508.678V386.389h-52.24v108.01C179.18,500.923,196.668,505.746,214.787,508.678z"/>
<g>
	<path style="fill:#EEF3F7;" d="M188.67,88.846c34.341,0,62.175,27.832,62.175,62.173s-27.835,62.173-62.175,62.173
		c-34.338,0-62.173-27.832-62.173-62.173S154.33,88.846,188.67,88.846z"/>
	<path style="fill:#EEF3F7;" d="M188.67,91.47c32.89,0,59.552,26.66,59.552,59.55c0,32.888-26.66,59.552-59.552,59.552
		c-32.89,0-59.552-26.663-59.552-59.552S155.778,91.47,188.67,91.47z"/>
</g>
<g>
	<path style="fill:#FEFEFE;" d="M195.414,92.036c8.978,1.055,17.346,4.116,24.638,8.722l-75.556,89.846
		c-5.839-6.452-10.272-14.203-12.827-22.762l63.744-75.807v0.002H195.414z M226.902,105.815c3.339,2.848,6.359,6.067,8.991,9.584
		l-74.266,88.314c-3.937-2.004-7.617-4.427-10.985-7.219l76.256-90.682L226.902,105.815z"/>
	<path style="fill:#FEFEFE;" d="M367.871,278.23c9.808,3.772,16.816,13.304,16.816,24.396v83.766h-52.24v-83.766
		c0-11.092,7.011-20.625,16.816-24.396l3.213-99.252c0.068-2.122,1.223-3.905,3.122-4.852c46.493-23.175,32.119-64.778,0.338-73.557
		c-1.613-0.443-0.585-2.678,1.083-2.581c35.984,2.075,65.166,55.212,9.002,87.364c-0.931,0.535-1.453,1.482-1.416,2.555l3.261,90.32
		L367.871,278.23z"/>
</g>
<path style="fill:#21D0C3;" d="M384.687,477.334v-90.942h-52.237v113.993c18.39-5.75,35.888-13.522,52.237-23.048V477.334z"/>
<g>
	<path style="fill:#15BDB2;" d="M162.548,386.392h52.24v3.549h-52.24V386.392z"/>
	<path style="fill:#15BDB2;" d="M332.447,386.392h52.24v3.549h-52.24V386.392z"/>
</g>
<g>
</g>
<g>
</g>
<g>
</g>
<g>
</g>
<g>
</g>
<g>
</g>
<g>
</g>
<g>
</g>
<g>
</g>
<g>
</g>
<g>
</g>
<g>
</g>
<g>
</g>
<g>
</g>
<g>
</g>
</svg>
