<?xml version="1.0" encoding="iso-8859-1"?>
<!-- Generator: Adobe Illustrator 19.0.0, SVG Export Plug-In . SVG Version: 6.00 Build 0)  -->
<svg version="1.1" id="Layer_1" xmlns="http://www.w3.org/2000/svg" xmlns:xlink="http://www.w3.org/1999/xlink" x="0px" y="0px"
	 viewBox="0 0 511.998 511.998" style="enable-background:new 0 0 511.998 511.998;" xml:space="preserve">
<circle style="fill:#FF5B62;" cx="255.999" cy="255.999" r="255.999"/>
<path style="fill:#EBECEC;" d="M48.747,268.038c115.807-185.897,288.306-185.897,404.113,0
	C337.052,453.938,164.554,453.938,48.747,268.038z"/>
<path style="fill:#FFFFFF;" d="M48.747,268.038c115.807-170.445,288.306-170.445,404.113,0
	C337.052,438.486,164.554,438.486,48.747,268.038z"/>
<circle style="fill:#EBECEC;" cx="250.799" cy="268.035" r="84.465"/>
<circle style="fill:#21D0C3;" cx="250.799" cy="268.035" r="76.939"/>
<circle style="fill:#666666;" cx="250.799" cy="268.035" r="37.237"/>
<g>
	<circle style="fill:#FFFFFF;" cx="200.019" cy="225.898" r="17.665"/>
	<circle style="fill:#FFFFFF;" cx="281.599" cy="298.875" r="12.026"/>
</g>
<path style="fill:#21D0C3;" d="M346.653,217.72c-0.802-34.369,36.473-61.808,42.82-102.362
	c6.346,40.556,43.621,67.993,42.818,102.362C432.291,274.043,346.653,274.043,346.653,217.72z"/>
<path style="fill:#15BDB2;" d="M389.471,115.357c6.346,40.556,43.621,67.993,42.818,102.362c0,43.385-50.804,53.342-74.149,29.891
	c19.365,15.191,54.359,9.311,65.305-13.955C440.493,197.422,389.391,157.911,389.471,115.357z"/>
<path style="fill:#FFFFFF;" d="M373.928,165.143c0,0-28.756,36.491-18.77,57.853C363.509,240.862,362.402,189.365,373.928,165.143z"
	/>
<g>
</g>
<g>
</g>
<g>
</g>
<g>
</g>
<g>
</g>
<g>
</g>
<g>
</g>
<g>
</g>
<g>
</g>
<g>
</g>
<g>
</g>
<g>
</g>
<g>
</g>
<g>
</g>
<g>
</g>
</svg>
