<?xml version="1.0" encoding="iso-8859-1"?>
<!-- Generator: Adobe Illustrator 19.0.0, SVG Export Plug-In . SVG Version: 6.00 Build 0)  -->
<svg version="1.1" id="Layer_1" xmlns="http://www.w3.org/2000/svg" xmlns:xlink="http://www.w3.org/1999/xlink" x="0px" y="0px"
	 viewBox="0 0 511.997 511.997" style="enable-background:new 0 0 511.997 511.997;" xml:space="preserve">
<circle style="fill:#FAD24D;" cx="255.999" cy="255.999" r="255.999"/>
<ellipse style="fill:#EDB937;" cx="255.999" cy="443.88" rx="120.524" ry="9.834"/>
<path style="fill:#21D0C3;" d="M204.733,186.771h107.023c9.81,0,17.763,7.952,17.763,17.763v221.463
	c0,9.81-7.952,17.763-17.763,17.763H204.733c-9.81,0-17.763-7.952-17.763-17.763V204.534
	C186.971,194.724,194.923,186.771,204.733,186.771z"/>
<g>
	<path style="fill:#15BDB2;" d="M324.549,192.242V438.29c3.074-3.198,4.973-7.533,4.973-12.291V204.534
		C329.522,199.776,327.623,195.44,324.549,192.242z"/>
	<path style="fill:#15BDB2;" d="M301.394,182.262v4.868H215.1v-4.868H301.394z"/>
</g>
<path style="fill:#FFFFFF;" d="M213.392,141.327h89.706c3.09,0,5.595,2.505,5.595,5.595v29.742c0,3.09-2.505,5.595-5.595,5.595
	h-89.706c-3.09,0-5.595-2.505-5.595-5.595v-29.742C207.797,143.832,210.302,141.327,213.392,141.327z"/>
<rect x="229.9" y="127.75" style="fill:#828282;" width="56.67" height="13.579"/>
<path style="fill:#666666;" d="M241.332,127.748h33.813V75.194c0-9.299-7.607-16.908-16.908-16.908l0,0
	c-9.299,0-16.908,7.609-16.908,16.908v52.554H241.332z"/>
<path style="fill:#DCE3DB;" d="M296.352,147.444h5.726v28.699h-5.726V147.444z M282.694,147.444h5.729v28.699h-5.729V147.444z
	 M269.036,147.444h5.729v28.699h-5.729V147.444z M255.381,147.444h5.729v28.699h-5.729V147.444z M241.725,147.444h5.729v28.699
	h-5.729V147.444z M228.07,147.444h5.724v28.699h-5.724V147.444z M214.412,147.444h5.726v28.699h-5.726V147.444z"/>
<rect x="233.453" y="260.639" style="fill:#FFFFFF;" width="96.062" height="99.455"/>
<rect x="287.766" y="275.82" style="fill:#21D0C3;" width="36.785" height="12.761"/>
<rect x="324.554" y="260.639" style="fill:#DCE3DB;" width="4.973" height="99.455"/>
<g>
	<path style="fill:#15BDB2;" d="M190.275,436.284h135.94c-3.229,4.517-8.514,7.475-14.458,7.475H204.733
		C198.79,443.76,193.507,440.8,190.275,436.284z"/>
	<rect x="233.453" y="360.095" style="fill:#15BDB2;" width="91.092" height="2.248"/>
</g>
<path style="fill:#828282;" d="M260.322,61.208c-10.773,1.041-13.519,9.104-13.438,16.546v48.268h-3.066V77.754
	C243.753,68.303,247.824,59.82,260.322,61.208z"/>
<path style="fill:#DCE3DB;" d="M329.52,305.197h-74.231v3.333h74.231V305.197z M329.52,339.49h-51.977v3.333h51.977V339.49z
	 M329.52,328.059h-74.231v3.333h74.231V328.059z M329.52,316.628h-74.231v3.331h74.231V316.628z"/>
<path style="fill:#FF5B62;" d="M263.239,266.93h7.425v9.957h9.956v7.425h-9.956v9.957h-7.425v-9.957h-9.956v-7.425h9.956V266.93z"/>
<g>
</g>
<g>
</g>
<g>
</g>
<g>
</g>
<g>
</g>
<g>
</g>
<g>
</g>
<g>
</g>
<g>
</g>
<g>
</g>
<g>
</g>
<g>
</g>
<g>
</g>
<g>
</g>
<g>
</g>
</svg>
