<?xml version="1.0" encoding="iso-8859-1"?>
<!-- Generator: Adobe Illustrator 19.0.0, SVG Export Plug-In . SVG Version: 6.00 Build 0)  -->
<svg version="1.1" id="Layer_1" xmlns="http://www.w3.org/2000/svg" xmlns:xlink="http://www.w3.org/1999/xlink" x="0px" y="0px"
	 viewBox="0 0 512.002 512.002" style="enable-background:new 0 0 512.002 512.002;" xml:space="preserve">
<circle style="fill:#FAD24D;" cx="256.001" cy="256.001" r="256.001"/>
<path style="fill:#EBECEC;" d="M424.793,217.208h-24.418V437.76h12.21c6.716,0,12.208-5.492,12.208-12.208V217.208z"/>
<path style="fill:#FFFFFF;" d="M111.623,74.237h288.751v340.859c0,0,0.937,17.881,12.21,22.664h-12.21h-4.117H111.623V74.237z"/>
<rect x="131.643" y="92.939" style="fill:#21D0C3;" width="246.609" height="68.437"/>
<path style="fill:#ECF0F1;" d="M131.645,345.764h97.404v3.049h-97.404L131.645,345.764L131.645,345.764z M131.645,295.106h144.619
	v3.049H131.645V295.106z M131.645,303.547h144.619v3.049H131.645V303.547z M131.645,311.99h144.619v3.049H131.645V311.99z
	 M131.645,320.432h144.619v3.049H131.645V320.432z M131.645,328.875h144.619v3.051H131.645V328.875z M131.645,337.318h144.619v3.049
	H131.645V337.318z"/>
<path style="fill:#FFFFFF;" d="M148.186,111.427v32.894h-7.961V98.905h11.097l9.088,27.184V98.905h7.881v45.415h-9.088
	l-11.018-32.894C148.185,111.427,148.186,111.427,148.186,111.427z M139.288,150.462h137.815v3.971H139.288V150.462z
	 M248.391,109.804c0-3.678,1.085-6.5,3.257-8.466c2.172-1.969,5.428-2.952,9.77-2.952c4.344,0,7.6,0.983,9.77,2.952
	c2.172,1.967,3.257,4.789,3.257,8.466v1.426h-8.363v-1.88c0-1.643-0.388-2.801-1.167-3.47c-0.778-0.671-1.863-1.005-3.257-1.005
	s-2.48,0.335-3.257,1.005c-0.778,0.671-1.167,1.827-1.167,3.47c0,1.557,0.43,2.93,1.288,4.119s1.931,2.312,3.219,3.375
	c1.285,1.058,2.666,2.119,4.141,3.18c1.475,1.058,2.855,2.216,4.143,3.47c1.288,1.255,2.359,2.681,3.217,4.282
	c0.857,1.601,1.288,3.481,1.288,5.644c0,3.676-1.111,6.497-3.339,8.466c-2.225,1.967-5.507,2.952-9.852,2.952
	c-4.344,0-7.629-0.983-9.852-2.952c-2.225-1.969-3.339-4.792-3.339-8.466v-2.79h8.366v3.244c0,1.643,0.417,2.79,1.248,3.437
	c0.829,0.651,1.942,0.974,3.338,0.974c1.393,0,2.505-0.324,3.336-0.974c0.831-0.648,1.248-1.795,1.248-3.437
	c0-1.557-0.43-2.932-1.288-4.121s-1.931-2.312-3.219-3.373c-1.288-1.061-2.666-2.121-4.141-3.18
	c-1.473-1.061-2.855-2.218-4.143-3.472c-1.285-1.255-2.359-2.681-3.215-4.282c-0.857-1.599-1.287-3.481-1.287-5.644V109.804z
	 M223.862,120.119l-3.217,24.201h-12.142l-6.273-45.415h8.605l4.745,35.813l4.262-35.813h8.526l4.423,36.074l4.584-36.074h7.719
	l-6.273,45.415h-11.743L223.862,120.119z M183.49,118.042h12.142v6.489H183.49v13.302h15.279v6.489h-24.128V98.905h24.128v6.489
	H183.49v12.651V118.042z"/>
<g>
	<path style="fill:#ECF0F1;" d="M131.645,280.743h166.953v3.049H131.645V280.743z M131.645,230.084h247.88v3.049h-247.88V230.084z
		 M131.645,238.526h247.88v3.049h-247.88V238.526z M131.645,246.969h247.88v3.049h-247.88V246.969z M131.645,255.411h247.88v3.049
		h-247.88V255.411z M131.645,263.854h247.88v3.051h-247.88V263.854z M131.645,272.296h247.88v3.049h-247.88V272.296z"/>
	<path style="fill:#ECF0F1;" d="M196.36,415.568h88.834v3.049H196.36V415.568z M196.36,364.909h131.897v3.049H196.36V364.909z
		 M196.36,373.351h131.897v3.049H196.36V373.351z M196.36,381.794h131.897v3.049H196.36V381.794z M196.36,390.236h131.897v3.049
		H196.36V390.236z M196.36,398.679h131.897v3.051H196.36V398.679z M196.36,407.121h131.897v3.049H196.36V407.121z"/>
</g>
<g>
	<rect x="131.643" y="170.687" style="fill:#EBECEC;" width="247.877" height="45.554"/>
	<rect x="291.033" y="294.276" style="fill:#EBECEC;" width="88.498" height="46.783"/>
	<rect x="133.929" y="362.493" style="fill:#EBECEC;" width="56.141" height="59.648"/>
	<rect x="340.736" y="360.437" style="fill:#EBECEC;" width="38.79" height="23.005"/>
	<rect x="340.736" y="390.948" style="fill:#EBECEC;" width="38.79" height="23.005"/>
</g>
<circle style="fill:#FF5B62;" cx="400.37" cy="74.235" r="51.708"/>
<path style="fill:#FEFEFE;" d="M393.213,47.868h14.323v19.209h19.209v14.323h-19.209v19.209h-14.323V81.399h-19.209V67.076h19.209
	L393.213,47.868L393.213,47.868z"/>
<g>
</g>
<g>
</g>
<g>
</g>
<g>
</g>
<g>
</g>
<g>
</g>
<g>
</g>
<g>
</g>
<g>
</g>
<g>
</g>
<g>
</g>
<g>
</g>
<g>
</g>
<g>
</g>
<g>
</g>
</svg>
