<?xml version="1.0" encoding="iso-8859-1"?>
<!-- Generator: Adobe Illustrator 19.0.0, SVG Export Plug-In . SVG Version: 6.00 Build 0)  -->
<svg version="1.1" id="Layer_1" xmlns="http://www.w3.org/2000/svg" xmlns:xlink="http://www.w3.org/1999/xlink" x="0px" y="0px"
	 viewBox="0 0 511.997 511.997" style="enable-background:new 0 0 511.997 511.997;" xml:space="preserve">
<circle style="fill:#21D0C3;" cx="255.999" cy="255.999" r="255.999"/>
<g>
	<path style="fill:#EDB937;" d="M446.957,231.645H57.606L252.28,116.736L446.957,231.645z"/>
	<path style="fill:#EDB937;" d="M57.606,231.645h389.35V461.47H57.606V231.645z"/>
</g>
<path style="fill:#FFFFFF;" d="M97.607,64.447h244.828l64.518,64.518v332.505H97.607V64.447z"/>
<path style="fill:#DCE3DB;" d="M144.254,150.28h216.052v4.87H144.254V150.28z M144.254,202.764L144.254,202.764h216.052v4.876
	H144.254V202.764z M144.254,211.802L144.254,211.802h216.052v4.873H144.254V211.802z M144.254,220.841L144.254,220.841h216.052v4.87
	H144.254V220.841z M144.254,229.878L144.254,229.878h216.062v4.873H144.254V229.878z M144.254,159.316L144.254,159.316h216.052
	v4.873H144.254V159.316z M144.254,168.355L144.254,168.355h216.052v4.873H144.254V168.355z M144.254,177.391L144.254,177.391
	h216.062v4.873H144.254V177.391z M144.252,186.43L144.252,186.43h165.493v4.873H144.252V186.43z M144.252,238.916L144.252,238.916
	h165.493v4.873H144.252V238.916z"/>
<path style="fill:#FAD24D;" d="M342.438,64.447v64.518h64.516L342.438,64.447z"/>
<path style="fill:#B3B3B3;" d="M214.436,413.603h73.307v7.161h-73.307L214.436,413.603L214.436,413.603z"/>
<g>
	<path style="fill:#FAD24D;" d="M57.606,231.645L252.28,346.556L57.606,461.47V231.645z"/>
	<path style="fill:#FAD24D;" d="M446.957,231.645L252.281,346.556L446.957,461.47V231.645z"/>
</g>
<path style="fill:#EDB937;" d="M252.281,346.556L57.606,461.47h389.35L252.281,346.556z"/>
<path style="fill:#F7FAFA;" d="M406.954,193.481v-64.516h-64.516L406.954,193.481z"/>
<path style="fill:#FAD24D;" d="M97.613,83.393c21.986,0,39.812,17.826,39.812,39.815s-17.826,39.815-39.812,39.815
	c-21.989,0-39.815-17.826-39.815-39.815S75.624,83.393,97.613,83.393z"/>
<path style="fill:#FFFFFF;" d="M100.632,133.702c-1.244,1.437-2.631,2.592-4.179,3.465c-1.537,0.871-3.082,1.301-4.627,1.301
	c-1.703,0-3.354-0.498-4.97-1.487c-1.605-0.999-2.906-2.526-3.913-4.59c-1.007-2.062-1.506-4.334-1.506-6.799
	c0-3.04,0.781-6.085,2.339-9.138c1.555-3.04,3.491-5.333,5.8-6.867c2.308-1.527,4.559-2.29,6.731-2.29
	c1.663,0,3.25,0.43,4.764,1.301c1.508,0.871,2.81,2.201,3.895,3.971l1.007-4.451h5.107l-4.129,19.253
	c-0.58,2.681-0.863,4.158-0.863,4.44c0,0.519,0.197,0.968,0.588,1.34c0.393,0.372,0.871,0.559,1.419,0.559
	c1.018,0,2.35-0.577,3.992-1.742c2.183-1.527,3.913-3.57,5.186-6.143c1.27-2.563,1.907-5.204,1.907-7.934
	c0-3.19-0.821-6.164-2.455-8.924c-1.634-2.768-4.079-4.978-7.329-6.644c-3.237-1.653-6.828-2.484-10.752-2.484
	c-4.48,0-8.58,1.049-12.278,3.132c-3.709,2.093-6.584,5.089-8.619,8.991c-2.046,3.903-3.064,8.089-3.064,12.561
	c0,4.677,1.018,8.698,3.053,12.073c2.043,3.386,4.989,5.88,8.845,7.494c3.855,1.613,8.118,2.416,12.806,2.416
	c5.02,0,9.215-0.839,12.601-2.534c3.386-1.682,5.917-3.738,7.601-6.154h5.165c-0.978,2.007-2.652,4.06-5.018,6.143
	c-2.368,2.085-5.186,3.738-8.453,4.949c-3.269,1.215-7.211,1.82-11.809,1.82c-4.247,0-8.16-0.548-11.741-1.634
	c-3.588-1.086-6.641-2.72-9.165-4.902c-2.526-2.191-4.422-4.706-5.705-7.544c-1.605-3.609-2.408-7.504-2.408-11.68
	c0-4.645,0.96-9.089,2.867-13.304c2.337-5.165,5.653-9.128,9.95-11.877c4.294-2.749,9.5-4.118,15.625-4.118
	c4.745,0,9.01,0.968,12.787,2.906c3.778,1.938,6.762,4.822,8.932,8.658c1.859,3.298,2.789,6.888,2.789,10.762
	c0,5.537-1.946,10.448-5.842,14.744c-3.483,3.855-7.279,5.784-11.408,5.784c-1.322,0-2.376-0.208-3.192-0.606
	c-0.813-0.401-1.408-0.978-1.788-1.732c-0.255-0.477-0.43-1.311-0.548-2.484L100.632,133.702z M86.719,125.954L86.719,125.954
	c0,2.621,0.627,4.656,1.87,6.104c1.244,1.458,2.663,2.183,4.273,2.183c1.068,0,2.193-0.325,3.386-0.96
	c1.183-0.646,2.318-1.595,3.396-2.856c1.083-1.262,1.964-2.864,2.652-4.803c0.695-1.936,1.036-3.882,1.036-5.839
	c0-2.594-0.646-4.619-1.936-6.046c-1.293-1.437-2.867-2.154-4.716-2.154c-1.223,0-2.376,0.314-3.462,0.931
	c-1.076,0.627-2.122,1.624-3.14,3.003c-1.007,1.369-1.828,3.043-2.437,5.02c-0.617,1.964-0.92,3.775-0.92,5.419L86.719,125.954z"/>
<circle style="fill:#DCE3DB;" cx="435.048" cy="423.5" r="76.949"/>
<path style="fill:#FFFFFF;" d="M435.051,354.764c37.963,0,68.738,30.776,68.738,68.738s-30.776,68.738-68.738,68.738
	s-68.738-30.776-68.738-68.738C366.312,385.537,397.088,354.764,435.051,354.764z"/>
<path style="fill:#FF5B62;" d="M424.601,383.213h20.903v29.84h29.84v20.903h-29.84v29.84h-20.903v-29.84h-29.84v-20.903h29.84
	V383.213z"/>
<g>
</g>
<g>
</g>
<g>
</g>
<g>
</g>
<g>
</g>
<g>
</g>
<g>
</g>
<g>
</g>
<g>
</g>
<g>
</g>
<g>
</g>
<g>
</g>
<g>
</g>
<g>
</g>
<g>
</g>
</svg>
