<?xml version="1.0" encoding="iso-8859-1"?>
<!-- Generator: Adobe Illustrator 19.0.0, SVG Export Plug-In . SVG Version: 6.00 Build 0)  -->
<svg version="1.1" id="Layer_1" xmlns="http://www.w3.org/2000/svg" xmlns:xlink="http://www.w3.org/1999/xlink" x="0px" y="0px"
	 viewBox="0 0 512 512" style="enable-background:new 0 0 512 512;" xml:space="preserve">
<circle style="fill:#FF5B62;" cx="256" cy="256" r="256"/>
<path style="fill:#FFFFFF;" d="M247.149,511.831c-5.216-146.736-11.418-330.325-12.339-357.664
	c-12.448-7.51-20.769-21.162-20.769-36.762c0-23.697,19.209-42.907,42.905-42.907c23.699,0,42.908,19.21,42.908,42.907
	c0,15.6-8.322,29.251-20.768,36.762c-0.922,27.332-7.121,210.865-12.337,357.592c-3.566,0.148-7.146,0.242-10.748,0.242
	C253.036,512,250.089,511.932,247.149,511.831L247.149,511.831z M256.946,99.017c10.156,0,18.391,8.234,18.391,18.389
	c0,10.157-8.235,18.39-18.391,18.39c-10.155,0-18.387-8.233-18.387-18.39C238.558,107.251,246.791,99.017,256.946,99.017z"/>
<path style="fill:#DCE3DB;" d="M279.085,154.167c0,0-8.638,2.71-10.587,3.1s-1.751,354.491-1.751,354.491h0.001v-0.005
	C271.965,365.029,278.164,181.5,279.085,154.167L279.085,154.167z"/>
<path style="fill:#FAD24D;" d="M242.002,479.773c-1.727-1.264-4.048-3.178-5.656-4.643c-1.288-1.173-1.226-1.407-2.39-2.612
	c-5.005-5.175-8.394-11.557-2.65-17.296c3.281-3.275,8.125-6.493,13.513-9.481c8.144-4.519,17.535-8.511,24.654-11.376
	c1.014-0.406,1.983-0.792,2.894-1.153c20.143-7.966,54.648-22.194,60.228-44.943c3.251-13.26-1.134-24.359-7.455-32.468
	c-3.236-4.152-7.172-6.816-10.79-10.256c-3.394-3.23-7.871-5.923-12.078-8.945c-6.554-4.713-18.755-11.692-26.543-15.451
	l-2.284-1.399l-1.101,31.945l2.181,1.128c6.693,3.025,35.389,17.859,32.357,28.732c-1.31,4.7-6.308,8.358-10.089,10.953
	c-7.484,5.138-17.069,9.503-26.329,13.478l-1.232,0.528c-6.568,2.806-16.176,6.704-25.397,11.003
	c-9.138,4.26-17.897,8.912-22.95,13.279c-2.24,1.934-3.892,2.863-5.676,4.832c-1.952,2.155-2.95,2.71-4.844,5.162
	c-5.519,7.149-7.623,14.947-6.775,24.661c1.392,15.998,14.785,26.678,26.529,35.436c2.463,1.836,10.131,6.961,12.97,7.89
	l4.032,2.232l-1.024-28.875C244.744,481.334,243.382,480.547,242.002,479.773L242.002,479.773z M290.676,509.654
	c-7.869,1.066-15.85,1.772-23.929,2.105l0.578-16.284c6.19,3.975,12.404,7.882,18.861,11.45
	C287.973,507.914,288.989,508.425,290.676,509.654z M342.811,201.371c8.224,0.805,18.617,2.163,23.25,8.164
	c3.795,4.915,1.99,4.09-0.911,0.82c-3.641-4.103-15.613-6.571-19.215-6.281c3.365,1.542,6.608,3.151,9.572,5.002
	c2.962,1.85,5.544,5.282,6.261,6.782c0.716,1.499,0.652,1.892-1.109,0.522c-1.761-1.368-2.739-4.368-5.542-5.608
	c-2.805-1.239-11.151-4.628-11.805-5.216c-0.29-0.264-1.294-0.775-2.309-1.264c-6.148,6.703-23.916,10.147-30.574,10.76
	c-21.977,2.02-17.66-5.59-44.79,5.044c-9.044,3.546-17.755,7.818-24.751,12.854c-1.262,0.909-2.33,1.72-3.32,2.508
	c-2.319,1.848-4.195,3.57-7.052,6.134c-7.241,6.505-12.557,13.489-14.098,23.339c-1.681,10.76,4.219,18.034,11.395,24.923
	c3.461,3.318,7.253,5.542,10.197,8.186l1.732,1.062l1.248,36.35l-2.343-1.217l-26.099-16.597l-5.187-4.336
	c-0.779-0.722-1.516-1.347-2.388-2.103l-9.221-9.325c-16.911-21.03-16.355-48.205,0.751-68.755
	c6.37-7.65,13.894-14.589,22.469-20.111l8.316-5.213c3.035-1.724,6.091-3.496,9.16-5.255c4.967-2.844,9.973-5.651,14.988-8.147
	c9.506-4.725,32.476-12.332,41.112-14.54c9.75-2.493,19.643-2.393,31.257,2.548c4.623,1.968,8.133,4.278,11.984,7.05
	C342.227,194.087,343.925,198.045,342.811,201.371L342.811,201.371z"/>
<path style="fill:#FFFFFF;" d="M300.435,189.465c0,0,1.903-4.464,8.097-3.038c6.194,1.424,6.192,4.084,3.621,4.558
	C309.58,191.462,304.911,193.551,300.435,189.465z"/>
<g>
</g>
<g>
</g>
<g>
</g>
<g>
</g>
<g>
</g>
<g>
</g>
<g>
</g>
<g>
</g>
<g>
</g>
<g>
</g>
<g>
</g>
<g>
</g>
<g>
</g>
<g>
</g>
<g>
</g>
</svg>
