<?xml version="1.0" encoding="iso-8859-1"?>
<!-- Generator: Adobe Illustrator 19.0.0, SVG Export Plug-In . SVG Version: 6.00 Build 0)  -->
<svg version="1.1" id="Layer_1" xmlns="http://www.w3.org/2000/svg" xmlns:xlink="http://www.w3.org/1999/xlink" x="0px" y="0px"
	 viewBox="0 0 511.998 511.998" style="enable-background:new 0 0 511.998 511.998;" xml:space="preserve">
<circle style="fill:#FAD24D;" cx="255.999" cy="255.999" r="255.999"/>
<path style="fill:#FF5B62;" d="M357.284,101.282l-26.765,37.492c13.604,12.806,22.117,29.43,25.049,46.99
	c3.519,21.079-1.003,43.5-14.398,62.265c-13.395,18.763-33.132,30.324-54.211,33.842c-21.081,3.519-43.502-1.003-62.265-14.398
	c-18.765-13.397-30.326-33.132-33.845-54.211c-3.519-21.081,1.003-43.502,14.398-62.265c13.397-18.765,33.132-30.326,54.211-33.845
	c17.558-2.932,36.044-0.282,52.577,8.425L338.8,88.085l-14.552-10.39c-4.267-3.045-4.176-7.963,1.658-9.867l43.387-14.155
	c2.006-0.655,4.608-0.509,7.091,1.307c2.527,1.76,3.508,4.17,3.541,6.284l0.706,45.632c0.095,6.138-4.526,7.821-8.793,4.776
	l-14.552-10.39L357.284,101.282z M333.17,189.5c-2.562-15.344-10.978-29.713-24.642-39.467
	c-13.663-9.754-29.986-13.046-45.329-10.484c-15.344,2.562-29.713,10.978-39.467,24.642c-9.754,13.663-13.046,29.986-10.484,45.329
	c2.562,15.343,10.978,29.713,24.642,39.467c13.663,9.752,29.986,13.046,45.329,10.484c15.344-2.562,29.713-10.977,39.467-24.642
	C332.439,221.166,335.732,204.841,333.17,189.5z"/>
<path style="fill:#0F7986;" d="M226.122,448.807l0.035-29.197h18.517c14.733,0,14.733-20.43,0-20.43h-18.492l0.042-34.475
	c18.512-2.518,35.099-11.103,47.687-23.691c15.112-15.109,24.458-35.986,24.458-59.043c0-23.054-9.347-43.932-24.458-59.043
	c-15.112-15.112-35.988-24.458-59.043-24.458c-0.82,0-1.636,0.013-2.445,0.038c-0.057,3.693,0.219,7.382,0.824,11.013
	c0.666,3.98,1.725,7.896,3.166,11.681c16.172,0.403,30.778,7.124,41.44,17.784c11,10.999,17.804,26.198,17.804,42.986
	c0,16.788-6.804,31.985-17.804,42.986c-10.999,10.999-26.198,17.804-42.986,17.804s-31.985-6.804-42.986-17.804
	c-11-11-17.804-26.198-17.804-42.986c0-16.788,6.804-31.985,17.802-42.986c6.125-6.125,13.538-10.939,21.801-14.01
	c-1.224-3.836-2.17-7.752-2.833-11.716c-0.604-3.616-0.97-7.274-1.096-10.943l0.675-0.21c-13.231,4.044-25.067,11.282-34.605,20.822
	c-15.109,15.112-24.456,35.988-24.456,59.043c0,23.056,9.347,43.932,24.458,59.043c12.587,12.587,29.172,21.174,47.689,23.691
	l-0.042,34.473h-18.41c-14.733,0-14.733,20.43-0.002,20.43h18.388l-0.035,29.197C203.309,461.952,225.807,461.99,226.122,448.807z
	 M203.681,199.216c-1.303,0.175-2.597,0.379-3.88,0.611C201.084,199.593,202.378,199.389,203.681,199.216z M194.527,200.967
	c-0.576,0.146-1.149,0.295-1.718,0.45C193.379,201.26,193.953,201.112,194.527,200.967z"/>
<path style="fill:#ED4C54;" d="M357.284,101.282l-26.763,37.492L350.072,95.7L357.284,101.282z"/>
<path style="fill:#076673;" d="M216.688,365.455l9.536-0.75l-0.042,34.475L216.688,365.455z"/>
<g>
</g>
<g>
</g>
<g>
</g>
<g>
</g>
<g>
</g>
<g>
</g>
<g>
</g>
<g>
</g>
<g>
</g>
<g>
</g>
<g>
</g>
<g>
</g>
<g>
</g>
<g>
</g>
<g>
</g>
</svg>
