<?xml version="1.0" encoding="iso-8859-1"?>
<!-- Generator: Adobe Illustrator 19.0.0, SVG Export Plug-In . SVG Version: 6.00 Build 0)  -->
<svg version="1.1" id="Layer_1" xmlns="http://www.w3.org/2000/svg" xmlns:xlink="http://www.w3.org/1999/xlink" x="0px" y="0px"
	 viewBox="0 0 512 512" style="enable-background:new 0 0 512 512;" xml:space="preserve">
<circle style="fill:#21D0C3;" cx="255.998" cy="256" r="255.998"/>
<path style="fill:#FED198;" d="M168.45,15.373c-2.068,23.477-3.671,49.9-2.414,66.536c2.695,35.699,63.885,61.14,42.229,109.552
	c-21.659,48.412-9.999,42.099-1.023,67.73c8.975,25.631,12.952,71.443-8.158,136.751c-15.738,48.681-38.681,75.19-46.064,94.482
	C97.551,466.02,52.393,422.516,25.865,368.236c-3.867-16.413-6.304-30.202-5.693-37.981c0.802-10.233-7.358-26.141-18.198-42.388
	c-1.298-10.443-1.971-21.074-1.971-31.867c0-110.632,70.18-204.866,168.448-240.629v0.001H168.45z"/>
<path style="fill:#FEFEFE;" d="M197.838,221.252c-48.015,5.415-169.794,47.541-197.835,34.753H0
	c0,30.195,5.243,59.165,14.843,86.063c2.591-5.578,5.327-11.807,5.327-11.807l6.818-25.869c0,0,17.354-34.948,64.134-47.034
	c46.78-12.084,105.656-25.816,105.656-25.816l1.058-10.288L197.838,221.252z"/>
<path style="fill:#FED198;" d="M343.183,15.243c4.236,23.61,11.97,53.811,10.971,67.055c-4.73,62.703-31.957,92.405-39.992,138.951
	c-9.355,54.184-4.48,128.52,44.818,269.175l0.06-0.027c1.667-0.735,3.324-1.486,4.972-2.254l0.277-0.13
	c9.36-4.376,18.41-9.302,27.111-14.735l0.064-0.04c8.672-5.419,16.995-11.342,24.928-17.729l0.352-0.284
	c1.34-1.083,2.673-2.181,3.991-3.29l0.478-0.403c4.838-4.092,9.52-8.359,14.038-12.793l0.21-0.203
	c1.173-1.153,2.335-2.321,3.486-3.497l0.697-0.713c1.118-1.151,2.223-2.31,3.316-3.479l0.642-0.69
	c1.114-1.2,2.216-2.405,3.307-3.625l0.476-0.536c2.828-3.18,5.576-6.431,8.244-9.75l0.523-0.648
	c0.968-1.215,1.927-2.438,2.873-3.671l0.771-1.008c0.893-1.173,1.778-2.354,2.648-3.543l0.917-1.257
	c0.877-1.211,1.747-2.427,2.602-3.654l0.671-0.966c0.864-1.251,1.722-2.505,2.564-3.771c0.47-0.708,0.935-1.417,1.4-2.13
	c0.741-1.138,1.473-2.285,2.199-3.433c0.412-0.657,0.826-1.316,1.233-1.975c0.675-1.096,1.34-2.199,2-3.303l1.08-1.827
	c0.653-1.114,1.296-2.234,1.931-3.36l1.069-1.914c0.622-1.12,1.235-2.249,1.841-3.382c0.361-0.677,0.721-1.36,1.078-2.042
	c0.558-1.067,1.109-2.137,1.654-3.213c0.489-0.968,0.972-1.942,1.451-2.917c3.867-16.409,6.398-28.971,5.693-37.977
	c-0.172-2.201,3.631-2.278,9.626-1.376c6.85-23.094,10.54-47.554,10.54-72.874c0-110.769-70.356-205.098-168.818-240.759
	L343.183,15.243z"/>
<path style="fill:#FEFEFE;" d="M314.163,221.252c48.015,5.415,169.794,47.541,197.835,34.753H512
	c0,26.802-4.128,52.641-11.767,76.918c-4.48-0.26-7.937-0.884-8.405-2.664l-6.818-25.869c0,0-17.354-34.948-64.134-47.034
	s-108.229-26.188-108.229-26.188l1.517-9.92L314.163,221.252z"/>
<g>
	<path style="fill:#FFFFFF;" d="M71.933,82.753c1.098-1.169,2.207-2.326,3.324-3.475l10.614,8.017
		c1.18,1.05,1.592,7.369-5.195,1.764L71.933,82.753z M7.892,232.618c-2.015-0.465-6.577,3.446,1.716,5.248l21.147,1.958
		c1.986-0.031,5.246-4.677-2.522-4.677L7.893,232.62L7.892,232.618L7.892,232.618z M44.26,233.588
		c-1.292,0.297-5.935,6.46,5.23,3.66l18.512-6.969c1.778-0.948,2.582-6.444-4.024-3.264L44.26,233.588z M77.491,218.82
		c-1.025,0.82-2.566,8.366,6.191,1.134L97.5,205.618c1.398-1.771-0.646-6.672-5.016-1.246L77.491,218.82z M101.163,191.198
		c-0.624,1.142,1.273,8.652,6.096-1.672c1.627-3.483,6.851-16.316,6.308-19.676c-0.084-0.529-3.182-5.928-5.228,2.454l-7.177,18.891
		L101.163,191.198L101.163,191.198z M110.619,156.09c0,1.922,4.785,6.174,4.785-3.4l-2.414-20.461
		c-0.43-1.816-5.684-4.273-4.079,3.338l1.711,20.523H110.619z M104.088,120.312c0.498,1.198,7.565,4.471,2.487-5.893L95.933,97.772
		c-1.151-1.429-7.007-1.448-2.223,4.796L104.088,120.312z"/>
	<path style="fill:#FFFFFF;" d="M169.561,114.063c-2.761,1.38-0.668,5.607,2.123,4.211c10.301-5.221,21.663-6.491,32.671-3.918
		c3.246,0.78,4.145-3.88,1.209-4.557l-0.122-0.029C193.365,106.927,180.786,108.376,169.561,114.063L169.561,114.063
		L169.561,114.063z M219.284,115.25c-2.846-1.552-4.963,2.664-2.352,4.086c6.473,3.64,12.12,9.075,16.196,15.266
		c1.636,2.571,5.653,0.099,3.951-2.573C232.661,125.257,226.342,119.218,219.284,115.25z M243.335,145.41
		c-0.941-2.824-5.027-1.827-4.577,1.1l0.06,0.25l0.084,0.275c2.051,7.055,2.511,14.453,1.274,21.7l-0.046,0.255
		c-0.494,3.211,4.192,3.762,4.641,0.826c1.437-7.99,0.928-16.349-1.353-24.132l-0.084-0.275H243.335z M240.14,183.851
		c1.395-2.794-2.831-4.883-4.211-2.123c-3.373,6.747-8.226,12.58-14.29,17.075c-2.348,1.878,0.011,5.341,2.586,3.935l0.214-0.141
		c6.681-4.983,11.973-11.289,15.7-18.743L240.14,183.851L240.14,183.851z M211.457,209.63c2.513-0.837,1.841-5.003-1.303-4.52
		l-0.317,0.093c-7.186,2.622-14.513,3.466-21.967,2.633l-0.139-0.015c-3.153-0.243-3.623,4.211-0.565,4.683
		c8.297,0.955,16.442-0.009,24.288-2.87L211.457,209.63z M172.894,208.713c2.926,1.22,4.67-3.162,1.861-4.333
		c-6.8-2.868-13.174-7.571-17.881-13.26c-1.863-2.328-5.64,0.5-3.618,3.025c5.382,6.337,11.962,11.333,19.638,14.569v-0.002H172.894
		z M145.464,181.6c1.158,2.779,5.554,1.074,4.322-1.885c-2.972-6.896-4.35-14.351-3.913-21.854l0.002-0.044
		c0.232-3.018-4.462-3.475-4.705-0.297l-0.004,0.071c-0.441,8.348,0.992,16.336,4.302,24.013L145.464,181.6z M144.103,143.048
		c-0.968,2.906,3.211,4.542,4.429,1.614l0.004-0.013c2.54-7.144,6.703-13.417,12.188-18.633c1.849-1.849-0.062-4.787-2.458-3.915
		c-0.257,0.095-0.58,0.291-0.78,0.489C151.455,128.346,146.902,135.177,144.103,143.048z"/>
	<path style="fill:#FFFFFF;" d="M187.16,251.619c-8.092,0-16.243,1.111-23.991,3.468c-2.403,0.732-3.129,5.711,3.253,3.977
		c13.22-3.592,27.031-3.481,40.302-0.271c1.843,0.445,7.046-3.402-2.271-5.371L187.16,251.619z M221.621,259.056
		c-1.266-0.527-7.631,1.402,0.542,5.477l16.679,11.136c1.178,0.985,8.462,0.518-0.117-6.211l-17.107-10.401L221.621,259.056z
		 M252.055,282.575c-1.198-1.497-6.94-1.371-2.294,4.705l10.299,17.85c0.576,1.38,7.384,4.3,2.639-5.678L252.055,282.575z
		 M268.778,317.211c-0.447-1.936-5.576-4.231-4.176,3.104l1.209,20.652c-0.15,1.933,4.593,6.224,4.877-3.014L268.778,317.211z
		 M268.218,355.682c0.452-1.962-3.049-6.378-5.197,1.184l-8.078,18.73c-0.837,1.367,1.096,7.99,5.691-0.47l7.582-19.445h0.002
		V355.682z M250.489,389.816c1.164-1.455,0.322-7.243-5.296-1.142l-15.487,13.028c-1.145,0.735-3.093,8.187,6.213,1.471
		L250.489,389.816z M219.381,412.437c1.836-0.765,3.142-6.236-3.802-3.552l-20.104,4.857c-1.316,0.119-6.508,5.922,4.866,4.112
		L219.381,412.437z M181.429,418.71c1.88,0.144,5.773-4.145-1.914-4.883l-20.051-4.61c-1.647-0.644-7.399,2.578,1.287,5.452
		L181.429,418.71z M144.679,407.366c2.631,1.674,4.901-2.529,2.394-4.061l-17.771-14.287c-2.276-2.276-5.494,0.941-3.47,3.193
		C131.146,398.031,137.889,403.376,144.679,407.366z M116.892,380.751c0.963,1.517,6.875,2.285,2.697-4.571l-8.255-18.708
		c-0.56-1.783-6.409-4.214-3.651,4.123l9.212,19.155L116.892,380.751L116.892,380.751z M103.958,344.53
		c0.144,1.861,5.104,4.939,4.476-2.697l0.974-20.609c0.306-1.694-3.86-6.927-5.148,2.339L103.958,344.53z M108.584,306.338
		c-0.489,1.473,2.062,7.278,5.41-0.913l9.909-17.471c0.899-1.16-0.099-8.354-5.886,0.124l-9.435,18.26L108.584,306.338
		L108.584,306.338z M129.84,274.278c-1.087,1.087-1.429,7.454,5.241,1.61l16.675-11.225c1.24-0.62,3.882-7.733-5.863-2.214
		L129.84,274.278z"/>
</g>
<g>
</g>
<g>
</g>
<g>
</g>
<g>
</g>
<g>
</g>
<g>
</g>
<g>
</g>
<g>
</g>
<g>
</g>
<g>
</g>
<g>
</g>
<g>
</g>
<g>
</g>
<g>
</g>
<g>
</g>
</svg>
