<?xml version="1.0" encoding="iso-8859-1"?>
<!-- Generator: Adobe Illustrator 19.0.0, SVG Export Plug-In . SVG Version: 6.00 Build 0)  -->
<svg version="1.1" id="Layer_1" xmlns="http://www.w3.org/2000/svg" xmlns:xlink="http://www.w3.org/1999/xlink" x="0px" y="0px"
	 viewBox="0 0 512 512" style="enable-background:new 0 0 512 512;" xml:space="preserve">
<circle style="fill:#0F7986;" cx="256" cy="256" r="256"/>
<path style="fill:#ED4C54;" d="M244.633,281.311V129.695c0-77.046-116.48-77.051-116.48,0v151.616
	C128.153,358.361,244.633,358.357,244.633,281.311z"/>
<path style="fill:#FF5B62;" d="M214.574,78.418c-34.512-17.242-86.417-0.157-86.417,51.282v151.616
	c0,51.44,51.906,68.524,86.417,51.282c11.464-10.3,19.08-25.63,19.08-45.998V124.42c0-20.373-7.616-35.698-19.08-45.998V78.418z"/>
<path style="fill:#EEF3F7;" d="M244.633,281.311v-75.808h-116.48v75.808C128.153,358.361,244.633,358.357,244.633,281.311z"/>
<path style="fill:#FEFEFE;" d="M233.655,286.595v-81.092H128.157v75.808c0,51.44,51.906,68.524,86.417,51.282
	C226.039,322.294,233.655,306.963,233.655,286.595z"/>
<path style="fill:#FF878E;" d="M142.84,205.503h8.291v-84.911c0-2.282-1.861-4.148-4.143-4.148h-0.005
	c-2.282,0-4.148,1.866-4.148,4.148v84.911H142.84z"/>
<path style="fill:#ED4C54;" d="M383.838,230.689v151.616c0,77.046-116.48,77.05-116.48,0V230.689
	C267.358,153.639,383.838,153.644,383.838,230.689z"/>
<path style="fill:#FF5B62;" d="M353.779,433.582c-34.512,17.242-86.417,0.153-86.417-51.282V230.684
	c0-51.435,51.906-68.524,86.417-51.282c11.464,10.3,19.08,25.63,19.08,45.998V387.58c0,20.373-7.616,35.698-19.08,45.998V433.582z"
	/>
<path style="fill:#EEF3F7;" d="M383.838,230.689v75.808h-116.48v-75.808C267.358,153.639,383.838,153.644,383.838,230.689z"/>
<path style="fill:#FEFEFE;" d="M372.86,225.406v81.092H267.362v-75.808c0-51.435,51.906-68.524,86.417-51.282
	C365.244,189.706,372.86,205.037,372.86,225.406z"/>
<path style="fill:#FF878E;" d="M282.045,306.497h8.296v84.911c0,2.282-1.866,4.148-4.143,4.148h-0.005
	c-2.282,0-4.148-1.866-4.148-4.148V306.497z"/>
<rect x="128.16" y="205.499" style="fill:#EEF3F7;" width="116.473" height="3.192"/>
<rect x="267.358" y="306.501" style="fill:#ED4C54;" width="116.473" height="3.192"/>
<g>
</g>
<g>
</g>
<g>
</g>
<g>
</g>
<g>
</g>
<g>
</g>
<g>
</g>
<g>
</g>
<g>
</g>
<g>
</g>
<g>
</g>
<g>
</g>
<g>
</g>
<g>
</g>
<g>
</g>
</svg>
